<svg xmlns="http://www.w3.org/2000/svg" viewBox="0 0 16 16" fill="none">
  <mask id="path-1-outside-1_218_12026" maskUnits="userSpaceOnUse" x="0.333344" y="0.333252" width="16" height="16" fill="black">
    <rect fill="white" x="0.333344" y="0.333252" width="16" height="16"/>
    <path fill-rule="evenodd" clip-rule="evenodd" d="M1.3347 9.52227C1.3347 9.06238 1.33436 8.60248 1.33402 8.1426C1.33323 7.06957 1.33244 5.99661 1.33595 4.92385C1.34096 3.29927 2.38484 1.89092 3.91122 1.473C4.23845 1.38351 4.58822 1.34582 4.92797 1.34411C5.90858 1.33949 6.88911 1.3407 7.8696 1.3419H7.86961C9.159 1.34349 10.4483 1.34508 11.7376 1.33341C13.5261 1.31713 14.9298 2.58803 15.2503 4.17707C15.3017 4.43142 15.3263 4.69562 15.328 4.95511C15.3359 6.23668 15.3334 7.51868 15.3309 8.80025V8.80029V8.80033C15.3271 10.651 14.0453 12.1514 12.2568 12.3968C12.077 12.4216 11.8933 12.4233 11.7113 12.4237C11.1837 12.4248 10.6561 12.4244 10.1286 12.4241H10.1286C9.15164 12.4234 8.17477 12.4227 7.19771 12.431C6.105 12.4404 5.1759 12.8678 4.40373 13.6582C4.26273 13.8026 4.12235 13.9477 3.98197 14.0928L3.98195 14.0928C3.67853 14.4064 3.37507 14.72 3.06518 15.0268C2.50964 15.5774 1.61184 15.3526 1.38603 14.6101C1.34805 14.4855 1.33637 14.3481 1.33595 14.2162C1.33332 12.9865 1.33354 11.7571 1.33375 10.5275L1.33386 9.52142L1.3347 9.52227ZM2.33475 14.2869C2.35968 14.2632 2.38103 14.243 2.40005 14.2251C2.4337 14.1934 2.46003 14.1686 2.48585 14.143L2.77057 13.8587C3.08603 13.5439 3.40145 13.2291 3.71588 12.9128C4.72804 11.8936 5.94305 11.3944 7.36049 11.3986C8.83887 11.4029 10.3173 11.4038 11.7956 11.3986C13.2406 11.3931 14.33 10.2669 14.3317 8.78535L14.3323 8.25969V8.25941C14.3335 7.16373 14.3348 6.06782 14.3283 4.97224C14.3271 4.74486 14.302 4.51235 14.2494 4.2914C13.9948 3.22347 13.0236 2.34995 11.7447 2.35937C10.2132 2.37061 8.68172 2.36866 7.15009 2.3667H7.15006C6.40675 2.36575 5.66342 2.36481 4.92004 2.36537C4.76936 2.36537 4.6166 2.36708 4.46885 2.39277C3.18956 2.61286 2.33475 3.65424 2.33475 4.98937C2.3342 7.0116 2.33438 9.03384 2.33457 11.0561L2.33475 14.0894V14.2869ZM9.99973 5.99698C9.99307 6.32259 9.81937 6.66708 9.45475 6.9089C9.157 7.10624 9.00522 7.36124 8.99717 7.69901C8.99301 7.87178 8.83706 8.00446 8.65836 7.9998C8.47827 7.99514 8.33175 7.85833 8.33536 7.68427C8.34535 7.17632 8.5543 6.75916 9.0005 6.45578C9.28298 6.26388 9.39231 6.01611 9.31184 5.73757C9.22582 5.44041 8.92863 5.25859 8.58066 5.29092C8.27653 5.31911 8.01986 5.56998 7.9996 5.85913C7.99902 5.86717 7.99869 5.87522 7.99835 5.88325L7.99835 5.88328C7.99788 5.89459 7.99741 5.90587 7.99627 5.91706C7.97685 6.09991 7.82811 6.22845 7.64719 6.2194C7.46294 6.21009 7.33224 6.07172 7.33335 5.88706C7.33724 5.2154 7.93605 4.66762 8.66779 4.66659C9.41035 4.66555 9.99751 5.21152 10 5.99723L9.99973 5.99698ZM8.67502 9.33319C8.8581 9.32956 9.00167 9.18009 9 8.99486C8.99833 8.80963 8.85281 8.66631 8.66667 8.66659C8.48415 8.66687 8.33418 8.8155 8.33335 8.99709C8.33251 9.18009 8.49194 9.33682 8.67502 9.33319Z"/>
  </mask>
  <path fill-rule="evenodd" clip-rule="evenodd" d="M1.3347 9.52227C1.3347 9.06238 1.33436 8.60248 1.33402 8.1426C1.33323 7.06957 1.33244 5.99661 1.33595 4.92385C1.34096 3.29927 2.38484 1.89092 3.91122 1.473C4.23845 1.38351 4.58822 1.34582 4.92797 1.34411C5.90858 1.33949 6.88911 1.3407 7.8696 1.3419H7.86961C9.159 1.34349 10.4483 1.34508 11.7376 1.33341C13.5261 1.31713 14.9298 2.58803 15.2503 4.17707C15.3017 4.43142 15.3263 4.69562 15.328 4.95511C15.3359 6.23668 15.3334 7.51868 15.3309 8.80025V8.80029V8.80033C15.3271 10.651 14.0453 12.1514 12.2568 12.3968C12.077 12.4216 11.8933 12.4233 11.7113 12.4237C11.1837 12.4248 10.6561 12.4244 10.1286 12.4241H10.1286C9.15164 12.4234 8.17477 12.4227 7.19771 12.431C6.105 12.4404 5.1759 12.8678 4.40373 13.6582C4.26273 13.8026 4.12235 13.9477 3.98197 14.0928L3.98195 14.0928C3.67853 14.4064 3.37507 14.72 3.06518 15.0268C2.50964 15.5774 1.61184 15.3526 1.38603 14.6101C1.34805 14.4855 1.33637 14.3481 1.33595 14.2162C1.33332 12.9865 1.33354 11.7571 1.33375 10.5275L1.33386 9.52142L1.3347 9.52227ZM2.33475 14.2869C2.35968 14.2632 2.38103 14.243 2.40005 14.2251C2.4337 14.1934 2.46003 14.1686 2.48585 14.143L2.77057 13.8587C3.08603 13.5439 3.40145 13.2291 3.71588 12.9128C4.72804 11.8936 5.94305 11.3944 7.36049 11.3986C8.83887 11.4029 10.3173 11.4038 11.7956 11.3986C13.2406 11.3931 14.33 10.2669 14.3317 8.78535L14.3323 8.25969V8.25941C14.3335 7.16373 14.3348 6.06782 14.3283 4.97224C14.3271 4.74486 14.302 4.51235 14.2494 4.2914C13.9948 3.22347 13.0236 2.34995 11.7447 2.35937C10.2132 2.37061 8.68172 2.36866 7.15009 2.3667H7.15006C6.40675 2.36575 5.66342 2.36481 4.92004 2.36537C4.76936 2.36537 4.6166 2.36708 4.46885 2.39277C3.18956 2.61286 2.33475 3.65424 2.33475 4.98937C2.3342 7.0116 2.33438 9.03384 2.33457 11.0561L2.33475 14.0894V14.2869ZM9.99973 5.99698C9.99307 6.32259 9.81937 6.66708 9.45475 6.9089C9.157 7.10624 9.00522 7.36124 8.99717 7.69901C8.99301 7.87178 8.83706 8.00446 8.65836 7.9998C8.47827 7.99514 8.33175 7.85833 8.33536 7.68427C8.34535 7.17632 8.5543 6.75916 9.0005 6.45578C9.28298 6.26388 9.39231 6.01611 9.31184 5.73757C9.22582 5.44041 8.92863 5.25859 8.58066 5.29092C8.27653 5.31911 8.01986 5.56998 7.9996 5.85913C7.99902 5.86717 7.99869 5.87522 7.99835 5.88325L7.99835 5.88328C7.99788 5.89459 7.99741 5.90587 7.99627 5.91706C7.97685 6.09991 7.82811 6.22845 7.64719 6.2194C7.46294 6.21009 7.33224 6.07172 7.33335 5.88706C7.33724 5.2154 7.93605 4.66762 8.66779 4.66659C9.41035 4.66555 9.99751 5.21152 10 5.99723L9.99973 5.99698ZM8.67502 9.33319C8.8581 9.32956 9.00167 9.18009 9 8.99486C8.99833 8.80963 8.85281 8.66631 8.66667 8.66659C8.48415 8.66687 8.33418 8.8155 8.33335 8.99709C8.33251 9.18009 8.49194 9.33682 8.67502 9.33319Z" fill="white"/>
  <path d="M1.33402 8.1426L1.51402 8.14247L1.33402 8.1426ZM1.3347 9.52227L1.2058 9.64792L1.5147 9.96482V9.52227H1.3347ZM1.33595 4.92385L1.51595 4.92444L1.51595 4.92441L1.33595 4.92385ZM3.91122 1.473L3.86373 1.29938L3.86368 1.29939L3.91122 1.473ZM4.92797 1.34411L4.92712 1.16411L4.92706 1.16411L4.92797 1.34411ZM7.8696 1.3419L7.86938 1.5219H7.8696V1.3419ZM7.86961 1.3419L7.86984 1.1619H7.86961V1.3419ZM11.7376 1.33341L11.7392 1.5134L11.7393 1.5134L11.7376 1.33341ZM15.2503 4.17707L15.0739 4.21267L15.0739 4.21269L15.2503 4.17707ZM15.328 4.95511L15.508 4.954L15.508 4.95395L15.328 4.95511ZM15.3309 8.80025L15.1509 8.79989V8.80025H15.3309ZM15.3309 8.80033L15.5109 8.8007V8.80033H15.3309ZM12.2568 12.3968L12.2324 12.2184L12.2322 12.2185L12.2568 12.3968ZM11.7113 12.4237L11.7117 12.6037H11.7117L11.7113 12.4237ZM10.1286 12.4241L10.1287 12.2441H10.1286V12.4241ZM10.1286 12.4241L10.1284 12.6041H10.1286V12.4241ZM7.19771 12.431L7.19618 12.251H7.19616L7.19771 12.431ZM4.40373 13.6582L4.27497 13.5325L4.27495 13.5325L4.40373 13.6582ZM3.98197 14.0928L3.85261 13.9676L3.85111 13.9692L3.98197 14.0928ZM3.98195 14.0928L4.11131 14.218L4.11281 14.2164L3.98195 14.0928ZM3.06518 15.0268L2.93854 14.8989L2.93846 14.8989L3.06518 15.0268ZM1.38603 14.6101L1.55825 14.5578L1.55821 14.5576L1.38603 14.6101ZM1.33595 14.2162L1.15595 14.2166L1.15595 14.2168L1.33595 14.2162ZM1.33375 10.5275L1.51375 10.5276V10.5275L1.33375 10.5275ZM1.33386 9.52142L1.46276 9.39578L1.15391 9.07893L1.15386 9.5214L1.33386 9.52142ZM2.40005 14.2251L2.52346 14.3562L2.52346 14.3562L2.40005 14.2251ZM2.33475 14.2869H2.15475V14.7067L2.45884 14.4173L2.33475 14.2869ZM2.48585 14.143L2.61275 14.2706L2.61302 14.2704L2.48585 14.143ZM2.77057 13.8587L2.64341 13.7313L2.6434 13.7313L2.77057 13.8587ZM3.71588 12.9128L3.84354 13.0396L3.8436 13.0396L3.71588 12.9128ZM7.36049 11.3986L7.35995 11.5786L7.35997 11.5786L7.36049 11.3986ZM11.7956 11.3986L11.7963 11.5786H11.7963L11.7956 11.3986ZM14.3317 8.78535L14.5117 8.78555V8.78554L14.3317 8.78535ZM14.3323 8.25969L14.5123 8.25989V8.25969H14.3323ZM14.3323 8.25941L14.1523 8.2592V8.25941H14.3323ZM14.3283 4.97224L14.1483 4.97323V4.9733L14.3283 4.97224ZM14.2494 4.2914L14.4246 4.24972L14.4245 4.24966L14.2494 4.2914ZM11.7447 2.35937L11.746 2.53937H11.746L11.7447 2.35937ZM7.15009 2.3667L7.15032 2.1867H7.15009V2.3667ZM7.15006 2.3667L7.14983 2.5467H7.15006V2.3667ZM4.92004 2.36537V2.54537L4.92017 2.54536L4.92004 2.36537ZM4.46885 2.39277L4.49936 2.57016L4.49968 2.57011L4.46885 2.39277ZM2.33475 4.98937L2.51475 4.98941V4.98937H2.33475ZM2.33457 11.0561L2.51457 11.0561V11.0561L2.33457 11.0561ZM2.33475 14.0894H2.51475V14.0894L2.33475 14.0894ZM9.45475 6.9089L9.55419 7.05894L9.55423 7.05891L9.45475 6.9089ZM9.99973 5.99698L10.1225 5.86531L9.828 5.59083L9.81977 5.99329L9.99973 5.99698ZM8.99717 7.69901L9.17712 7.70335L9.17712 7.7033L8.99717 7.69901ZM8.65836 7.9998L8.66304 7.81986L8.66301 7.81986L8.65836 7.9998ZM8.33536 7.68427L8.51532 7.688L8.51533 7.68781L8.33536 7.68427ZM9.0005 6.45578L8.89935 6.30689L8.89929 6.30693L9.0005 6.45578ZM9.31184 5.73757L9.48477 5.68761L9.48474 5.68752L9.31184 5.73757ZM8.58066 5.29092L8.59727 5.47015L8.59731 5.47015L8.58066 5.29092ZM7.9996 5.85913L8.17914 5.87198L8.17916 5.87171L7.9996 5.85913ZM7.99835 5.88325L8.17814 5.89202L8.17819 5.89077L7.99835 5.88325ZM7.99835 5.88328L7.81856 5.87451L7.81851 5.87576L7.99835 5.88328ZM7.99627 5.91706L8.17526 5.93607L8.17535 5.93524L7.99627 5.91706ZM7.64719 6.2194L7.6381 6.39917L7.63819 6.39917L7.64719 6.2194ZM7.33335 5.88706L7.51335 5.88814V5.8881L7.33335 5.88706ZM8.66779 4.66659L8.66754 4.48659H8.66754L8.66779 4.66659ZM10 5.99723L9.87728 6.1289L10.1813 6.41232L10.18 5.99666L10 5.99723ZM8.66667 8.66659L8.6664 8.48659H8.6664L8.66667 8.66659ZM8.33335 8.99709L8.15335 8.99627V8.99627L8.33335 8.99709ZM1.15402 8.14273C1.15436 8.60263 1.1547 9.06246 1.1547 9.52227H1.5147C1.5147 9.0623 1.51436 8.60234 1.51402 8.14247L1.15402 8.14273ZM1.15595 4.92326C1.15244 5.99644 1.15323 7.06976 1.15402 8.14273L1.51402 8.14247C1.51323 7.06938 1.51244 5.99677 1.51595 4.92444L1.15595 4.92326ZM3.86368 1.29939C2.25549 1.73971 1.16119 3.22181 1.15595 4.9233L1.51595 4.92441C1.52072 3.37672 2.51419 2.04213 3.95875 1.64661L3.86368 1.29939ZM4.92706 1.16411C4.57533 1.16589 4.20939 1.20484 3.86373 1.29938L3.9587 1.64662C4.26751 1.56217 4.6011 1.52576 4.92888 1.52411L4.92706 1.16411ZM7.86983 1.1619C6.88943 1.1607 5.90836 1.15949 4.92712 1.16411L4.92882 1.52411C5.90881 1.51949 6.8888 1.5207 7.86938 1.5219L7.86983 1.1619ZM7.86961 1.1619H7.8696V1.5219H7.86961V1.1619ZM11.736 1.15341C10.4478 1.16508 9.15938 1.16349 7.86984 1.1619L7.86939 1.5219C9.15862 1.52349 10.4489 1.52508 11.7392 1.5134L11.736 1.15341ZM15.4268 4.14148C15.0901 2.47261 13.6156 1.13631 11.736 1.15341L11.7393 1.5134C13.4367 1.49796 14.7694 2.70344 15.0739 4.21267L15.4268 4.14148ZM15.508 4.95395C15.5062 4.68413 15.4806 4.4083 15.4268 4.14146L15.0739 4.21269C15.1227 4.45454 15.1464 4.70712 15.148 4.95627L15.508 4.95395ZM15.5109 8.8006C15.5134 7.51915 15.5159 6.23642 15.508 4.954L15.148 4.95622C15.1559 6.23694 15.1534 7.5182 15.1509 8.79989L15.5109 8.8006ZM15.5109 8.80029V8.80025H15.1509V8.80029H15.5109ZM15.5109 8.80033V8.80029H15.1509V8.80033H15.5109ZM12.2813 12.5751C14.1623 12.3171 15.507 10.7376 15.5109 8.8007L15.1509 8.79997C15.1473 10.5644 13.9284 11.9858 12.2324 12.2184L12.2813 12.5751ZM11.7117 12.6037C11.8928 12.6033 12.0879 12.6018 12.2815 12.5751L12.2322 12.2185C12.066 12.2414 11.8938 12.2433 11.7109 12.2437L11.7117 12.6037ZM10.1285 12.6041C10.656 12.6044 11.1838 12.6048 11.7117 12.6037L11.711 12.2437C11.1836 12.2448 10.6563 12.2444 10.1287 12.2441L10.1285 12.6041ZM10.1286 12.6041H10.1286V12.2441H10.1286V12.6041ZM7.19925 12.611C8.17533 12.6027 9.15138 12.6034 10.1284 12.6041L10.1287 12.2441C9.15191 12.2434 8.1742 12.2427 7.19618 12.251L7.19925 12.611ZM4.53249 13.784C5.274 13.025 6.15839 12.62 7.19926 12.611L7.19616 12.251C6.0516 12.2609 5.07779 12.7106 4.27497 13.5325L4.53249 13.784ZM4.11133 14.2179C4.25176 14.0728 4.39185 13.928 4.53251 13.784L4.27495 13.5325C4.13362 13.6772 3.99295 13.8226 3.85262 13.9676L4.11133 14.2179ZM4.11281 14.2164L4.11283 14.2164L3.85111 13.9692L3.85108 13.9692L4.11281 14.2164ZM3.19182 15.1547C3.50331 14.8463 3.80811 14.5313 4.1113 14.218L3.85259 13.9676C3.54895 14.2814 3.24683 14.5936 2.93854 14.8989L3.19182 15.1547ZM1.21382 14.6625C1.47952 15.5362 2.54118 15.7996 3.19189 15.1546L2.93846 14.8989C2.47809 15.3553 1.74416 15.1691 1.55825 14.5578L1.21382 14.6625ZM1.15595 14.2168C1.15639 14.3571 1.16863 14.5142 1.21386 14.6626L1.55821 14.5576C1.52748 14.4568 1.51634 14.339 1.51595 14.2156L1.15595 14.2168ZM1.15375 10.5275C1.15354 11.757 1.15332 12.9866 1.15595 14.2166L1.51595 14.2158C1.51332 12.9864 1.51354 11.7572 1.51375 10.5276L1.15375 10.5275ZM1.15386 9.5214L1.15375 10.5275L1.51375 10.5275L1.51386 9.52144L1.15386 9.5214ZM1.46359 9.39663L1.46276 9.39578L1.20496 9.64706L1.2058 9.64792L1.46359 9.39663ZM2.27663 14.0941C2.25762 14.112 2.23596 14.1324 2.21066 14.1565L2.45884 14.4173C2.48339 14.3939 2.50444 14.3741 2.52346 14.3562L2.27663 14.0941ZM2.35894 14.0153C2.33517 14.0389 2.31069 14.062 2.27663 14.0941L2.52346 14.3562C2.55671 14.3248 2.58489 14.2983 2.61275 14.2706L2.35894 14.0153ZM2.6434 13.7313L2.35868 14.0156L2.61302 14.2704L2.89774 13.9861L2.6434 13.7313ZM3.58822 12.7859C3.27408 13.1019 2.95891 13.4164 2.64341 13.7313L2.89772 13.9861C3.21314 13.6713 3.52881 13.3563 3.84354 13.0396L3.58822 12.7859ZM7.36104 11.2186C5.89548 11.2142 4.63427 11.7326 3.58817 12.7859L3.8436 13.0396C4.82181 12.0547 5.99062 11.5745 7.35995 11.5786L7.36104 11.2186ZM11.795 11.2186C10.3171 11.2238 8.83912 11.2229 7.36101 11.2186L7.35997 11.5786C8.83862 11.5829 10.3174 11.5838 11.7963 11.5786L11.795 11.2186ZM14.1517 8.78514C14.1501 10.1725 13.1361 11.2135 11.7949 11.2186L11.7963 11.5786C13.3451 11.5727 14.5099 10.3614 14.5117 8.78555L14.1517 8.78514ZM14.1523 8.2595L14.1517 8.78515L14.5117 8.78554L14.5123 8.25989L14.1523 8.2595ZM14.1523 8.25941V8.25969H14.5123V8.25941H14.1523ZM14.1483 4.9733C14.1548 6.06815 14.1535 7.16341 14.1523 8.2592L14.5123 8.25962C14.5135 7.16405 14.5148 6.0675 14.5083 4.97117L14.1483 4.9733ZM14.0743 4.33308C14.1234 4.53926 14.1471 4.758 14.1483 4.97323L14.5083 4.97125C14.507 4.73173 14.4807 4.48544 14.4246 4.24972L14.0743 4.33308ZM11.746 2.53937C12.9367 2.53059 13.8382 3.34243 14.0744 4.33315L14.4245 4.24966C14.1515 3.10452 13.1104 2.16931 11.7434 2.17938L11.746 2.53937ZM7.14986 2.5467C8.68136 2.54866 10.2136 2.55062 11.746 2.53937L11.7434 2.17937C10.2128 2.19061 8.68208 2.18866 7.15032 2.1867L7.14986 2.5467ZM7.15006 2.5467H7.15009V2.1867H7.15006V2.5467ZM4.92017 2.54536C5.66334 2.54481 6.40649 2.54575 7.14983 2.5467L7.15029 2.1867C6.40701 2.18575 5.6635 2.18481 4.9199 2.18537L4.92017 2.54536ZM4.49968 2.57011C4.63023 2.54741 4.76856 2.54536 4.92004 2.54536V2.18536C4.77016 2.18536 4.60297 2.18675 4.43801 2.21543L4.49968 2.57011ZM2.51475 4.98937C2.51475 3.73794 3.31027 2.77474 4.49936 2.57016L4.43833 2.21538C3.06885 2.45099 2.15475 3.57054 2.15475 4.98937H2.51475ZM2.51457 11.0561C2.51438 9.03382 2.5142 7.01162 2.51475 4.98941L2.15475 4.98932C2.1542 7.01159 2.15438 9.03386 2.15457 11.0561L2.51457 11.0561ZM2.51475 14.0894L2.51457 11.0561L2.15457 11.0561L2.15475 14.0895L2.51475 14.0894ZM2.51475 14.2869V14.0894H2.15475V14.2869H2.51475ZM9.55423 7.05891C9.9642 6.78701 10.1717 6.38976 10.1797 6.00066L9.81977 5.99329C9.81441 6.25542 9.67453 6.54715 9.35526 6.75889L9.55423 7.05891ZM9.17712 7.7033C9.18362 7.43049 9.30013 7.22732 9.55419 7.05894L9.35531 6.75886C9.01387 6.98516 8.82681 7.292 8.81722 7.69473L9.17712 7.7033ZM8.65367 8.17974C8.91772 8.18662 9.17023 7.98923 9.17712 7.70335L8.81722 7.69468C8.81578 7.75433 8.75639 7.82229 8.66304 7.81986L8.65367 8.17974ZM8.1554 7.68054C8.14945 7.96751 8.38907 8.1729 8.6537 8.17974L8.66301 7.81986C8.56746 7.81739 8.51405 7.74915 8.51532 7.688L8.1554 7.68054ZM8.89929 6.30693C8.40297 6.64438 8.16649 7.11674 8.15539 7.68073L8.51533 7.68781C8.52421 7.23591 8.70562 6.87393 9.1017 6.60464L8.89929 6.30693ZM9.13891 5.78753C9.16849 5.88991 9.16173 5.97812 9.12725 6.0573C9.09165 6.13903 9.02044 6.22463 8.89935 6.30689L9.10165 6.60468C9.26304 6.49504 9.38773 6.3608 9.45731 6.20104C9.52799 6.03872 9.53566 5.86378 9.48477 5.68761L9.13891 5.78753ZM8.59731 5.47015C8.87513 5.44433 9.0811 5.58781 9.13894 5.78762L9.48474 5.68752C9.37054 5.293 8.98213 5.07284 8.56401 5.11169L8.59731 5.47015ZM8.17916 5.87171C8.19276 5.6775 8.3738 5.49086 8.59727 5.47015L8.56405 5.11169C8.17926 5.14735 7.84695 5.46246 7.82004 5.84655L8.17916 5.87171ZM8.17819 5.89077C8.17855 5.88229 8.17879 5.87692 8.17914 5.87198L7.82006 5.84627C7.81926 5.85743 7.81883 5.86815 7.81851 5.87573L8.17819 5.89077ZM8.17814 5.89205L8.17814 5.89202L7.81856 5.87448L7.81856 5.87451L8.17814 5.89205ZM8.17535 5.93524C8.17712 5.91784 8.17776 5.9012 8.17819 5.8908L7.81851 5.87576C7.818 5.88798 7.8177 5.8939 7.81719 5.89888L8.17535 5.93524ZM7.63819 6.39917C7.91647 6.41309 8.14596 6.21193 8.17526 5.93607L7.81728 5.89805C7.80773 5.98788 7.73976 6.0438 7.65618 6.03962L7.63819 6.39917ZM7.15335 5.88598C7.15167 6.16682 7.35757 6.38499 7.6381 6.39917L7.65627 6.03963C7.56831 6.03518 7.51282 5.97662 7.51335 5.88814L7.15335 5.88598ZM8.66754 4.48659C7.85152 4.48774 7.15789 5.10144 7.15335 5.88602L7.51335 5.8881C7.51658 5.32936 8.02059 4.8475 8.66804 4.84659L8.66754 4.48659ZM10.18 5.99666C10.1772 5.10863 9.50632 4.48542 8.66754 4.48659L8.66804 4.84659C9.31437 4.84569 9.81784 5.31441 9.82001 5.99781L10.18 5.99666ZM9.877 6.12864L9.87728 6.1289L10.1227 5.86557L10.1225 5.86531L9.877 6.12864ZM8.82 8.99648C8.8208 9.08499 8.75397 9.15159 8.67145 9.15322L8.67859 9.51315C8.96222 9.50753 9.18253 9.27518 9.17999 8.99324L8.82 8.99648ZM8.66694 8.84659C8.755 8.84645 8.81923 8.91093 8.82 8.99648L9.17999 8.99324C9.17742 8.70833 8.95062 8.48616 8.6664 8.48659L8.66694 8.84659ZM8.51334 8.99792C8.51372 8.91624 8.58246 8.84671 8.66695 8.84659L8.6664 8.48659C8.38584 8.48702 8.15464 8.71475 8.15335 8.99627L8.51334 8.99792ZM8.67145 9.15322C8.58924 9.15486 8.51297 9.07955 8.51334 8.99792L8.15335 8.99627C8.15205 9.28063 8.39463 9.51879 8.67859 9.51315L8.67145 9.15322Z" fill="white" mask="url(#path-1-outside-1_218_12026)"/>
</svg>