<svg xmlns="http://www.w3.org/2000/svg" viewBox="0 0 75 75" fill="none">
  <path fill-rule="evenodd" clip-rule="evenodd" d="M0.0839844 42.8409V48.1617C0.125226 48.4933 0.167424 48.8246 0.209613 49.1559C0.27878 49.6989 0.347921 50.2418 0.412777 50.7854C1.44803 59.6431 4.81149 67.5276 10.4898 74.3791C17.119 82.3658 25.5321 87.5489 35.6758 89.8171C37.0916 90.1343 38.5389 90.3131 39.9861 90.4919C40.678 90.5774 41.3699 90.6629 42.0583 90.7635C42.2337 90.789 42.407 90.8266 42.5796 90.8641C42.6629 90.8821 42.7461 90.9002 42.8292 90.9168H48.1499C48.3647 90.8895 48.5795 90.8619 48.7943 90.8343C49.4527 90.7497 50.1114 90.6651 50.7713 90.588C59.6332 89.5505 67.522 86.1848 74.3711 80.4974C82.3621 73.8614 87.5272 65.4415 89.8243 55.2953C90.8885 50.5899 91.195 45.8201 90.6796 41.0281C89.4955 30.0133 84.9524 20.5958 77.0014 12.8668C71.1809 7.2061 64.2985 3.41157 56.4208 1.43433C52.182 0.370172 47.8722 -0.0808169 43.509 0.136902C34.0096 0.610108 25.4388 3.6915 17.8877 9.4966C11.0208 14.7729 6.05779 21.4867 2.97647 29.5756C1.68796 32.9525 0.843762 36.4471 0.428328 40.0417C0.350574 40.7082 0.267153 41.3746 0.183732 42.0411C0.150362 42.3077 0.116992 42.5743 0.0839844 42.8409ZM5.7601 45.4469C5.80453 23.5572 23.6304 5.75983 45.5018 5.76871C67.4109 5.7776 85.2701 23.6639 85.2235 45.5557C85.179 67.4454 67.3531 85.2428 45.4818 85.2339C23.5727 85.225 5.71344 67.3388 5.7601 45.4469ZM40.9236 65.4775C41.3289 65.5844 41.7393 65.6926 42.156 65.8049L42.1586 65.8026V66.7725C42.1594 67.0011 42.1566 67.2298 42.1539 67.4585C42.1475 67.9921 42.1411 68.5255 42.1796 69.0555C42.2921 70.6064 43.7374 71.7845 45.4812 71.7936C47.225 71.8028 48.6834 70.6361 48.8274 69.0944C48.8605 68.758 48.856 68.4191 48.8515 68.0795C48.8499 67.9619 48.8484 67.8441 48.8484 67.7264V65.8438C49.3729 65.6913 49.8852 65.5507 50.3868 65.4129C51.4428 65.123 52.4515 64.8461 53.4278 64.4987C55.9859 63.5906 58.1852 62.2067 59.84 60.2554C62.2148 57.4509 62.9034 54.3605 61.555 51.0299C60.6831 48.8773 59.0833 47.1686 57.0018 45.8029C53.865 43.7441 50.2911 42.8017 46.4133 42.589C46.3415 42.585 46.2696 42.5811 46.1976 42.5772C44.8485 42.5037 43.484 42.4295 42.1691 42.1841C39.9095 41.7609 37.896 40.8733 36.4847 39.192C35.5526 38.0826 35.1442 36.8496 35.7281 35.5C36.126 34.5758 36.7597 33.782 37.6656 33.169C40.8573 31.0096 44.4627 30.5383 48.3352 31.1743C50.2884 31.4945 51.9877 32.2654 53.5666 33.3245C55.0747 34.3379 57.096 34.0337 58.2036 32.7481C59.2902 31.4877 59.0597 29.7995 57.6197 28.7449C56.1718 27.6835 54.5877 26.8005 52.7837 26.2698C51.8949 26.0089 50.9973 25.7712 50.0741 25.5267C49.67 25.4197 49.261 25.3114 48.8457 25.1993V24.2271C48.845 23.9985 48.8477 23.7698 48.8505 23.541C48.8569 23.0075 48.8633 22.4741 48.8248 21.9442C48.7122 20.3932 47.2669 19.2152 45.5231 19.206C43.7793 19.1969 42.3209 20.3635 42.1769 21.9053C42.1439 22.2417 42.1484 22.5806 42.1529 22.9201C42.1544 23.0378 42.156 23.1555 42.156 23.2732V25.2519C41.9938 25.29 41.8456 25.3265 41.7063 25.3609C41.4272 25.4298 41.1839 25.4898 40.9359 25.5356C37.9065 26.0914 35.2384 27.2809 32.9238 29.0675C29.6353 31.6066 27.6218 35.7287 29.4808 40.0544C30.769 43.0487 33.2747 45.1075 36.4716 46.5555C39.1423 47.7656 42.0067 48.3489 45.0073 48.4084C46.9737 48.4473 48.8955 48.6509 50.7205 49.3303C52.2129 49.8884 53.5639 50.625 54.5196 51.8053C55.5774 53.1161 55.8995 54.4932 55.0223 56.0006C54.4018 57.0712 53.4854 57.8878 52.3255 58.4734C48.453 60.427 44.4103 60.6237 40.2944 59.1574C39.481 58.8684 38.7337 58.4208 37.9925 57.9768C37.8128 57.8692 37.6334 57.7617 37.4535 57.6568C35.8694 56.7304 33.9109 56.966 32.8008 58.2515C31.7116 59.512 31.9394 61.2002 33.3794 62.2547C34.83 63.3161 36.4088 64.2037 38.2128 64.7344C39.101 64.9967 39.9993 65.2337 40.9236 65.4775Z" fill="#232735" fill-opacity="0.51"/>
</svg>