<svg xmlns="http://www.w3.org/2000/svg" viewBox="0 0 14 14" fill="none">
    <path fill-rule="evenodd" clip-rule="evenodd" d="M9.52683 1.701C10.2002 1.969 10.4062 2.90233 10.6815 3.20233C10.9568 3.50233 11.3508 3.60433 11.5688 3.60433C12.7275 3.60433 13.6668 4.54367 13.6668 5.70167V9.565C13.6668 11.1183 12.4068 12.3783 10.8535 12.3783H4.14683C2.59283 12.3783 1.3335 11.1183 1.3335 9.565V5.70167C1.3335 4.54367 2.27283 3.60433 3.4315 3.60433C3.64883 3.60433 4.04283 3.50233 4.31883 3.20233C4.59416 2.90233 4.7995 1.969 5.47283 1.701C6.14683 1.433 8.8535 1.433 9.52683 1.701Z" stroke="white" stroke-width="1.5" stroke-linecap="round" stroke-linejoin="round"/>
    <path fill-rule="evenodd" clip-rule="evenodd" d="M9.61928 7.75215C9.61928 6.58148 8.67062 5.63281 7.49995 5.63281C6.32928 5.63281 5.38062 6.58148 5.38062 7.75215C5.38062 8.92281 6.32928 9.87148 7.49995 9.87148C8.67062 9.87148 9.61928 8.92281 9.61928 7.75215Z" stroke="white" stroke-width="1.5" stroke-linecap="round" stroke-linejoin="round"/>
  </svg>