<svg xmlns="http://www.w3.org/2000/svg" viewBox="0 0 16 16" fill="none">
  <path d="M15.9996 5.46039C15.9284 5.7863 15.8348 6.09885 15.627 6.36334C15.3816 6.67547 15.0857 6.894 14.7154 6.99929C14.6676 7.01308 14.603 7.06866 14.5944 7.11504C14.3283 8.57539 14.0562 10.0353 13.8155 11.5007C13.7541 11.8734 13.7936 12.2653 13.7893 12.6489C13.7862 12.9213 13.7936 13.1938 13.7854 13.4662C13.7764 13.7654 13.5814 13.9735 13.3028 13.9973C13.2562 14.001 13.2092 13.9998 13.1622 13.9998C9.71975 13.9998 6.27726 13.9998 2.83438 13.9998C2.79798 13.9998 2.76158 14.0006 2.72518 13.999C2.42183 13.9843 2.2179 13.7725 2.21203 13.4478C2.20499 13.0642 2.19364 12.6798 2.21321 12.2971C2.24452 11.6837 2.12397 11.0929 2.01672 10.4987C1.82218 9.41943 1.62569 8.34014 1.44016 7.25877C1.4112 7.08996 1.35092 7.0181 1.19436 6.96211C0.510555 6.71683 0.0972213 6.20205 0.0134586 5.43657C-0.0667813 4.70284 0.214254 4.11327 0.790025 3.71674C1.36932 3.31728 1.98423 3.3152 2.57605 3.69459C3.57102 4.33222 3.67749 5.79967 2.79798 6.60903C2.78232 6.62324 2.76119 6.63034 2.72322 6.65207C3.43755 7.27131 4.12644 7.86882 4.8306 8.4797C5.60599 7.44764 6.37629 6.42184 7.15403 5.38643C6.6495 5.025 6.33559 4.5495 6.30701 3.89181C6.28392 3.36158 6.4534 2.90905 6.79628 2.53258C7.46051 1.80345 8.59757 1.83353 9.23166 2.55807C9.84775 3.26255 9.96321 4.59964 8.82968 5.40273C9.5491 6.42267 10.2677 7.44179 11.0009 8.48137C11.7469 7.87174 12.4882 7.26629 13.2386 6.65332C12.9384 6.3717 12.7321 6.04327 12.644 5.63337C12.4851 4.89045 12.7963 4.10157 13.4182 3.69334C14.0292 3.29221 14.8097 3.34862 15.3585 3.83081C15.6888 4.12079 15.9021 4.48306 15.9738 4.93642C15.9769 4.95647 15.991 4.97444 16 4.99366V5.46081L15.9996 5.46039ZM13.412 7.88846C13.3376 7.94654 13.291 7.98122 13.246 8.01799C12.5927 8.55157 11.9402 9.08599 11.2866 9.61873C10.9586 9.88615 10.6901 9.84729 10.4431 9.49756C9.65948 8.38861 8.87665 7.27883 8.09304 6.16946C8.05937 6.12183 8.02454 6.07587 7.98579 6.02322C7.95056 6.06793 7.92316 6.10094 7.89733 6.1352C7.05383 7.25835 6.21072 8.38151 5.36762 9.50466C5.10654 9.85231 4.83686 9.88365 4.50964 9.60119C3.9186 9.09058 3.32913 8.57873 2.73849 8.06771C2.70208 8.03637 2.66373 8.00712 2.59679 7.95322C2.78154 8.98445 2.95807 9.9693 3.13499 10.9562H12.8624C13.0444 9.93964 13.2249 8.93264 13.412 7.88846ZM12.7654 12.0702H3.23245V12.8967H12.7657L12.7654 12.0702ZM8.00184 3.08705C7.62921 3.0858 7.3243 3.4042 7.31882 3.79989C7.31373 4.19099 7.61942 4.52359 7.98853 4.52819C8.36703 4.53278 8.68016 4.2052 8.67977 3.80574C8.67938 3.41172 8.37407 3.08789 8.00223 3.08664L8.00184 3.08705ZM1.69537 4.51983C1.32078 4.52066 1.0237 4.83781 1.02292 5.2381C1.02213 5.63755 1.32 5.95971 1.69184 5.9618C2.07073 5.9643 2.37682 5.63755 2.37447 5.2335C2.37173 4.83655 2.06956 4.51899 1.69537 4.51983ZM14.3146 4.52025C13.9388 4.51398 13.6323 4.82527 13.6241 5.22096C13.6159 5.62585 13.9169 5.95887 14.2946 5.9618C14.668 5.96472 14.9706 5.64883 14.9753 5.25063C14.98 4.8495 14.688 4.52651 14.3146 4.52025Z" fill="white"/>
</svg>