<svg xmlns="http://www.w3.org/2000/svg" viewBox="0 0 16 16" fill="none">
  <path d="M12.7695 6.35742C12.7695 6.35742 12.4173 10.7262 12.213 12.5665C12.1157 13.4455 11.5727 13.9605 10.6834 13.9767C8.99101 14.0072 7.29668 14.0092 5.60494 13.9735C4.74934 13.956 4.21548 13.4345 4.12012 12.5711C3.91449 10.7146 3.56421 6.35742 3.56421 6.35742" stroke="white" stroke-width="1.5" stroke-linecap="round" stroke-linejoin="round"/>
  <path d="M13.6669 4.2633H2.66666" stroke="white" stroke-width="1.5" stroke-linecap="round" stroke-linejoin="round"/>
  <path d="M11.5473 4.26322C11.0381 4.26322 10.5995 3.90321 10.4997 3.40438L10.342 2.61559C10.2447 2.25169 9.9152 2 9.53961 2H6.79378C6.4182 2 6.08867 2.25169 5.99137 2.61559L5.83374 3.40438C5.73385 3.90321 5.29534 4.26322 4.78613 4.26322" stroke="white" stroke-width="1.5" stroke-linecap="round" stroke-linejoin="round"/>
</svg>