<svg xmlns="http://www.w3.org/2000/svg" viewBox="0 0 17 17" fill="none">
  <path d="M6.91375 10.1764C6.50646 9.76986 6.25854 9.21736 6.25854 8.59756C6.25854 7.35586 7.25871 6.35498 8.49971 6.35498C9.11384 6.35498 9.67909 6.60361 10.0793 7.01019" stroke="#D7D7D7" stroke-width="1.5" stroke-linecap="round" stroke-linejoin="round"/>
  <path d="M10.6991 8.99512C10.5348 9.90887 9.81514 10.63 8.9021 10.7957" stroke="#D7D7D7" stroke-width="1.5" stroke-linecap="round" stroke-linejoin="round"/>
  <path d="M4.71367 12.3762C3.58955 11.4936 2.63755 10.2045 1.94763 8.59727C2.64463 6.98298 3.60301 5.68673 4.73422 4.79707C5.85834 3.9074 7.1553 3.42432 8.49972 3.42432C9.85192 3.42432 11.1482 3.91448 12.2794 4.81052" stroke="#D7D7D7" stroke-width="1.5" stroke-linecap="round" stroke-linejoin="round"/>
  <path d="M13.7755 6.36865C14.2628 7.01607 14.6913 7.76336 15.0519 8.59707C13.6586 11.8249 11.1964 13.7693 8.4998 13.7693C7.88851 13.7693 7.28572 13.6702 6.7063 13.4768" stroke="#D7D7D7" stroke-width="1.5" stroke-linecap="round" stroke-linejoin="round"/>
  <path d="M14.0866 3.01025L2.91333 14.1835" stroke="#D7D7D7" stroke-width="1.5" stroke-linecap="round" stroke-linejoin="round"/>
</svg>