<svg xmlns="http://www.w3.org/2000/svg" viewBox="0 0 16 16" fill="none">
  <path fill-rule="evenodd" clip-rule="evenodd" d="M2.16786 2.28737C2.89164 1.51087 3.91728 1.0835 5.11007 1.0835H10.8894C12.0847 1.0835 13.1109 1.51054 13.8345 2.28765C14.5524 3.05872 14.9167 4.1136 14.9167 5.2775V10.7228C14.9167 11.8867 14.5524 12.9416 13.8343 13.7127C13.1106 14.4898 12.0843 14.9168 10.8887 14.9168H5.11007C3.91477 14.9168 2.88872 14.4898 2.16527 13.7126C1.44747 12.9415 1.0834 11.8866 1.0834 10.7228V5.2775C1.0834 4.11277 1.44953 3.05802 2.16786 2.28737ZM3.26512 3.31012C2.84861 3.75697 2.5834 4.42422 2.5834 5.2775V10.7228C2.5834 11.577 2.84767 12.2442 3.2632 12.6906C3.67309 13.1309 4.28538 13.4168 5.11007 13.4168H10.8887C11.7139 13.4168 12.3265 13.1308 12.7366 12.6904C13.1524 12.244 13.4167 11.5769 13.4167 10.7228V5.2775C13.4167 4.42339 13.1524 3.75627 12.7367 3.30984C12.3266 2.86945 11.7141 2.5835 10.8894 2.5835H5.11007C4.28886 2.5835 3.67617 2.86913 3.26512 3.31012ZM7.99649 7.25016C8.4107 7.25016 8.74649 7.58595 8.74649 8.00016V10.6668C8.74649 11.081 8.4107 11.4168 7.99649 11.4168C7.58228 11.4168 7.24649 11.081 7.24649 10.6668V8.00016C7.24649 7.58595 7.58228 7.25016 7.99649 7.25016ZM7.99328 4.46956C7.44099 4.46956 6.99328 4.91728 6.99328 5.46956C6.99328 6.02185 7.44099 6.46956 7.99328 6.46956H7.99995C8.55223 6.46956 8.99995 6.02185 8.99995 5.46956C8.99995 4.91728 8.55223 4.46956 7.99995 4.46956H7.99328Z" fill="white"/>
</svg>