<svg xmlns="http://www.w3.org/2000/svg" viewBox="0 0 16 16" fill="none">
  <path d="M2.84823 5.29552L2.84828 5.29541C2.86971 5.25386 2.8834 5.24503 2.88906 5.24228C2.89576 5.23903 2.91248 5.23406 2.96025 5.24106L2.97474 5.14211L2.96012 5.24104C3.38456 5.30374 3.81036 5.35662 4.23483 5.40934L4.23527 5.4094L2.84823 5.29552ZM2.84823 5.29552C2.48707 5.99381 2.27234 6.73233 2.20518 7.5136H4.66478L4.88577 5.48105M2.84823 5.29552L4.88577 5.48105M4.88577 5.48105C4.84959 5.47723 4.81303 5.47341 4.77616 5.46956C4.60022 5.45116 4.41729 5.43204 4.23529 5.4094L4.88577 5.48105ZM10.947 11.457L10.9471 11.4571C11.1397 11.4832 11.3375 11.5018 11.5328 11.5202C11.6644 11.5326 11.795 11.5449 11.922 11.5593L11.9333 11.46L11.9221 11.5593C12.0972 11.5792 12.271 11.6034 12.4543 11.6289C12.4807 11.6325 12.5073 11.6362 12.5341 11.64C11.8454 12.4848 11.0102 13.0848 9.99303 13.4625C10.0027 13.4479 10.0123 13.4334 10.0218 13.4189C10.0218 13.4189 10.0218 13.4189 10.0218 13.4189L9.93822 13.364L10.947 11.457ZM10.947 11.457C10.9179 11.453 10.9003 11.4537 10.89 11.4554C10.8813 11.4569 10.8788 11.4589 10.878 11.4596L10.878 11.4596C10.8728 11.4638 10.8607 11.479 10.8429 11.5408L10.947 11.457ZM9.90555 11.3822C8.63464 11.3062 7.37821 11.3039 6.09668 11.3823C6.1058 11.4091 6.11481 11.4357 6.12374 11.4621C6.17694 11.6192 6.22738 11.7682 6.28249 11.9163C6.489 12.471 6.75504 12.9821 7.17092 13.3942C7.29357 13.5157 7.43855 13.6236 7.59022 13.7076L7.59027 13.7076C7.87443 13.8652 8.16395 13.8522 8.45303 13.6881L8.45316 13.6881C8.70288 13.5469 8.91052 13.3588 9.07504 13.1238C9.44869 12.5895 9.72559 12.0087 9.90555 11.3822ZM8.50238 13.7751C8.18621 13.9545 7.85949 13.9713 7.54176 13.7951L9.15699 13.1811C8.98386 13.4285 8.765 13.6266 8.50238 13.7751ZM6.09498 4.61648C7.36118 4.6936 8.62093 4.69427 9.90335 4.61751C9.64913 3.81138 9.34554 3.07898 8.74214 2.51631C8.43779 2.23276 8.10198 2.09643 7.70736 2.23829C7.40994 2.34541 7.17122 2.54749 6.97952 2.80533L6.97949 2.80536C6.57256 3.3522 6.28564 3.96073 6.09498 4.61648ZM11.6333 5.41409C11.4598 5.43519 11.2863 5.4563 11.1129 5.47754C11.1822 6.11017 11.2503 6.73211 11.3192 7.36189L11.3355 7.51125H13.8069C13.7944 7.4397 13.7824 7.36869 13.7704 7.29815C13.7286 7.05207 13.6878 6.81153 13.6346 6.57231L13.6346 6.5723C13.5343 6.12101 13.3583 5.6933 13.1414 5.27875L13.23 5.23239L13.1415 5.27885C13.1333 5.26324 13.1274 5.25273 13.1219 5.24461C13.1167 5.23683 13.1137 5.23419 13.1129 5.23355C13.1128 5.23348 13.1132 5.23353 13.1122 5.2333C13.1105 5.2329 13.1042 5.2318 13.0906 5.2335C12.605 5.29591 12.119 5.35502 11.6333 5.41409ZM4.88587 10.5131C4.84279 10.1186 4.80001 9.72605 4.75718 9.33307C4.72646 9.0512 4.69571 8.76909 4.66481 8.48584H2.20719C2.26101 9.15006 2.42292 9.77787 2.69459 10.3788L2.6946 10.3788C2.71247 10.4184 2.72863 10.4606 2.74366 10.4999L2.74383 10.5004C2.75932 10.5409 2.77374 10.5785 2.78939 10.6135C2.8222 10.6869 2.85224 10.7287 2.88286 10.7475L2.88287 10.7475C2.90119 10.7588 2.94116 10.7642 3.02102 10.7521C3.05378 10.7472 3.08777 10.7403 3.12446 10.7329C3.12897 10.732 3.13352 10.7311 3.13811 10.7302C3.17869 10.722 3.22267 10.7134 3.26507 10.7084L3.26509 10.7084C3.66789 10.6607 4.07023 10.612 4.47114 10.5633C4.60957 10.5466 4.74782 10.5298 4.88587 10.5131ZM13.0489 10.7537L13.0494 10.7538C13.0541 10.7543 13.0624 10.7545 13.0736 10.7534C13.0844 10.7523 13.0957 10.7502 13.1059 10.7472C13.1132 10.7451 13.1188 10.743 13.1226 10.7412C13.5058 10.0401 13.7256 9.2907 13.7939 8.4835H11.336C11.2868 8.93612 11.2377 9.38607 11.1883 9.83902C11.1637 10.0644 11.139 10.2905 11.1142 10.5181C11.1534 10.5223 11.1931 10.5264 11.2333 10.5307C11.4049 10.5487 11.5837 10.5675 11.7616 10.5897L11.7492 10.6889L11.7616 10.5897C11.9349 10.6113 12.1071 10.6339 12.2788 10.6564C12.5355 10.6901 12.7913 10.7237 13.0489 10.7537ZM3.46701 11.6417C4.15609 12.4898 5.00223 13.0953 5.99688 13.4606C5.96914 13.4078 5.94119 13.3547 5.91316 13.3015C5.75159 12.995 5.5871 12.6829 5.44092 12.3642C5.3739 12.2181 5.32174 12.0668 5.27371 11.9177C5.25996 11.875 5.24661 11.8326 5.23336 11.7907C5.19998 11.6849 5.16725 11.5811 5.13034 11.4782C5.12981 11.4773 5.12879 11.4757 5.12719 11.4736C5.12383 11.4691 5.11931 11.4641 5.11447 11.4598C5.11427 11.4596 5.11407 11.4595 5.11388 11.4593C4.5896 11.5136 4.06591 11.5733 3.54167 11.6332C3.51679 11.636 3.4919 11.6388 3.46701 11.6417ZM12.5336 4.35822C11.8427 3.51039 11.0013 2.90718 9.99496 2.5364C10.0085 2.55966 10.022 2.58294 10.0356 2.60625C10.1699 2.83701 10.3059 3.07063 10.4148 3.31274L10.4148 3.31275C10.5432 3.59829 10.647 3.89679 10.7492 4.19032C10.7861 4.29645 10.8228 4.40192 10.8604 4.5059L10.8605 4.50609C10.8639 4.51565 10.8668 4.5248 10.8692 4.53225L10.87 4.53497C10.8715 4.53974 10.8728 4.54363 10.874 4.54719C11.2713 4.49989 11.6694 4.45527 12.067 4.4107C12.2226 4.39325 12.3782 4.37581 12.5336 4.35822ZM3.46593 4.35944C3.49614 4.36363 3.52605 4.36781 3.55573 4.37195C3.73425 4.39685 3.90404 4.42053 4.07508 4.43971L4.07513 4.43972C4.41656 4.47817 4.75831 4.51159 5.10075 4.53919C5.1014 4.53905 5.10228 4.53883 5.10338 4.53851C5.10834 4.53708 5.11476 4.53449 5.1212 4.53097C5.12402 4.52942 5.12638 4.52795 5.12828 4.52666C5.33548 3.83894 5.59037 3.16662 6.0064 2.53767C4.98658 2.91762 4.15348 3.51669 3.46593 4.35944ZM8.01648 14.7666C4.28401 14.7765 1.23968 11.7436 1.23333 8.00888C1.22698 4.28315 4.25708 1.242 7.98354 1.23327C11.7175 1.22454 14.7607 4.25663 14.7666 7.99057C14.7726 11.7167 11.7441 14.7566 8.01648 14.7666ZM5.61567 7.51047H10.3593C10.3445 6.85819 10.2647 6.21308 10.1376 5.55635C8.7186 5.64067 7.29958 5.64496 5.83773 5.55359C5.77569 6.09972 5.71466 6.63776 5.65297 7.18163C5.64056 7.29097 5.62814 7.40055 5.61567 7.51047ZM5.86298 10.4442C7.28705 10.3583 8.70388 10.3548 10.1353 10.4444C10.266 9.79682 10.3411 9.14802 10.3599 8.48154H5.64183C5.65467 9.14109 5.73745 9.78884 5.86298 10.4442Z" fill="white" stroke="white" stroke-width="0.2"/>
</svg>