<svg xmlns="http://www.w3.org/2000/svg" width="17" height="18" viewBox="0 0 17 18" fill="none">
  <path fill-rule="evenodd" clip-rule="evenodd" d="M8.49996 15.0207C11.8252 15.0207 14.5208 12.3251 14.5208 8.99984C14.5208 5.67462 11.8252 2.979 8.49996 2.979C5.17474 2.979 2.47913 5.67462 2.47913 8.99984C2.47913 12.3251 5.17474 15.0207 8.49996 15.0207ZM8.49996 16.0832C12.412 16.0832 15.5833 12.9119 15.5833 8.99984C15.5833 5.08782 12.412 1.9165 8.49996 1.9165C4.58794 1.9165 1.41663 5.08782 1.41663 8.99984C1.41663 12.9119 4.58794 16.0832 8.49996 16.0832ZM10.7271 6.76594C11.02 7.05884 11.02 7.53371 10.7271 7.82661L9.55993 8.99378L10.7282 10.1623C11.0211 10.4552 11.021 10.9301 10.7281 11.223C10.4352 11.5158 9.96031 11.5158 9.66745 11.2229L8.49927 10.0544L7.33277 11.2209C7.03988 11.5138 6.565 11.5138 6.27211 11.2209C5.97922 10.928 5.97922 10.4532 6.27211 10.1603L7.43872 8.99367L6.27028 7.82499C5.97742 7.53207 5.97747 7.0572 6.27039 6.76433C6.56332 6.47147 7.03819 6.47152 7.33105 6.76444L8.49938 7.93301L9.66644 6.76594C9.95934 6.47305 10.4342 6.47305 10.7271 6.76594Z" fill="#D7D7D7"/>
</svg>