<svg xmlns="http://www.w3.org/2000/svg" viewBox="0 0 16 16" fill="none">
  <path fill-rule="evenodd" clip-rule="evenodd" d="M10.8894 1.8335H5.11007C3.09607 1.8335 1.8334 3.2595 1.8334 5.2775V10.7228C1.8334 12.7408 3.09007 14.1668 5.11007 14.1668H10.8887C12.9094 14.1668 14.1667 12.7408 14.1667 10.7228V5.2775C14.1667 3.2595 12.9094 1.8335 10.8894 1.8335Z" stroke="white" stroke-width="1.5" stroke-linecap="round" stroke-linejoin="round"/>
  <path fill-rule="evenodd" clip-rule="evenodd" d="M7.12607 8.00029C7.12607 8.68229 6.57341 9.23496 5.89141 9.23496C5.20941 9.23496 4.65674 8.68229 4.65674 8.00029C4.65674 7.31829 5.20941 6.76562 5.89141 6.76562H5.89341C6.57407 6.76629 7.12607 7.31896 7.12607 8.00029Z" stroke="white" stroke-width="1.5" stroke-linecap="round" stroke-linejoin="round"/>
  <path d="M7.12799 8H11.34V9.23467" stroke="white" stroke-width="1.5" stroke-linecap="round" stroke-linejoin="round"/>
  <path d="M9.45455 9.23467V8" stroke="white" stroke-width="1.5" stroke-linecap="round" stroke-linejoin="round"/>
</svg>