<svg xmlns="http://www.w3.org/2000/svg" viewBox="0 0 16 16" fill="none">
  <path fill-rule="evenodd" clip-rule="evenodd" d="M13.8711 5.08249L13.4561 4.36243C13.1051 3.75315 12.3271 3.54296 11.717 3.89256V3.89256C11.4266 4.06364 11.08 4.11218 10.7538 4.02747C10.4275 3.94276 10.1484 3.73176 9.97788 3.441C9.86819 3.25618 9.80925 3.04568 9.80702 2.83077V2.83077C9.81692 2.48623 9.68693 2.15235 9.44667 1.90519C9.20641 1.65804 8.87635 1.51866 8.53166 1.5188H7.69566C7.35797 1.5188 7.0342 1.65336 6.79599 1.89271C6.55778 2.13207 6.42477 2.45648 6.4264 2.79416V2.79416C6.41639 3.49136 5.84831 4.05129 5.15103 4.05122C4.93613 4.04898 4.72563 3.99004 4.54081 3.88035V3.88035C3.9307 3.53076 3.15273 3.74094 2.80168 4.35023L2.35622 5.08249C2.0056 5.69101 2.21292 6.46849 2.81999 6.82162V6.82162C3.21459 7.04944 3.45768 7.47047 3.45768 7.92612C3.45768 8.38177 3.21459 8.8028 2.81999 9.03062V9.03062C2.21369 9.38137 2.00614 10.157 2.35622 10.7636V10.7636L2.77727 11.4898C2.94175 11.7866 3.21773 12.0056 3.54412 12.0984C3.87051 12.1911 4.22042 12.15 4.5164 11.9841V11.9841C4.80738 11.8143 5.15412 11.7678 5.47955 11.8549C5.80498 11.942 6.08215 12.1554 6.24943 12.4479C6.35912 12.6327 6.41806 12.8432 6.42029 13.0581V13.0581C6.42029 13.7624 6.99129 14.3334 7.69566 14.3334H8.53166C9.23365 14.3335 9.80366 13.7662 9.80702 13.0642V13.0642C9.80539 12.7254 9.93923 12.4001 10.1788 12.1606C10.4183 11.921 10.7436 11.7872 11.0824 11.7888C11.2968 11.7946 11.5064 11.8533 11.6926 11.9597V11.9597C12.3011 12.3103 13.0786 12.103 13.4317 11.4959V11.4959L13.8711 10.7636C14.0412 10.4717 14.0878 10.1241 14.0008 9.79766C13.9137 9.47124 13.7002 9.19298 13.4073 9.02452V9.02452C13.1145 8.85605 12.9009 8.5778 12.8139 8.25138C12.7268 7.92495 12.7735 7.57729 12.9436 7.28539C13.0542 7.0923 13.2142 6.93221 13.4073 6.82162V6.82162C14.0108 6.46868 14.2176 5.69574 13.8711 5.08859V5.08859V5.08249Z" stroke="white" stroke-width="1.5" stroke-linecap="round" stroke-linejoin="round"/>
  <circle cx="8.11672" cy="7.92614" r="1.75744" stroke="white" stroke-width="1.5" stroke-linecap="round" stroke-linejoin="round"/>
</svg>