<svg viewBox="0 0 25 24" fill="none" xmlns="http://www.w3.org/2000/svg">
<path d="M3.5 3L5.58 3.36L6.543 14.833C6.62 15.77 7.403 16.489 8.343 16.486H19.252C20.149 16.488 20.91 15.828 21.037 14.94L21.986 8.382C22.092 7.649 21.583 6.969 20.851 6.863C20.787 6.854 5.914 6.849 5.914 6.849" stroke="#F42C52" stroke-width="1.5" stroke-linecap="round" stroke-linejoin="round"/>
<path d="M14.875 10.5449H17.648" stroke="#F42C52" stroke-width="1.5" stroke-linecap="round" stroke-linejoin="round"/>
<path fill-rule="evenodd" clip-rule="evenodd" d="M7.90435 19.9526C8.20535 19.9526 8.44835 20.1966 8.44835 20.4966C8.44835 20.7976 8.20535 21.0416 7.90435 21.0416C7.60335 21.0416 7.36035 20.7976 7.36035 20.4966C7.36035 20.1966 7.60335 19.9526 7.90435 19.9526Z" fill="#F42C52" stroke="#F42C52" stroke-width="1.5" stroke-linecap="round" stroke-linejoin="round"/>
<path fill-rule="evenodd" clip-rule="evenodd" d="M19.1846 19.9526C19.4856 19.9526 19.7296 20.1966 19.7296 20.4966C19.7296 20.7976 19.4856 21.0416 19.1846 21.0416C18.8836 21.0416 18.6406 20.7976 18.6406 20.4966C18.6406 20.1966 18.8836 19.9526 19.1846 19.9526Z" fill="#F42C52" stroke="#F42C52" stroke-width="1.5" stroke-linecap="round" stroke-linejoin="round"/>
</svg>
