<svg xmlns="http://www.w3.org/2000/svg" viewBox="0 0 14 14" fill="none">
  <path fill-rule="evenodd" clip-rule="evenodd" d="M3.72581 3.08949C4.61167 2.34702 5.75358 1.9 7 1.9C9.8163 1.9 12.1 4.18316 12.1 7C12.1 8.24616 11.6529 9.38806 10.9103 10.274L3.72581 3.08949ZM3.08942 3.72589C2.34699 4.61174 1.9 5.75362 1.9 7C1.9 9.8163 4.18316 12.1 7 12.1C8.24613 12.1 9.38799 11.6529 10.2739 10.9104L3.08942 3.72589ZM7 1C3.68607 1 1 3.68607 1 7C1 10.3133 3.68604 13 7 13C10.3133 13 13 10.3133 13 7C13 3.68604 10.3133 1 7 1Z" fill="white" stroke="white" stroke-width="0.5" stroke-linecap="round"/>
</svg>