<svg xmlns="http://www.w3.org/2000/svg" viewBox="0 0 16 16" fill="none">
  <path d="M11.9251 7.26465C12.8551 7.13398 13.5711 6.33665 13.5731 5.37065C13.5731 4.41865 12.8791 3.62931 11.9691 3.47998" stroke="white" stroke-width="1.5" stroke-linecap="round" stroke-linejoin="round"/>
  <path d="M13.1523 9.50049C14.053 9.63515 14.6817 9.95049 14.6817 10.6005C14.6817 11.0478 14.3857 11.3385 13.907 11.5212" stroke="white" stroke-width="1.5" stroke-linecap="round" stroke-linejoin="round"/>
  <path fill-rule="evenodd" clip-rule="evenodd" d="M7.92445 9.77588C5.78178 9.77588 3.95178 10.1005 3.95178 11.3972C3.95178 12.6932 5.77045 13.0272 7.92445 13.0272C10.0671 13.0272 11.8964 12.7059 11.8964 11.4085C11.8964 10.1112 10.0784 9.77588 7.92445 9.77588Z" stroke="white" stroke-width="1.5" stroke-linecap="round" stroke-linejoin="round"/>
  <path fill-rule="evenodd" clip-rule="evenodd" d="M7.92447 7.9255C9.33047 7.9255 10.4705 6.78616 10.4705 5.3795C10.4705 3.9735 9.33047 2.8335 7.92447 2.8335C6.51847 2.8335 5.37847 3.9735 5.37847 5.3795C5.37313 6.78083 6.50447 7.92083 7.9058 7.9255H7.92447Z" stroke="white" stroke-width="1.5" stroke-linecap="round" stroke-linejoin="round"/>
  <path d="M3.92321 7.26465C2.99254 7.13398 2.27721 6.33665 2.27521 5.37065C2.27521 4.41865 2.96921 3.62931 3.87921 3.47998" stroke="white" stroke-width="1.5" stroke-linecap="round" stroke-linejoin="round"/>
  <path d="M2.69593 9.50049C1.79526 9.63515 1.1666 9.95049 1.1666 10.6005C1.1666 11.0478 1.4626 11.3385 1.94126 11.5212" stroke="white" stroke-width="1.5" stroke-linecap="round" stroke-linejoin="round"/>
</svg>