<svg viewBox="0 0 16 16" fill="none" xmlns="http://www.w3.org/2000/svg">
<path fill-rule="evenodd" clip-rule="evenodd" d="M4.22034 5.08984C4.22034 3.88961 5.19366 2.9165 6.39434 2.9165C7.59423 2.9165 8.56767 3.8895 8.56767 5.08984L8.56768 5.09263C8.57213 6.2863 7.60772 7.25801 6.41351 7.26317H6.39434C5.19366 7.26317 4.22034 6.29007 4.22034 5.08984ZM6.39434 1.4165C4.36568 1.4165 2.72034 3.06073 2.72034 5.08984C2.72034 7.11894 4.36568 8.76317 6.39434 8.76317H6.415L6.4178 8.76317C8.43985 8.75562 10.0745 7.11104 10.0677 5.08845L10.0677 5.08984H9.31767L10.0677 5.08704L10.0677 5.08845C10.0669 3.0601 8.42198 1.4165 6.39434 1.4165ZM2.58301 12.0125C2.58301 11.8366 2.63671 11.7177 2.74039 11.6091C2.86137 11.4823 3.07655 11.346 3.4273 11.2268C4.13667 10.9857 5.17445 10.8879 6.39434 10.8879C7.60799 10.8879 8.64666 10.9826 9.35885 11.2214C9.71118 11.3395 9.92743 11.4749 10.0489 11.6009C10.1525 11.7083 10.2057 11.8253 10.2057 11.9992C10.2057 12.1748 10.1521 12.2932 10.0486 12.4016C9.92764 12.5281 9.71248 12.6642 9.3616 12.7832C8.65201 13.0239 7.61411 13.1212 6.39434 13.1212C5.17992 13.1212 4.14121 13.0272 3.42903 12.7891C3.07673 12.6713 2.86074 12.5362 2.73956 12.4105C2.63626 12.3035 2.58301 12.1867 2.58301 12.0125ZM6.39434 9.38786C5.14023 9.38786 3.89734 9.48272 2.94455 9.80659C2.46422 9.96987 2.00294 10.2091 1.65523 10.5735C1.29022 10.956 1.08301 11.4438 1.08301 12.0125C1.08301 12.583 1.29242 13.0709 1.66 13.452C2.00969 13.8145 2.47278 14.0509 2.95332 14.2116C3.90681 14.5305 5.14876 14.6212 6.39434 14.6212C7.64791 14.6212 8.89067 14.5268 9.84341 14.2037C10.3237 14.0408 10.7851 13.8019 11.133 13.4379C11.4983 13.0557 11.7057 12.568 11.7057 11.9992C11.7057 11.4288 11.4961 10.9409 11.1288 10.5598C10.7792 10.1972 10.3163 9.9603 9.83567 9.79918C8.88202 9.47945 7.64003 9.38786 6.39434 9.38786ZM10.2986 2.78763C10.3657 2.37888 10.7514 2.10187 11.1601 2.1689C12.5614 2.39872 13.6301 3.61368 13.6301 5.07968L13.6301 5.08104C13.6274 6.56834 12.5249 7.79583 11.0931 7.99705C10.6829 8.0547 10.3037 7.76891 10.246 7.35873C10.1884 6.94854 10.4742 6.56929 10.8844 6.51165C11.587 6.4129 12.1284 5.80873 12.1301 5.079C12.1297 4.35997 11.6052 3.76194 10.9173 3.64913C10.5086 3.58209 10.2316 3.19639 10.2986 2.78763ZM12.5074 9.07963C12.0977 9.01862 11.7161 9.30127 11.6551 9.71097C11.5941 10.1207 11.8768 10.5023 12.2864 10.5633C12.7628 10.6342 13.0755 10.7427 13.2512 10.8579C13.3893 10.9485 13.4029 11.0081 13.4029 11.0848C13.4029 11.1587 13.3849 11.1938 13.3526 11.2303C13.3064 11.2825 13.2038 11.3612 12.9973 11.4397C12.6101 11.5868 12.4154 12.0199 12.5625 12.4071C12.7096 12.7943 13.1427 12.989 13.5299 12.8419C13.8727 12.7117 14.2148 12.5194 14.476 12.2243C14.751 11.9135 14.9029 11.5248 14.9029 11.0848C14.9029 10.4148 14.5556 9.91974 14.0741 9.60381C13.6303 9.31258 13.0651 9.16269 12.5074 9.07963Z" fill="white"/>
</svg>
