<svg viewBox="0 0 24 24" fill="none" xmlns="http://www.w3.org/2000/svg">
<path d="M17.3713 21H6.62874C4.63114 21 3 19.376 3 17.3713V6.62874C3 4.62395 4.62395 3 6.62874 3H17.3713C19.3689 3 21 4.62395 21 6.62874V17.3713C21 19.3689 19.376 21 17.3713 21ZM6.62874 4.43713C5.42156 4.43713 4.43713 5.42156 4.43713 6.62874V17.3713C4.43713 18.5784 5.42156 19.5629 6.62874 19.5629H17.3713C18.5784 19.5629 19.5629 18.5784 19.5629 17.3713V6.62874C19.5629 5.42156 18.5784 4.43713 17.3713 4.43713H6.62874Z" fill="white"/>
<path d="M12.0475 16C11.7739 16 11.5219 15.8462 11.3995 15.6084L8.07289 9.00774C7.90008 8.65813 8.04408 8.24559 8.4041 8.07078C8.76412 7.90296 9.18895 8.04281 9.36896 8.39242L12.0403 13.6926L14.6324 8.39942C14.8053 8.0498 15.2373 7.90296 15.5901 8.07078C15.9501 8.23859 16.1013 8.65114 15.9285 9.00075L12.6955 15.6014C12.5731 15.8462 12.3283 16 12.0475 16Z" fill="white"/>
</svg>
