<svg xmlns="http://www.w3.org/2000/svg" viewBox="0 0 18 18" fill="none">
  <path fill-rule="evenodd" clip-rule="evenodd" d="M9 15.375C12.5208 15.375 15.375 12.5208 15.375 9C15.375 5.47918 12.5208 2.625 9 2.625C5.47918 2.625 2.625 5.47918 2.625 9C2.625 12.5208 5.47918 15.375 9 15.375ZM9 16.5C13.1421 16.5 16.5 13.1421 16.5 9C16.5 4.85786 13.1421 1.5 9 1.5C4.85786 1.5 1.5 4.85786 1.5 9C1.5 13.1421 4.85786 16.5 9 16.5Z" fill="#70FF00"/>
  <path fill-rule="evenodd" clip-rule="evenodd" d="M12.0677 6.82247C12.2874 7.04214 12.2874 7.39829 12.0677 7.61796L8.5082 11.1775C8.28857 11.3971 7.93248 11.3971 7.71279 11.1775L5.93229 9.3978C5.71258 9.17817 5.7125 8.82202 5.93212 8.6023C6.15175 8.38258 6.5079 8.38251 6.72762 8.60213L8.11037 9.9843L11.2722 6.82247C11.4919 6.6028 11.848 6.6028 12.0677 6.82247Z" fill="#70FF00"/>
</svg>