<svg viewBox="0 0 20 20" fill="none" xmlns="http://www.w3.org/2000/svg">
<path d="M9.37405 16.2489H5.62519C5.28036 16.2489 4.99962 15.9681 4.99962 15.6233V13.7496C4.99962 12.027 6.40182 10.6248 8.12443 10.6248H11.8748C12.5309 10.6248 13.161 10.8293 13.6966 11.2153C13.9758 11.4182 14.3664 11.3541 14.5693 11.0749C14.7723 10.7957 14.7082 10.4051 14.429 10.2022C13.6798 9.66051 12.7964 9.37519 11.8748 9.37519H8.12443C5.71216 9.37367 3.75 11.3374 3.75 13.7496V15.6248C3.75 16.6593 4.59071 17.5 5.62519 17.5H9.37405C9.71887 17.5 9.99962 17.2208 9.99962 16.8744C9.99962 16.5281 9.7204 16.2489 9.37405 16.2489ZM9.99962 8.74962C11.7253 8.74962 13.1244 7.35047 13.1244 5.62481C13.1244 3.89915 11.7253 2.5 9.99962 2.5C8.27395 2.5 6.87481 3.89915 6.87481 5.62481C6.87481 7.35047 8.27395 8.74962 9.99962 8.74962ZM9.99962 3.74962C11.0341 3.74962 11.8748 4.59033 11.8748 5.62481C11.8748 6.65929 11.0341 7.5 9.99962 7.5C8.96514 7.5 8.12443 6.65777 8.12443 5.62481C8.12443 4.59185 8.96514 3.74962 9.99962 3.74962Z" fill="black"/>
<path d="M16.0677 13.7816C15.8251 13.539 15.4268 13.539 15.1842 13.7816L12.9734 15.9909L11.2065 14.2225C10.9639 13.9799 10.5657 13.9799 10.3231 14.2225C10.0805 14.4651 10.0805 14.8634 10.3231 15.106L12.5324 17.3153C12.7079 17.4908 12.9627 17.5381 13.1839 17.4603C13.2129 17.4496 13.2404 17.4374 13.2679 17.4221C13.2923 17.4099 13.3152 17.3962 13.338 17.3809C13.3655 17.3611 13.393 17.3413 13.4174 17.3153L16.0692 14.6635C16.3103 14.4224 16.3103 14.0242 16.0677 13.7816Z" fill="black"/>
</svg>
