<svg viewBox="0 0 20 20" fill="none" xmlns="http://www.w3.org/2000/svg">
<path d="M5.75 7.5C5.75 7.08579 6.08579 6.75 6.5 6.75H13.5C13.9142 6.75 14.25 7.08579 14.25 7.5C14.25 7.91421 13.9142 8.25 13.5 8.25H6.5C6.08579 8.25 5.75 7.91421 5.75 7.5Z" fill="black"/>
<path d="M6.5 10.75C6.08579 10.75 5.75 11.0858 5.75 11.5C5.75 11.9142 6.08579 12.25 6.5 12.25H13.5C13.9142 12.25 14.25 11.9142 14.25 11.5C14.25 11.0858 13.9142 10.75 13.5 10.75H6.5Z" fill="black"/>
<path fill-rule="evenodd" clip-rule="evenodd" d="M4.5 2.5C3.39543 2.5 2.5 3.39543 2.5 4.5V15.5C2.5 16.6046 3.39543 17.5 4.5 17.5H15.5C16.6046 17.5 17.5 16.6046 17.5 15.5V4.5C17.5 3.39543 16.6046 2.5 15.5 2.5H4.5ZM15.5 4H4.5C4.22386 4 4 4.22386 4 4.5V15.5C4 15.7761 4.22386 16 4.5 16H15.5C15.7761 16 16 15.7761 16 15.5V4.5C16 4.22386 15.7761 4 15.5 4Z" fill="black"/>
</svg>
