<svg viewBox="0 0 20 20" fill="none" xmlns="http://www.w3.org/2000/svg">
<path d="M10.3295 3.85796C10.2285 3.80654 10.1152 3.77958 10.0001 3.77958C9.88498 3.77958 9.7717 3.80654 9.67068 3.85796L3.87434 6.79981L9.67068 9.74332C9.87658 9.84749 10.1245 9.84749 10.3295 9.74332L16.125 6.79981L10.3286 3.8563L10.3295 3.85796ZM9.01272 2.73456C9.31557 2.58065 9.65508 2.5 10.0001 2.5C10.3451 2.5 10.6847 2.58065 10.9875 2.73456L16.783 5.67641C17.739 6.16227 17.739 7.43901 16.783 7.92404L15.8457 8.3999L16.783 8.8766C17.739 9.36163 17.739 10.6384 16.783 11.1234L15.8457 11.6001L16.783 12.0751C17.739 12.561 17.739 13.8377 16.783 14.3228L10.9875 17.2654C10.6847 17.4193 10.3451 17.5 10.0001 17.5C9.65508 17.5 9.31557 17.4193 9.01272 17.2654L3.21637 14.3236C2.26121 13.8377 2.26121 12.561 3.21637 12.076L4.15453 11.6001L3.21637 11.1234C2.26121 10.6384 2.26121 9.36163 3.21637 8.8766L4.15453 8.3999L3.21637 7.92487C2.26121 7.43901 2.26121 6.16227 3.21637 5.67724L9.01272 2.73456ZM5.58862 9.12911L3.87434 10L9.67068 12.9435C9.87658 13.0477 10.1245 13.0477 10.3295 12.9435L16.125 10L14.4098 9.12911L10.9866 10.8667C10.6838 11.0206 10.3443 11.1013 9.99922 11.1013C9.65418 11.1013 9.31467 11.0206 9.01182 10.8667L5.58862 9.12911ZM5.58862 12.3285L3.87344 13.1994L9.66979 16.1429C9.87568 16.247 10.1236 16.247 10.3286 16.1429L16.125 13.1994L14.4098 12.3285L10.9866 14.0661C10.6838 14.22 10.3443 14.3006 9.99922 14.3006C9.65418 14.3006 9.31467 14.22 9.01182 14.0661L5.58862 12.3285Z" fill="black"/>
</svg>
