<svg viewBox="0 0 20 20" fill="none" xmlns="http://www.w3.org/2000/svg">
<path d="M10.25 8C10.6642 8 11 7.66406 11 7.25C11 6.83594 10.6642 6.5 10.25 6.5C9.83582 6.5 9.5 6.83594 9.5 7.25C9.5 7.66406 9.83582 8 10.25 8Z" fill="black"/>
<path d="M11 9.5C11 9.08594 10.6642 8.75 10.25 8.75C9.83582 8.75 9.5 9.08594 9.5 9.5V13.5C9.5 13.9141 9.83582 14.25 10.25 14.25C10.6642 14.25 11 13.9141 11 13.5V9.5Z" fill="black"/>
<path fill-rule="evenodd" clip-rule="evenodd" d="M17.5 10C17.5 14.1421 14.1422 17.5 10 17.5C5.85785 17.5 2.5 14.1421 2.5 10C2.5 5.85791 5.85785 2.5 10 2.5C14.1422 2.5 17.5 5.85791 17.5 10ZM16 10C16 13.3135 13.3137 16 10 16C6.68628 16 4 13.3135 4 10C4 6.68652 6.68628 4 10 4C13.3137 4 16 6.68652 16 10Z" fill="black"/>
</svg>
