<svg viewBox="0 0 20 20" fill="none" xmlns="http://www.w3.org/2000/svg">
<path fill-rule="evenodd" clip-rule="evenodd" d="M15.9438 7.56045V11.6431C15.9438 12.3804 15.6632 13.0901 15.1589 13.6279L13.086 15.8391C11.9394 17.062 7.99814 17.0621 6.8516 15.8391L4.77867 13.6279C4.27439 13.0901 3.99376 12.3804 3.99376 11.6431V7.56045C3.99376 6.17707 4.9702 4.986 6.32671 4.7147L9.39964 3.30012C9.77535 3.22497 10.1622 3.22497 10.5379 3.30012L13.6109 4.7147C14.9674 4.986 15.9438 6.17707 15.9438 7.56045ZM2.75 7.56045C2.75 5.58419 4.14492 3.88267 6.08279 3.4951L9.15572 2.08051C9.69245 1.97316 10.2451 1.97316 10.7819 2.08051L13.8548 3.4951C15.7927 3.88267 17.1876 5.58419 17.1876 7.56045V11.6431C17.1876 12.6964 16.7867 13.7102 16.0663 14.4786L13.9934 16.6897C12.3554 18.4368 7.58215 18.4368 5.94423 16.6897L3.8713 14.4786C3.15091 13.7102 2.75 12.6964 2.75 11.6431V7.56045ZM11.6271 8.30755C11.6271 9.00351 11.1984 9.59934 10.5907 9.84535L10.5907 13.6972C10.5907 14.0406 10.3122 14.3191 9.96879 14.3191C9.62534 14.3191 9.34691 14.0406 9.34691 13.6972L9.34691 9.84535C8.73916 9.59934 8.31045 9.00351 8.31045 8.30755C8.31045 7.39167 9.05291 6.64921 9.96879 6.64921C10.8847 6.64921 11.6271 7.39167 11.6271 8.30755Z" fill="black"/>
</svg>
