<svg viewBox="0 0 20 20" fill="none" xmlns="http://www.w3.org/2000/svg">
<path d="M9.84017 7.27598H5.94555C5.63972 7.27598 5.39286 7.01494 5.39286 6.69156C5.39286 6.36819 5.63972 6.10715 5.94555 6.10715H9.84017C10.146 6.10715 10.3929 6.36819 10.3929 6.69156C10.3929 7.01494 10.146 7.27598 9.84017 7.27598ZM9.84017 10.3929H5.94555C5.63972 10.3929 5.39286 10.1318 5.39286 9.80845C5.39286 9.48507 5.63972 9.22403 5.94555 9.22403H9.84017C10.146 9.22403 10.3929 9.48507 10.3929 9.80845C10.3929 10.1318 10.146 10.3929 9.84017 10.3929Z" fill="black"/>
<path d="M12.1263 17.2487C11.9789 17.2487 11.8315 17.2032 11.7056 17.1157C11.4827 16.9583 11.3712 16.696 11.418 16.4301L11.7128 14.7651L10.4687 13.5863C10.3721 13.4954 10.3037 13.3799 10.2712 13.253C10.2388 13.1261 10.2436 12.9929 10.2852 12.8686C10.3268 12.7443 10.4035 12.6338 10.5065 12.5498C10.6095 12.4658 10.7347 12.4116 10.8679 12.3935L12.5866 12.1521L13.3561 10.6375C13.4157 10.5211 13.5075 10.4232 13.6212 10.3547C13.7349 10.2863 13.866 10.25 13.9997 10.25C14.1334 10.25 14.2645 10.2863 14.3781 10.3547C14.4918 10.4232 14.5837 10.5211 14.6433 10.6375L15.4128 12.1521L17.1315 12.3935C17.4048 12.432 17.6277 12.6139 17.714 12.8692C17.8003 13.1246 17.7284 13.4009 17.5306 13.5863L16.2865 14.7651L16.5814 16.4301C16.6281 16.696 16.5202 16.9583 16.2937 17.1157C16.0708 17.2731 15.7795 17.2941 15.535 17.1682L13.9997 16.3812L12.4643 17.1682C12.3565 17.2242 12.2414 17.2487 12.1263 17.2487ZM11.7452 13.3309L12.601 14.1425C12.6848 14.2215 12.7475 14.3191 12.7839 14.427C12.8202 14.5348 12.829 14.6497 12.8095 14.7616L12.6082 15.9089L13.6653 15.3668C13.8738 15.2618 14.1255 15.2618 14.3341 15.3668L15.3948 15.9089L15.1934 14.7616C15.1539 14.5307 15.233 14.2999 15.402 14.1425L16.2578 13.3309L15.0748 13.163C14.8411 13.1316 14.6397 12.9881 14.5354 12.7818L14.0069 11.7359L13.4783 12.7783C13.374 12.9847 13.1691 13.1281 12.9354 13.1595L11.7452 13.3309ZM11.8459 14.8945C11.8495 14.8945 11.8495 14.898 11.8459 14.8945V14.8945Z" fill="black"/>
<path fill-rule="evenodd" clip-rule="evenodd" d="M2.5 5C2.5 3.61929 3.68876 2.5 5.15517 2.5H13.8448C15.3112 2.5 16.5 3.61929 16.5 5V10C16.5 10.3766 16.1758 10.6818 15.7759 10.6818C15.3759 10.6818 15.0517 10.3766 15.0517 10V5C15.0517 4.3724 14.5114 3.86364 13.8448 3.86364H5.15517C4.48862 3.86364 3.94828 4.3724 3.94828 5V15C3.94828 15.6276 4.48862 16.1364 5.15517 16.1364H9.5C9.89993 16.1364 10.2241 16.4416 10.2241 16.8182C10.2241 17.1947 9.89993 17.5 9.5 17.5H5.15517C3.68876 17.5 2.5 16.3807 2.5 15V5Z" fill="black"/>
</svg>
