<svg viewBox="0 0 20 20" fill="none" xmlns="http://www.w3.org/2000/svg">
    <path
        d="M10.5625 7C10.5625 6.68934 10.3107 6.4375 10 6.4375C9.68934 6.4375 9.4375 6.68934 9.4375 7V9.4375H7C6.68934 9.4375 6.4375 9.68934 6.4375 10C6.4375 10.3107 6.68934 10.5625 7 10.5625H9.4375V13C9.4375 13.3107 9.68934 13.5625 10 13.5625C10.3107 13.5625 10.5625 13.3107 10.5625 13V10.5625H13C13.3107 10.5625 13.5625 10.3107 13.5625 10C13.5625 9.68934 13.3107 9.4375 13 9.4375H10.5625V7Z"
        fill="black" />
    <path fill-rule="evenodd" clip-rule="evenodd"
        d="M17.5 10C17.5 14.1421 14.1421 17.5 10 17.5C5.85786 17.5 2.5 14.1421 2.5 10C2.5 5.85786 5.85786 2.5 10 2.5C14.1421 2.5 17.5 5.85786 17.5 10ZM16.375 10C16.375 13.5208 13.5208 16.375 10 16.375C6.47918 16.375 3.625 13.5208 3.625 10C3.625 6.47918 6.47918 3.625 10 3.625C13.5208 3.625 16.375 6.47918 16.375 10Z"
        fill="black" />
</svg>