<svg viewBox="0 0 20 20" fill="none" xmlns="http://www.w3.org/2000/svg">
<path fill-rule="evenodd" clip-rule="evenodd" d="M15.4352 3.34663L15.1716 3.08832C14.3705 2.30389 13.0713 2.30389 12.2702 3.08832L4.667 10.5339C4.3365 10.8575 4.09406 11.2572 3.96187 11.6963L3.20494 14.2101C3.08422 14.6111 3.44787 14.9914 3.86425 14.8996L6.52328 14.3143C7.03998 14.2006 7.51313 13.9454 7.88773 13.5786L15.4352 6.18767C16.2363 5.40307 16.2363 4.13105 15.4352 3.34663ZM5.45803 11.3088L11.6869 5.2092L13.2695 6.75869L7.09633 12.8039C6.87157 13.0239 6.58771 13.1769 6.27774 13.2451L4.54703 13.6261L5.03513 12.0061C5.11441 11.7427 5.25981 11.503 5.45803 11.3088ZM12.4781 4.43445L13.0614 3.86306C13.2363 3.69182 13.4735 3.59562 13.7207 3.59562C13.968 3.59562 14.2051 3.69182 14.38 3.86306L14.6436 4.12137C14.7302 4.20614 14.7989 4.3068 14.8458 4.41759C14.8926 4.52838 14.9167 4.64713 14.9167 4.76706C14.9167 4.88699 14.8926 5.00574 14.8458 5.11653C14.7989 5.22732 14.7302 5.32798 14.6436 5.41274L14.0605 5.98395L12.4781 4.43445Z" fill="black"/>
<path d="M3.27586 16.027C2.84737 16.027 2.5 16.3567 2.5 16.7635C2.5 17.1703 2.84737 17.5 3.27586 17.5H16.7241C17.1526 17.5 17.5 17.1703 17.5 16.7635C17.5 16.3567 17.1526 16.027 16.7241 16.027H3.27586Z" fill="black"/>
</svg>
