<svg viewBox="0 0 20 20" fill="none" xmlns="http://www.w3.org/2000/svg">
<path fill-rule="evenodd" clip-rule="evenodd" d="M5.15131 6.25023C5.61045 4.10695 7.51552 2.5 9.79592 2.5C12.0763 2.5 13.9814 4.10695 14.4405 6.25023C15.4564 6.26558 16.3016 7.04169 16.4004 8.05611L17.0822 15.0561C17.1967 16.2317 16.2728 17.25 15.0916 17.25H4.50019C3.31899 17.25 2.3951 16.2317 2.50961 15.0561L3.19142 8.05611C3.29023 7.04169 4.13546 6.26558 5.15131 6.25023ZM6.70266 6.25C7.12444 4.94437 8.3499 4 9.79592 4C11.2419 4 12.4674 4.94437 12.8892 6.25H6.70266ZM4.68436 8.20153C4.70931 7.94537 4.92463 7.75 5.182 7.75H14.4098C14.6672 7.75 14.8825 7.94537 14.9075 8.20153L15.5893 15.2015C15.6179 15.4954 15.3869 15.75 15.0916 15.75H4.50019C4.20489 15.75 3.97391 15.4954 4.00254 15.2015L4.68436 8.20153Z" fill="black"/>
</svg>
