<svg viewBox="0 0 20 20" fill="none" xmlns="http://www.w3.org/2000/svg">
<path d="M6.8889 17.2949C6.25758 17.6972 5.432 17.4891 5.04856 16.8341C4.86679 16.5231 4.81029 16.1517 4.89106 15.7987L5.70819 12.2247C5.71792 12.1831 5.71649 12.1396 5.70405 12.0988C5.6916 12.058 5.66861 12.0213 5.6375 11.9928L2.96278 9.60248C2.40721 9.10634 2.34309 8.23866 2.81803 7.66021C2.93104 7.5222 3.06959 7.40852 3.22568 7.32574C3.38176 7.24296 3.55229 7.19272 3.72742 7.17791L7.23765 6.88464C7.31415 6.8781 7.38259 6.82637 7.4139 6.74772L8.76636 3.35528C9.04818 2.64856 9.83194 2.31106 10.5158 2.60779C10.8419 2.74994 11.0999 3.01866 11.2335 3.35528L12.586 6.74753C12.6173 6.82637 12.6857 6.8783 12.7622 6.88464L16.2728 7.1781C17.009 7.23963 17.554 7.90751 17.4957 8.66577C17.4683 9.02762 17.3037 9.36404 17.0373 9.60287L14.3626 11.9932C14.3003 12.0488 14.2722 12.1388 14.2919 12.2249L15.109 15.7989C15.2781 16.5383 14.839 17.2833 14.1222 17.4616C13.9513 17.5041 13.7739 17.5113 13.6002 17.4827C13.4266 17.4541 13.2603 17.3903 13.111 17.295L10.1055 15.3797C10.0739 15.3593 10.0373 15.3485 9.99994 15.3485C9.96259 15.3485 9.926 15.3593 9.89437 15.3797L6.88871 17.295L6.8889 17.2949ZM10.6995 14.3995L13.705 16.3149C13.7511 16.3441 13.8055 16.3531 13.8571 16.3403C13.9697 16.3122 14.0427 16.1883 14.014 16.0622L13.1969 12.4882C13.1404 12.2423 13.1503 11.9853 13.2255 11.7448C13.3006 11.5042 13.4383 11.2892 13.6236 11.1228L16.2983 8.73269C16.342 8.69365 16.3696 8.63692 16.3745 8.575C16.3844 8.44635 16.2955 8.3375 16.1815 8.32808L12.6709 8.03443C12.4249 8.01325 12.1895 7.92258 11.9907 7.77247C11.7919 7.62236 11.6375 7.41868 11.5448 7.18406L10.1923 3.79181C10.1712 3.73731 10.1298 3.69361 10.0774 3.67027C9.97369 3.62527 9.85369 3.677 9.80794 3.79181L8.45529 7.18406C8.36253 7.41868 8.20819 7.62236 8.0094 7.77247C7.81061 7.92258 7.57515 8.01325 7.32915 8.03443L3.81873 8.32808C3.79165 8.3305 3.76531 8.33841 3.74123 8.35135C3.71716 8.36429 3.69583 8.382 3.67848 8.40346C3.64023 8.45084 3.62131 8.51155 3.62567 8.57291C3.63004 8.63426 3.65736 8.69151 3.70192 8.73269L6.37664 11.123C6.56197 11.2894 6.69961 11.5044 6.7748 11.745C6.84998 11.9855 6.85987 12.2425 6.8034 12.4884L5.98626 16.0622C5.97229 16.1228 5.98184 16.1867 6.01288 16.2403C6.0742 16.3447 6.19889 16.376 6.29526 16.3147L9.30093 14.3995C9.5108 14.2656 9.75304 14.1946 10.0002 14.1946C10.2474 14.1946 10.4896 14.2656 10.6995 14.3995Z" fill="black"/>
</svg>
