<svg viewBox="0 0 20 20" fill="none" xmlns="http://www.w3.org/2000/svg">
    <path
        d="M15.0266 4.23062L15.7073 5.89411C16.2328 6.095 16.6866 6.4601 17.0072 6.93998C17.3279 7.41985 17.4999 7.9913 17.5 8.57694V14.645C17.5 15.4022 17.2127 16.1284 16.7013 16.6638C16.1898 17.1992 15.4962 17.5 14.773 17.5H5.22705C4.50379 17.5 3.81016 17.1992 3.29873 16.6638C2.78731 16.1284 2.5 15.4022 2.5 14.645V8.57694C2.4999 7.848 2.76613 7.14662 3.24412 6.61658C3.72211 6.08654 4.37565 5.76799 5.07077 5.72622L11.402 2.75044C12.0479 2.44686 12.7812 2.41817 13.447 2.67042C14.1127 2.92267 14.6586 3.4361 14.9693 4.10213L15.0266 4.23062ZM14.773 7.14986H5.22705C4.47431 7.14986 3.86393 7.78888 3.86393 8.57694V8.92386H16.1369V8.57694C16.1369 7.78888 15.5257 7.14986 14.773 7.14986ZM3.86393 14.645C3.86393 15.4331 4.47431 16.0721 5.22705 16.0721H14.773C15.5257 16.0721 16.1369 15.4331 16.1369 14.645V10.3518H3.86393V14.645ZM11.9608 4.0533L8.40983 5.72194H14.1528L13.7633 4.77112C13.6201 4.43733 13.36 4.17383 13.0366 4.035C12.7132 3.89617 12.3513 3.8926 12.0254 4.02504L11.96 4.0533H11.9608ZM5.60669 13.0398C5.56742 13.1177 5.56742 13.2214 5.56742 13.4278V13.6993C5.56742 13.9058 5.56742 14.0094 5.60669 14.0874C5.63942 14.1507 5.68851 14.2021 5.74906 14.2364C5.82351 14.2775 5.92252 14.2775 6.1197 14.2775H8.08337C8.28056 14.2775 8.37956 14.2775 8.45402 14.2364C8.51456 14.2021 8.56366 14.1507 8.59638 14.0874C8.63566 14.0094 8.63566 13.9058 8.63566 13.6993V13.4278C8.63566 13.2222 8.63566 13.1186 8.59638 13.0398C8.5642 12.9765 8.51459 12.9249 8.45402 12.8916C8.37956 12.8496 8.28056 12.8496 8.08337 12.8496H6.1197C5.92252 12.8496 5.82351 12.8496 5.74906 12.8916C5.68848 12.9249 5.63888 12.9765 5.60669 13.0398Z"
        fill="black" fill-opacity="0.85" />
</svg>