<svg viewBox="0 0 20 20" fill="none" xmlns="http://www.w3.org/2000/svg">
<path d="M17.3829 12.4538C16.8014 14.4959 13.7097 16.0537 9.98431 16.0537C6.28817 16.0537 3.21747 14.5209 2.6004 12.5038C2.53556 12.7312 2.50209 12.9654 2.50209 13.2019C2.50209 15.5761 5.85936 17.5 10.001 17.5C14.1427 17.5 17.5 15.5761 17.5 13.2019C17.4979 12.9472 17.4582 12.6971 17.3829 12.4538Z" fill="black"/>
<path d="M17.3829 9.38372C16.8014 11.4259 13.7097 12.9836 9.98431 12.9836C6.28817 12.9836 3.21747 11.4509 2.6004 9.43375C2.53556 9.66116 2.50209 9.89539 2.50209 10.1319C2.50209 12.5061 5.85936 14.43 10.001 14.43C14.1427 14.43 17.5 12.5061 17.5 10.1319C17.4979 9.8772 17.4582 9.62705 17.3829 9.38372Z" fill="black"/>
<path d="M2.5 6.79806C2.5 7.36249 2.69397 7.92139 3.07082 8.44286C3.44768 8.96432 4.00005 9.43813 4.69639 9.83725C5.39274 10.2364 6.21941 10.553 7.12923 10.7689C8.03904 10.9849 9.01418 11.0961 9.99895 11.0961C10.9837 11.0961 11.9589 10.9849 12.8687 10.7689C13.7785 10.553 14.6052 10.2364 15.3015 9.83725C15.9979 9.43813 16.5502 8.96432 16.9271 8.44286C17.3039 7.92139 17.4979 7.36249 17.4979 6.79806C17.4979 6.23363 17.3039 5.67473 16.9271 5.15326C16.5502 4.6318 15.9979 4.15798 15.3015 3.75887C14.6052 3.35976 13.7785 3.04317 12.8687 2.82717C11.9589 2.61117 10.9837 2.5 9.99895 2.5C9.01418 2.5 8.03904 2.61117 7.12923 2.82717C6.21941 3.04317 5.39274 3.35976 4.69639 3.75887C4.00005 4.15798 3.44768 4.6318 3.07082 5.15326C2.69397 5.67473 2.5 6.23363 2.5 6.79806Z" fill="black"/>
</svg>
