<svg viewBox="0 0 20 20" fill="none" xmlns="http://www.w3.org/2000/svg">
<path d="M7.94059 6.25C8.09644 5.27733 8.3099 4.40829 8.56469 3.68078C8.7193 3.23918 8.88355 2.86562 9.04986 2.5596C9.36103 2.52027 9.67815 2.5 10 2.5C10.3219 2.5 10.6391 2.52028 10.9503 2.55962C11.1167 2.86563 11.281 3.23919 11.4353 3.68078C11.6901 4.40829 11.9036 5.27733 12.0594 6.25H7.94059Z" fill="black"/>
<path d="M6.04396 6.25H3.50327C4.25272 4.95433 5.37864 3.90372 6.7315 3.24769C6.43956 4.12562 6.20631 5.1411 6.04396 6.25Z" fill="black"/>
<path d="M13.269 3.24791C13.5605 4.12579 13.7936 5.1412 13.9559 6.25H16.4967C15.7474 4.95448 14.6216 3.90395 13.269 3.24791Z" fill="black"/>
<path d="M12.2757 8.125H7.72429C7.67986 8.72729 7.65625 9.35445 7.65625 10C7.65625 10.6455 7.67986 11.2727 7.72429 11.875H12.2757C12.3201 11.2727 12.3438 10.6455 12.3438 10C12.3438 9.35445 12.3201 8.72729 12.2757 8.125Z" fill="black"/>
<path d="M14.1553 11.875C14.1971 11.2661 14.2188 10.6391 14.2188 10C14.2188 9.36088 14.1971 8.73394 14.1553 8.125H17.2637C17.418 8.72428 17.5 9.35255 17.5 10C17.5 10.6474 17.418 11.2757 17.2637 11.875H14.1553Z" fill="black"/>
<path d="M12.0594 13.75H7.94059C8.09644 14.7227 8.3099 15.5917 8.56469 16.3192C8.71904 16.7608 8.88331 17.1344 9.04969 17.4404C9.36092 17.4797 9.67809 17.5 10 17.5C10.3219 17.5 10.639 17.4797 10.9501 17.4404C11.1165 17.1344 11.2807 16.7608 11.4353 16.3192C11.6901 15.5917 11.9036 14.7227 12.0594 13.75Z" fill="black"/>
<path d="M13.2685 16.7523C13.5604 15.8744 13.7937 14.8589 13.956 13.75H16.4967C15.7473 15.0457 14.6214 16.0963 13.2685 16.7523Z" fill="black"/>
<path d="M6.73104 16.7521C6.43954 15.8742 6.20641 14.8588 6.04408 13.75H3.50327C4.25264 15.0455 5.37839 16.096 6.73104 16.7521Z" fill="black"/>
<path d="M5.84471 11.875H2.73625C2.58203 11.2757 2.5 10.6474 2.5 10C2.5 9.35255 2.58203 8.72428 2.73625 8.125H5.84465C5.80292 8.73394 5.78125 9.36088 5.78125 10C5.78125 10.6391 5.80295 11.2661 5.84471 11.875Z" fill="black"/>
</svg>
