<svg viewBox="0 0 20 20" fill="none" xmlns="http://www.w3.org/2000/svg">
<path fill-rule="evenodd" clip-rule="evenodd" d="M2 5C2 3.61929 3.20571 2.5 4.69303 2.5H11.5104C12.9977 2.5 14.2034 3.61929 14.2034 5V6.36364C14.2034 6.74019 13.8746 7.04545 13.4689 7.04545C13.0633 7.04545 12.7345 6.74019 12.7345 6.36364V5C12.7345 4.3724 12.1864 3.86364 11.5104 3.86364H4.69303C4.01698 3.86364 3.46893 4.3724 3.46893 5V15C3.46893 15.6276 4.01698 16.1364 4.69303 16.1364H11.5104C12.1864 16.1364 12.7345 15.6276 12.7345 15V13.6364C12.7345 13.2598 13.0633 12.9545 13.4689 12.9545C13.8746 12.9545 14.2034 13.2598 14.2034 13.6364V15C14.2034 16.3807 12.9977 17.5 11.5104 17.5H4.69303C3.20571 17.5 2 16.3807 2 15V5Z" fill="black"/>
<path fill-rule="evenodd" clip-rule="evenodd" d="M16.0617 7.96012L17.7863 9.656C18.0712 9.93616 18.0712 10.3904 17.7863 10.6705L16.0617 12.3664C15.7768 12.6466 15.3149 12.6466 15.03 12.3664C14.745 12.0863 14.745 11.632 15.03 11.3519L15.5092 10.8807H7.54311C7.14019 10.8807 6.81356 10.5595 6.81356 10.1633C6.81356 9.76707 7.14019 9.44589 7.54311 9.44589H15.5092L15.03 8.97466C14.745 8.6945 14.745 8.24028 15.03 7.96012C15.3149 7.67996 15.7768 7.67996 16.0617 7.96012Z" fill="black"/>
</svg>
