<svg viewBox="0 0 20 20" fill="none" xmlns="http://www.w3.org/2000/svg">
<path fill-rule="evenodd" clip-rule="evenodd" d="M5.5 16H14.5C14.7761 16 15 15.7761 15 15.5V6.75649C15 6.61609 14.941 6.48216 14.8373 6.38744L12.3687 4.13094C12.2765 4.04671 12.1562 4 12.0314 4H5.5C5.22386 4 5 4.22386 5 4.5V15.5C5 15.7761 5.22386 16 5.5 16ZM5.5 2.5C4.39543 2.5 3.5 3.39543 3.5 4.5V15.5C3.5 16.6046 4.39543 17.5 5.5 17.5H14.5C15.6046 17.5 16.5 16.6046 16.5 15.5V6.75649C16.5 6.1949 16.2639 5.65917 15.8494 5.28027L13.3807 3.02378C13.0121 2.68684 12.5308 2.5 12.0314 2.5H5.5Z" fill="black"/>
<path fill-rule="evenodd" clip-rule="evenodd" d="M6.75 9.5C6.75 9.08579 7.08579 8.75 7.5 8.75H9.5C9.91421 8.75 10.25 9.08579 10.25 9.5C10.25 9.91421 9.91421 10.25 9.5 10.25H7.5C7.08579 10.25 6.75 9.91421 6.75 9.5Z" fill="black"/>
<path fill-rule="evenodd" clip-rule="evenodd" d="M6.75 12.5C6.75 12.0858 7.08579 11.75 7.5 11.75H11.5C11.9142 11.75 12.25 12.0858 12.25 12.5C12.25 12.9142 11.9142 13.25 11.5 13.25H7.5C7.08579 13.25 6.75 12.9142 6.75 12.5Z" fill="black"/>
</svg>
