<svg viewBox="0 0 20 20" fill="none" xmlns="http://www.w3.org/2000/svg">
<path fill-rule="evenodd" clip-rule="evenodd" d="M10.9949 6.39081C10.6736 5.44549 9.3366 5.44549 9.01526 6.39081L8.4015 8.19642H6.45647C5.43232 8.19642 5.01894 9.51638 5.86012 10.1006L7.3925 11.1648L6.79978 12.9085C6.47518 13.8634 7.55753 14.679 8.38596 14.1036L10.0051 12.9792L11.6242 14.1036C12.4527 14.679 13.535 13.8634 13.2104 12.9085L12.6177 11.1648L14.1501 10.1006C14.9912 9.51638 14.5779 8.19642 13.5537 8.19642H11.6087L10.9949 6.39081ZM9.48901 8.66925L10.0051 7.15098L10.5212 8.66925C10.6653 9.09315 11.0633 9.37824 11.511 9.37824H13.1183L11.8592 10.2527C11.4761 10.5187 11.3156 11.0063 11.4657 11.4478L11.9582 12.8967L10.6014 11.9545C10.2429 11.7055 9.76732 11.7054 9.40875 11.9545L8.05202 12.8967L8.54451 11.4478C8.6946 11.0063 8.53408 10.5187 8.15102 10.2527L6.89188 9.37824H8.49918C8.9469 9.37824 9.34492 9.09315 9.48901 8.66925Z" fill="black"/>
<path fill-rule="evenodd" clip-rule="evenodd" d="M10 2.5C5.85786 2.5 2.5 5.85786 2.5 10C2.5 14.1421 5.85786 17.5 10 17.5C14.1421 17.5 17.5 14.1421 17.5 10C17.5 5.85786 14.1421 2.5 10 2.5ZM3.86364 10C3.86364 6.61098 6.61098 3.86364 10 3.86364C13.389 3.86364 16.1364 6.61098 16.1364 10C16.1364 13.389 13.389 16.1364 10 16.1364C6.61098 16.1364 3.86364 13.389 3.86364 10Z" fill="black"/>
</svg>
