<svg viewBox="0 0 20 20" fill="none" xmlns="http://www.w3.org/2000/svg">
<path fill-rule="evenodd" clip-rule="evenodd" d="M3.87039 10.3422C3.78684 8.83439 4.26218 7.34877 5.20545 6.16955L9.1449 10.109C8.56135 10.2602 8.02306 10.5649 7.58951 10.9985C6.95019 11.6378 6.59102 12.5049 6.59102 13.4091H12.445L13.8305 14.7945C12.6512 15.7378 11.1656 16.2132 9.65785 16.1296C8.15009 16.0461 6.72607 15.4095 5.65829 14.3417C4.59051 13.2739 3.95394 11.8499 3.87039 10.3422ZM13.2015 12.2375L14.7945 13.8305C15.7378 12.6512 16.2132 11.1656 16.1296 9.65785C16.0461 8.15009 15.4095 6.72607 14.3417 5.65829C13.2739 4.59051 11.8499 3.95394 10.3422 3.87039C8.83439 3.78684 7.34877 4.26218 6.16955 5.20545L8.11789 7.1538C8.21951 6.91493 8.36663 6.69529 8.55375 6.50818C8.93735 6.12458 9.45762 5.90908 10.0001 5.90908C10.5426 5.90908 11.0629 6.12458 11.4465 6.50818C11.8301 6.89177 12.0456 7.41204 12.0456 7.95453C12.0456 8.49702 11.8301 9.01729 11.4465 9.40089C11.2593 9.588 11.0397 9.73512 10.8008 9.83674L11.1717 10.2076C11.633 10.3764 12.0567 10.6445 12.4107 10.9985C12.7647 11.3524 13.0327 11.7762 13.2015 12.2375ZM2.5 10C2.5 14.142 5.85795 17.5 10 17.5C14.142 17.5 17.5 14.142 17.5 10C17.5 5.85795 14.142 2.5 10 2.5C5.85795 2.5 2.5 5.85795 2.5 10Z" fill="black"/>
</svg>
