<svg viewBox="0 0 20 20" fill="none" xmlns="http://www.w3.org/2000/svg">
<path fill-rule="evenodd" clip-rule="evenodd" d="M13.0978 15.1395C12.1936 15.6857 11.1335 16 10 16C8.77344 16 7.63284 15.632 6.68261 15.0003C7.07607 13.5519 8.3847 12.5499 9.86657 12.5499C11.3646 12.5499 12.6896 13.5739 13.067 15.048C13.0749 15.0798 13.0853 15.1103 13.0978 15.1395ZM14.1129 14.3685C13.6887 13.1664 12.7927 12.2292 11.6759 11.7284C12.6098 11.127 13.2246 10.0735 13.2246 8.8805C13.2246 7.01533 11.7246 5.5 9.87824 5.5C8.03192 5.5 6.5319 7.01533 6.5319 8.8805C6.5319 10.0833 7.14669 11.1368 8.08055 11.7284C7.01218 12.1953 6.14991 13.0699 5.70217 14.1867C4.64886 13.1056 4 11.6286 4 10C4 6.68629 6.68629 4 10 4C13.3137 4 16 6.68629 16 10C16 11.7219 15.2747 13.2743 14.1129 14.3685ZM17.5 10C17.5 14.1421 14.1421 17.5 10 17.5C5.85786 17.5 2.5 14.1421 2.5 10C2.5 5.85786 5.85786 2.5 10 2.5C14.1421 2.5 17.5 5.85786 17.5 10ZM12.0339 8.87854C12.0339 7.67571 11.0709 6.70283 9.88019 6.70283C8.68951 6.70283 7.72646 7.67571 7.72646 8.87854C7.72646 10.0814 8.68951 11.0542 9.88019 11.0542C11.0709 11.0542 12.0339 10.0814 12.0339 8.87854Z" fill="black"/>
</svg>
