<svg viewBox="0 0 20 20" fill="none" xmlns="http://www.w3.org/2000/svg">
<path d="M8.5 8.45237C8.91421 8.45237 9.25 8.77217 9.25 9.16666V13.9286C9.25 14.323 8.91421 14.6428 8.5 14.6428C8.08579 14.6428 7.75 14.323 7.75 13.9286V9.16666C7.75 8.77217 8.08579 8.45237 8.5 8.45237Z" fill="black"/>
<path d="M11.75 8.45237C12.1642 8.45237 12.5 8.77217 12.5 9.16666V13.9286C12.5 14.323 12.1642 14.6428 11.75 14.6428C11.3358 14.6428 11 14.323 11 13.9286V9.16666C11 8.77217 11.3358 8.45237 11.75 8.45237Z" fill="black"/>
<path fill-rule="evenodd" clip-rule="evenodd" d="M5.5 3.86054H4.28571C3.29949 3.86054 2.5 4.62196 2.5 5.56122C2.5 6.34703 3.0596 7.00836 3.81997 7.20347L4.38528 14.2025C4.53557 16.0632 6.16473 17.5 8.12424 17.5H11.8757C13.8353 17.5 15.4644 16.0632 15.6147 14.2025L16.18 7.20348C16.9404 7.00837 17.5 6.34704 17.5 5.56122C17.5 4.62196 16.7005 3.86054 15.7143 3.86054H14.5L13.0215 2.85479C12.6823 2.62404 12.2759 2.5 11.8591 2.5H8.14093C7.72408 2.5 7.31766 2.62404 6.97845 2.85479L5.5 3.86054ZM5.9807 5.28911H4.28571C4.12792 5.28911 4 5.41094 4 5.56122C4 5.7115 4.12792 5.83333 4.28571 5.83333H15.7143C15.8721 5.83333 16 5.7115 16 5.56122C16 5.41094 15.8721 5.28911 15.7143 5.28911H14.0193L12.1497 4.01727C12.0649 3.95958 11.9633 3.92857 11.8591 3.92857H8.14093C8.03672 3.92857 7.93511 3.95958 7.85031 4.01727L5.9807 5.28911ZM5.88086 14.0929L5.32912 7.2619H14.6709L14.1191 14.0929C14.0289 15.2093 13.0514 16.0714 11.8757 16.0714H8.12424C6.94853 16.0714 5.97104 15.2093 5.88086 14.0929Z" fill="black"/>
</svg>
