<svg viewBox="0 0 20 20" fill="none" xmlns="http://www.w3.org/2000/svg">
<path d="M8.9375 12.3438C8.41973 12.3438 8 12.7635 8 13.2812C8 13.799 8.41973 14.2188 8.9375 14.2188H10.8125C11.3303 14.2188 11.75 13.799 11.75 13.2812C11.75 12.7635 11.3303 12.3438 10.8125 12.3438H8.9375Z" fill="black"/>
<path fill-rule="evenodd" clip-rule="evenodd" d="M7.19643 6.1628C7.19643 4.71786 8.39567 3.5465 9.875 3.5465C11.3543 3.5465 12.5536 4.71786 12.5536 6.1628C12.5536 6.45177 12.7934 6.68605 13.0893 6.68605C13.3852 6.68605 13.625 6.45177 13.625 6.1628C13.625 4.13988 11.9461 2.5 9.875 2.5C7.90007 2.5 6.28172 3.99117 6.13573 5.88367C6.12869 5.91751 6.125 5.95251 6.125 5.98837V9.0625C5.08947 9.0625 4.25 9.90197 4.25 10.9375V15.625C4.25 16.6605 5.08947 17.5 6.125 17.5H13.625C14.6605 17.5 15.5 16.6605 15.5 15.625V10.9375C15.5 9.90197 14.6605 9.0625 13.625 9.0625H7.19643V6.1628ZM6.125 10.4688C5.86612 10.4688 5.65625 10.6786 5.65625 10.9375V15.625C5.65625 15.8839 5.86612 16.0938 6.125 16.0938H13.625C13.8839 16.0938 14.0938 15.8839 14.0938 15.625V10.9375C14.0938 10.6786 13.8839 10.4688 13.625 10.4688H6.125Z" fill="black"/>
</svg>
