<svg viewBox="0 0 20 20" fill="none" xmlns="http://www.w3.org/2000/svg">
<path d="M6.73842 9.99974C6.73842 8.22065 8.20161 6.77325 10.0001 6.77325C10.8701 6.77325 11.6888 7.10926 12.3053 7.71937C12.9218 8.32946 13.2609 9.13936 13.2601 9.99987C13.2601 10.1831 13.2418 10.3664 13.2025 10.5767C13.1509 10.8646 12.8974 11.0745 12.6 11.0745C12.5629 11.0745 12.5255 11.071 12.4887 11.0644C12.1549 11.0043 11.9329 10.6874 11.994 10.3583C12.0202 10.2216 12.0323 10.1079 12.0323 9.99974C12.0323 8.88968 11.12 7.98656 9.99851 7.98656C8.87792 7.98656 7.9663 8.88968 7.9663 9.99974C7.9663 11.1099 8.87931 12.0131 10.0016 12.0131C10.1039 12.0131 10.2194 12.0011 10.3651 11.9753C10.4011 11.9686 10.4394 11.965 10.4774 11.965C10.772 11.965 11.0247 12.1746 11.0783 12.4635C11.1394 12.7927 10.9175 13.1095 10.5836 13.1697C10.3601 13.2085 10.1751 13.2264 10.0001 13.2264C8.20161 13.2264 6.73842 11.7789 6.73842 9.99974Z" fill="black"/>
<path fill-rule="evenodd" clip-rule="evenodd" d="M17.4416 8.09274C17.6531 8.14085 17.8155 8.30743 17.8557 8.51719C17.9515 9.01592 18 9.51537 18 10.0013C18 10.4862 17.9514 10.985 17.8556 11.4841C17.8131 11.6947 17.6508 11.8607 17.4418 11.9083C16.6711 12.083 16.0313 12.5494 15.64 13.2217C15.247 13.8931 15.1579 14.6738 15.3891 15.4206C15.4509 15.6249 15.3863 15.8461 15.225 15.9852C14.4565 16.6411 13.5822 17.1408 12.6257 17.4706C12.5653 17.4904 12.5055 17.5 12.4453 17.5C12.2932 17.5 12.1476 17.4371 12.0456 17.3278C11.5087 16.7576 10.7814 16.4432 9.99848 16.4432C9.21553 16.4432 8.48836 16.7576 7.95074 17.3284C7.80916 17.4795 7.58396 17.5407 7.37356 17.4694C6.41627 17.1393 5.54199 16.6397 4.77406 15.9842C4.61163 15.842 4.54767 15.6209 4.60939 15.4195C4.84049 14.6729 4.7519 13.8921 4.36014 13.2203C3.96733 12.5479 3.32743 12.0815 2.55832 11.9068C2.34675 11.8585 2.18438 11.6919 2.14448 11.4824C2.04862 10.9838 2 10.4849 2 9.99971C2 9.51461 2.04862 9.0157 2.14455 8.51691C2.18425 8.30846 2.34675 8.14136 2.55852 8.09161C3.32966 7.91619 3.96904 7.44972 4.36001 6.77787C4.75192 6.10596 4.84049 5.3251 4.60953 4.57892C4.54735 4.37603 4.6117 4.1552 4.77347 4.01583C5.53517 3.36279 6.40951 2.86263 7.37258 2.52903C7.57571 2.45954 7.80752 2.51789 7.95207 2.67089C8.48977 3.24192 9.21701 3.55631 10.0001 3.55631C10.7831 3.55631 11.5098 3.24245 12.0463 2.67254C12.148 2.56339 12.2934 2.5004 12.4449 2.5004C12.5062 2.5004 12.5665 2.51051 12.6243 2.5305C13.5815 2.85997 14.4563 3.35962 15.2244 4.0154C15.3888 4.15502 15.4535 4.37737 15.3887 4.58157C15.1593 5.32709 15.2484 6.10802 15.6399 6.77921C16.0327 7.4515 16.6726 7.91818 17.4416 8.09274ZM12.4353 15.9687C12.9995 15.7436 13.5263 15.4425 14.0039 15.0725C13.8255 14.197 13.9722 13.2975 14.4212 12.5277C14.8699 11.7574 15.585 11.1815 16.4431 10.8969C16.4884 10.5865 16.51 10.2863 16.5074 10.0028C16.5074 9.70651 16.4853 9.40517 16.4416 9.10435C15.5834 8.81966 14.8683 8.24365 14.4197 7.47322C13.9701 6.70245 13.8238 5.80288 14.0038 4.92841C13.5263 4.5585 12.9995 4.25755 12.4352 4.03231C11.7621 4.62241 10.9012 4.94617 9.9985 4.94617C9.09862 4.94617 8.2377 4.62196 7.56203 4.0308C6.99761 4.2561 6.47075 4.55705 5.99321 4.92697C6.17261 5.80057 6.02577 6.70029 5.57577 7.47177C5.12432 8.2445 4.40919 8.82038 3.55385 9.1029C3.51015 9.40398 3.48807 9.7052 3.48807 9.99972C3.48807 10.2955 3.51015 10.5968 3.55385 10.8969C4.41187 11.1814 5.12713 11.7574 5.57577 12.5278C6.02814 13.3021 6.17504 14.2018 5.99347 15.0727C6.4712 15.4428 6.99808 15.7437 7.56223 15.9689C8.23988 15.3786 9.10072 15.0549 9.99852 15.0549C10.9012 15.0549 11.7621 15.3786 12.4353 15.9687Z" fill="black"/>
</svg>
