<svg width="77" height="77" viewBox="0 0 77 77" fill="none"
    xmlns="http://www.w3.org/2000/svg">
    <rect width="77" height="77" fill="black" />
    <path fill-rule="evenodd" clip-rule="evenodd"
        d="M24.2 23.7424C25.3137 24.3514 26.2616 24.9821 27.042 25.5657C30.4347 23.8504 34.3479 22.8253 38.5145 22.8253C42.6913 22.8253 46.6135 23.8031 50.0119 25.4549C50.763 24.9028 51.661 24.313 52.7046 23.7424C54.9536 22.5122 56.8323 21.8078 57.9541 21.4453C58.2328 21.3553 58.507 21.4124 58.7145 21.5645C58.951 21.668 59.1386 21.8775 59.2002 22.1647C59.4471 23.3175 59.7765 25.2967 59.8357 27.8595C59.8921 30.292 59.5746 32.2368 59.2982 33.4414C61.0238 36.0977 62.0007 39.0425 62.0007 42.0183C62.0007 51.7814 51.4855 58.1808 38.5145 58.1808C25.5434 58.1808 15.0283 52.2865 15.0283 42.5234C15.0283 39.5559 15.9997 36.5726 17.7162 33.8572C17.7003 33.8184 17.6869 33.7777 17.6764 33.735C17.3872 32.567 17.0076 30.5008 17.0689 27.8595C17.1281 25.2967 17.4575 23.3175 17.7044 22.1647C17.766 21.8775 17.9536 21.668 18.1901 21.5645C18.3976 21.4124 18.6718 21.3553 18.9505 21.4453C20.0723 21.8078 21.951 22.5122 24.2 23.7424Z"
        fill="url(#paint0_linear_4669_47105)" />
    <circle cx="29.1772" cy="41.6323" r="4.1772" fill="white" />
    <circle cx="32.1078" cy="41.4232" r="1.0443" fill="black" />
    <circle cx="47.9751" cy="41.6323" r="4.1772" fill="white" />
    <circle cx="45.1078" cy="41.4232" r="1.0443" fill="black" />
    <path
        d="M39.0999 47.6898C38.9392 47.9683 38.5372 47.9683 38.3764 47.6898L37.8338 46.75C37.673 46.4715 37.874 46.1234 38.1955 46.1234L39.2808 46.1234C39.6024 46.1234 39.8033 46.4715 39.6426 46.75L39.0999 47.6898Z"
        fill="#E9597F" />
    <defs>
        <linearGradient id="paint0_linear_4669_47105" x1="38.5145" y1="21.4023"
            x2="38.5145" y2="58.1808" gradientUnits="userSpaceOnUse">
            <stop stop-color="#2B2B2B" />
            <stop offset="1" stop-color="#3D3D3D" stop-opacity="0" />
        </linearGradient>
    </defs>
</svg>