<svg viewBox="0 0 200 200" fill="none" xmlns="http://www.w3.org/2000/svg">
<path d="M0.600098 161.1C0.600098 167.73 10.4404 174.089 27.9563 178.777C45.4722 183.466 69.2289 186.1 94.0001 186.1C118.771 186.1 142.528 183.466 160.044 178.777C177.56 174.089 187.4 167.73 187.4 161.1C187.4 154.469 177.56 148.11 160.044 143.422C142.528 138.734 118.771 136.1 94.0001 136.1C69.2289 136.1 45.4722 138.734 27.9563 143.422C10.4404 148.11 0.600098 154.469 0.600098 161.1Z" fill="#E2E2E2"/>
<path d="M77.5 92.8001C69.2 100.6 68.8 113.6 76.5 121.9C84.3 130.2 97.3 130.6 105.6 122.9C113.9 115.1 115.1 96.4001 107.4 88.0001C99.7 79.7001 85.9 85.0001 77.5 92.8001Z" fill="#FFD7B6"/>
<path d="M13.1001 34.7L15.7001 109.9C15.7001 109.9 100.1 98.4 190.8 122.3C190.8 122.3 191.9 60.8 200 36.6C200 36.7 30.0001 -1.30001 13.1001 34.7Z" fill="#F6F6F6"/>
<path d="M94 186C135.3 186 170.3 178.8 182.6 168.9C158 159.4 127.8 153.8 95.2 153.8C61.8 153.8 31 159.7 6.19995 169.6C19.2 179.2 53.6 186 94 186Z" fill="#5D5D5D"/>
<path d="M80.9 115.6C80.9 115.6 75.8 182.7 75.8 185.8C88 187.2 104.9 186.4 107.5 185.8C107.5 184.1 107.7 118.7 107.7 118.7L80.9 115.6Z" fill="#FFD7B6"/>
<path d="M80.2 113.2C77.7 117.8 80.1 123.5 85.5 125.9C90.9 128.4 97.4 126.7 99.9 122.1C102.4 117.5 100 111.8 94.6 109.4C89.2 106.9 82.8 108.6 80.2 113.2Z" fill="#FFBF94"/>
<path d="M73.3 79.2004C74.4 80.5004 74.5001 80.3004 74.5001 82.0004L73.8 113.7C73.7 116.6 76 121 78.9 121C81.8 121.1 84.2001 118.8 84.3001 115.9L84.9 87.8004C85 83.1004 78 79.0004 73.3 79.2004Z" fill="#FFBF94"/>
<path d="M73.3001 79.1998L72.6001 113.6C72.5001 116.5 74.8001 120.9 77.7001 120.9C80.6001 121 83.0001 118.7 83.1001 115.8L83.7001 88.7998C83.8001 80.9998 75.6001 78.9998 73.3001 79.1998Z" fill="#FFD7B6"/>
<path d="M77.5 114.2C75.2 118.8 78.2 124.6 84.3 127.2C90.4 129.8 97.2 128.1 99.5 123.5C101.8 118.9 98.8 113.1 92.7 110.5C86.7 108 79.9 109.7 77.5 114.2Z" fill="#FFD7B6"/>
<path d="M72.5544 68.96C72.5277 68.5333 72.501 67.9533 72.4744 67.22C72.4477 66.4867 72.4344 65.7333 72.4344 64.96C72.4344 64.52 72.4344 64.0667 72.4344 63.6C72.4477 63.12 72.461 62.6333 72.4744 62.14C72.501 61.1533 72.561 60.38 72.6544 59.82C72.761 59.26 72.961 58.84 73.2544 58.56C73.561 58.28 73.9877 58.1067 74.5344 58.04C75.081 57.9733 75.8077 57.94 76.7144 57.94C76.7277 57.94 76.8677 57.94 77.1344 57.94C77.4144 57.94 77.7477 57.9467 78.1344 57.96C78.521 57.96 78.921 57.9667 79.3344 57.98C79.761 57.9933 80.1144 58.0067 80.3944 58.02C80.6877 58.0467 80.921 58.0867 81.0944 58.14C81.281 58.18 81.421 58.24 81.5144 58.32C81.6077 58.3867 81.6677 58.4733 81.6944 58.58C81.721 58.6733 81.7344 58.78 81.7344 58.9C81.7344 59.2067 81.6477 59.4333 81.4744 59.58C81.301 59.7133 80.9477 59.8 80.4144 59.84C80.1477 59.8667 79.7544 59.8867 79.2344 59.9C78.7277 59.9 78.2077 59.9 77.6744 59.9C77.141 59.9 76.661 59.9067 76.2344 59.92C75.8077 59.92 75.541 59.92 75.4344 59.92C75.0877 59.9333 74.841 60.0133 74.6944 60.16C74.561 60.2933 74.4944 60.62 74.4944 61.14C74.4944 61.26 74.501 61.5533 74.5144 62.02C74.541 62.4733 74.5544 63.1133 74.5544 63.94H76.2144C76.921 63.94 77.4944 63.9533 77.9344 63.98C78.3877 63.9933 78.7344 64.0333 78.9744 64.1C79.2277 64.1667 79.401 64.2733 79.4944 64.42C79.5877 64.5667 79.6344 64.76 79.6344 65C79.6344 65.12 79.621 65.2333 79.5944 65.34C79.581 65.4333 79.5277 65.52 79.4344 65.6C79.341 65.6667 79.2077 65.7267 79.0344 65.78C78.861 65.82 78.6144 65.8533 78.2944 65.88C77.9077 65.9067 77.541 65.9267 77.1944 65.94C76.861 65.94 76.5277 65.94 76.1944 65.94H74.5144C74.5144 66.14 74.5144 66.38 74.5144 66.66C74.5144 66.94 74.5144 67.2267 74.5144 67.52C74.5144 67.8133 74.5144 68.1 74.5144 68.38C74.5277 68.66 74.541 68.8867 74.5544 69.06C74.5677 69.2733 74.5944 69.4533 74.6344 69.6C74.6877 69.7467 74.7744 69.8667 74.8944 69.96C75.0277 70.0533 75.2144 70.12 75.4544 70.16C75.7077 70.2 76.041 70.22 76.4544 70.22H80.7544C81.221 70.22 81.5144 70.3067 81.6344 70.48C81.7544 70.6533 81.8144 70.8867 81.8144 71.18C81.8144 71.42 81.761 71.6067 81.6544 71.74C81.5477 71.86 81.2877 71.9467 80.8744 72C80.4744 72.0667 79.8677 72.1067 79.0544 72.12C78.2544 72.1333 77.1477 72.14 75.7344 72.14C75.1344 72.14 74.641 72.0867 74.2544 71.98C73.8677 71.8733 73.5544 71.6933 73.3144 71.44C73.0744 71.1867 72.8944 70.86 72.7744 70.46C72.6677 70.0467 72.5944 69.5467 72.5544 68.96ZM88.2263 67.08C88.0396 67.0933 87.8463 67.1067 87.6463 67.12C87.4596 67.12 87.2663 67.12 87.0663 67.12C86.8396 67.12 86.6129 67.12 86.3863 67.12C86.1596 67.12 85.9063 67.1067 85.6263 67.08V71.14C85.6263 71.5667 85.5196 71.8333 85.3063 71.94C85.1063 72.0333 84.8529 72.08 84.5463 72.08C84.3863 72.08 84.2596 72.0667 84.1663 72.04C84.0729 72.0267 83.9929 71.9933 83.9263 71.94C83.8729 71.8733 83.8263 71.78 83.7863 71.66C83.7596 71.54 83.7396 71.3733 83.7262 71.16C83.6996 70.92 83.6796 70.5733 83.6663 70.12C83.6529 69.6533 83.6396 69.0533 83.6263 68.32C83.6263 67.5867 83.6196 66.7 83.6063 65.66C83.6063 64.6067 83.6063 63.3733 83.6063 61.96C83.6063 61.4133 83.6729 60.8867 83.8063 60.38C83.9396 59.86 84.1796 59.4067 84.5263 59.02C84.8729 58.62 85.3396 58.3 85.9263 58.06C86.5263 57.82 87.2863 57.7 88.2063 57.7C88.8596 57.7 89.4929 57.7733 90.1063 57.92C90.7329 58.0667 91.2863 58.32 91.7663 58.68C92.2463 59.04 92.6329 59.5267 92.9263 60.14C93.2196 60.7533 93.3663 61.52 93.3663 62.44C93.3663 63.6667 93.0996 64.62 92.5663 65.3C92.0463 65.9667 91.3263 66.44 90.4063 66.72L93.0863 70.4C93.3263 70.72 93.4463 71.0467 93.4463 71.38C93.4463 71.6467 93.3529 71.8533 93.1663 72C92.9929 72.16 92.7729 72.24 92.5062 72.24C92.2129 72.24 91.9596 72.16 91.7463 72C91.5329 71.8267 91.3329 71.6067 91.1463 71.34L88.2263 67.08ZM91.3663 62.42C91.3663 61.5 91.0863 60.82 90.5263 60.38C89.9796 59.9267 89.1063 59.7 87.9063 59.7C87.4663 59.7 87.0996 59.74 86.8063 59.82C86.5129 59.8867 86.2796 60.02 86.1063 60.22C85.9329 60.42 85.8063 60.7 85.7263 61.06C85.6596 61.4067 85.6263 61.8533 85.6263 62.4C85.6263 62.7867 85.6263 63.24 85.6263 63.76C85.6263 64.28 85.6329 64.7533 85.6463 65.18C85.9529 65.1933 86.2929 65.2 86.6663 65.2C87.0529 65.2 87.4129 65.2 87.7463 65.2C88.1196 65.2 88.5129 65.18 88.9263 65.14C89.3529 65.0867 89.7463 64.9667 90.1063 64.78C90.4663 64.58 90.7663 64.3 91.0063 63.94C91.2463 63.5667 91.3663 63.06 91.3663 62.42ZM99.7692 67.08C99.5826 67.0933 99.3892 67.1067 99.1892 67.12C99.0026 67.12 98.8092 67.12 98.6092 67.12C98.3826 67.12 98.1559 67.12 97.9292 67.12C97.7026 67.12 97.4492 67.1067 97.1692 67.08V71.14C97.1692 71.5667 97.0626 71.8333 96.8492 71.94C96.6492 72.0333 96.3959 72.08 96.0892 72.08C95.9292 72.08 95.8026 72.0667 95.7092 72.04C95.6159 72.0267 95.5359 71.9933 95.4692 71.94C95.4159 71.8733 95.3692 71.78 95.3292 71.66C95.3026 71.54 95.2826 71.3733 95.2692 71.16C95.2426 70.92 95.2226 70.5733 95.2092 70.12C95.1959 69.6533 95.1826 69.0533 95.1692 68.32C95.1692 67.5867 95.1626 66.7 95.1492 65.66C95.1492 64.6067 95.1492 63.3733 95.1492 61.96C95.1492 61.4133 95.2159 60.8867 95.3492 60.38C95.4826 59.86 95.7226 59.4067 96.0692 59.02C96.4159 58.62 96.8826 58.3 97.4692 58.06C98.0692 57.82 98.8292 57.7 99.7492 57.7C100.403 57.7 101.036 57.7733 101.649 57.92C102.276 58.0667 102.829 58.32 103.309 58.68C103.789 59.04 104.176 59.5267 104.469 60.14C104.763 60.7533 104.909 61.52 104.909 62.44C104.909 63.6667 104.643 64.62 104.109 65.3C103.589 65.9667 102.869 66.44 101.949 66.72L104.629 70.4C104.869 70.72 104.989 71.0467 104.989 71.38C104.989 71.6467 104.896 71.8533 104.709 72C104.536 72.16 104.316 72.24 104.049 72.24C103.756 72.24 103.503 72.16 103.289 72C103.076 71.8267 102.876 71.6067 102.689 71.34L99.7692 67.08ZM102.909 62.42C102.909 61.5 102.629 60.82 102.069 60.38C101.523 59.9267 100.649 59.7 99.4492 59.7C99.0092 59.7 98.6426 59.74 98.3492 59.82C98.0559 59.8867 97.8226 60.02 97.6492 60.22C97.4759 60.42 97.3492 60.7 97.2692 61.06C97.2026 61.4067 97.1692 61.8533 97.1692 62.4C97.1692 62.7867 97.1692 63.24 97.1692 63.76C97.1692 64.28 97.1759 64.7533 97.1892 65.18C97.4959 65.1933 97.8359 65.2 98.2092 65.2C98.5959 65.2 98.9559 65.2 99.2892 65.2C99.6626 65.2 100.056 65.18 100.469 65.14C100.896 65.0867 101.289 64.9667 101.649 64.78C102.009 64.58 102.309 64.3 102.549 63.94C102.789 63.5667 102.909 63.06 102.909 62.42ZM112.052 72.2C111.252 72.2 110.499 72.04 109.792 71.72C109.099 71.4 108.492 70.94 107.972 70.34C107.452 69.7267 107.039 68.98 106.732 68.1C106.439 67.22 106.292 66.22 106.292 65.1C106.292 64.0467 106.419 63.08 106.672 62.2C106.939 61.32 107.326 60.56 107.832 59.92C108.352 59.28 108.992 58.7867 109.752 58.44C110.512 58.08 111.392 57.9 112.392 57.9C113.206 57.9 113.979 58.0467 114.712 58.34C115.446 58.6333 116.086 59.0733 116.632 59.66C117.192 60.2467 117.632 60.98 117.952 61.86C118.272 62.74 118.432 63.7667 118.432 64.94C118.432 65.9133 118.299 66.84 118.032 67.72C117.779 68.6 117.386 69.3733 116.852 70.04C116.332 70.6933 115.672 71.22 114.872 71.62C114.072 72.0067 113.132 72.2 112.052 72.2ZM112.092 70.32C112.826 70.32 113.466 70.1733 114.012 69.88C114.559 69.5733 115.012 69.1733 115.372 68.68C115.732 68.1867 115.999 67.62 116.172 66.98C116.346 66.3267 116.432 65.66 116.432 64.98C116.432 64.1533 116.319 63.42 116.092 62.78C115.879 62.1267 115.586 61.58 115.212 61.14C114.839 60.7 114.406 60.3667 113.912 60.14C113.419 59.9 112.892 59.78 112.332 59.78C111.666 59.78 111.079 59.92 110.572 60.2C110.079 60.48 109.659 60.86 109.312 61.34C108.979 61.82 108.726 62.3867 108.552 63.04C108.379 63.68 108.292 64.3667 108.292 65.1C108.292 65.8867 108.392 66.6067 108.592 67.26C108.792 67.9 109.059 68.4467 109.392 68.9C109.739 69.3533 110.146 69.7067 110.612 69.96C111.079 70.2 111.572 70.32 112.092 70.32ZM125.043 67.08C124.856 67.0933 124.663 67.1067 124.463 67.12C124.276 67.12 124.083 67.12 123.883 67.12C123.656 67.12 123.429 67.12 123.203 67.12C122.976 67.12 122.723 67.1067 122.443 67.08V71.14C122.443 71.5667 122.336 71.8333 122.123 71.94C121.923 72.0333 121.669 72.08 121.363 72.08C121.203 72.08 121.076 72.0667 120.983 72.04C120.889 72.0267 120.809 71.9933 120.743 71.94C120.689 71.8733 120.643 71.78 120.603 71.66C120.576 71.54 120.556 71.3733 120.543 71.16C120.516 70.92 120.496 70.5733 120.483 70.12C120.469 69.6533 120.456 69.0533 120.443 68.32C120.443 67.5867 120.436 66.7 120.423 65.66C120.423 64.6067 120.423 63.3733 120.423 61.96C120.423 61.4133 120.489 60.8867 120.623 60.38C120.756 59.86 120.996 59.4067 121.343 59.02C121.689 58.62 122.156 58.3 122.743 58.06C123.343 57.82 124.103 57.7 125.023 57.7C125.676 57.7 126.309 57.7733 126.923 57.92C127.549 58.0667 128.103 58.32 128.583 58.68C129.063 59.04 129.449 59.5267 129.743 60.14C130.036 60.7533 130.183 61.52 130.183 62.44C130.183 63.6667 129.916 64.62 129.383 65.3C128.863 65.9667 128.143 66.44 127.223 66.72L129.903 70.4C130.143 70.72 130.263 71.0467 130.263 71.38C130.263 71.6467 130.169 71.8533 129.983 72C129.809 72.16 129.589 72.24 129.323 72.24C129.029 72.24 128.776 72.16 128.563 72C128.349 71.8267 128.149 71.6067 127.963 71.34L125.043 67.08ZM128.183 62.42C128.183 61.5 127.903 60.82 127.343 60.38C126.796 59.9267 125.923 59.7 124.723 59.7C124.283 59.7 123.916 59.74 123.623 59.82C123.329 59.8867 123.096 60.02 122.923 60.22C122.749 60.42 122.623 60.7 122.543 61.06C122.476 61.4067 122.443 61.8533 122.443 62.4C122.443 62.7867 122.443 63.24 122.443 63.76C122.443 64.28 122.449 64.7533 122.463 65.18C122.769 65.1933 123.109 65.2 123.483 65.2C123.869 65.2 124.229 65.2 124.563 65.2C124.936 65.2 125.329 65.18 125.743 65.14C126.169 65.0867 126.563 64.9667 126.923 64.78C127.283 64.58 127.583 64.3 127.823 63.94C128.063 63.5667 128.183 63.06 128.183 62.42Z" fill="black"/>
</svg>
