<svg width="100" height="73" viewBox="0 0 100 73" fill="none" xmlns="http://www.w3.org/2000/svg">
<path d="M70.732 56.1302C71.548 56.1302 72.232 56.3582 72.76 56.8382C73.276 57.3182 73.54 57.9302 73.54 58.6862C73.54 59.4302 73.252 60.1022 72.7 60.7142C72.364 61.0622 71.776 61.5182 70.924 62.0942C70 62.7062 69.448 63.2462 69.268 63.7142H73.552V64.8662H67.648C67.648 64.0142 67.924 63.2702 68.5 62.6222C68.812 62.2502 69.46 61.7342 70.432 61.0622C71.008 60.6542 71.416 60.3302 71.656 60.0782C72.04 59.6462 72.244 59.1782 72.244 58.6742C72.244 58.1942 72.112 57.8342 71.848 57.5942C71.584 57.3542 71.188 57.2342 70.684 57.2342C70.144 57.2342 69.736 57.4142 69.46 57.7862C69.172 58.1462 69.028 58.6622 69.004 59.3582H67.696C67.708 58.3982 67.984 57.6302 68.524 57.0542C69.076 56.4302 69.82 56.1302 70.732 56.1302ZM78.7433 55.0262H79.8473L75.6593 66.0662H74.5433L78.7433 55.0262ZM84.6593 56.2982H85.8593V61.9622H87.1553V63.0062H85.8593V64.8662H84.6113V63.0062H80.4353V61.7702L84.6593 56.2982ZM84.5753 57.9542L81.5033 61.9622H84.6113V57.9542H84.5753Z" fill="white" fill-opacity="0.76"/>
<rect width="100" height="73" rx="5" fill="#D9D9D9"/>
<path d="M62.2994 30.1277L64.7336 27.6086C64.8212 27.5179 64.8898 27.4112 64.9354 27.2946C64.9811 27.1779 65.0029 27.0535 64.9997 26.9285C64.9964 26.8035 64.9682 26.6804 64.9165 26.5661C64.8648 26.4519 64.7908 26.3488 64.6986 26.2627C64.3107 25.8999 63.6986 25.9157 63.3287 26.2971L60.9634 28.745L58.5981 26.2972C58.5106 26.2063 58.4057 26.1333 58.2894 26.0823C58.1731 26.0314 58.0477 26.0035 57.9204 26.0003C57.7931 25.9971 57.6665 26.0187 57.5477 26.0637C57.4289 26.1088 57.3203 26.1764 57.2282 26.2628C56.8403 26.6246 56.8248 27.2273 57.1932 27.6087L59.6274 30.1278L57.1932 32.647C57.1056 32.7376 57.037 32.8443 56.9914 32.961C56.9457 33.0777 56.9239 33.2021 56.9271 33.327C56.9304 33.452 56.9586 33.5752 57.0103 33.6894C57.062 33.8036 57.136 33.9068 57.2282 33.9928C57.408 34.1616 57.6471 34.2556 57.8956 34.2551C58.1515 34.2551 58.4073 34.1556 58.598 33.9585L60.9633 31.5106L63.3286 33.9585C63.419 34.0522 63.5279 34.1269 63.6487 34.1779C63.7694 34.2289 63.8995 34.2552 64.0309 34.2551C64.2795 34.2556 64.5186 34.1616 64.6983 33.9928C65.0862 33.6311 65.1018 33.0283 64.7333 32.647L62.2994 30.1277ZM35.6713 33.9583L38.0367 31.5104L40.4021 33.9583C40.4925 34.0521 40.6014 34.1268 40.7222 34.1778C40.843 34.2288 40.9731 34.2551 41.1046 34.255C41.3531 34.2555 41.5922 34.1615 41.7719 33.9927C42.1598 33.631 42.1754 33.0282 41.8069 32.6469L39.3727 30.1277L41.8068 27.6086C41.8944 27.5179 41.963 27.4112 42.0087 27.2946C42.0543 27.1779 42.0762 27.0535 42.0729 26.9285C42.0697 26.8035 42.0414 26.6804 41.9897 26.5661C41.9381 26.4519 41.864 26.3488 41.7718 26.2627C41.3844 25.8999 40.7714 25.9157 40.4019 26.2971L38.0367 28.745L35.6713 26.2972C35.5838 26.2063 35.4789 26.1333 35.3626 26.0823C35.2463 26.0314 35.1209 26.0035 34.9936 26.0003C34.8664 25.9971 34.7397 26.0187 34.6209 26.0637C34.5021 26.1088 34.3936 26.1764 34.3014 26.2628C33.9136 26.6246 33.898 27.2273 34.2665 27.6087L36.7006 30.1278L34.2665 32.6469C34.1788 32.7375 34.1102 32.8442 34.0646 32.9609C34.0189 33.0775 33.9971 33.2019 34.0003 33.3269C34.0036 33.4519 34.0318 33.575 34.0835 33.6893C34.1352 33.8035 34.2092 33.9066 34.3014 33.9927C34.4812 34.1615 34.7203 34.2554 34.9688 34.255C35.2249 34.255 35.4807 34.1555 35.6713 33.9583ZM64.0595 45.244C50.5596 36.797 39.9767 42.6333 35.4566 45.124C35.3457 45.1851 35.2481 45.2672 35.1694 45.3655C35.0907 45.4638 35.0325 45.5763 34.998 45.6967C34.9636 45.8171 34.9536 45.943 34.9687 46.0672C34.9838 46.1914 35.0236 46.3115 35.0859 46.4205C35.3475 46.88 35.9387 47.0436 36.4047 46.7851C40.6216 44.4608 50.4982 39.0152 63.0189 46.8511C63.2357 46.9867 63.4984 47.0321 63.7492 46.9773C64.0001 46.9226 64.2185 46.7722 64.3566 46.5591C64.4945 46.346 64.5406 46.0877 64.4849 45.8411C64.4292 45.5945 64.2762 45.3797 64.0595 45.244Z" fill="white"/>
</svg>
