<svg width="100" height="73" viewBox="0 0 100 73" fill="none" xmlns="http://www.w3.org/2000/svg">
<path d="M70.732 56.1292C71.548 56.1292 72.232 56.3572 72.76 56.8372C73.276 57.3172 73.54 57.9292 73.54 58.6852C73.54 59.4292 73.252 60.1012 72.7 60.7132C72.364 61.0612 71.776 61.5172 70.924 62.0932C70 62.7052 69.448 63.2452 69.268 63.7132H73.552V64.8652H67.648C67.648 64.0132 67.924 63.2692 68.5 62.6212C68.812 62.2492 69.46 61.7332 70.432 61.0612C71.008 60.6532 71.416 60.3292 71.656 60.0772C72.04 59.6452 72.244 59.1772 72.244 58.6732C72.244 58.1932 72.112 57.8332 71.848 57.5932C71.584 57.3532 71.188 57.2332 70.684 57.2332C70.144 57.2332 69.736 57.4132 69.46 57.7852C69.172 58.1452 69.028 58.6612 69.004 59.3572H67.696C67.708 58.3972 67.984 57.6292 68.524 57.0532C69.076 56.4292 69.82 56.1292 70.732 56.1292ZM78.7433 55.0252H79.8473L75.6593 66.0652H74.5433L78.7433 55.0252ZM84.6593 56.2972H85.8593V61.9612H87.1553V63.0052H85.8593V64.8652H84.6113V63.0052H80.4353V61.7692L84.6593 56.2972ZM84.5753 57.9532L81.5033 61.9612H84.6113V57.9532H84.5753Z" fill="white" fill-opacity="0.76"/>
<rect width="100" height="73" rx="5" fill="#D9D9D9"/>
<path d="M62.2994 24.1277L64.7336 21.6086C64.8212 21.5179 64.8898 21.4112 64.9354 21.2946C64.9811 21.1779 65.0029 21.0535 64.9997 20.9285C64.9964 20.8035 64.9682 20.6804 64.9165 20.5661C64.8648 20.4519 64.7908 20.3488 64.6986 20.2627C64.3107 19.8999 63.6986 19.9157 63.3287 20.2971L60.9634 22.745L58.5981 20.2972C58.5106 20.2063 58.4057 20.1333 58.2894 20.0823C58.1731 20.0314 58.0477 20.0035 57.9204 20.0003C57.7931 19.9971 57.6665 20.0187 57.5477 20.0637C57.4289 20.1088 57.3203 20.1764 57.2282 20.2628C56.8403 20.6246 56.8248 21.2273 57.1932 21.6087L59.6274 24.1278L57.1932 26.647C57.1056 26.7376 57.037 26.8443 56.9914 26.961C56.9457 27.0777 56.9239 27.2021 56.9271 27.327C56.9304 27.452 56.9586 27.5752 57.0103 27.6894C57.062 27.8036 57.136 27.9068 57.2282 27.9928C57.408 28.1616 57.6471 28.2556 57.8956 28.2551C58.1515 28.2551 58.4073 28.1556 58.598 27.9585L60.9633 25.5106L63.3286 27.9585C63.419 28.0522 63.5279 28.1269 63.6487 28.1779C63.7694 28.2289 63.8995 28.2552 64.0309 28.2551C64.2795 28.2556 64.5186 28.1616 64.6983 27.9928C65.0862 27.6311 65.1018 27.0283 64.7333 26.647L62.2994 24.1277ZM35.6713 27.9583L38.0367 25.5104L40.4021 27.9583C40.4925 28.0521 40.6014 28.1268 40.7222 28.1778C40.843 28.2288 40.9731 28.2551 41.1046 28.255C41.3531 28.2555 41.5922 28.1615 41.7719 27.9927C42.1598 27.631 42.1754 27.0282 41.8069 26.6469L39.3727 24.1277L41.8068 21.6086C41.8944 21.5179 41.963 21.4112 42.0087 21.2946C42.0543 21.1779 42.0762 21.0535 42.0729 20.9285C42.0697 20.8035 42.0414 20.6804 41.9897 20.5661C41.9381 20.4519 41.864 20.3488 41.7718 20.2627C41.3844 19.8999 40.7714 19.9157 40.4019 20.2971L38.0367 22.745L35.6713 20.2972C35.5838 20.2063 35.4789 20.1333 35.3626 20.0823C35.2463 20.0314 35.1209 20.0035 34.9936 20.0003C34.8664 19.9971 34.7397 20.0187 34.6209 20.0637C34.5021 20.1088 34.3936 20.1764 34.3014 20.2628C33.9136 20.6246 33.898 21.2273 34.2665 21.6087L36.7006 24.1278L34.2665 26.6469C34.1788 26.7375 34.1102 26.8442 34.0646 26.9609C34.0189 27.0775 33.9971 27.2019 34.0003 27.3269C34.0036 27.4519 34.0318 27.575 34.0835 27.6893C34.1352 27.8035 34.2092 27.9066 34.3014 27.9927C34.4812 28.1615 34.7203 28.2554 34.9688 28.255C35.2249 28.255 35.4807 28.1555 35.6713 27.9583ZM64.0595 39.244C50.5597 30.797 39.9767 36.6333 35.4566 39.124C35.3457 39.1851 35.2481 39.2672 35.1694 39.3655C35.0907 39.4638 35.0325 39.5763 34.998 39.6967C34.9636 39.8171 34.9536 39.943 34.9687 40.0672C34.9838 40.1914 35.0236 40.3115 35.0859 40.4205C35.3475 40.88 35.9387 41.0436 36.4047 40.7851C40.6216 38.4608 50.4982 33.0152 63.0189 40.8511C63.2357 40.9867 63.4984 41.0321 63.7492 40.9774C64.0001 40.9226 64.2185 40.7722 64.3566 40.5591C64.4945 40.346 64.5406 40.0877 64.4849 39.8411C64.4292 39.5945 64.2762 39.3797 64.0595 39.244Z" fill="white"/>
</svg>
