<svg viewBox="0 0 200 200" fill="none" xmlns="http://www.w3.org/2000/svg">
<path d="M23 161.836C22.9996 164.127 24.9409 166.396 28.713 168.513C32.4852 170.629 38.0143 172.552 44.9847 174.172C51.9552 175.792 60.2303 177.077 69.3378 177.954C78.4453 178.831 88.2066 179.282 98.0645 179.282C107.922 179.282 117.684 178.831 126.791 177.954C135.899 177.077 144.174 175.792 151.144 174.172C158.115 172.552 163.644 170.629 167.416 168.513C171.188 166.396 173.129 164.127 173.129 161.836C173.129 159.545 171.188 157.277 167.416 155.16C163.644 153.044 158.115 151.12 151.144 149.5C144.174 147.88 135.899 146.595 126.791 145.719C117.684 144.842 107.922 144.391 98.0645 144.391C88.2066 144.391 78.4453 144.842 69.3378 145.719C60.2303 146.595 51.9552 147.88 44.9847 149.5C38.0143 151.12 32.4852 153.044 28.713 155.16C24.9409 157.277 22.9996 159.545 23 161.836Z" fill="#E7EBF3"/>
<path d="M30.4014 124.304L46.258 91.5283H151.985L167.841 124.304L140.998 157.168H55.2928L30.4014 124.304Z" fill="#F4F5FF"/>
<path d="M33.9054 123.956L56.785 154.165H139.575L164.304 123.887L150.102 94.5309H48.1436L33.9054 123.956ZM30.4014 124.304L46.258 91.5283H151.985L167.841 124.304L140.998 157.168H55.2928L30.4014 124.304Z" fill="#979797"/>
<path d="M42.0303 126.418H156.212V134.876H42.0303V126.418Z" fill="#F9F9F9"/>
<path d="M45.0329 129.421V131.874H153.21V129.421H45.0329ZM42.0303 126.418H156.212V134.876H42.0303V126.418Z" fill="#979797"/>
<path d="M56.4938 34.4365H140.692C142.285 34.4365 143.812 35.0692 144.938 36.1954C146.065 37.3216 146.697 38.849 146.697 40.4417V83.7839C146.698 97.2337 149.71 110.513 155.513 122.646L158.326 128.531H38.8596L41.673 122.646C47.4761 110.513 50.4883 97.2337 50.4886 83.7839V40.4417C50.4886 39.6531 50.6439 38.8722 50.9457 38.1436C51.2475 37.415 51.6899 36.753 52.2475 36.1954C52.8051 35.6378 53.4671 35.1954 54.1957 34.8936C54.9243 34.5919 55.7052 34.4365 56.4938 34.4365Z" fill="white"/>
<path d="M152.805 123.943C146.808 111.405 143.695 97.6827 143.695 83.7839V40.4417C143.695 39.6453 143.378 38.8816 142.815 38.3185C142.252 37.7554 141.488 37.4391 140.692 37.4391H56.4938C55.6974 37.4391 54.9337 37.7554 54.3706 38.3185C53.8075 38.8816 53.4912 39.6453 53.4912 40.4417V83.7839C53.4901 97.6829 50.3762 111.405 44.3784 123.943L43.6187 125.529H153.561L152.802 123.943H152.805ZM56.4938 34.4365H140.692C142.285 34.4365 143.812 35.0692 144.938 36.1954C146.065 37.3216 146.697 38.849 146.697 40.4417V83.7839C146.698 97.2337 149.71 110.513 155.513 122.646L158.326 128.531H38.8596L41.673 122.646C47.4761 110.513 50.4883 97.2337 50.4886 83.7839V40.4417C50.4886 39.6531 50.6439 38.8722 50.9457 38.1436C51.2475 37.415 51.6899 36.753 52.2475 36.1954C52.8051 35.6378 53.4671 35.1954 54.1957 34.8936C54.9243 34.5919 55.7052 34.4365 56.4938 34.4365Z" fill="#979797"/>
<path d="M83.9224 58.0157C84.5379 58.2379 84.7541 58.6913 84.7541 59.3729C84.7541 60.0514 84.5379 61.892 84.2346 62.6036C83.9344 63.3153 83.0636 64.9216 81.172 65.8735C79.2804 66.8253 76.503 67.0445 74.7345 66.3839C73.5544 65.9395 72.6266 65.0778 71.9511 63.7927C71.5277 62.6817 71.5277 61.874 71.9511 61.3726C72.5816 60.6189 73.2422 61.1084 73.9838 61.3726C74.7285 61.6338 76.524 61.9761 78.3285 61.3726C80.1331 60.7661 81.3732 59.3639 81.9737 58.6913C82.5742 58.0157 83.3098 57.7935 83.9254 58.0157H83.9224ZM113.17 57.7785C113.786 57.5563 114.522 57.7785 115.122 58.4541C115.723 59.1267 116.96 60.5289 118.764 61.1354C120.178 61.5841 121.696 61.5841 123.109 61.1354C123.851 60.8712 124.511 60.3817 125.145 61.1354C125.565 61.6368 125.565 62.4445 125.145 63.5555C124.466 64.8406 123.538 65.7023 122.358 66.1437C120.587 66.8042 117.812 66.5851 115.921 65.6332C114.551 64.9337 113.468 63.7785 112.858 62.3664C112.558 61.6548 112.342 59.8142 112.342 59.1327C112.342 58.4541 112.558 58.0007 113.17 57.7815V57.7785ZM78.5087 83.0692C77.3871 83.0692 76.3114 82.6237 75.5183 81.8305C74.7251 81.0374 74.2796 79.9617 74.2796 78.8401C74.2796 77.7185 74.7251 76.6428 75.5183 75.8496C76.3114 75.0565 77.3871 74.611 78.5087 74.611C79.6303 74.611 80.706 75.0565 81.4992 75.8496C82.2923 76.6428 82.7378 77.7185 82.7378 78.8401C82.7378 79.9617 82.2923 81.0374 81.4992 81.8305C80.706 82.6237 79.6303 83.0692 78.5087 83.0692ZM117.626 83.0692C116.505 83.0692 115.429 82.6237 114.636 81.8305C113.843 81.0374 113.397 79.9617 113.397 78.8401C113.397 77.7185 113.843 76.6428 114.636 75.8496C115.429 75.0565 116.505 74.611 117.626 74.611C118.748 74.611 119.824 75.0565 120.617 75.8496C121.41 76.6428 121.855 77.7185 121.855 78.8401C121.855 79.9617 121.41 81.0374 120.617 81.8305C119.824 82.6237 118.748 83.0692 117.626 83.0692ZM91.663 101.679C92.4106 100.289 95.5784 95.3798 99.749 95.3798C103.923 95.3798 106.937 98.5776 108.36 100.703C109.784 102.826 109.973 104.297 108.943 104.934C108.258 105.357 107.412 105.288 106.412 104.724C104.121 103.574 102.253 103 100.806 103C99.3646 103 97.1637 103.646 94.2092 104.934C92.9481 105.234 92.1014 105.165 91.663 104.724C91.0024 104.063 90.9124 103.066 91.663 101.679Z" fill="#979797"/>
<path d="M30.4014 124.304H73.062C73.8506 124.304 74.6315 124.459 75.3601 124.761C76.0887 125.063 76.7507 125.505 77.3083 126.063C77.8659 126.62 78.3083 127.282 78.6101 128.011C78.9119 128.739 79.0672 129.52 79.0672 130.309V131.384C79.0672 132.314 79.2504 133.235 79.6064 134.094C79.9624 134.953 80.4842 135.734 81.142 136.391C81.7997 137.049 82.5806 137.57 83.4399 137.926C84.2993 138.281 85.2203 138.464 86.1503 138.464H113.354C114.284 138.465 115.205 138.282 116.065 137.927C116.925 137.571 117.706 137.05 118.364 136.392C119.022 135.735 119.544 134.954 119.9 134.095C120.256 133.235 120.44 132.314 120.44 131.384V130.309C120.44 129.52 120.595 128.739 120.897 128.011C121.199 127.282 121.641 126.62 122.199 126.063C122.756 125.505 123.418 125.063 124.147 124.761C124.875 124.459 125.656 124.304 126.445 124.304H167.841L160.455 147.691C158.917 152.56 155.867 156.812 151.749 159.83C147.63 162.848 142.657 164.475 137.551 164.475H61.9525C57.0394 164.476 52.2443 162.97 48.2139 160.16C44.1834 157.35 41.1114 153.373 39.4121 148.763L30.4014 124.304Z" fill="white"/>
<path d="M36.5177 125.427C40.1638 136.215 43.9926 146.941 48.0026 157.599C48.8433 159.806 51.1793 160.668 54.9326 160.752C101.148 160.917 144.199 160.917 149.568 160.752C151.898 160.677 153.982 159.629 155.825 157.599C155.456 159.821 154.732 161.305 153.657 162.046C152.582 162.791 150.367 163.337 147.016 163.689H49.9032L45.4114 160.752L31.9958 125.427H36.5177Z" fill="#EBF6FA"/>
<path d="M42.2286 147.724C43.715 151.758 46.403 155.24 49.9299 157.699C53.4568 160.158 57.653 161.476 61.9526 161.476H137.549C142.017 161.476 146.369 160.052 149.973 157.41C153.577 154.769 156.245 151.048 157.591 146.787L163.743 127.306H126.442C125.646 127.306 124.882 127.623 124.319 128.186C123.756 128.749 123.439 129.513 123.439 130.309V131.384C123.439 134.058 122.377 136.622 120.486 138.513C118.595 140.404 116.031 141.466 113.357 141.466H86.1503C84.826 141.467 83.5146 141.206 82.291 140.7C81.0673 140.193 79.9555 139.451 79.0189 138.514C78.0823 137.578 77.3394 136.466 76.8325 135.243C76.3256 134.019 76.0647 132.708 76.0647 131.384V130.309C76.0647 129.915 75.987 129.524 75.8361 129.16C75.6852 128.796 75.4641 128.465 75.1852 128.186C74.9064 127.907 74.5754 127.686 74.2111 127.535C73.8468 127.384 73.4564 127.306 73.0621 127.306H34.7101L42.2316 147.724H42.2286ZM30.3984 124.304H73.0651C73.8537 124.304 74.6346 124.459 75.3632 124.761C76.0918 125.063 76.7538 125.505 77.3114 126.063C77.869 126.62 78.3114 127.282 78.6131 128.011C78.9149 128.739 79.0703 129.52 79.0703 130.309V131.384C79.0703 133.262 79.8162 135.062 81.144 136.39C82.4717 137.718 84.2726 138.464 86.1503 138.464H113.354C114.284 138.465 115.205 138.282 116.065 137.927C116.925 137.571 117.706 137.05 118.364 136.392C119.022 135.735 119.544 134.954 119.9 134.095C120.256 133.235 120.44 132.314 120.44 131.384V130.309C120.44 129.52 120.595 128.739 120.897 128.011C121.199 127.282 121.641 126.62 122.199 126.063C122.756 125.505 123.418 125.063 124.147 124.761C124.875 124.459 125.656 124.304 126.445 124.304H167.842L160.455 147.691C158.917 152.56 155.867 156.812 151.749 159.83C147.631 162.848 142.657 164.475 137.552 164.475H61.9526C57.0395 164.476 52.2444 162.97 48.214 160.16C44.1835 157.35 41.1115 153.373 39.4122 148.763L30.4014 124.304H30.3984Z" fill="#979797"/>
</svg>
