<svg viewBox="0 0 200 200" fill="none" xmlns="http://www.w3.org/2000/svg">
<path d="M132.197 65.0288C131.43 64.8484 130.646 64.7513 129.858 64.7393C129.501 64.7393 129.167 64.815 128.82 64.8439C128.152 64.8439 127.519 64.8796 126.931 64.9264C113.872 65.9732 72.6827 72.4817 56.0997 112.994C43.3679 144.079 43.448 176.029 55.3379 192.438C56.1244 193.529 56.9816 194.567 57.9039 195.546L59.6858 197.223C60.5076 197.849 61.3619 198.431 62.2451 198.967C62.4032 199.054 62.4923 199.107 62.5591 199.136C63.7889 199.692 65.1209 199.987 66.4705 200C69.1134 199.951 71.6345 198.88 73.5037 197.01C75.3729 195.141 76.4446 192.62 76.4938 189.977C76.4783 189.565 76.4366 189.154 76.369 188.748C76.0946 187.906 75.7565 187.087 75.3578 186.297L74.351 183.847C68.5598 168.826 65.8267 142.418 77.6364 121.665C85.1316 108.488 95.6895 100.389 105.002 95.6311C112.595 91.4137 121.139 89.2063 129.824 89.2184C130.506 89.2184 131.161 89.2941 131.845 89.3209C134.898 89.1158 137.762 87.7701 139.868 85.5509C141.974 83.3317 143.169 80.4014 143.215 77.3421C143.261 74.2827 142.154 71.318 140.115 69.0369C138.076 66.7558 135.253 65.325 132.208 65.0288H132.197Z" fill="#4E5B9E"/>
<path d="M139.543 115.063C139.098 114.958 138.643 114.902 138.186 114.896C137.981 114.896 137.788 114.938 137.585 114.956C137.202 114.956 136.832 114.978 136.491 115.005C128.918 115.611 103.604 119.952 93.9812 143.444C86.5996 161.468 88.0764 179.432 94.9702 188.943C95.427 189.575 95.924 190.177 96.4581 190.745L97.4961 191.719C97.9736 192.081 98.4695 192.418 98.9817 192.73C99.0731 192.779 99.1265 192.81 99.1644 192.828C99.8774 193.15 100.65 193.32 101.432 193.327C102.964 193.299 104.425 192.679 105.508 191.596C106.592 190.513 107.213 189.052 107.241 187.52C107.232 187.281 107.208 187.043 107.167 186.807C107.01 186.319 106.814 185.844 106.582 185.386L105.991 183.967C102.63 175.258 101.561 160.444 108.41 148.405C112.756 140.765 118.365 135.575 123.764 132.813C128.165 130.363 133.119 129.08 138.155 129.084C138.552 129.084 138.935 129.129 139.327 129.144C141.097 129.025 142.758 128.245 143.979 126.958C145.201 125.671 145.893 123.972 145.92 122.198C145.946 120.424 145.304 118.704 144.121 117.382C142.939 116.059 141.302 115.23 139.536 115.058L139.543 115.063Z" fill="#4E5B9E"/>
<path d="M124.655 169.431C124.655 173.26 126.176 176.931 128.883 179.639C131.59 182.346 135.262 183.867 139.091 183.867C142.919 183.867 146.591 182.346 149.298 179.639C152.005 176.931 153.526 173.26 153.526 169.431C153.526 165.602 152.005 161.931 149.298 159.223C146.591 156.516 142.919 154.995 139.091 154.995C135.262 154.995 131.59 156.516 128.883 159.223C126.176 161.931 124.655 165.602 124.655 169.431Z" fill="#4E5B9E"/>
<rect x="37.5986" y="96.2734" width="15" height="155.943" rx="7.5" transform="rotate(-51.0532 37.5986 96.2734)" fill="#BDBDBD"/>
<path d="M84.254 19.0237C84.254 19.0237 81.4252 15.0478 82.7617 9.96266C84.5837 3.04435 86.1028 2.20016 86.1028 2.20016C86.1028 2.20016 89.2924 3.31387 90.5576 5.26061C91.8227 7.20736 92.0499 8.47253 92.0499 8.47253C92.0499 8.47253 97.2153 6.5191 100.314 7.32542C102.186 7.80899 104.115 8.04045 106.049 8.01368C106.049 8.01368 109.375 4.34293 111.898 2.85057C114.422 1.35821 114.077 -0.0160998 115.224 1.47403C116.371 2.96416 116.371 5.71946 116.141 8.2431C115.912 10.7668 113.618 14.5511 113.618 14.5511C113.618 14.5511 118.168 16.3954 117.692 23.1155C117.505 25.7483 115.353 26.5813 115.282 28.087C115.264 28.4635 115.476 29.3099 115.741 29.5727C116.669 30.4859 119.928 38.2952 122.106 39.6717C123.64 40.6542 125.285 41.4499 127.007 42.0417C128.764 42.6275 132.858 44.6366 135.264 48.5435C137.567 52.2766 140.059 58.2861 140.61 64.0328C141.3 71.1605 140.79 75.7779 139.151 78.2993C137.511 80.8208 130.555 81.6249 130.555 81.6249C130.555 81.6249 130.236 84.2599 128.838 85.6698C127.172 87.3493 126.69 90.9844 123.632 96.6442C120.574 102.304 112.364 121.607 98.9816 123.977C90.7135 125.44 81.7371 122.304 81.5433 121.727C80.5788 118.831 83.3252 120.034 86.4257 120.562C96.2263 122.23 106.508 117.889 110.036 113.895C116.509 106.558 126.639 82.1082 126.639 82.1082C126.639 82.1082 119.133 86.6165 112.181 86.8682C106.241 87.0909 100.465 86.1287 98.3245 84.5227C96.184 82.9167 91.4418 86.5875 88.5351 83.4892C85.6283 80.3909 86.203 79.3596 87.4659 78.3283C88.7289 77.297 90.6778 77.1589 90.6778 77.1589C90.6778 77.1589 86.7933 71.2585 86.4124 64.0328C86.2787 61.5025 87.3256 59.1325 87.2365 55.9607C87.1303 52.4719 87.3608 48.981 87.9248 45.5365C87.9248 45.5365 85.0091 37.2194 84.4077 34.8851C83.4767 31.2878 83.5658 27.5124 83.5658 27.5124L83.4499 24.8751V21.2044L84.254 19.0237Z" fill="white"/>
<path d="M94.4332 124.943C87.751 124.943 81.2915 122.862 80.9797 121.916C80.7681 121.279 80.5476 120.357 81.0955 119.749C81.7838 118.985 83.1514 119.274 84.8821 119.648C85.4011 119.762 85.9557 119.882 86.5215 119.976C96.2263 121.626 106.328 117.2 109.586 113.503C114.974 107.393 123.062 88.9725 125.421 83.4552C122.848 84.7917 117.42 87.2708 112.199 87.4646C106.036 87.7007 100.191 86.6761 97.9636 85.0033C97.2642 84.4776 95.9835 84.7271 94.6225 85.0033C92.5622 85.4131 89.9962 85.9232 88.0985 83.9007C86.468 82.1633 85.7731 80.916 85.8421 79.858C85.9 78.967 86.4725 78.3745 87.0872 77.8756C87.8594 77.2918 88.7557 76.8939 89.7067 76.7129C88.6397 74.8597 86.125 69.926 85.8176 64.0702C85.7486 62.7716 85.9691 61.5421 86.203 60.2413C86.4368 58.9405 86.6841 57.5461 86.6484 55.9847C86.5436 52.507 86.7674 49.0272 87.3167 45.5916C86.9113 44.4289 84.4032 37.2277 83.8352 35.0404C83.2402 32.5736 82.9522 30.0426 82.9777 27.5051L82.8619 24.9058L82.893 20.9967L83.5924 19.0967C82.9643 18.0877 80.9797 14.3991 82.1892 9.80843C83.9822 2.99258 85.5303 1.83879 85.8243 1.67842L86.047 1.54923L86.2987 1.6361C86.4346 1.6851 89.6933 2.83667 91.052 4.93488C91.6261 5.79662 92.0935 6.7248 92.4441 7.69908C93.9365 7.20015 97.8233 6.05972 100.463 6.74576C102.201 7.18845 103.988 7.41291 105.782 7.41398C106.512 6.6277 109.328 3.66971 111.595 2.33105C112.256 1.94104 112.857 1.45625 113.377 0.892145C113.736 0.522396 114.045 0.212787 114.515 0.223924C114.985 0.235061 115.351 0.651585 115.692 1.09484C117.048 2.85894 116.932 6.0419 116.727 8.28044C116.54 10.3497 115.092 13.1317 114.437 14.2944C115.747 15.0851 118.67 17.5019 118.28 23.1417C118.162 24.8122 117.34 25.8346 116.68 26.6543C116.235 27.2022 115.892 27.6343 115.87 28.0976C115.886 28.4604 115.985 28.8145 116.159 29.1334C116.536 29.5053 117.05 30.4698 117.997 32.2941C119.255 34.7063 121.155 38.3526 122.421 39.15C123.91 40.1196 125.511 40.905 127.189 41.4888C127.757 41.6781 132.829 43.4756 135.765 48.2422C138.008 51.8818 140.616 57.927 141.204 63.9855C141.901 71.1689 141.394 75.96 139.645 78.6329C138.086 81.0296 132.756 81.9384 131.07 82.17C130.902 83.0365 130.424 84.9209 129.256 86.0992C128.479 86.8854 127.951 88.2419 127.221 90.1085C126.351 92.4478 125.325 94.7263 124.151 96.9288C123.808 97.5636 123.401 98.3722 122.926 99.3099C119.133 106.805 111.248 122.406 99.0862 124.571C97.5489 124.829 95.9921 124.954 94.4332 124.943ZM82.0667 121.41C83.1648 122.136 91.3861 124.716 98.8769 123.39C110.459 121.339 118.168 106.097 121.87 98.7709C122.351 97.822 122.761 97.0045 123.113 96.3608C124.261 94.202 125.266 91.9697 126.12 89.6786C126.9 87.6739 127.457 86.2172 128.419 85.255C129.662 84.001 129.967 81.5798 129.978 81.5553L130.036 81.0897L130.504 81.0363C132.357 80.8135 137.438 79.8647 138.665 77.9758C140.251 75.5368 140.699 70.9952 140.033 64.0924C139.46 58.2299 136.836 52.2204 134.763 48.8548C132.557 45.2753 128.733 43.244 126.822 42.6069C125.055 42.0026 123.369 41.1858 121.799 40.1746C120.264 39.2057 118.431 35.6908 116.957 32.8643C116.288 31.5835 115.598 30.2582 115.333 29.9976C114.887 29.5521 114.678 28.4874 114.698 28.062C114.736 27.2133 115.237 26.5897 115.767 25.9304C116.38 25.1686 117.015 24.3712 117.104 23.0748C117.549 16.8983 113.567 15.172 113.4 15.1007L112.76 14.8357L113.117 14.2454C113.139 14.2076 115.344 10.5457 115.556 8.18911C115.845 4.99279 115.585 2.91463 114.758 1.83656C114.669 1.71776 114.573 1.60399 114.471 1.49577C114.402 1.56259 114.317 1.65169 114.248 1.71851C113.654 2.36148 112.968 2.91315 112.212 3.35565C109.793 4.78342 106.532 8.3673 106.499 8.40517L106.332 8.58782L106.087 8.59895C104.093 8.6344 102.105 8.39683 100.175 7.89287C97.2798 7.14446 92.3239 9.00657 92.2749 9.01993L91.6066 9.2694L91.4752 8.57223C91.4752 8.57223 91.2369 7.37834 90.0697 5.57637C89.1565 4.16643 87.0516 3.20642 86.2431 2.87899C85.831 3.36011 84.6705 5.05739 83.3474 10.1069C82.1023 14.849 84.724 18.6356 84.7507 18.6735L84.9289 18.9274L84.0557 21.3018V24.8657L84.1693 27.4784C84.1693 27.5541 84.0958 31.265 84.9957 34.7264C85.5837 37.0117 88.4682 45.2486 88.4994 45.331L88.5506 45.4803L88.5195 45.6384C87.9717 49.0412 87.7479 52.4884 87.8512 55.9335C87.898 57.6196 87.6285 59.0518 87.3946 60.4328C87.1719 61.6668 86.9647 62.8295 87.0249 63.9967C87.3946 70.9684 91.1567 76.7708 91.1923 76.8265L91.7492 77.6729L90.738 77.7486C90.7224 77.7486 88.956 77.8867 87.8601 78.7822C87.3011 79.241 87.0716 79.5617 87.0494 79.9248C87.0048 80.593 87.6575 81.66 88.9917 83.0766C90.4283 84.6179 92.4553 84.2103 94.4154 83.825C96.0414 83.5065 97.5738 83.1991 98.7009 84.0477C100.706 85.549 106.401 86.4823 112.179 86.2751C118.901 86.0301 126.281 81.6444 126.356 81.5976L127.9 80.671L127.212 82.3349C126.795 83.3372 116.966 106.959 110.506 114.287C106.978 118.296 96.625 122.891 86.35 121.147C85.7664 121.049 85.1939 120.925 84.6571 120.811C83.6927 120.602 82.2293 120.283 82.0043 120.544C81.9353 120.586 81.8885 120.824 82.0667 121.41Z" fill="#231815"/>
<path d="M84.254 19.0237C84.254 19.0237 81.4252 15.0478 82.7617 9.96266C84.5837 3.04435 86.1028 2.20016 86.1028 2.20016C86.1028 2.20016 89.2924 3.31387 90.5576 5.26061C91.8227 7.20736 92.0499 8.47253 92.0499 8.47253C92.0499 8.47253 97.2153 6.5191 100.314 7.32542C102.186 7.80899 104.115 8.04045 106.049 8.01368C106.049 8.01368 109.375 4.34293 111.898 2.85057C114.422 1.35821 114.077 -0.0160998 115.224 1.47403C116.371 2.96416 116.371 5.71946 116.141 8.2431C115.912 10.7668 113.618 14.5511 113.618 14.5511C113.618 14.5511 118.168 16.3954 117.692 23.1155C117.505 25.7483 115.353 26.5813 115.282 28.087C115.264 28.4635 115.476 29.3099 115.741 29.5727C116.669 30.4859 119.928 38.2952 122.106 39.6717C123.64 40.6542 125.285 41.4499 127.007 42.0417C128.764 42.6275 132.858 44.6366 135.264 48.5435C137.567 52.2766 140.059 58.2861 140.61 64.0328C141.3 71.1605 140.79 75.7779 139.151 78.2993C137.511 80.8208 130.555 81.6249 130.555 81.6249C130.555 81.6249 130.236 84.2599 128.838 85.6698C127.172 87.3493 126.69 90.9844 123.632 96.6442C120.574 102.304 112.364 121.607 98.9816 123.977C90.7135 125.44 81.7371 122.304 81.5433 121.727C80.5788 118.831 83.3252 120.034 86.4257 120.562C96.2263 122.23 106.508 117.889 110.036 113.895C116.509 106.558 126.639 82.1082 126.639 82.1082C126.639 82.1082 119.133 86.6165 112.181 86.8682C106.241 87.0909 100.465 86.1287 98.3245 84.5227C96.184 82.9167 91.4418 86.5875 88.5351 83.4892C85.6283 80.3909 86.203 79.3596 87.4659 78.3283C88.7289 77.297 90.6778 77.1589 90.6778 77.1589C90.6778 77.1589 86.7933 71.2585 86.4124 64.0328C86.2787 61.5025 87.3256 59.1325 87.2365 55.9607C87.1303 52.4719 87.3608 48.981 87.9248 45.5365C87.9248 45.5365 85.0091 37.2194 84.4077 34.8851C83.4767 31.2878 83.5658 27.5124 83.5658 27.5124L83.4499 24.8751V21.2044L84.254 19.0237Z" fill="white"/>
<path d="M113.618 14.551C113.618 14.551 116.534 11.1342 116.763 8.61052C116.993 6.08687 116.22 1.94168 115.072 0.449321C113.925 -1.04304 113.166 1.53629 110.642 3.02642C108.119 4.51656 106.049 8.01358 106.049 8.01358C106.049 8.01358 101.354 6.98452 98.563 7.12262C95.772 7.26072 92.9254 10.6241 93.2172 19.5003C93.509 28.3765 97.5116 31.0249 98.8726 34.2457C100.234 37.4665 102.882 41.6897 102.808 44.1242C102.735 46.5588 106.889 43.7656 108.713 38.0746C109.821 34.672 112.196 31.8267 115.346 30.1294L115.747 29.5637C115.747 29.5637 115.4 27.7194 115.467 27.3964C115.534 27.0735 116.505 25.9753 116.977 25.2782C117.434 24.5272 117.688 23.6709 117.716 22.7924C117.765 21.9587 117.723 21.1221 117.589 20.2977C117.478 19.6238 117.295 18.9637 117.044 18.3287C116.762 17.6999 116.417 17.1013 116.015 16.5423C115.7 16.1058 115.325 15.7165 114.901 15.3863C114.489 15.0843 114.061 14.8055 113.618 14.551Z" fill="#FFC14D"/>
<path d="M76.5897 25.8213L76.3669 25.416C76.4828 25.3558 79.2626 23.8768 80.2582 23.4402C81.294 22.9948 84.3878 21.8944 84.5215 21.8477L84.6707 22.2798C84.6395 22.2909 81.461 23.4135 80.4386 23.8612C79.4719 24.2889 76.612 25.8057 76.5897 25.8213Z" fill="#231815"/>
<path d="M76.6342 28.8891L76.3179 28.584C76.3802 28.5171 77.8993 26.9535 79.2915 26.1004L80.1824 25.5502C81.2627 24.882 81.2627 24.882 83.2206 24.0824L84.3343 23.6369L84.4991 24.0445L83.3854 24.49C81.4609 25.2651 81.4609 25.2651 80.4118 25.92C80.178 26.067 79.8884 26.2474 79.5209 26.4746C78.1755 27.301 76.6498 28.8757 76.6342 28.8891ZM79.2335 31.787L78.8727 31.4996C78.9417 31.415 80.5388 29.3992 81.1914 28.7978C81.8908 28.1541 84.1828 26.6216 84.2808 26.557L84.5348 26.9379C84.5125 26.9535 82.1759 28.5149 81.5055 29.1341C80.8751 29.7132 79.2491 31.7647 79.2335 31.787ZM120.008 22.6056L115.268 21.0019L115.413 20.5675L120.155 22.1713L120.008 22.6056ZM121.189 25.5881L114.994 23.334L115.15 22.9018L121.345 25.156L121.189 25.5881ZM120.574 27.6908L114.689 25.5881L114.845 25.156L120.73 27.2586L120.574 27.6908ZM84.2363 19.0729C84.2363 19.0729 82.0089 16.1016 82.3074 11.5599C82.6303 6.52822 86.0271 2.02441 86.0271 2.02441C87.4213 2.48574 88.7089 3.22193 89.8137 4.18945C91.0104 5.33084 91.794 6.83755 92.0411 8.47274C92.0411 8.47274 89.7335 9.26124 87.1542 12.834C84.831 16.0682 84.2363 19.0729 84.2363 19.0729Z" fill="black"/>
<path d="M87.9247 45.5361C91.7695 47.3158 95.8642 48.4959 100.066 49.0353C106.938 49.8951 115.213 37.6444 124.848 41.1793C128.083 42.3643 130.602 43.2508 132.33 44.9302C134.059 46.6097 134.947 47.9484 136.384 50.5232C137.821 53.0981 138.643 55.4012 138.834 56.1964C141.897 69.4361 122.797 54.2831 114.368 52.1336C105.94 49.9842 102.545 59.0764 94.3218 55.0493C86.0983 51.0222 87.9247 45.5361 87.9247 45.5361Z" fill="#FFC14D"/>
<path d="M100.721 47.7457C99.6277 47.7457 99.4495 47.3738 99.4228 47.2646L99.7502 47.1622C99.7502 47.1622 100.08 47.7814 103.049 47.053C106.167 46.3002 106.669 45.6854 106.673 45.6787L106.956 45.8747C106.909 45.946 106.395 46.5986 103.131 47.3894C102.344 47.6006 101.536 47.7202 100.721 47.7457ZM99.8415 49.5433C98.7479 49.5433 98.5697 49.169 98.543 49.0621L98.8704 48.9597C98.8704 48.9597 99.2134 49.5722 102.171 48.8505C105.29 48.0977 105.789 47.4829 105.795 47.4762L106.078 47.6722C106.029 47.7435 105.519 48.3939 102.254 49.1846C101.466 49.3964 100.657 49.5167 99.8415 49.5433Z" fill="#231815"/>
<path d="M97.8657 65.0703C97.8656 65.3883 97.9282 65.7032 98.0498 65.9971C98.1715 66.2909 98.3498 66.5579 98.5746 66.7828C98.7995 67.0077 99.0664 67.1861 99.3602 67.3078C99.654 67.4295 99.9689 67.4922 100.287 67.4922C100.605 67.4922 100.92 67.4295 101.214 67.3078C101.507 67.1861 101.774 67.0077 101.999 66.7828C102.224 66.5579 102.402 66.2909 102.524 65.9971C102.646 65.7032 102.708 65.3883 102.708 65.0703C102.708 64.7523 102.646 64.4374 102.524 64.1436C102.402 63.8497 102.224 63.5827 101.999 63.3578C101.774 63.1329 101.507 62.9545 101.214 62.8328C100.92 62.7111 100.605 62.6484 100.287 62.6484C99.9689 62.6484 99.654 62.7111 99.3602 62.8328C99.0664 62.9545 98.7995 63.1329 98.5746 63.3578C98.3498 63.5827 98.1715 63.8497 98.0498 64.1436C97.9282 64.4374 97.8656 64.7523 97.8657 65.0703Z" fill="#FFC14D"/>
<path d="M122.63 77.4502C121.982 80.4416 119.879 81.533 119.879 81.533L122.63 77.4502Z" fill="white"/>
<path d="M119.957 81.683L119.799 81.3801C119.821 81.3801 121.839 80.2842 122.472 77.4131L122.808 77.4866C122.14 80.5225 120.048 81.6407 119.957 81.683Z" fill="#231815"/>
<path d="M124.125 78.7021C123.812 79.3242 123.457 79.924 123.062 80.4974C122.634 81.0901 122.1 81.599 121.487 81.9987" fill="white"/>
<path d="M121.583 82.1486L121.403 81.8546C121.994 81.466 122.511 80.9732 122.926 80.4001C123.316 79.831 123.667 79.2356 123.975 78.6182L124.283 78.7674C123.968 79.3978 123.609 80.0052 123.209 80.585C122.769 81.2024 122.217 81.7327 121.583 82.1486Z" fill="#231815"/>
<path d="M140.915 73.0176C140.915 73.0176 140.652 78.0225 138.32 79.5216C135.988 81.0206 130.702 81.8804 130.702 81.8804" fill="white"/>
<path d="M130.731 82.0498L130.677 81.7113C130.729 81.7113 135.954 80.8403 138.228 79.3792C140.456 77.9425 140.741 73.0578 140.743 73.0088L141.086 73.0266C141.086 73.236 140.79 78.1496 138.413 79.6665C136.081 81.1678 130.949 82.0142 130.731 82.0498Z" fill="#231815"/>
<path d="M132.856 78.502L130.793 80.5623L132.856 78.502Z" fill="white"/>
<path d="M130.916 80.6852L130.673 80.4425L132.733 78.3799L132.976 78.6227L130.916 80.6852Z" fill="#231815"/>
<path d="M132.29 77.8965L130.56 79.714L132.29 77.8965Z" fill="white"/>
<path d="M130.435 79.5935L132.165 77.7744L132.413 78.0107L130.683 79.8299L130.435 79.5935Z" fill="#231815"/>
<path d="M87.7265 77.397L89.4728 76.8089C89.4728 76.8089 90.3192 76.5283 91.208 77.5907C92.0967 78.6532 92.8562 81.2749 93.2126 81.9475C93.569 82.6202 93.2371 84.2997 92.7337 84.5269C92.0326 84.777 91.2771 84.8339 90.5464 84.6917C89.9784 84.5336 88.221 83.7495 87.7354 82.9098C87.2499 82.07 86.6863 81.6246 86.252 80.845C85.8176 80.0654 85.7842 79.4261 86.1451 78.876C86.5059 78.3258 87.7265 77.397 87.7265 77.397ZM103.615 122.344C103.615 122.344 94.4577 120.731 90.6177 122.344C86.7777 123.956 82.2159 121.756 81.7593 121.257C81.3027 120.758 81.2448 121.526 81.2448 121.526C81.2448 121.526 80.4162 125.335 85.3031 125.551C90.19 125.767 96.576 125.5 99.3692 124.478C102.162 123.455 103.615 122.344 103.615 122.344Z" fill="#FFC14D"/>
<path d="M114.756 86.5983C116.643 86.2063 120.75 85.2107 122.708 84.0947L114.756 86.5983Z" fill="white"/>
<path d="M88.3568 125.195C87.794 125.195 87.2639 125.179 86.7665 125.148C83.3942 124.945 81.5187 124.016 81.198 122.392C80.9574 121.207 81.0643 120.419 81.5232 119.987C82.2827 119.281 83.8241 119.691 85.459 120.129C86.1383 120.31 86.84 120.501 87.4993 120.613C90.3893 121.096 93.339 121.101 96.2307 120.628C102.824 119.557 107.606 116.41 109.695 114.04C111.317 112.2 113.328 109.086 115.678 104.783C116.393 103.475 117.126 102.081 117.859 100.64C118.527 99.3299 119.235 97.9044 119.959 96.4076C121.102 94.0488 122.273 91.5296 123.447 88.9235C125.269 84.8808 126.479 81.9829 126.492 81.954L126.808 82.0854C126.808 82.1143 125.583 85.0166 123.759 89.0661C122.585 91.6721 121.411 94.1891 120.267 96.559C119.543 98.0603 118.837 99.4881 118.166 100.791C117.431 102.232 116.696 103.629 115.981 104.943C113.618 109.266 111.589 112.4 109.954 114.262C107.824 116.672 102.969 119.875 96.2842 120.958C93.356 121.441 90.368 121.437 87.4414 120.945C86.7732 120.829 86.0582 120.639 85.3721 120.455C83.8308 120.04 82.3718 119.655 81.7593 120.232C81.3984 120.57 81.3138 121.272 81.5365 122.319C81.8283 123.771 83.5991 124.604 86.7954 124.798C89.7579 124.974 93.8474 124.613 98.9593 123.711C101.973 123.174 104.953 121.706 107.824 119.372C110.903 116.855 113.943 113.242 116.861 108.629C119.157 104.994 120.957 101.437 122.271 98.8288C122.741 97.8955 123.149 97.0869 123.494 96.4521C124.652 94.2782 125.663 92.0295 126.521 89.7209C127.285 87.7563 127.838 86.3397 128.728 85.4398C130.065 84.0856 130.397 81.5196 130.399 81.4951L130.74 81.533C130.724 81.6466 130.397 84.2437 128.971 85.6804C128.129 86.5313 127.59 87.9078 126.842 89.8456C125.978 92.167 124.961 94.4283 123.797 96.6147C123.454 97.2451 123.046 98.0514 122.576 98.9847C121.26 101.586 119.458 105.152 117.148 108.803C114.215 113.445 111.15 117.087 108.045 119.624C105.127 122.009 102.091 123.493 99.0194 124.036C94.7272 124.814 91.1567 125.195 88.3568 125.195Z" fill="#231815"/>
</svg>
