<svg  viewBox="0 0 200 72" fill="none" xmlns="http://www.w3.org/2000/svg">
<path d="M100 55.5547C155.229 55.5547 200 56.8182 200 58.377C200 59.9359 155.229 61.1994 100 61.1994C44.7719 61.1994 0 59.9359 0 58.377C0 56.8182 44.7719 55.5547 100 55.5547Z" fill="#4A4D59"/>
<path d="M108.301 27.541V24.1973H91.9102V57.8375H108.301V54.4937H95.1876V27.5417L108.301 27.541Z" fill="#6466E7"/>
<path d="M132.886 24.1973V57.8368H116.493V24.1973H132.886ZM129.607 27.5404H119.772V54.4937H129.607V27.5404ZM70.5991 54.532V24.788H67.3203V57.8368H83.712V54.532H70.5991Z" fill="#7FE2D3"/>
<path d="M59.712 27.541V24.1973H43.3203V57.8375H59.712V54.4937H46.5984V42.5853H59.712V39.2422H46.5984V27.541H59.712Z" fill="#6466E7"/>
<path d="M188.5 27.541V24.1973H172.109V57.8375H188.501V54.4937H175.387V42.5853H188.501V39.2422H175.387V27.541H188.5Z" fill="#7FE2D3"/>
<path d="M31.8559 24.8907V52.1206L23.2383 43.4335L23.219 43.4537L23.2009 43.4355L14.3918 52.3163V24.7871H11.123V57.7337H14.3911V56.9741L23.2203 48.0737L31.8559 56.7796V57.8359H35.1247V24.8914L31.8559 24.8907ZM161.23 24.8907V25.6496L152.401 34.5506L143.766 25.8447V24.7885H140.497V57.7343H143.766V30.5045L152.383 39.1915L152.403 39.1714L152.421 39.1895L161.23 30.3087V57.8373H164.499V24.8907H161.23Z" fill="#6466E7"/>
<path d="M75.2258 0C75.7691 8.92224e-05 76.2902 0.217786 76.6744 0.605199C77.0585 0.992612 77.2743 1.51801 77.2742 2.0658C77.2741 2.6136 77.0582 3.13892 76.6739 3.52621C76.2896 3.9135 75.7685 4.13102 75.2251 4.13093C74.6817 4.13093 74.1606 3.91332 73.7764 3.52597C73.3921 3.13862 73.1763 2.61326 73.1763 2.06547C73.1763 1.51767 73.3921 0.992311 73.7764 0.604961C74.1606 0.217611 74.6817 0 75.2251 0M65.2734 67.8691C65.8168 67.8691 66.3379 68.0867 66.7221 68.474C67.1063 68.8614 67.3222 69.3867 67.3222 69.9345C67.3222 70.4823 67.1063 71.0077 66.7221 71.395C66.3379 71.7824 65.8168 72 65.2734 72C64.73 72 64.2089 71.7824 63.8247 71.395C63.4405 71.0077 63.2246 70.4823 63.2246 69.9345C63.2246 69.3867 63.4405 68.8614 63.8247 68.474C64.2089 68.0867 64.73 67.8691 65.2734 67.8691ZM116.204 5.90172C116.473 5.90172 116.739 5.95514 116.988 6.05894C117.236 6.16274 117.462 6.31488 117.652 6.50668C117.843 6.69847 117.994 6.92617 118.097 7.17676C118.2 7.42736 118.253 7.69594 118.253 7.96718C118.253 8.23842 118.2 8.50701 118.097 8.7576C117.994 9.0082 117.843 9.23589 117.652 9.42769C117.462 9.61948 117.236 9.77163 116.988 9.87542C116.739 9.97922 116.473 10.0326 116.204 10.0326C115.66 10.0326 115.139 9.81504 114.755 9.42769C114.371 9.04034 114.155 8.51498 114.155 7.96718C114.155 7.41939 114.371 6.89403 114.755 6.50668C115.139 6.11933 115.66 5.90172 116.204 5.90172ZM175.914 66.099C176.458 66.099 176.979 66.3166 177.363 66.7039C177.747 67.0913 177.963 67.6166 177.963 68.1644C177.963 68.7122 177.747 69.2376 177.363 69.6249C176.979 70.0123 176.458 70.2299 175.914 70.2299C175.371 70.2299 174.85 70.0123 174.466 69.6249C174.082 69.2376 173.866 68.7122 173.866 68.1644C173.866 67.6166 174.082 67.0913 174.466 66.7039C174.85 66.3166 175.371 66.099 175.914 66.099ZM177.671 12.3935C178.214 12.3935 178.735 12.6111 179.12 12.9984C179.504 13.3858 179.72 13.9111 179.72 14.4589C179.72 15.0067 179.504 15.5321 179.12 15.9194C178.735 16.3068 178.214 16.5244 177.671 16.5244C177.128 16.5244 176.606 16.3068 176.222 15.9194C175.838 15.5321 175.622 15.0067 175.622 14.4589C175.622 13.9111 175.838 13.3858 176.222 12.9984C176.606 12.6111 177.128 12.3935 177.671 12.3935ZM152.499 49.5739C153.042 49.5739 153.563 49.7915 153.948 50.1788C154.332 50.5662 154.548 51.0916 154.548 51.6393C154.548 52.1871 154.332 52.7125 153.948 53.0999C153.563 53.4872 153.042 53.7048 152.499 53.7048C151.955 53.7048 151.434 53.4872 151.05 53.0999C150.666 52.7125 150.45 52.1871 150.45 51.6393C150.45 51.0916 150.666 50.5662 151.05 50.1788C151.434 49.7915 151.955 49.5739 152.499 49.5739Z" fill="#7FE2D3"/>
</svg>
