<svg viewBox="0 0 16 16" fill="none" xmlns="http://www.w3.org/2000/svg">
<path fill-rule="evenodd" clip-rule="evenodd" d="M12.601 4.26745C12.933 3.9355 12.933 3.39731 12.601 3.06537C12.2691 2.73342 11.7309 2.73342 11.399 3.06537L7.66667 6.79766L3.93438 3.06537C3.60243 2.73342 3.06424 2.73342 2.7323 3.06537C2.40035 3.39731 2.40035 3.9355 2.7323 4.26745L6.46459 7.99974L2.7323 11.732C2.40035 12.064 2.40035 12.6022 2.7323 12.9341C3.06424 13.2661 3.60243 13.2661 3.93438 12.9341L7.66667 9.20182L11.399 12.9341C11.7309 13.2661 12.2691 13.2661 12.601 12.9341C12.933 12.6022 12.933 12.064 12.601 11.732L8.86875 7.99974L12.601 4.26745Z" fill="white"/>
</svg>
