<svg viewBox="0 0 10 10" fill="none" xmlns="http://www.w3.org/2000/svg">
<path d="M4.99049 0.833253C7.2995 0.83201 9.16584 2.69718 9.16634 5.00659C9.16684 7.31649 7.29403 9.18092 4.96091 9.1665C2.67302 9.15208 0.838738 7.30133 0.833021 5.0143C0.827304 2.7024 2.69117 0.834496 4.99049 0.833253ZM8.54895 5.46673C8.66079 4.56584 8.4709 3.75344 7.97778 3.0124C7.28061 3.19909 7.24556 3.20282 6.51955 3.21773C6.47183 3.21873 6.41168 3.2411 6.38012 3.27491C6.27871 3.3828 6.18774 3.50063 6.09354 3.61498C5.95783 3.7798 5.83381 3.95605 5.68493 4.10793C5.4324 4.36572 5.12942 4.50717 4.75461 4.44378C4.42404 4.38785 4.19091 4.1855 4.12951 3.88942C4.08527 3.67688 4.10764 3.4708 4.18867 3.26969C4.22222 3.18666 4.25528 3.10288 4.27989 3.01687C4.31742 2.88636 4.27616 2.84261 4.13946 2.862C4.10938 2.86623 4.07732 2.87443 4.05172 2.88984C3.96423 2.94205 3.875 2.99276 3.79373 3.05391C3.54319 3.24185 3.2678 3.31245 2.96208 3.23638C2.70956 3.17373 2.50476 3.02135 2.3002 2.86995C2.26665 2.8451 2.23458 2.8185 2.20252 2.79364C1.76309 3.30051 1.34677 4.4219 1.44346 4.83233C1.47378 4.81567 1.50311 4.79902 1.53293 4.7836C1.88165 4.60288 2.40782 4.58846 2.74162 4.95265C2.92952 5.15773 3.02745 5.39713 3.04535 5.67381C3.05057 5.75584 3.07418 5.83713 3.09531 5.91718C3.11295 5.98355 3.16266 6.02158 3.23101 6.02581C3.3451 6.03252 3.45993 6.04247 3.57376 6.03675C3.81411 6.02432 4.03358 6.07951 4.23664 6.20803C4.36091 6.28658 4.43821 6.3972 4.48096 6.53542C4.54136 6.73106 4.51128 6.92273 4.45114 7.11091C4.32189 7.51512 4.08826 7.8619 3.8407 8.20023C3.80839 8.24423 3.77658 8.28848 3.74327 8.33472C4.79438 8.76379 6.11367 8.59872 7.00373 7.94642C6.96122 7.91336 6.91872 7.88253 6.87871 7.84872C6.64482 7.65035 6.40597 7.4572 6.17979 7.25037C5.9643 7.05348 5.76844 6.83696 5.63845 6.57047C5.53282 6.3532 5.55022 6.14638 5.68965 5.94775C5.81765 5.76504 5.99189 5.65094 6.20887 5.61912C6.39503 5.59177 6.58492 5.58779 6.77357 5.5781C6.94208 5.5694 7.07754 5.52366 7.18144 5.36879C7.31938 5.1632 7.5309 5.06053 7.78143 5.08191C8.04887 5.10478 8.28101 5.21839 8.47712 5.40309C8.4965 5.42149 8.51689 5.43889 8.5482 5.46723L8.54895 5.46673ZM7.55625 2.51944C6.28045 1.12684 3.96746 1.06842 2.62331 2.36482C2.70707 2.42523 2.78735 2.48837 2.87261 2.54356C3.15222 2.72503 3.20591 2.72329 3.4813 2.53461C3.4992 2.52242 3.5161 2.5085 3.53275 2.49508C3.76539 2.30715 4.0291 2.23655 4.32438 2.28651C4.73548 2.35612 4.94972 2.65468 4.87342 3.06286C4.84856 3.19611 4.80109 3.32487 4.76654 3.45638C4.74467 3.53991 4.72752 3.62492 4.70764 3.70895C4.69446 3.76463 4.71882 3.79322 4.77027 3.81385C4.90449 3.8678 5.03448 3.86382 5.14881 3.77507C5.23605 3.70721 5.31882 3.62965 5.38941 3.54463C5.54972 3.35172 5.69686 3.14763 5.85767 2.95497C6.04831 2.72627 6.28617 2.60148 6.59635 2.61813C6.91624 2.63529 7.23289 2.58979 7.556 2.51969L7.55625 2.51944ZM3.20566 8.08513C3.38337 7.81666 3.5678 7.55663 3.73109 7.28393C3.81063 7.15093 3.86059 6.99705 3.90582 6.84715C3.94335 6.72286 3.90433 6.66991 3.77682 6.65574C3.65752 6.64232 3.53598 6.6448 3.41544 6.64455C2.98296 6.64331 2.6176 6.46979 2.49655 6.01885C2.47418 5.93557 2.46772 5.84807 2.45181 5.76305C2.43466 5.67207 2.42373 5.5786 2.3944 5.49134C2.33052 5.30316 2.164 5.21093 1.97684 5.27109C1.83964 5.31534 1.71313 5.39116 1.57891 5.44635C1.478 5.48786 1.46955 5.55349 1.48869 5.65119C1.62191 6.33133 1.92092 6.92645 2.39117 7.43482C2.62381 7.6864 2.88777 7.89919 3.20566 8.08489V8.08513ZM7.47547 7.55588C7.4879 7.55042 7.49486 7.54917 7.49883 7.5452C7.88632 7.16659 8.17041 6.72137 8.35384 6.212C8.3608 6.19262 8.3598 6.1598 8.34787 6.14563C8.20347 5.9751 8.05409 5.80829 7.85078 5.70488C7.73968 5.6482 7.70761 5.65914 7.63031 5.75559C7.38127 6.06583 7.0599 6.20529 6.66098 6.18217C6.53322 6.17472 6.40075 6.19112 6.27523 6.21847C6.17109 6.24134 6.15816 6.29926 6.21434 6.38975C6.24192 6.43449 6.27225 6.478 6.30605 6.51827C6.64606 6.92223 7.06263 7.23918 7.47547 7.55588Z" fill="white"/>
</svg>
