<svg viewBox="0 0 20 20" fill="none" xmlns="http://www.w3.org/2000/svg">
<g id="Data">
<path id="Union" fill-rule="evenodd" clip-rule="evenodd" d="M3 15.8438C3 16.7546 3.74589 17.4978 4.65515 17.4978C5.56441 17.4978 6.30815 16.7546 6.3103 15.846V4.15402C6.3103 3.24323 5.56441 2.5 4.65515 2.5C3.74374 2.5 3 3.24538 3 4.15402V15.8438ZM13.6897 15.8438C13.6897 16.7546 14.4356 17.4978 15.3449 17.4978C16.2563 17.4978 17 16.7546 17 15.846V7.61456C17 6.70378 16.2541 5.96055 15.3449 5.96055C14.4334 5.96055 13.6897 6.70593 13.6897 7.61456V15.8438ZM8.34592 15.8438C8.34592 16.7546 9.09182 17.4978 10.0011 17.4978C10.9103 17.4978 11.6541 16.7546 11.6562 15.8438V11.0751C11.6562 10.1643 10.9103 9.42109 10.0011 9.42109C9.08967 9.42109 8.34592 10.1665 8.34592 11.0751V15.8438ZM10.7921 7.15273C10.7921 6.71452 10.4353 6.35794 9.99678 6.35794C9.55827 6.35794 9.20144 6.71452 9.20144 7.15273C9.20144 7.40086 9.31586 7.62283 9.49473 7.76869C9.61175 7.65196 9.77316 7.57969 9.95117 7.57969C10.1489 7.57969 10.3261 7.66885 10.4448 7.80908C10.6543 7.66578 10.7921 7.42501 10.7921 7.15273ZM10.2806 8.78248C11.0591 8.64782 11.6519 7.96896 11.6519 7.15273C11.6519 6.23979 10.9103 5.49871 9.99678 5.49871C9.08322 5.49871 8.34163 6.23979 8.34163 7.15273C8.34163 7.92047 8.8661 8.56669 9.57626 8.7528C9.68207 8.82835 9.81151 8.87283 9.95117 8.87283C10.0714 8.87283 10.1841 8.83986 10.2806 8.78248Z" fill="black"/>
</g>
</svg>
