<svg viewBox="0 0 20 20" fill="none" xmlns="http://www.w3.org/2000/svg">
<g id="Comment">
<g id="Comment_2">
<path fill-rule="evenodd" clip-rule="evenodd" d="M10 16C14.0479 16 17 13.1428 17 10C17 6.85722 14.0479 4 10 4C5.95207 4 3 6.85722 3 10C3 11.1353 3.36836 12.2052 4.02816 13.1268C4.2598 13.4504 4.3477 13.7882 4.38676 14.0168C4.42756 14.2554 4.43297 14.4853 4.42904 14.6715C4.42462 14.8807 4.40549 15.1058 4.38434 15.3112C4.58873 15.2497 4.81522 15.1866 5.03095 15.1422C5.31443 15.0839 5.99179 14.9571 6.63966 15.2625C7.63135 15.7301 8.77463 16 10 16ZM3.31151 15.6048C3.31151 15.6048 3.32923 15.6014 3.358 15.6017C3.32478 15.6062 3.31151 15.6048 3.31151 15.6048ZM4.29678 16.3679C4.30249 16.3949 4.30266 16.4121 4.30266 16.4121C4.30266 16.4121 4.29892 16.3999 4.29678 16.3679ZM10 17.5C14.6944 17.5 18.5 14.1421 18.5 10C18.5 5.85786 14.6944 2.5 10 2.5C5.30558 2.5 1.5 5.85786 1.5 10C1.5 11.4706 1.97968 12.8423 2.8085 14C2.99389 14.2589 2.92903 14.8361 2.86317 15.4221C2.78838 16.0876 2.7123 16.7645 3 17C3.27846 17.2279 3.90649 17.0314 4.53555 16.8346C5.11245 16.6541 5.69021 16.4733 6 16.6193C7.19215 17.1814 8.5539 17.5 10 17.5Z" fill="black"/>
<path d="M7 10.25C7 10.6642 6.66422 11 6.25 11C5.83578 11 5.5 10.6642 5.5 10.25C5.5 9.83578 5.83578 9.5 6.25 9.5C6.66422 9.5 7 9.83578 7 10.25Z" fill="black"/>
<path d="M11 10.25C11 10.6642 10.6642 11 10.25 11C9.83578 11 9.5 10.6642 9.5 10.25C9.5 9.83578 9.83578 9.5 10.25 9.5C10.6642 9.5 11 9.83578 11 10.25Z" fill="black"/>
<path d="M14.25 11C14.6642 11 15 10.6642 15 10.25C15 9.83578 14.6642 9.5 14.25 9.5C13.8358 9.5 13.5 9.83578 13.5 10.25C13.5 10.6642 13.8358 11 14.25 11Z" fill="black"/>
</g>
</g>
</svg>
