<svg viewBox="0 0 20 20" fill="none" xmlns="http://www.w3.org/2000/svg">
<g id="Filter">
<path id="Vector" d="M8.3463 5.35116C8.3463 6.92566 7.0373 8.20316 5.4223 8.20316C3.809 8.20231 2.5 6.92482 2.5 5.35031C2.5 3.77665 3.809 2.5 5.42315 2.5C7.03815 2.5 8.3463 3.77665 8.3463 5.35116ZM16.219 4.10235C16.9254 4.10235 17.5 4.66178 17.5 5.35116C17.5 6.04053 16.9254 6.59996 16.219 6.59996H10.7818C10.0746 6.59996 9.5 6.04053 9.5 5.35116C9.5 4.66178 10.0746 4.10235 10.7818 4.10235H16.219ZM3.7818 13.4329H9.37055C10.0777 13.4329 10.6523 13.9932 10.6523 14.6826C10.6523 15.372 10.0786 15.9331 9.37055 15.9331H3.7818C3.0746 15.9331 2.5 15.3728 2.5 14.6834C2.5 13.9941 3.0746 13.4329 3.7818 13.4329ZM14.5768 17.5C16.1918 17.5 17.5 16.2234 17.5 14.6488C17.5 13.0735 16.1918 11.7968 14.5768 11.7968C12.9627 11.7968 11.6537 13.0743 11.6537 14.6488C11.6537 16.2234 12.9619 17.5 14.5768 17.5Z" fill="black"/>
</g>
</svg>
