<svg viewBox="0 0 22 20" fill="none" xmlns="http://www.w3.org/2000/svg">
<path id="Home-&#233;&#128;&#137;&#228;&#184;&#173;" d="M20.7792 8.03307L19.998 7.35605C18.0712 5.74163 15.4672 3.50226 12.1863 0.690037L11.8738 0.429646C11.1968 -0.143215 10.1553 -0.143215 9.47824 0.429646L5.78069 3.60642C3.69756 5.37708 1.97897 6.83527 0.624939 7.98099C0.208313 8.29346 0 8.76217 0 9.28295V9.3871C0.0520782 10.3245 0.833252 11.0015 1.71858 11.0015H2.8643V18.698C2.8643 19.4271 3.43716 20 4.16626 20H8.17629C8.8533 19.9479 9.37409 19.3751 9.37409 18.698V15.2199C9.37409 14.9074 9.5824 14.6991 9.89487 14.6991H11.4572C11.7697 14.6991 11.978 14.9074 11.978 15.2199V18.698C11.978 19.4271 12.5509 20 13.28 20H17.29C17.967 19.9479 18.4878 19.3751 18.4878 18.698V11.0015H19.6335C20.5709 11.0015 21.3521 10.2204 21.3521 9.28295C21.3521 8.76217 21.1438 8.34554 20.7792 8.03307Z" fill="black"/>
</svg>
