<svg viewBox="0 0 20 20" fill="none" xmlns="http://www.w3.org/2000/svg">
<g id="&#230;&#155;&#180;&#229;&#164;&#154;&#230;&#147;&#141;&#228;&#189;&#156;">
<g id="Union">
<path d="M14 11C13.4478 11 13 10.5522 13 10C13 9.44775 13.4478 9 14 9C14.5522 9 15 9.44775 15 10C15 10.5522 14.5522 11 14 11Z" fill="black"/>
<path d="M10 11C9.44775 11 9 10.5522 9 10C9 9.44775 9.44775 9 10 9C10.5522 9 11 9.44775 11 10C11 10.5522 10.5522 11 10 11Z" fill="black"/>
<path d="M5 10C5 10.5522 5.44775 11 6 11C6.55225 11 7 10.5522 7 10C7 9.44775 6.55225 9 6 9C5.44775 9 5 9.44775 5 10Z" fill="black"/>
</g>
</g>
</svg>
