<svg viewBox="0 0 20 20" fill="none" xmlns="http://www.w3.org/2000/svg">
<g id="&#230;&#155;&#180;&#229;&#164;&#154;&#230;&#147;&#141;&#228;&#189;&#156;">
<g id="Union">
<path d="M11 6C11 6.55225 10.5522 7 10 7C9.44775 7 9 6.55225 9 6C9 5.44775 9.44775 5 10 5C10.5522 5 11 5.44775 11 6Z" fill="black"/>
<path d="M11 10C11 10.5522 10.5522 11 10 11C9.44775 11 9 10.5522 9 10C9 9.44775 9.44775 9 10 9C10.5522 9 11 9.44775 11 10Z" fill="black"/>
<path d="M10 15C10.5522 15 11 14.5522 11 14C11 13.4478 10.5522 13 10 13C9.44775 13 9 13.4478 9 14C9 14.5522 9.44775 15 10 15Z" fill="black"/>
</g>
</g>
</svg>
