<svg viewBox="0 0 20 20" fill="none" xmlns="http://www.w3.org/2000/svg">
<g id="Picture2">
<g id="Picture2_2">
<path fill-rule="evenodd" clip-rule="evenodd" d="M3 6.25C3 5.00736 4.00736 4 5.25 4H14.75C15.9926 4 17 5.00736 17 6.25V11.892L16.1846 11.1148C15.5086 10.4704 14.4458 10.4704 13.7698 11.1148L12.5268 12.2995C12.4303 12.3916 12.2784 12.3916 12.1818 12.2995L8.34672 8.64402C7.64932 7.97929 6.54579 8.00329 5.87796 8.69771L2.2207 12.5006C1.82007 12.516 1.5 12.8456 1.5 13.25V13.75C1.5 15.8211 3.17893 17.5 5.25 17.5H14.75C16.8211 17.5 18.5 15.8211 18.5 13.75V6.25C18.5 4.17893 16.8211 2.5 14.75 2.5H5.25C3.17893 2.5 1.5 4.17893 1.5 6.25V8.75C1.5 9.16421 1.83579 9.5 2.25 9.5C2.66421 9.5 3 9.16421 3 8.75V6.25ZM3.00226 13.8518C3.05551 15.0472 4.04149 16 5.25 16H14.75C15.9234 16 16.887 15.1018 16.9908 13.9554L15.1497 12.2006C15.0531 12.1085 14.9013 12.1085 14.8047 12.2006L13.5617 13.3853C12.8857 14.0296 11.8229 14.0296 11.1469 13.3853L7.31179 9.7298C7.21216 9.63484 7.05452 9.63827 6.95911 9.73748L3.00226 13.8518Z" fill="black"/>
<path d="M2.25 11.65C2.66421 11.65 3 11.3142 3 10.9C3 10.4858 2.66421 10.15 2.25 10.15C1.83579 10.15 1.5 10.4858 1.5 10.9C1.5 11.3142 1.83579 11.65 2.25 11.65Z" fill="black"/>
<path d="M14.5 6.5C14.5 7.05228 14.0523 7.5 13.5 7.5C12.9477 7.5 12.5 7.05228 12.5 6.5C12.5 5.94772 12.9477 5.5 13.5 5.5C14.0523 5.5 14.5 5.94772 14.5 6.5Z" fill="black"/>
</g>
</g>
</svg>
