<svg viewBox="0 0 20 20" fill="none" xmlns="http://www.w3.org/2000/svg">
<g id="&#230;&#146;&#173;&#230;&#148;&#190;">
<g id="Union">
<path d="M3.86364 10C3.86364 6.61098 6.61098 3.86364 10 3.86364C10.3766 3.86364 10.6818 3.55838 10.6818 3.18182C10.6818 2.80526 10.3766 2.5 10 2.5C5.85786 2.5 2.5 5.85786 2.5 10C2.5 14.1421 5.85786 17.5 10 17.5C14.1421 17.5 17.5 14.1421 17.5 10C17.5 9.62344 17.1947 9.31818 16.8182 9.31818C16.4416 9.31818 16.1364 9.62344 16.1364 10C16.1364 13.389 13.389 16.1364 10 16.1364C6.61098 16.1364 3.86364 13.389 3.86364 10Z" fill="black"/>
<path d="M8.44828 13.8656L13.5172 10.859C14.1609 10.4772 14.1609 9.52276 13.5172 9.14097L8.44828 6.13437C7.8046 5.75258 7 6.22982 7 6.9934L7 13.0066C7 13.7702 7.8046 14.2474 8.44828 13.8656Z" fill="black"/>
</g>
</g>
</svg>
