<svg viewBox="0 0 20 20" fill="none" xmlns="http://www.w3.org/2000/svg">
<g id="REPORT">
<g id="REPORT_2">
<path d="M10 5.5C10.4276 5.5 10.7742 5.83578 10.7742 6.25V10.75C10.7742 11.1642 10.4276 11.5 10 11.5C9.57242 11.5 9.22581 11.1642 9.22581 10.75V6.25C9.22581 5.83578 9.57242 5.5 10 5.5Z" fill="black"/>
<path d="M10 14.5C10.4276 14.5 10.7742 14.1642 10.7742 13.75C10.7742 13.3358 10.4276 13 10 13C9.57242 13 9.22581 13.3358 9.22581 13.75C9.22581 14.1642 9.57242 14.5 10 14.5Z" fill="black"/>
<path fill-rule="evenodd" clip-rule="evenodd" d="M13.5066 4.5339C11.9481 1.82203 8.0519 1.82203 6.49342 4.5339L2.54851 11.3983C0.990031 14.1102 2.93813 17.5 6.05509 17.5H13.9449C17.0619 17.5 19.01 14.1102 17.4515 11.3983L13.5066 4.5339ZM16.1365 12.161L12.1916 5.29661C11.2176 3.60169 8.78244 3.60169 7.80839 5.29661L3.86348 12.161C2.88943 13.8559 4.10699 15.9746 6.05509 15.9746H13.9449C15.893 15.9746 17.1106 13.8559 16.1365 12.161Z" fill="black"/>
</g>
</g>
</svg>
