<svg viewBox="0 0 28 28" fill="none" xmlns="http://www.w3.org/2000/svg">
<path fill-rule="evenodd" clip-rule="evenodd" d="M14 28C21.732 28 28 21.732 28 14C28 6.26801 21.732 0 14 0C6.26801 0 0 6.26801 0 14C0 21.732 6.26801 28 14 28Z" fill="#181925" fill-opacity="0.4"/>
<path d="M20.049 11.8782C20.049 11.8782 19.594 17.521 19.3301 19.8979C19.2044 21.0332 18.5032 21.6984 17.3545 21.7193C15.1686 21.7587 12.9802 21.7612 10.7951 21.7152C9.69002 21.6925 9.00048 21.0189 8.87732 19.9038C8.61173 17.5059 8.1593 11.8782 8.1593 11.8782" stroke="white" stroke-width="1.5" stroke-linecap="round" stroke-linejoin="round"/>
<path d="M21.2079 9.17331H7" stroke="white" stroke-width="1.5" stroke-linecap="round" stroke-linejoin="round"/>
<path d="M18.4703 9.17319C17.8126 9.17319 17.2462 8.7082 17.1172 8.0639L16.9136 7.0451C16.7879 6.57508 16.3623 6.25 15.8772 6.25H12.3306C11.8455 6.25 11.4199 6.57508 11.2942 7.0451L11.0906 8.0639C10.9616 8.7082 10.3952 9.17319 9.73755 9.17319" stroke="white" stroke-width="1.5" stroke-linecap="round" stroke-linejoin="round"/>
</svg>
