<svg viewBox="0 0 28 28" fill="none" xmlns="http://www.w3.org/2000/svg">
<path fill-rule="evenodd" clip-rule="evenodd" d="M14 28C21.732 28 28 21.732 28 14C28 6.26801 21.732 0 14 0C6.26801 0 0 6.26801 0 14C0 21.732 6.26801 28 14 28Z" fill="#181925" fill-opacity="0.4"/>
<path d="M14.2068 16.7067C14.2068 16.3334 13.8985 16.0308 13.5183 16.0308H12.4854C11.0736 16.0302 9.68842 16.4085 8.47971 17.1248C7.47072 17.7227 6.61672 18.537 5.97976 19.5034C5.86976 19.6702 5.59987 19.6089 5.59998 19.4102C5.59998 14.9715 9.08672 11.3326 13.5184 10.9883C13.8974 10.9589 14.2068 10.6591 14.2068 10.2858V8.1437C14.2068 7.57697 14.8747 7.2619 15.3255 7.61593L22.1416 12.9685C22.4861 13.239 22.4861 13.7534 22.1416 14.024L15.3255 19.3765C14.8747 19.7306 14.2068 19.4155 14.2068 18.8488V16.7067Z" fill="white"/>
</svg>
