<svg viewBox="0 0 16 16" fill="none" xmlns="http://www.w3.org/2000/svg">
<g id="Group 6">
<path id="Rectangle 5" d="M1.50823 5.6992C1.42061 4.95599 2.00127 4.30286 2.74963 4.30286H13.2504C13.9987 4.30286 14.5794 4.95599 14.4918 5.69921L13.5549 13.6463C13.4807 14.2757 12.9472 14.7499 12.3135 14.7499H3.68652C3.05278 14.7499 2.51932 14.2757 2.44512 13.6463L1.50823 5.6992Z" stroke="black" stroke-width="1.5" stroke-linejoin="round"/>
<path id="Line 26 (Stroke)" fill-rule="evenodd" clip-rule="evenodd" d="M2.75 1.25C2.75 0.835786 3.08579 0.5 3.5 0.5H12.5C12.9142 0.5 13.25 0.835786 13.25 1.25C13.25 1.66421 12.9142 2 12.5 2H3.5C3.08579 2 2.75 1.66421 2.75 1.25Z" fill="black"/>
</g>
</svg>
