<svg viewBox="0 0 20 20" fill="none" xmlns="http://www.w3.org/2000/svg">
<g id="Emoji">
<g id="Emoji_2">
<path fill-rule="evenodd" clip-rule="evenodd" d="M10 16C13.3137 16 16 13.3137 16 10C16 6.68629 13.3137 4 10 4C6.68629 4 4 6.68629 4 10C4 13.3137 6.68629 16 10 16ZM10 17.5C14.1421 17.5 17.5 14.1421 17.5 10C17.5 5.85786 14.1421 2.5 10 2.5C5.85786 2.5 2.5 5.85786 2.5 10C2.5 14.1421 5.85786 17.5 10 17.5Z" fill="black"/>
<path fill-rule="evenodd" clip-rule="evenodd" d="M12.3572 11.5H7.64279C8.00724 12.7383 8.98924 13.5 10 13.5C11.0108 13.5 11.9928 12.7383 12.3572 11.5ZM12.4997 11.5L12.5011 11.5002L12.4997 11.5ZM13.3915 11.4922C13.5119 10.9532 13.0518 10.5 12.4995 10.5H7.50081C6.94852 10.5 6.48816 10.9532 6.60853 11.4922C6.99468 13.2214 8.36669 14.5 10 14.5C11.6333 14.5 13.0053 13.2214 13.3915 11.4922Z" fill="black"/>
<path d="M7.5 9.5C8.05228 9.5 8.5 9.05228 8.5 8.5C8.5 7.94772 8.05228 7.5 7.5 7.5C6.94772 7.5 6.5 7.94772 6.5 8.5C6.5 9.05228 6.94772 9.5 7.5 9.5Z" fill="black"/>
<path d="M12.5 9.5C13.0523 9.5 13.5 9.05228 13.5 8.5C13.5 7.94772 13.0523 7.5 12.5 7.5C11.9477 7.5 11.5 7.94772 11.5 8.5C11.5 9.05228 11.9477 9.5 12.5 9.5Z" fill="black"/>
</g>
</g>
</svg>
