<svg viewBox="0 0 24 20" fill="none" xmlns="http://www.w3.org/2000/svg">
<path id="Explore-&#233;&#128;&#137;&#228;&#184;&#173;" fill-rule="evenodd" clip-rule="evenodd" d="M23.3624 3.33333C23.8069 4.11111 23.8069 5 23.4735 5.77778C23.0846 6.66667 22.5291 7.5 21.8069 8.22222L21.6957 8.33333C21.8069 8.88889 21.8624 9.44444 21.8624 10C21.8624 15.5 17.3624 20 11.8624 20C9.52908 20 7.2513 19.1667 5.47352 17.6667L5.30685 17.7222C4.36241 18 3.36241 18.0556 2.41797 17.9444C1.52908 17.8889 0.751299 17.3889 0.306854 16.6667C-0.13759 15.8333 -0.0820346 14.8333 0.36241 14.0556C0.72277 13.3799 1.15618 12.7407 1.66263 12.1677C1.88405 11.9172 1.98575 11.5813 1.94216 11.2498C1.88899 10.8455 1.86241 10.4227 1.86241 10C1.86241 4.5 6.36241 0 11.8624 0C14.0745 0 16.1912 0.71452 17.904 2.05534C18.162 2.25731 18.4958 2.33809 18.8173 2.27501C19.5533 2.13057 20.319 2.06607 21.0846 2.11111C21.9735 2.11111 22.8624 2.55556 23.3624 3.33333ZM8.74253 15.9701C12.8674 14.9389 16.0463 13.3679 18.7071 10.7071C19.0976 10.3166 19.0976 9.68342 18.7071 9.29289C18.3166 8.90237 17.6834 8.90237 17.2929 9.29289C14.9537 11.6321 12.1326 13.0611 8.25746 14.0299C7.72166 14.1638 7.3959 14.7067 7.52985 15.2425C7.6638 15.7783 8.20673 16.1041 8.74253 15.9701Z" fill="black"/>
</svg>
