<svg viewBox="0 0 20 20" fill="none" xmlns="http://www.w3.org/2000/svg">
<path id="Message-&#233;&#128;&#137;&#228;&#184;&#173;" fill-rule="evenodd" clip-rule="evenodd" d="M10 20C15.5228 20 20 15.5228 20 10C20 4.47716 15.5228 0 10 0C4.47716 0 0 4.47716 0 10C0 11.5311 0.344101 12.9818 0.959167 14.2791C1.0284 14.4251 1.06598 14.5875 1.06357 14.7491L1.01515 17.987C1.00681 18.5451 1.45663 19 2.01477 19H5.40623C5.55762 19 5.70627 19.0351 5.84393 19.0981C7.10962 19.6772 8.51712 20 10 20ZM5 11C5.55229 11 6 10.5523 6 10C6 9.44771 5.55229 9 5 9C4.44771 9 4 9.44771 4 10C4 10.5523 4.44771 11 5 11ZM10 11C10.5523 11 11 10.5523 11 10C11 9.44771 10.5523 9 10 9C9.44771 9 9 9.44771 9 10C9 10.5523 9.44771 11 10 11ZM16 10C16 10.5523 15.5523 11 15 11C14.4477 11 14 10.5523 14 10C14 9.44771 14.4477 9 15 9C15.5523 9 16 9.44771 16 10Z" fill="black"/>
</svg>
