<svg viewBox="0 0 20 20" fill="none" xmlns="http://www.w3.org/2000/svg">
<g id="Search">
<path id="Search_2" fill-rule="evenodd" clip-rule="evenodd" d="M13.2139 14.2926C12.0866 15.1865 10.6607 15.7203 9.11017 15.7203C5.45948 15.7203 2.5 12.7609 2.5 9.11017C2.5 5.45948 5.45948 2.5 9.11017 2.5C12.7609 2.5 15.7203 5.45948 15.7203 9.11017C15.7203 10.6607 15.1865 12.0865 14.2926 13.2139L17.2766 16.198C17.5745 16.4958 17.5745 16.9787 17.2766 17.2766C16.9788 17.5745 16.4958 17.5745 16.198 17.2766L13.2139 14.2926ZM14.1949 9.11017C14.1949 11.9184 11.9184 14.1949 9.11017 14.1949C6.30194 14.1949 4.02542 11.9184 4.02542 9.11017C4.02542 6.30194 6.30194 4.02542 9.11017 4.02542C11.9184 4.02542 14.1949 6.30194 14.1949 9.11017Z" fill="black"/>
</g>
</svg>
