<svg xmlns="http://www.w3.org/2000/svg" viewBox="0 0 16 16" fill="none">
    <path d="M9.23914 9.18504C8.42081 9.77512 7.73322 10.5461 7.23926 11.4259C7.03997 11.7807 6.86189 12.1658 6.53824 12.4124C6.04356 12.7884 5.25986 12.7036 4.85777 12.2294C4.63092 11.9623 4.52987 11.6139 4.38571 11.2945C3.94616 10.3221 3.52145 9.8154 2.58016 9.31295C1.79787 8.89531 0.901807 8.57236 0.397949 7.84236C0.381695 7.81904 0.366149 7.79572 0.351308 7.7717C-0.688915 6.11949 0.731499 3.87863 2.64022 4.00513C3.35962 4.05247 4.03732 4.44892 4.46274 5.02627C5.14256 5.94848 4.96659 7.26431 4.99486 8.34198C5.01182 8.98859 5.34396 9.614 6.07466 9.614C6.42517 9.614 6.73398 9.40906 6.94245 9.13911C7.55867 8.34269 7.59118 7.03605 8.61586 6.57813C9.0971 6.3633 9.71332 6.51452 10.0476 6.92228C10.2363 7.15194 10.3281 7.45157 10.3218 7.74838C10.3168 7.97805 10.2532 8.2063 10.1295 8.40064C9.91543 8.73701 9.56209 8.95255 9.23843 9.18504H9.23914ZM15.183 11.1673C15.0918 11.0189 15.0784 10.8662 15.0176 10.6903C14.9583 10.5178 14.865 10.3581 14.7434 10.2224C14.5109 9.96097 14.1816 9.79702 13.8325 9.76734C13.0771 9.70374 12.4128 10.2655 12.3499 11.021C12.2863 11.7764 12.8481 12.4407 13.6036 12.5036C13.8007 12.5198 14 12.4937 14.1859 12.4258C14.3138 12.3792 14.4692 12.3015 14.607 12.334C14.66 12.3467 14.7081 12.3757 14.7576 12.3983C15.0607 12.5375 15.3363 12.4308 15.5116 12.1601C15.6084 12.0103 15.607 11.8407 15.5328 11.6803C15.4444 11.4909 15.2904 11.3432 15.1823 11.1666L15.183 11.1673ZM13.3463 7.79926C13.3463 7.26643 12.9146 6.83394 12.381 6.83394C12.0319 6.83394 11.7104 7.01909 11.5592 7.33851C11.2101 8.07486 11.4016 8.90026 10.5811 9.34758C10.2144 9.54757 9.79953 9.64085 9.42924 9.83236C8.94092 10.0846 8.6413 10.5977 8.6413 11.1475C8.6413 12.416 10.3225 13.1997 11.227 12.2379C11.6341 11.8054 11.6687 11.1687 11.7464 10.6111C11.8397 9.94119 12.1796 9.53061 12.5782 9.00414C12.8587 8.63313 13.3463 8.31301 13.3463 7.79996V7.79926ZM11.0207 5.61493C10.7168 5.57606 10.4603 5.83329 10.4984 6.13716C10.5246 6.34422 10.6921 6.5117 10.8991 6.53785C11.203 6.57671 11.4595 6.31948 11.4213 6.01561C11.3952 5.80856 11.2277 5.64108 11.0207 5.61493Z" fill="#D7D7D7" fill-opacity="0.4"/>
  </svg>