<svg xmlns="http://www.w3.org/2000/svg" viewBox="0 0 14 15" fill="none">
    <path d="M7.00021 0C8.22317 0 9.33084 0.48814 10.1328 1.27718C10.9346 2.06631 11.4305 3.15635 11.4305 4.35997C11.4305 5.56352 10.9346 6.65403 10.1328 7.44277C9.93185 7.64045 9.71193 7.81907 9.47569 7.9759C10.4116 8.32428 11.2519 8.86384 11.9473 9.54623C13.2155 10.7914 14 12.51 14 14.4066C14 14.7341 13.7299 15 13.3966 15C13.0637 15 12.7936 14.7342 12.7936 14.4066C12.7936 12.8352 12.1459 11.4135 11.0988 10.3857C10.0521 9.35845 8.60558 8.72204 7.0074 8.71995H7.00021H6.99981H6.99292C5.39409 8.72204 3.94762 9.35845 2.90121 10.3857C1.85416 11.4135 1.20641 12.8352 1.20641 14.4066C1.20641 14.7341 0.936272 15 0.603043 15C0.270125 15 0 14.7342 0 14.4066C0 12.51 0.784571 10.7914 2.05298 9.54623C2.7478 8.86384 3.58805 8.32428 4.524 7.9759C4.28805 7.81909 4.06813 7.64045 3.86726 7.44277C3.06572 6.65403 2.56976 5.56352 2.56976 4.35997C2.56976 3.15635 3.06572 2.06631 3.86726 1.27718C4.66907 0.48814 5.77681 0 7.00021 0ZM9.27965 2.1168C8.69638 1.54279 7.89027 1.18721 7.00019 1.18721C6.11002 1.18721 5.3036 1.54279 4.72035 2.1168C4.13707 2.69078 3.77581 3.48397 3.77581 4.35998C3.77581 5.23601 4.13707 6.0292 4.72035 6.6036C5.30187 7.17582 6.10548 7.53068 6.99291 7.53276H6.99979H7.00019H7.00708C7.8944 7.53068 8.69797 7.17582 9.27958 6.6036C9.86291 6.0292 10.2242 5.236 10.2242 4.35998C10.2242 3.48395 9.86291 2.69078 9.27965 2.1168Z" fill="#272636"/>
  </svg>