<svg xmlns="http://www.w3.org/2000/svg" viewBox="0 0 13 15" fill="none">
    <path d="M10.8687 7.92698C10.8612 6.69746 11.4359 5.77082 12.5964 5.08755C11.9474 4.18614 10.9654 3.69037 9.67096 3.59482C8.44535 3.50108 7.10443 4.2871 6.61345 4.2871C6.09456 4.2871 4.90801 3.62727 3.97439 3.62727C2.04764 3.65612 0 5.1164 0 8.08743C0 8.9654 0.165522 9.87222 0.496566 10.8061C0.939199 12.0356 2.53491 15.0481 4.19943 14.9994C5.06981 14.9796 5.68541 14.4009 6.81802 14.4009C7.91717 14.4009 8.48627 14.9994 9.45708 14.9994C11.1365 14.976 12.5797 12.2375 13 11.0044C10.7478 9.97498 10.8687 7.99008 10.8687 7.92698Z" fill="black"/>
    <path d="M8.91402 2.42839C9.85694 1.3431 9.77139 0.355154 9.74349 0C8.9103 0.0468731 7.94693 0.549858 7.39828 1.16822C6.79385 1.83166 6.43863 2.65194 6.51488 3.57678C7.41502 3.64348 8.23705 3.19458 8.91402 2.42839Z" fill="black"/>
  </svg>