<svg xmlns="http://www.w3.org/2000/svg" viewBox="0 0 17 15" fill="none">
    <path d="M3.5021 7.50042C3.5021 7.01333 3.59486 6.54606 3.75897 6.10819L0.877672 4.17773C0.29877 5.20846 -0.0018534 6.34658 8.59706e-06 7.50042C8.59706e-06 8.69449 0.315396 9.8208 0.876245 10.8205L3.75612 8.88689C3.5882 8.44011 3.50241 7.97185 3.5021 7.50042Z" fill="#FBBC05"/>
    <path d="M8.56259 3.06827C9.76848 3.06827 10.8581 3.44286 11.7143 4.05651L14.2053 1.87484C12.6876 0.71593 10.7418 0 8.56259 0C5.17895 0 2.27053 1.69714 0.877686 4.17732L3.76042 6.10778C4.42401 4.33969 6.31634 3.06827 8.56259 3.06827Z" fill="#EA4335"/>
    <path d="M8.56259 11.9321C6.31563 11.9321 4.4233 10.6607 3.75899 8.89258L0.877686 10.823C2.26982 13.3032 5.17823 15.0004 8.56259 15.0004C10.6504 15.0004 12.6441 14.3503 14.1411 13.1313L11.4054 11.2762C10.634 11.7026 9.66216 11.9321 8.56188 11.9321" fill="#34A853"/>
    <path d="M16.7355 7.50018C16.7355 7.0572 16.657 6.5797 16.5407 6.13672H8.56183V9.03432H13.1542C12.9252 10.0226 12.3001 10.782 11.406 11.2761L14.1411 13.1311C15.713 11.8514 16.7355 9.94521 16.7355 7.50018Z" fill="#4285F4"/>
  </svg>