<svg xmlns="http://www.w3.org/2000/svg" viewBox="0 0 18 14" fill="none">
    <path d="M8.01487 7.5828L0.0522902 1.36555C0.246308 0.583715 0.97548 0 1.84505 0H16.1549C17.0255 0 17.7555 0.585092 17.9484 1.36832L9.98786 7.5828C9.41627 8.02903 8.58644 8.02903 8.01487 7.5828Z" fill="black"/>
    <path d="M18 10.9388L12.8217 6.89638L18 2.85392V10.9388Z" fill="black"/>
    <path d="M9.00146 9.10163C9.62669 9.10163 10.252 8.90256 10.7619 8.50438L11.8444 7.6593L17.9826 12.4511C17.9327 12.8183 17.7671 13.1504 17.5212 13.4123C17.3818 13.5609 17.216 13.6852 17.0324 13.782C16.7713 13.9197 16.4732 14 16.1549 14H1.84505C1.59365 14 1.35491 13.9496 1.13668 13.861C0.944999 13.7833 0.768969 13.6763 0.616217 13.5443C0.295926 13.2675 0.0768989 12.8851 0.0176453 12.4543L6.15867 7.65942L7.24069 8.50428C7.7509 8.90254 8.37613 9.10163 9.00146 9.10163Z" fill="black"/>
    <path d="M0 10.9422V2.85059L5.1815 6.89642L0 10.9422Z" fill="black"/>
  </svg>