<svg viewBox="0 0 20 20" fill="none" xmlns="http://www.w3.org/2000/svg">
<path d="M3.25263 6.76609C2.99672 6.44659 2.54722 6.40959 2.24865 6.68345C1.95009 6.9573 1.91551 7.43832 2.17143 7.75782C2.49407 8.16063 3.00557 8.68828 3.67045 9.22235L2.76457 10.1917C2.48652 10.4893 2.48652 10.9717 2.76457 11.2693C3.04263 11.5668 3.49346 11.5668 3.77152 11.2693L4.88367 10.0791C5.36037 10.373 5.88229 10.6474 6.44247 10.879L5.88393 11.9773C5.69597 12.347 5.8236 12.8097 6.169 13.0108C6.51441 13.2119 6.94679 13.0754 7.13475 12.7057L7.76565 11.4651C7.78768 11.4218 7.80538 11.3772 7.81889 11.3319C8.38488 11.4707 8.97863 11.5581 9.59474 11.5761V12.7381C9.59474 13.1589 9.91352 13.5 10.3068 13.5C10.7 13.5 11.0188 13.1589 11.0188 12.7381V11.4932C11.5128 11.4215 11.9893 11.308 12.445 11.163C12.4528 11.2659 12.4804 11.3687 12.5294 11.4651L13.1603 12.7057C13.3483 13.0754 13.7806 13.2119 14.126 13.0108C14.4715 12.8097 14.5991 12.347 14.4111 11.9773L13.7802 10.7367C13.7652 10.7071 13.7486 10.679 13.7305 10.6525C14.3217 10.3702 14.8636 10.0447 15.3471 9.70712C15.3739 9.75154 15.4056 9.79363 15.4419 9.83256L16.7845 11.2693C17.0626 11.5668 17.5134 11.5668 17.7915 11.2693C18.0695 10.9717 18.0695 10.4893 17.7915 10.1917L16.4909 8.80004C16.9174 8.41658 17.2561 8.05355 17.4929 7.75782C17.7488 7.43832 17.7143 6.9573 17.4157 6.68345C17.1171 6.40959 16.6676 6.44659 16.4117 6.76609C15.5385 7.85629 12.9657 10.0557 9.83218 10.0557C6.69868 10.0557 4.12586 7.85629 3.25263 6.76609Z" fill="#A3A3A3"/>
</svg>
