<svg xmlns="http://www.w3.org/2000/svg" viewBox="0 0 16 9" fill="none">
<path fill-rule="evenodd" clip-rule="evenodd" d="M3.84236 5.98198C2.97437 5.48405 2.30073 4.86725 1.67905 4.24999C2.30073 3.63274 2.97437 3.01594 3.84236 2.51801C4.32956 2.23853 4.88445 1.99335 5.53095 1.81367C4.93054 2.44377 4.56095 3.30296 4.56095 4.25C4.56095 5.19703 4.93054 6.05622 5.53094 6.68631C4.88444 6.50664 4.32956 6.26146 3.84236 5.98198ZM10.4693 6.68629C11.1158 6.50662 11.6706 6.26144 12.1578 5.98197C13.0258 5.48404 13.6994 4.86724 14.3211 4.24999C13.6994 3.63274 13.0258 3.01594 12.1578 2.51802C11.6706 2.23854 11.1157 1.99337 10.4693 1.81369C11.0697 2.44379 11.4393 3.30297 11.4393 4.25C11.4393 5.19702 11.0697 6.0562 10.4693 6.68629ZM1.33083 4.59956L0.989954 4.25L1.33084 4.59955L1.33083 4.59956ZM0.292578 4.96512L0.793795 4.45114L0.292574 4.96511C-0.0975153 4.57112 -0.0975356 3.92888 0.292578 3.53487L0.292583 3.53487L0.310958 3.51631C1.02195 2.79817 1.90214 1.90914 3.1186 1.21131C4.35997 0.499196 5.92288 0 8.00011 0C10.0773 7.80821e-06 11.6402 0.499206 12.8816 1.21132C14.098 1.90913 14.9781 2.79814 15.6891 3.51626L15.7075 3.53487L15.1884 4.06721L15.7075 3.53487C16.0976 3.92888 16.0976 4.57111 15.7075 4.96512L15.6891 4.98372C14.9781 5.70185 14.098 6.59086 12.8816 7.28867C11.6402 8.00078 10.0773 8.49998 8.0001 8.49999C5.92288 8.49999 4.35997 8.00079 3.1186 7.28868C1.90214 6.59085 1.02195 5.70182 0.310956 4.98368L0.292578 4.96512Z" fill="black" fill-opacity="0.36"/>
</svg>