<svg viewBox="0 0 20 20" fill="none" xmlns="http://www.w3.org/2000/svg">
<path fill-rule="evenodd" clip-rule="evenodd" d="M5.84233 11.732C4.97434 11.234 4.3007 10.6172 3.67902 9.99999C4.3007 9.38274 4.97434 8.76594 5.84233 8.26801C6.32953 7.98853 6.88442 7.74335 7.53092 7.56367C6.93051 8.19377 6.56092 9.05296 6.56092 10C6.56092 10.947 6.93051 11.8062 7.53091 12.4363C6.88441 12.2566 6.32953 12.0115 5.84233 11.732ZM12.4693 12.4363C13.1157 12.2566 13.6706 12.0114 14.1578 11.732C15.0257 11.234 15.6994 10.6172 16.321 9.99999C15.6994 9.38274 15.0257 8.76594 14.1578 8.26802C13.6706 7.98854 13.1157 7.74337 12.4692 7.56369C13.0696 8.19379 13.4392 9.05297 13.4392 10C13.4392 10.947 13.0696 11.8062 12.4693 12.4363ZM3.3308 10.3496L2.98992 10L3.33081 10.3496L3.3308 10.3496ZM2.29255 10.7151L2.79376 10.2011L2.29254 10.7151C1.90245 10.3211 1.90243 9.67888 2.29255 9.28487L2.29255 9.28487L2.31093 9.26631C3.02192 8.54817 3.90211 7.65914 5.11857 6.96131C6.35994 6.2492 7.92285 5.75 10.0001 5.75C12.0773 5.75001 13.6402 6.24921 14.8815 6.96132C16.0979 7.65913 16.9781 8.54814 17.6891 9.26626L17.7075 9.28487L17.1884 9.81721L17.7075 9.28487C18.0976 9.67888 18.0976 10.3211 17.7075 10.7151L17.6891 10.7337C16.9781 11.4518 16.0979 12.3409 14.8815 13.0387C13.6402 13.7508 12.0773 14.25 10.0001 14.25C7.92285 14.25 6.35994 13.7508 5.11857 13.0387C3.90211 12.3409 3.02192 11.4518 2.31093 10.7337L2.29255 10.7151Z" fill="#A3A3A3"/>
</svg>
