<svg xmlns="http://www.w3.org/2000/svg" viewBox="0 0 16 7" fill="none">
<path d="M1.25263 0.26609C0.996716 -0.0534114 0.547221 -0.0904123 0.248655 0.183446C-0.0499116 0.457304 -0.0844882 0.938317 0.171426 1.25782C0.494066 1.66063 1.00557 2.18828 1.67045 2.72235L0.764575 3.69174C0.486515 3.98929 0.486515 4.47173 0.764575 4.76928C1.04263 5.06684 1.49346 5.06684 1.77152 4.76928L2.88367 3.57915C3.36037 3.87302 3.88229 4.14736 4.44247 4.379L3.88393 5.47734C3.69597 5.84697 3.8236 6.30966 4.169 6.51081C4.51441 6.71195 4.94679 6.57537 5.13475 6.20575L5.76565 4.96511C5.78768 4.92178 5.80538 4.87718 5.81889 4.83186C6.38488 4.97067 6.97863 5.0581 7.59474 5.07614V6.23806C7.59474 6.65887 7.91352 7 8.30676 7C8.69999 7 9.01877 6.65887 9.01877 6.23806V4.99324C9.51283 4.92153 9.98928 4.80796 10.445 4.66304C10.4528 4.76587 10.4804 4.86866 10.5294 4.96511L11.1603 6.20575C11.3483 6.57537 11.7806 6.71195 12.126 6.51081C12.4715 6.30966 12.5991 5.84697 12.4111 5.47734L11.7802 4.23671C11.7652 4.20712 11.7486 4.17902 11.7305 4.15247C12.3217 3.87022 12.8636 3.54473 13.3471 3.20712C13.3739 3.25154 13.4056 3.29363 13.4419 3.33256L14.7845 4.76928C15.0626 5.06684 15.5134 5.06684 15.7915 4.76928C16.0695 4.47173 16.0695 3.98929 15.7915 3.69174L14.4909 2.30004C14.9174 1.91658 15.2561 1.55355 15.4929 1.25782C15.7488 0.938317 15.7143 0.457304 15.4157 0.183446C15.1171 -0.0904123 14.6676 -0.0534114 14.4117 0.26609C13.5385 1.35629 10.9657 3.55574 7.83218 3.55574C4.69868 3.55574 2.12586 1.35629 1.25263 0.26609Z" fill="black" fill-opacity="0.36"/>
</svg>