<svg viewBox="0 0 108 60" fill="none" xmlns="http://www.w3.org/2000/svg">
<path d="M63.7384 35.8994C58.0924 39.9839 53.3468 45.3201 49.9427 51.4123C48.5714 53.8672 47.3379 56.5364 45.1052 58.2421C41.6941 60.8468 36.287 60.2544 33.5145 56.9743C31.9503 55.1234 31.2543 52.7123 30.2597 50.4995C27.2276 43.7665 24.2967 40.2605 17.8007 36.7799C12.4028 33.8871 6.22386 31.6535 2.7485 26.6009C2.63824 26.4395 2.53028 26.2759 2.42462 26.1099C-4.7535 14.6723 5.0455 -0.838275 18.2142 0.0353334C23.1757 0.364954 27.8524 3.11025 30.788 7.10488C35.4785 13.4875 34.261 22.5993 34.4586 30.0584C34.5757 34.5325 36.8658 38.866 41.9078 38.866C44.3265 38.866 46.4535 37.4461 47.896 35.5767C52.1501 30.0653 52.3729 21.0181 59.4408 17.8487C62.7622 16.3596 67.0094 17.4084 69.3179 20.2321C70.6203 21.8248 71.2542 23.8948 71.2106 25.9509C71.1761 27.5413 70.7374 29.1226 69.8852 30.4641C68.4083 32.7899 65.9688 34.2836 63.7384 35.8971V35.8994Z" fill="#6567E8"/>
<path d="M104.745 49.6239C104.116 48.5959 104.024 47.5402 103.606 46.3231C103.197 45.1314 102.551 44.0227 101.715 43.0822C100.11 41.2728 97.8403 40.1364 95.4331 39.9336C90.2189 39.4956 85.6387 43.3819 85.2022 48.612C84.7658 53.8445 88.6386 58.4407 93.8505 58.8787C95.2103 58.9939 96.5885 58.8118 97.8702 58.3416C98.75 58.0189 99.825 57.4818 100.778 57.7054C101.146 57.7907 101.474 57.9935 101.816 58.1503C103.907 59.1138 105.811 58.3762 107.017 56.5022C107.688 55.4626 107.676 54.2916 107.162 53.1806C106.553 51.8714 105.492 50.8456 104.743 49.6239H104.745Z" fill="#6567E8"/>
<path d="M92.0768 26.3084C92.0768 22.618 89.0953 19.6284 85.4201 19.6284C83.0105 19.6284 80.7939 20.9123 79.7534 23.1205C77.3461 28.217 78.6669 33.9335 73.0048 37.0268C70.4735 38.4099 67.6137 39.0576 65.0595 40.3807C61.6921 42.1256 59.6248 45.6799 59.6248 49.4833C59.6248 58.2654 71.2223 63.6892 77.4633 57.0322C80.2725 54.0357 80.5091 49.6285 81.0443 45.7698C81.6874 41.1344 84.0327 38.2923 86.7799 34.6457C88.7163 32.0756 92.0791 29.8605 92.0791 26.3084H92.0768Z" fill="#6567E8"/>
<path d="M77.8814 16.6578C79.1372 15.3976 79.1416 13.3587 77.8911 12.1039C76.6406 10.849 74.6089 10.8534 73.353 12.1136C72.0972 13.3739 72.0928 15.4128 73.3433 16.6676C74.5937 17.9224 76.6255 17.9181 77.8814 16.6578Z" fill="#6567E8"/>
</svg>
