<svg xmlns="http://www.w3.org/2000/svg" viewBox="0 0 72 40" fill="none">
<path d="M42.4923 23.9329C38.7283 26.6559 35.5645 30.2134 33.2951 34.2749C32.3809 35.9114 31.5586 37.6909 30.0701 38.8281C27.7961 40.5645 24.1913 40.1696 22.343 37.9829C21.3002 36.7489 20.8362 35.1416 20.1731 33.6663C18.1518 29.1777 16.1978 26.8403 11.8672 24.5199C8.26853 22.5914 4.14924 21.1023 1.83233 17.7339C1.75883 17.6264 1.68686 17.5172 1.61642 17.4066C-3.169 9.78154 3.36367 -0.55885 12.1428 0.0235556C15.4505 0.243302 18.5683 2.0735 20.5253 4.73659C23.6523 8.99168 22.8407 15.0662 22.9724 20.039C23.0505 23.0217 24.5772 25.9107 27.9385 25.9107C29.551 25.9107 30.969 24.9641 31.9307 23.7178C34.7667 20.0436 34.9153 14.0121 39.6272 11.8991C41.8415 10.9064 44.6729 11.6056 46.2119 13.488C47.0802 14.5499 47.5028 15.9298 47.4737 17.3006C47.4508 18.3609 47.1583 19.4151 46.5901 20.3094C45.6055 21.8599 43.9792 22.8557 42.4923 23.9314V23.9329Z" fill="#FFFFFF"/>
<path d="M69.8302 33.0823C69.4106 32.3969 69.3493 31.6931 69.0706 30.8818C68.7981 30.0873 68.3678 29.3481 67.8104 28.7212C66.74 27.5149 65.227 26.7573 63.6222 26.6221C60.146 26.3301 57.0926 28.9209 56.8016 32.4077C56.5106 35.896 59.0925 38.9601 62.5671 39.2521C63.4736 39.3289 64.3924 39.2076 65.2469 38.8941C65.8334 38.6789 66.5501 38.3209 67.1856 38.4699C67.4306 38.5268 67.6496 38.662 67.8777 38.7665C69.2713 39.4089 70.5407 38.9171 71.3447 37.6678C71.7918 36.9747 71.7842 36.1941 71.4411 35.4534C71.0353 34.5806 70.3279 33.8967 69.8287 33.0823H69.8302Z" fill="#FFFFFF"/>
<path d="M61.3846 17.5393C61.3846 15.079 59.3969 13.0859 56.9468 13.0859C55.3404 13.0859 53.8626 13.9419 53.169 15.414C51.5641 18.8116 52.4446 22.6226 48.6699 24.6849C46.9824 25.6069 45.0759 26.0387 43.373 26.9208C41.1281 28.084 39.7499 30.4536 39.7499 32.9892C39.7499 38.844 47.4816 42.4598 51.6422 38.0218C53.515 36.0241 53.6728 33.086 54.0296 30.5136C54.4583 27.4233 56.0218 25.5285 57.8533 23.0975C59.1442 21.3841 61.3861 19.9073 61.3861 17.5393H61.3846Z" fill="#FFFFFF"/>
<path d="M51.9212 11.1059C52.7584 10.2657 52.7613 8.90645 51.9277 8.06989C51.094 7.23333 49.7395 7.23625 48.9023 8.07641C48.0651 8.91657 48.0622 10.2758 48.8958 11.1124C49.7294 11.9489 51.084 11.946 51.9212 11.1059Z" fill="#FFFFFF"/>
</svg>