
<svg viewBox="0 0 100 100" fill="none" xmlns="http://www.w3.org/2000/svg">
<path fill-rule="evenodd" clip-rule="evenodd" d="M45.3118 0C20.2868 0 0 20.2868 0 45.3118V100H54.6882C79.7132 100 100 79.7132 100 54.6882V0H45.3118ZM47.5831 63.9534C49.7412 60.0896 52.7097 56.7445 56.2825 54.1507C56.5108 53.9837 56.7426 53.819 56.9748 53.6541C58.1724 52.8034 59.3798 51.9458 60.163 50.7274C60.766 49.7413 61.0549 48.5933 60.9908 47.4374C60.9267 46.2814 60.5128 45.1728 59.8046 44.2602C59.0583 43.3771 58.0524 42.7552 56.9321 42.4842C55.8117 42.2132 54.6347 42.3071 53.5707 42.7523C50.7725 44.0108 49.6756 46.7355 48.5822 49.4518C47.9351 51.0592 47.2892 52.6635 46.2927 53.9595C45.3826 55.1382 44.0392 56.0379 42.515 56.0379C39.3358 56.0379 37.8927 53.2917 37.8178 50.4704C37.7917 49.5509 37.8002 48.5917 37.8088 47.6132C37.8445 43.574 37.8831 39.2069 35.502 35.9591C34.5751 34.6872 33.3875 33.6302 32.0196 32.8595C30.6516 32.0888 29.1351 31.6225 27.5725 31.4919C19.266 30.9276 13.0851 40.7303 17.614 47.9593C17.6794 48.0659 17.7449 48.1694 17.8166 48.2728C19.5683 50.8265 22.4095 52.2402 25.2193 53.6383C25.9243 53.9892 26.6274 54.339 27.3107 54.7056C31.4064 56.9062 33.2547 59.1226 35.1654 63.3766C35.3287 63.7394 35.4793 64.1105 35.6299 64.4818C36.0597 65.5417 36.49 66.6025 37.2194 67.4707C38.968 69.5429 42.3779 69.9191 44.5317 68.2701C45.7514 67.3371 46.4995 65.9534 47.2421 64.5796C47.3554 64.3701 47.4685 64.1608 47.5831 63.9534ZM81.6542 61.4896C81.7771 61.9574 81.8917 62.3937 82.1529 62.8217C82.3487 63.1505 82.5828 63.4567 82.8174 63.7635C83.1353 64.1793 83.4542 64.5964 83.6802 65.0726C83.8498 65.3994 83.9305 65.7655 83.9141 66.1338C83.8976 66.5021 83.7847 66.8595 83.5867 67.1698C82.8261 68.3548 81.6261 68.8219 80.3076 68.2137C80.0997 68.0972 79.8804 68.0027 79.6531 67.9316C79.1581 67.813 78.5928 68.0331 78.0938 68.2273C77.9989 68.2643 77.9064 68.3003 77.8172 68.3328C76.9771 68.6409 76.079 68.7554 75.189 68.668C74.2991 68.5805 73.44 68.2932 72.6751 67.8273C71.9102 67.3614 71.259 66.7288 70.7696 65.9761C70.2802 65.2234 69.965 64.3699 69.8472 63.4783C69.7295 62.5868 69.8122 61.6801 70.0892 60.825C70.3663 59.9699 70.8306 59.1882 71.448 58.5376C72.0654 57.8871 72.8202 57.3841 73.6565 57.066C74.4929 56.7478 75.3897 56.6225 76.2806 56.6993C77.4368 56.7966 78.5399 57.2302 79.4553 57.9471C80.3707 58.6641 81.0589 59.6335 81.436 60.737C81.5251 60.9985 81.5907 61.2482 81.6542 61.4896ZM72.9347 45.1009C73.722 45.8933 74.1642 46.9677 74.1642 48.0879H74.1549C74.1549 49.7203 73.0338 50.9067 71.9559 52.0473C71.5517 52.4751 71.1536 52.8965 70.8229 53.3325C70.7148 53.4762 70.6077 53.6179 70.5018 53.758C68.9098 55.8651 67.587 57.6157 67.2041 60.364C67.1644 60.6517 67.1273 60.9445 67.0898 61.2401C66.8096 63.45 66.509 65.8211 64.9475 67.4801C61.0108 71.6903 53.6954 68.2607 53.6954 62.7089C53.6884 61.5262 54.0044 60.3643 54.609 59.3499C55.2136 58.3355 56.0836 57.5075 57.124 56.9564C57.896 56.5554 58.7117 56.2523 59.5274 55.9491C60.4145 55.6194 61.3016 55.2897 62.1329 54.8341C64.497 53.5477 64.9319 51.5308 65.3958 49.3796C65.6328 48.2804 65.8773 47.1462 66.3906 46.0565C66.7169 45.3863 67.2267 44.8238 67.8601 44.435C68.4934 44.0463 69.2239 43.8475 69.9657 43.8621C71.0795 43.8629 72.1474 44.3085 72.9347 45.1009ZM62.8163 38.7537C63.19 38.5524 63.617 38.474 64.0374 38.5297C64.4771 38.5879 64.8857 38.7896 65.2004 39.1039C65.5152 39.4182 65.7187 39.8277 65.7797 40.2695C65.838 40.6918 65.7632 41.1219 65.5657 41.4992C65.3682 41.8765 65.058 42.1819 64.6788 42.3726C64.2996 42.5632 63.8705 42.6294 63.4519 42.5618C63.0333 42.4943 62.6464 42.2963 62.3455 41.9959C62.0447 41.6955 61.8451 41.3078 61.7749 40.8873C61.7048 40.4668 61.7675 40.0347 61.9543 39.652C62.1411 39.2692 62.4426 38.9551 62.8163 38.7537Z" fill="white"/>
</svg>
