<svg width="54" height="30" viewBox="0 0 54 30" fill="none" xmlns="http://www.w3.org/2000/svg">
<path d="M31.8693 17.9497C29.0463 19.992 26.6734 22.6601 24.9714 25.7062C24.2857 26.9336 23.669 28.2682 22.5526 29.1211C20.8471 30.4234 18.1435 30.1273 16.7573 28.4872C15.9752 27.5617 15.6272 26.3562 15.1299 25.2498C13.6138 21.8833 12.1483 20.1303 8.90038 18.39C6.2014 16.9436 3.11193 15.8268 1.37425 13.3005C1.31912 13.2198 1.26514 13.138 1.21231 13.055C-2.37675 7.33617 2.52275 -0.419138 9.10711 0.0176667C11.5879 0.182477 13.9262 1.55513 15.394 3.55245C17.7393 6.74377 17.1305 11.2997 17.2293 15.0292C17.2879 17.2663 18.4329 19.433 20.9539 19.433C22.1633 19.433 23.2268 18.7231 23.9481 17.7884C26.0751 15.0327 26.1865 10.5091 29.7204 8.92434C31.3812 8.17981 33.5047 8.70421 34.659 10.116C35.3102 10.9124 35.6272 11.9474 35.6053 12.9754C35.5881 13.7707 35.3688 14.5613 34.9427 15.2321C34.2042 16.395 32.9845 17.1418 31.8693 17.9486V17.9497Z" fill="#6567E8"/>
<path d="M52.3727 24.8119C52.058 24.2978 52.0121 23.77 51.803 23.1615C51.5986 22.5656 51.2759 22.0112 50.8578 21.541C50.055 20.6363 48.9203 20.0681 47.7167 19.9667C45.1096 19.7477 42.8195 21.6908 42.6012 24.3059C42.383 26.9221 44.3194 29.2203 46.9254 29.4392C47.6053 29.4969 48.2944 29.4058 48.9352 29.1707C49.3751 29.0093 49.9126 28.7408 50.3892 28.8526C50.573 28.8952 50.7372 28.9967 50.9084 29.075C51.9535 29.5568 52.9056 29.188 53.5086 28.251C53.8439 27.7312 53.8382 27.1457 53.5809 26.5902C53.2766 25.9356 52.746 25.4227 52.3716 24.8119H52.3727Z" fill="#6567E8"/>
<path d="M46.0385 13.1541C46.0385 11.3089 44.5478 9.81413 42.7102 9.81413C41.5054 9.81413 40.3971 10.4561 39.8768 11.5602C38.6732 14.1084 39.3336 16.9667 36.5025 18.5133C35.2369 19.2049 33.807 19.5287 32.5299 20.1903C30.8462 21.0627 29.8125 22.8399 29.8125 24.7416C29.8125 29.1327 35.6113 31.8445 38.7318 28.5161C40.1364 27.0178 40.2547 24.8142 40.5223 22.8849C40.8439 20.5671 42.0165 19.1461 43.3901 17.3228C44.3583 16.0377 46.0397 14.9302 46.0397 13.1541H46.0385Z" fill="#6567E8"/>
<path d="M38.9409 8.32897C39.5689 7.69885 39.571 6.67941 38.9458 6.05199C38.3206 5.42457 37.3047 5.42676 36.6768 6.05688C36.0488 6.687 36.0466 7.70644 36.6719 8.33386C37.2971 8.96128 38.313 8.95909 38.9409 8.32897Z" fill="#6567E8"/>
</svg>
