<svg viewBox="0 0 24 24" fill="none" xmlns="http://www.w3.org/2000/svg">
<path id="Union" fill-rule="evenodd" clip-rule="evenodd" d="M6.54314 5.48248C8.01957 4.24503 9.92276 3.5 12.0001 3.5C16.694 3.5 20.5001 7.30527 20.5001 12C20.5001 14.0769 19.7549 15.9801 18.5173 17.4566L6.54314 5.48248ZM5.48249 6.54315C4.2451 8.01956 3.50012 9.9227 3.50012 12C3.50012 16.6938 7.30539 20.5 12.0001 20.5C14.077 20.5 15.9801 19.7548 17.4566 18.5173L5.48249 6.54315ZM12.0001 2C6.47691 2 2.00012 6.47679 2.00012 12C2.00012 17.5222 6.47686 22 12.0001 22C17.5223 22 22.0001 17.5222 22.0001 12C22.0001 6.47673 17.5223 2 12.0001 2Z" fill="white" stroke="white" stroke-width="0.5" stroke-linecap="round"/>
</svg>
