<svg viewBox="0 0 36 36" fill="none" xmlns="http://www.w3.org/2000/svg">
<path fill-rule="evenodd" clip-rule="evenodd" d="M3 17.1217V18.879C3.01362 18.9886 3.02756 19.098 3.04149 19.2074C3.06433 19.3867 3.08716 19.566 3.10858 19.7456C3.45048 22.671 4.56126 25.2751 6.43654 27.538C8.62582 30.1758 11.4043 31.8876 14.7542 32.6368C15.2218 32.7415 15.6998 32.8006 16.1777 32.8597C16.4062 32.8879 16.6347 32.9161 16.8621 32.9494C16.92 32.9578 16.9772 32.9702 17.0342 32.9826C17.0617 32.9886 17.0892 32.9945 17.1166 33H18.8738C18.9446 32.991 19.0155 32.9819 19.0863 32.9728C19.3038 32.9448 19.5215 32.9169 19.7395 32.8914C22.6662 32.5487 25.2715 31.4371 27.5334 29.5587C30.1724 27.367 31.8782 24.5861 32.6368 21.2351C32.9883 19.681 33.0895 18.1057 32.9193 16.523C32.5282 12.8851 31.0279 9.77471 28.402 7.22201C26.4798 5.35242 24.2069 4.09918 21.6053 3.44615C20.2054 3.09468 18.7821 2.94573 17.3412 3.01764C14.204 3.17393 11.3734 4.19163 8.87968 6.10891C6.61188 7.85156 4.97285 10.0689 3.95525 12.7405C3.52971 13.8558 3.25092 15.01 3.11372 16.1972C3.08804 16.4173 3.06049 16.6375 3.03294 16.8576C3.02192 16.9456 3.0109 17.0337 3 17.1217ZM16.3585 26.3566C16.5039 26.4014 16.651 26.4467 16.8005 26.4937V26.8994C16.8007 26.995 16.7998 27.0907 16.7988 27.1864C16.7965 27.4096 16.7942 27.6328 16.808 27.8545C16.8483 28.5033 17.3666 28.9961 17.9918 29C18.6171 29.0038 19.14 28.5157 19.1916 27.8707C19.2035 27.73 19.2019 27.5882 19.2003 27.4462C19.1997 27.397 19.1991 27.3477 19.1991 27.2985V26.5109C19.3872 26.4471 19.5709 26.3883 19.7507 26.3306C20.1293 26.2094 20.4911 26.0935 20.8411 25.9482C21.7583 25.5683 22.5469 24.9893 23.1403 24.173C23.9918 22.9997 24.2387 21.7069 23.7552 20.3135C23.4426 19.413 22.869 18.6981 22.1226 18.1268C20.9979 17.2655 19.7164 16.8712 18.326 16.7822C18.3003 16.7806 18.2745 16.779 18.2487 16.7773C17.7649 16.7466 17.2757 16.7155 16.8042 16.6129C15.994 16.4358 15.2721 16.0645 14.7661 15.3611C14.4318 14.897 14.2854 14.3812 14.4947 13.8166C14.6374 13.43 14.8646 13.0979 15.1895 12.8414C16.3339 11.938 17.6266 11.7409 19.0151 12.0069C19.7155 12.1409 20.3248 12.4634 20.8909 12.9065C21.4316 13.3304 22.1564 13.2032 22.5535 12.6653C22.9431 12.138 22.8605 11.4318 22.3442 10.9906C21.825 10.5466 21.257 10.1772 20.6102 9.95517C20.2915 9.846 19.9696 9.74656 19.6386 9.64428C19.4937 9.59951 19.3471 9.55421 19.1982 9.5073V9.10059C19.1979 9.00497 19.1989 8.90927 19.1999 8.81358C19.2022 8.59037 19.2045 8.36724 19.1907 8.14552C19.1503 7.49669 18.6321 7.00385 18.0068 7.00002C17.3816 6.99619 16.8587 7.48425 16.807 8.12926C16.7952 8.26998 16.7968 8.41176 16.7984 8.55381C16.799 8.60303 16.7995 8.65228 16.7995 8.70153V9.52931C16.7414 9.54525 16.6882 9.56054 16.6383 9.57492C16.5382 9.60372 16.451 9.62883 16.362 9.64798C15.2758 9.88053 14.3192 10.3782 13.4893 11.1256C12.3101 12.1878 11.5882 13.9123 12.2547 15.7219C12.7166 16.9746 13.6151 17.8359 14.7614 18.4416C15.719 18.9479 16.746 19.1919 17.8219 19.2168C18.5269 19.2331 19.216 19.3182 19.8704 19.6025C20.4055 19.836 20.8899 20.1441 21.2326 20.6379C21.6119 21.1863 21.7274 21.7624 21.4129 22.393C21.1904 22.8409 20.8618 23.1825 20.4459 23.4275C19.0574 24.2448 17.6078 24.3271 16.132 23.7136C15.8404 23.5927 15.5724 23.4055 15.3067 23.2197C15.2422 23.1747 15.1779 23.1297 15.1134 23.0859C14.5454 22.6983 13.8432 22.7969 13.4451 23.3347C13.0546 23.862 13.1363 24.5682 13.6526 25.0094C14.1727 25.4534 14.7398 25.8238 15.3866 26.0458C15.7051 26.1555 16.0271 26.2547 16.3585 26.3566Z" fill="white"/>
<path d="M3 18.879H2.89923L2.90076 18.8914L3 18.879ZM3 17.1217L2.9 17.1093V17.1217H3ZM3.04149 19.2074L3.14069 19.1947L3.04149 19.2074ZM3.10858 19.7456L3.20791 19.734L3.20788 19.7338L3.10858 19.7456ZM6.43654 27.538L6.35954 27.6018L6.35959 27.6019L6.43654 27.538ZM14.7542 32.6368L14.7761 32.5392L14.776 32.5392L14.7542 32.6368ZM16.1777 32.8597L16.19 32.7604L16.1777 32.8597ZM16.8621 32.9494L16.8476 33.0483L16.8477 33.0483L16.8621 32.9494ZM17.0342 32.9826L17.013 33.0803L17.013 33.0803L17.0342 32.9826ZM17.1166 33L17.097 33.0981L17.1067 33.1H17.1166V33ZM18.8738 33V33.1008L18.8864 33.0992L18.8738 33ZM19.0863 32.9728L19.0736 32.8736L19.0863 32.9728ZM19.7395 32.8914L19.7511 32.9907L19.7512 32.9907L19.7395 32.8914ZM27.5334 29.5587L27.5973 29.6357L27.5973 29.6357L27.5334 29.5587ZM32.6368 21.2351L32.7344 21.2572L32.7344 21.2572L32.6368 21.2351ZM32.9193 16.523L32.8199 16.5337L32.8199 16.5337L32.9193 16.523ZM28.402 7.22201L28.3323 7.29369L28.3323 7.29371L28.402 7.22201ZM21.6053 3.44615L21.5809 3.54314L21.5809 3.54314L21.6053 3.44615ZM17.3412 3.01764L17.3461 3.11751L17.3461 3.11751L17.3412 3.01764ZM8.87968 6.10891L8.94061 6.18821L8.94063 6.18819L8.87968 6.10891ZM3.95525 12.7405L4.04868 12.7762L4.0487 12.7761L3.95525 12.7405ZM3.11372 16.1972L3.21305 16.2088L3.21306 16.2087L3.11372 16.1972ZM3.03294 16.8576L2.93371 16.8452H2.93371L3.03294 16.8576ZM16.8005 26.4937H16.9005V26.4203L16.8305 26.3983L16.8005 26.4937ZM16.3585 26.3566L16.3291 26.4522L16.3585 26.3566ZM16.8005 26.8994H16.7005L16.7005 26.8997L16.8005 26.8994ZM16.7988 27.1864L16.6988 27.1854L16.7988 27.1864ZM16.808 27.8545L16.9078 27.8483V27.8483L16.808 27.8545ZM19.1916 27.8707L19.092 27.8623L19.0919 27.8628L19.1916 27.8707ZM19.2003 27.4462L19.1003 27.4473V27.4473L19.2003 27.4462ZM19.1991 26.5109L19.167 26.4162L19.0991 26.4392V26.5109H19.1991ZM19.7507 26.3306L19.7812 26.4259L19.7507 26.3306ZM20.8411 25.9482L20.8029 25.8558L20.8028 25.8558L20.8411 25.9482ZM23.1403 24.173L23.2212 24.2318L23.2212 24.2317L23.1403 24.173ZM23.7552 20.3135L23.8497 20.2807L23.8497 20.2807L23.7552 20.3135ZM22.1226 18.1268L22.0618 18.2062L22.0618 18.2062L22.1226 18.1268ZM18.326 16.7822L18.3324 16.6825L18.3324 16.6825L18.326 16.7822ZM18.2487 16.7773L18.2423 16.8771L18.2487 16.7773ZM16.8042 16.6129L16.7829 16.7106L16.7829 16.7106L16.8042 16.6129ZM14.7661 15.3611L14.8472 15.3027L14.8472 15.3027L14.7661 15.3611ZM14.4947 13.8166L14.5885 13.8513L14.5886 13.8512L14.4947 13.8166ZM15.1895 12.8414L15.1275 12.7629L15.1275 12.7629L15.1895 12.8414ZM19.0151 12.0069L18.9963 12.1051L18.9963 12.1051L19.0151 12.0069ZM20.8909 12.9065L20.9526 12.8278L20.9525 12.8277L20.8909 12.9065ZM22.5535 12.6653L22.4731 12.6059L22.4731 12.6059L22.5535 12.6653ZM22.3442 10.9906L22.2792 11.0666L22.2792 11.0666L22.3442 10.9906ZM20.6102 9.95517L20.6426 9.86059L20.6426 9.86057L20.6102 9.95517ZM19.6386 9.64428L19.6091 9.73982L19.6386 9.64428ZM19.1982 9.5073H19.0982V9.58065L19.1681 9.60268L19.1982 9.5073ZM19.1982 9.10059H19.2982V9.10029L19.1982 9.10059ZM19.1999 8.81358L19.0999 8.81255V8.81255L19.1999 8.81358ZM19.1907 8.14552L19.0909 8.15173V8.15174L19.1907 8.14552ZM16.807 8.12926L16.9067 8.13765L16.9067 8.13724L16.807 8.12926ZM16.7984 8.55381L16.8984 8.55268V8.55268L16.7984 8.55381ZM16.7995 9.52931L16.826 9.62576L16.8995 9.6056V9.52931H16.7995ZM16.6383 9.57492L16.6659 9.67102L16.6383 9.57492ZM16.362 9.64798L16.383 9.74576L16.3831 9.74574L16.362 9.64798ZM13.4893 11.1256L13.4223 11.0512L13.4223 11.0513L13.4893 11.1256ZM12.2547 15.7219L12.1609 15.7565L12.1609 15.7565L12.2547 15.7219ZM14.7614 18.4416L14.8081 18.3532L14.8081 18.3532L14.7614 18.4416ZM17.8219 19.2168L17.8196 19.3168H17.8196L17.8219 19.2168ZM19.8704 19.6025L19.9104 19.5108L19.9102 19.5107L19.8704 19.6025ZM21.2326 20.6379L21.3148 20.581L21.3148 20.5809L21.2326 20.6379ZM21.4129 22.393L21.3234 22.3484L21.3233 22.3485L21.4129 22.393ZM20.4459 23.4275L20.4966 23.5137L20.4966 23.5137L20.4459 23.4275ZM16.132 23.7136L16.1704 23.6213L16.1703 23.6213L16.132 23.7136ZM15.3067 23.2197L15.364 23.1378L15.3067 23.2197ZM15.1134 23.0859L15.0571 23.1685L15.0572 23.1685L15.1134 23.0859ZM13.4451 23.3347L13.5255 23.3942L13.5255 23.3942L13.4451 23.3347ZM13.6526 25.0094L13.5877 25.0854L13.5877 25.0854L13.6526 25.0094ZM15.3866 26.0458L15.4192 25.9512L15.4191 25.9512L15.3866 26.0458ZM3.1 18.879V17.1217H2.9V18.879H3.1ZM3.14069 19.1947C3.12675 19.0853 3.11283 18.9761 3.09924 18.8667L2.90076 18.8914C2.91441 19.0011 2.92836 19.1106 2.94229 19.22L3.14069 19.1947ZM3.20788 19.7338C3.18641 19.5537 3.16352 19.374 3.14069 19.1947L2.94229 19.22C2.96514 19.3994 2.98792 19.5783 3.00929 19.7574L3.20788 19.7338ZM6.51353 27.4742C4.65065 25.2263 3.54757 22.6403 3.20791 19.734L3.00926 19.7572C3.35339 22.7018 4.47188 25.324 6.35954 27.6018L6.51353 27.4742ZM14.776 32.5392C11.4479 31.7949 8.68877 30.0951 6.51349 27.4741L6.35959 27.6019C8.56288 30.2565 11.3606 31.9804 14.7324 32.7344L14.776 32.5392ZM16.19 32.7604C15.7112 32.7013 15.2381 32.6427 14.7761 32.5392L14.7324 32.7344C15.2055 32.8404 15.6883 32.9 16.1655 32.9589L16.19 32.7604ZM16.8765 32.8504C16.6479 32.817 16.4183 32.7886 16.19 32.7604L16.1655 32.9589C16.3941 32.9872 16.6215 33.0153 16.8476 33.0483L16.8765 32.8504ZM17.0554 32.8849C16.999 32.8726 16.9384 32.8594 16.8764 32.8504L16.8477 33.0483C16.9016 33.0562 16.9554 33.0678 17.013 33.0803L17.0554 32.8849ZM17.1363 32.9019C17.1097 32.8966 17.0831 32.8909 17.0554 32.8849L17.013 33.0803C17.0404 33.0862 17.0686 33.0924 17.097 33.0981L17.1363 32.9019ZM18.8738 32.9H17.1166V33.1H18.8738V32.9ZM19.0736 32.8736C19.0027 32.8827 18.9319 32.8918 18.8612 32.9008L18.8864 33.0992C18.9573 33.0902 19.0282 33.0811 19.099 33.072L19.0736 32.8736ZM19.7279 32.7921C19.5092 32.8176 19.291 32.8457 19.0736 32.8736L19.099 33.072C19.3167 33.044 19.5337 33.0161 19.7511 32.9907L19.7279 32.7921ZM27.4695 29.4818C25.2226 31.3477 22.6355 32.4517 19.7279 32.7921L19.7512 32.9907C22.6969 32.6458 25.3204 31.5265 27.5973 29.6357L27.4695 29.4818ZM32.5393 21.213C31.7855 24.5426 30.0916 27.3042 27.4695 29.4818L27.5973 29.6357C30.2533 27.4299 31.9709 24.6297 32.7344 21.2572L32.5393 21.213ZM32.8199 16.5337C32.9888 18.105 32.8884 19.6693 32.5393 21.213L32.7344 21.2572C33.0881 19.6928 33.1902 18.1064 33.0187 16.5123L32.8199 16.5337ZM28.3323 7.29371C30.9413 9.82998 32.4313 12.9187 32.8199 16.5337L33.0187 16.5123C32.6252 12.8515 31.1145 9.71945 28.4718 7.15031L28.3323 7.29371ZM21.5809 3.54314C24.1658 4.19196 26.423 5.43663 28.3323 7.29369L28.4718 7.15032C26.5367 5.26822 24.248 4.0064 21.6296 3.34916L21.5809 3.54314ZM17.3461 3.11751C18.7768 3.04612 20.1902 3.19397 21.5809 3.54314L21.6296 3.34916C20.2206 2.99539 18.7874 2.84534 17.3362 2.91776L17.3461 3.11751ZM8.94063 6.18819C11.4179 4.28362 14.2287 3.27282 17.3461 3.11751L17.3362 2.91776C14.1792 3.07504 11.329 4.09965 8.81872 6.02964L8.94063 6.18819ZM4.0487 12.7761C5.05979 10.1216 6.68766 7.91945 8.94061 6.18821L8.81874 6.02962C6.5361 7.78368 4.88591 10.0163 3.8618 12.7049L4.0487 12.7761ZM3.21306 16.2087C3.34932 15.0296 3.62618 13.8835 4.04868 12.7762L3.86181 12.7049C3.43325 13.8281 3.15251 14.9904 3.01438 16.1857L3.21306 16.2087ZM3.13216 16.87C3.15971 16.6499 3.18731 16.4294 3.21305 16.2088L3.01439 16.1856C2.98877 16.4053 2.96127 16.625 2.93371 16.8452L3.13216 16.87ZM3.09924 17.134C3.11013 17.046 3.12114 16.9581 3.13216 16.87L2.93371 16.8452C2.92269 16.9332 2.91167 17.0213 2.90076 17.1094L3.09924 17.134ZM16.8305 26.3983C16.6807 26.3512 16.5333 26.3058 16.3879 26.2611L16.3291 26.4522C16.4745 26.497 16.6214 26.5422 16.7705 26.5891L16.8305 26.3983ZM16.9005 26.8994V26.4937H16.7005V26.8994H16.9005ZM16.8988 27.1874C16.8998 27.0919 16.9008 26.9955 16.9005 26.8991L16.7005 26.8997C16.7007 26.9945 16.6998 27.0896 16.6988 27.1854L16.8988 27.1874ZM16.9078 27.8483C16.8942 27.6308 16.8965 27.4113 16.8988 27.1874L16.6988 27.1854C16.6965 27.408 16.6941 27.6347 16.7082 27.8607L16.9078 27.8483ZM17.9924 28.9C17.4214 28.8965 16.945 28.4463 16.9078 27.8483L16.7082 27.8607C16.7517 28.5604 17.3118 29.0958 17.9912 29.1L17.9924 28.9ZM19.0919 27.8628C19.0443 28.4577 18.5632 28.9035 17.9924 28.9L17.9912 29.1C18.6709 29.1041 19.2357 28.5738 19.2913 27.8787L19.0919 27.8628ZM19.1003 27.4473C19.1019 27.5902 19.1034 27.7272 19.092 27.8623L19.2913 27.8791C19.3036 27.7329 19.3019 27.5863 19.3002 27.445L19.1003 27.4473ZM19.0991 27.2985C19.0991 27.3484 19.0997 27.3982 19.1003 27.4473L19.3002 27.445C19.2997 27.3957 19.2991 27.3471 19.2991 27.2985H19.0991ZM19.0991 26.5109V27.2985H19.2991V26.5109H19.0991ZM19.7202 26.2354C19.5405 26.293 19.356 26.3521 19.167 26.4162L19.2313 26.6056C19.4184 26.5421 19.6013 26.4835 19.7812 26.4259L19.7202 26.2354ZM20.8028 25.8558C20.4572 25.9993 20.0996 26.1139 19.7202 26.2354L19.7812 26.4259C20.1591 26.3048 20.5249 26.1877 20.8795 26.0405L20.8028 25.8558ZM23.0594 24.1142C22.4782 24.9138 21.7052 25.482 20.8029 25.8558L20.8794 26.0406C21.8115 25.6545 22.6157 25.0647 23.2212 24.2318L23.0594 24.1142ZM23.6607 20.3463C24.1326 21.7061 23.8933 22.9651 23.0593 24.1142L23.2212 24.2317C24.0902 23.0343 24.3448 21.7076 23.8497 20.2807L23.6607 20.3463ZM22.0618 18.2062C22.7954 18.7678 23.3556 19.4673 23.6607 20.3463L23.8497 20.2807C23.5296 19.3586 22.9425 18.6285 22.1834 18.0474L22.0618 18.2062ZM18.3197 16.882C19.6945 16.97 20.9559 17.3593 22.0618 18.2062L22.1834 18.0474C21.0399 17.1718 19.7384 16.7724 18.3324 16.6825L18.3197 16.882ZM18.2423 16.8771C18.2681 16.8788 18.2939 16.8804 18.3197 16.882L18.3324 16.6825C18.3066 16.6808 18.2808 16.6792 18.255 16.6775L18.2423 16.8771ZM16.7829 16.7106C17.2631 16.8151 17.7599 16.8465 18.2423 16.8771L18.255 16.6775C17.7699 16.6467 17.2883 16.6159 16.8255 16.5152L16.7829 16.7106ZM14.6849 15.4195C15.2092 16.1483 15.9559 16.5299 16.7829 16.7106L16.8256 16.5152C16.0321 16.3418 15.335 15.9807 14.8472 15.3027L14.6849 15.4195ZM14.401 13.7818C14.1768 14.3864 14.3374 14.9369 14.6849 15.4196L14.8472 15.3027C14.5263 14.8571 14.394 14.376 14.5885 13.8513L14.401 13.7818ZM15.1275 12.7629C14.7868 13.032 14.5493 13.3799 14.4009 13.7819L14.5886 13.8512C14.7256 13.48 14.9425 13.1638 15.2514 12.9199L15.1275 12.7629ZM19.0339 11.9087C17.623 11.6384 16.2992 11.838 15.1275 12.7629L15.2514 12.9199C16.3686 12.038 17.6302 11.8434 18.9963 12.1051L19.0339 11.9087ZM20.9525 12.8277C20.3774 12.3776 19.7537 12.0464 19.0339 11.9087L18.9963 12.1051C19.6772 12.2354 20.2722 12.5492 20.8292 12.9852L20.9525 12.8277ZM22.4731 12.6059C22.1073 13.1012 21.4463 13.2148 20.9526 12.8278L20.8292 12.9852C21.417 13.446 22.2055 13.3051 22.634 12.7247L22.4731 12.6059ZM22.2792 11.0666C22.7568 11.4747 22.8306 12.122 22.4731 12.6059L22.6339 12.7248C23.0556 12.154 22.9642 11.3889 22.4091 10.9146L22.2792 11.0666ZM20.5777 10.0498C21.2092 10.2665 21.7664 10.628 22.2792 11.0666L22.4092 10.9146C21.8836 10.4651 21.3048 10.0879 20.6426 9.86059L20.5777 10.0498ZM19.6091 9.73982C19.9404 9.84218 20.2608 9.94118 20.5778 10.0498L20.6426 9.86057C20.3222 9.75082 19.9989 9.65094 19.6681 9.54873L19.6091 9.73982ZM19.1681 9.60268C19.3174 9.64968 19.4642 9.69507 19.6091 9.73982L19.6681 9.54873C19.5232 9.50396 19.3768 9.45873 19.2282 9.41192L19.1681 9.60268ZM19.0982 9.10059V9.5073H19.2982V9.10059H19.0982ZM19.0999 8.81255C19.0989 8.90813 19.0979 9.00449 19.0982 9.10088L19.2982 9.10029C19.2979 9.00545 19.2989 8.91041 19.2999 8.81461L19.0999 8.81255ZM19.0909 8.15174C19.1044 8.36923 19.1022 8.58872 19.0999 8.81255L19.2999 8.81461C19.3022 8.59201 19.3046 8.36525 19.2905 8.13931L19.0909 8.15174ZM18.0062 7.10002C18.5773 7.10352 19.0537 7.55375 19.0909 8.15173L19.2905 8.13931C19.247 7.43964 18.6869 6.90418 18.0075 6.90002L18.0062 7.10002ZM16.9067 8.13724C16.9543 7.54235 17.4354 7.09653 18.0062 7.10002L18.0075 6.90002C17.3278 6.89586 16.763 7.42616 16.7074 8.12128L16.9067 8.13724ZM16.8984 8.55268C16.8968 8.40981 16.8953 8.27282 16.9067 8.13765L16.7074 8.12086C16.6951 8.26714 16.6968 8.41371 16.6984 8.55495L16.8984 8.55268ZM16.8995 8.70153C16.8995 8.65162 16.899 8.6018 16.8984 8.55268L16.6984 8.55495C16.699 8.60426 16.6995 8.65294 16.6995 8.70153H16.8995ZM16.8995 9.52931V8.70153H16.6995V9.52931H16.8995ZM16.6659 9.67102C16.7159 9.65663 16.7685 9.6415 16.826 9.62576L16.7731 9.43287C16.7143 9.44899 16.6605 9.46446 16.6106 9.47882L16.6659 9.67102ZM16.3831 9.74574C16.4759 9.72574 16.5665 9.69963 16.6659 9.67102L16.6106 9.47882C16.5099 9.50781 16.426 9.53192 16.341 9.55022L16.3831 9.74574ZM13.5562 11.1999C14.3735 10.4638 15.3144 9.97452 16.383 9.74576L16.3411 9.5502C15.2372 9.78653 14.2648 10.2925 13.4223 11.0512L13.5562 11.1999ZM12.3486 15.6874C11.6992 13.9244 12.4002 12.2412 13.5562 11.1999L13.4223 11.0513C12.22 12.1344 11.4771 13.9001 12.1609 15.7565L12.3486 15.6874ZM14.8081 18.3532C13.6781 17.7561 12.8 16.9116 12.3486 15.6873L12.1609 15.7565C12.6333 17.0376 13.552 17.9157 14.7146 18.5301L14.8081 18.3532ZM17.8242 19.1168C16.7624 19.0923 15.7508 18.8516 14.8081 18.3532L14.7146 18.5301C15.6872 19.0442 16.7296 19.2916 17.8196 19.3168L17.8242 19.1168ZM19.9102 19.5107C19.2389 19.2192 18.5352 19.1332 17.8242 19.1168L17.8196 19.3168C18.5187 19.3329 19.1931 19.4173 19.8305 19.6942L19.9102 19.5107ZM21.3148 20.5809C20.9574 20.0659 20.4543 19.7481 19.9104 19.5108L19.8304 19.6941C20.3568 19.9238 20.8225 20.2223 21.1504 20.6949L21.3148 20.5809ZM21.5023 22.4376C21.6677 22.1061 21.7218 21.7846 21.6821 21.472C21.6426 21.1606 21.5109 20.8645 21.3148 20.581L21.1504 20.6948C21.3336 20.9597 21.4493 21.2258 21.4837 21.4972C21.518 21.7674 21.4725 22.0493 21.3234 22.3484L21.5023 22.4376ZM20.4966 23.5137C20.9286 23.2592 21.271 22.9034 21.5024 22.4375L21.3233 22.3485C21.1098 22.7783 20.795 23.1058 20.3951 23.3413L20.4966 23.5137ZM16.0936 23.806C17.5978 24.4312 19.0804 24.3473 20.4966 23.5137L20.3952 23.3413C19.0344 24.1422 17.6179 24.223 16.1704 23.6213L16.0936 23.806ZM15.2494 23.3017C15.5134 23.4862 15.7903 23.6802 16.0937 23.806L16.1703 23.6213C15.8905 23.5052 15.6315 23.3247 15.364 23.1378L15.2494 23.3017ZM15.0572 23.1685C15.1211 23.212 15.1849 23.2566 15.2494 23.3017L15.364 23.1378C15.2996 23.0928 15.2348 23.0475 15.1697 23.0032L15.0572 23.1685ZM13.5255 23.3942C13.8892 22.9028 14.5301 22.8089 15.0571 23.1685L15.1698 23.0033C14.5608 22.5877 13.7972 22.6909 13.3648 23.2752L13.5255 23.3942ZM13.7176 24.9334C13.2401 24.5254 13.1671 23.8781 13.5255 23.3942L13.3648 23.2752C12.9421 23.8458 13.0325 24.611 13.5877 25.0854L13.7176 24.9334ZM15.4191 25.9512C14.7877 25.7345 14.2314 25.3721 13.7176 24.9333L13.5877 25.0854C14.114 25.5348 14.6919 25.913 15.3541 26.1404L15.4191 25.9512ZM16.3879 26.2611C16.0563 26.159 15.7358 26.0604 15.4192 25.9512L15.354 26.1403C15.6743 26.2507 15.998 26.3503 16.3291 26.4522L16.3879 26.2611Z" fill="white" mask="url(#path-1-outside-1_55_3904)"/>
</svg>
