<svg viewBox="0 0 36 36" fill="none" xmlns="http://www.w3.org/2000/svg">
<path fill-rule="evenodd" clip-rule="evenodd" d="M23.7747 3.75097C24.7212 3.75097 25.6662 3.88447 26.5647 4.18597C32.1012 5.98597 34.0962 12.061 32.4297 17.371C31.4847 20.0845 29.9397 22.561 27.9162 24.5845C25.0197 27.3895 21.8412 29.8795 18.4197 32.0245L18.0447 32.251L17.6547 32.0095C14.2212 29.8795 11.0247 27.3895 8.10119 24.5695C6.09119 22.546 4.54469 20.0845 3.58469 17.371C1.88969 12.061 3.88469 5.98597 9.48119 4.15447C9.91619 4.00447 10.3647 3.89947 10.8147 3.84097H10.9947C11.4162 3.77947 11.8347 3.75097 12.2547 3.75097H12.4197C13.3647 3.77947 14.2797 3.94447 15.1662 4.24597H15.2547C15.3147 4.27447 15.3597 4.30597 15.3897 4.33447C15.7212 4.44097 16.0347 4.56097 16.3347 4.72597L16.9047 4.98097C17.0424 5.05443 17.197 5.16667 17.3306 5.26368C17.4153 5.32514 17.4915 5.38048 17.5497 5.41597C17.5742 5.43041 17.599 5.44494 17.6241 5.45958C17.7527 5.53465 17.8867 5.61286 17.9997 5.69947C19.6662 4.42597 21.6897 3.73597 23.7747 3.75097ZM27.7647 14.551C28.3797 14.5345 28.9047 14.041 28.9497 13.4095V13.231C28.9947 11.1295 27.7212 9.22597 25.7847 8.49097C25.1697 8.27947 24.4947 8.61097 24.2697 9.24097C24.0597 9.87097 24.3897 10.561 25.0197 10.7845C25.9812 11.1445 26.6247 12.091 26.6247 13.1395V13.186C26.5962 13.5295 26.6997 13.861 26.9097 14.116C27.1197 14.371 27.4347 14.5195 27.7647 14.551Z" fill="white"/>
</svg>
