<svg viewBox="0 0 24 24" fill="none" xmlns="http://www.w3.org/2000/svg">
<path d="M21.2675 10.0183C21.2169 10.3063 21.1818 10.5944 21.1196 10.8786C20.8783 11.97 20.3296 12.8947 19.5201 13.683C18.3682 14.8047 17.2163 15.9265 16.0605 17.0445C15.7219 17.3742 15.3055 17.4121 14.9825 17.1468C14.6673 16.8891 14.6206 16.4419 14.8774 16.1311C14.928 16.0705 14.9864 16.0137 15.0447 15.9568C16.1577 14.8729 17.2669 13.7891 18.3838 12.7128C19.0181 12.1027 19.4734 11.394 19.6524 10.5375C19.9638 9.01404 19.5512 7.699 18.4032 6.62272C17.4926 5.76624 16.3757 5.40622 15.1187 5.49338C14.0602 5.56918 13.1534 5.99363 12.4023 6.72504C9.74045 9.30964 7.07468 11.8904 4.42059 14.4864C2.78611 16.0857 3.42434 18.7044 5.62311 19.3865C6.7867 19.7503 7.83744 19.4813 8.70139 18.6475C11.3633 16.0781 14.0096 13.4973 16.6598 10.9165C17.2902 10.3025 17.3992 9.51807 16.9789 8.77528C16.4924 7.91502 15.2043 7.66111 14.4143 8.27504C14.2975 8.36599 14.1847 8.46453 14.0796 8.56685C11.8692 10.7118 9.66262 12.8568 7.45606 15.0056C7.26148 15.1951 7.04744 15.3277 6.75946 15.2974C6.4637 15.2671 6.25355 15.1193 6.14069 14.8578C6.02784 14.6039 6.06286 14.3575 6.23409 14.134C6.2769 14.0771 6.33138 14.0241 6.38587 13.971C8.61577 11.8033 10.8496 9.63555 13.0756 7.46783C13.7877 6.77431 14.64 6.44082 15.6479 6.47492C17.1423 6.52419 18.5161 7.7369 18.7029 9.18079C18.843 10.2646 18.52 11.1893 17.7261 11.9587C15.0875 14.5243 12.449 17.0899 9.8105 19.6518C8.79089 20.6409 7.56114 21.0995 6.12902 20.982C4.15207 20.819 2.56429 19.4471 2.10897 17.5637C2.07005 17.3628 2.03892 17.1657 2 16.9687C2 16.711 2 16.4571 2 16.1994C2.07005 15.8924 2.12064 15.5778 2.21015 15.2747C2.43586 14.5357 2.86783 13.9141 3.42434 13.3722C6.03562 10.8369 8.6469 8.29399 11.2621 5.76245C11.5228 5.50854 11.803 5.266 12.1066 5.06515C13.85 3.90549 15.7297 3.67811 17.6794 4.455C19.5084 5.18263 20.6487 6.53556 21.1157 8.41147C21.1857 8.69949 21.2169 8.99888 21.2675 9.29069V10.0221V10.0183Z" fill="white"/>
</svg>
