<svg viewBox="0 0 16 16" fill="none" xmlns="http://www.w3.org/2000/svg">
<path fill-rule="evenodd" clip-rule="evenodd" d="M2.54922 8.08199C3.48389 10.99 7.17656 13.3413 8.15789 13.9233C9.14256 13.3353 12.8619 10.958 13.7666 8.08466C14.3606 6.22733 13.8092 3.87466 11.6186 3.16866C10.5572 2.82799 9.31922 3.03533 8.46456 3.69666C8.28589 3.83399 8.03789 3.83666 7.85789 3.70066C6.95256 3.01999 5.76989 2.82066 4.69189 3.16866C2.50456 3.87399 1.95522 6.22666 2.54922 8.08199ZM8.15856 15.0007C8.07589 15.0007 7.99389 14.9807 7.91922 14.94C7.71056 14.826 2.79522 12.1167 1.59722 8.38733C1.59656 8.38733 1.59656 8.38666 1.59656 8.38666C0.844556 6.03866 1.68189 3.08799 4.38522 2.21666C5.65456 1.80599 7.03789 1.98666 8.15656 2.69266C9.24056 2.00733 10.6806 1.81799 11.9246 2.21666C14.6306 3.08933 15.4706 6.03933 14.7192 8.38666C13.5599 12.0733 8.60856 14.8233 8.39856 14.9387C8.32389 14.98 8.24122 15.0007 8.15856 15.0007Z" fill="white"/>
<path fill-rule="evenodd" clip-rule="evenodd" d="M12.1025 7.08326C11.8445 7.08326 11.6259 6.88526 11.6045 6.62393C11.5605 6.07593 11.1939 5.61326 10.6719 5.4446C10.4085 5.35926 10.2645 5.07726 10.3492 4.81526C10.4352 4.5526 10.7145 4.40993 10.9785 4.4926C11.8872 4.7866 12.5239 5.59126 12.6019 6.5426C12.6239 6.81793 12.4192 7.05926 12.1439 7.08126C12.1299 7.0826 12.1165 7.08326 12.1025 7.08326Z" fill="white"/>
</svg>
