<svg viewBox="0 0 28 28" fill="none" xmlns="http://www.w3.org/2000/svg">
<mask id="path-1-outside-1_194_11517" maskUnits="userSpaceOnUse" x="1.75012" y="1.75" width="24" height="24" fill="black">
<rect fill="white" x="1.75012" y="1.75" width="24" height="24"/>
<path fill-rule="evenodd" clip-rule="evenodd" d="M2.75012 13.3413V14.6593C2.76034 14.7414 2.77079 14.8235 2.78124 14.9055C2.79837 15.0401 2.8155 15.1745 2.83157 15.3092C3.088 17.5033 3.92116 19.4563 5.32772 21.1535C6.9698 23.1319 9.05378 24.4157 11.5664 24.9776C11.9171 25.0562 12.2757 25.1005 12.6341 25.1448C12.8055 25.1659 12.9769 25.1871 13.1474 25.212C13.1909 25.2183 13.2338 25.2277 13.2766 25.2369C13.2972 25.2414 13.3178 25.2459 13.3384 25.25H14.6564C14.7095 25.2432 14.7626 25.2364 14.8157 25.2296C14.9789 25.2086 15.1421 25.1877 15.3057 25.1686C17.5008 24.9116 19.455 24.0778 21.1515 22.669C23.1309 21.0253 24.4104 18.9396 24.9794 16.4263C25.243 15.2608 25.3189 14.0793 25.1912 12.8922C24.8979 10.1638 23.7726 7.83104 21.8031 5.91651C20.3613 4.51432 18.6565 3.57439 16.7051 3.08461C15.6551 2.82101 14.5876 2.7093 13.5068 2.76323C11.1537 2.88045 9.03067 3.64373 7.16021 5.08169C5.45924 6.38867 4.22987 8.05171 3.46661 10.0554C3.14744 10.8919 2.93832 11.7575 2.83542 12.6479C2.81616 12.813 2.79549 12.9781 2.77483 13.1432C2.76656 13.2092 2.7583 13.2753 2.75012 13.3413ZM4.15613 13.9868C4.16714 8.5646 8.58273 4.15606 14.0004 4.15827C19.4274 4.16047 23.8513 8.59101 23.8397 14.0138C23.8287 19.436 19.4131 23.8445 13.9955 23.8423C8.56842 23.8401 4.14458 19.4096 4.15613 13.9868ZM12.8663 18.9485C12.9667 18.975 13.0684 19.0018 13.1716 19.0296L13.1723 19.0291V19.2693C13.1725 19.3259 13.1718 19.3826 13.1711 19.4392C13.1695 19.5714 13.1679 19.7035 13.1775 19.8348C13.2054 20.219 13.5634 20.5108 13.9953 20.5131C14.4273 20.5153 14.7885 20.2263 14.8242 19.8444C14.8324 19.7611 14.8313 19.6772 14.8301 19.5931C14.8298 19.5639 14.8294 19.5347 14.8294 19.5056V19.0392C14.9593 19.0015 15.0862 18.9666 15.2104 18.9325C15.472 18.8607 15.7219 18.7921 15.9637 18.7061C16.5974 18.4811 17.1422 18.1383 17.5521 17.655C18.1403 16.9603 18.3109 16.1948 17.9769 15.3697C17.7609 14.8365 17.3646 14.4133 16.849 14.075C16.072 13.565 15.1867 13.3316 14.2262 13.2789C14.2084 13.2779 14.1906 13.2769 14.1727 13.276C13.8386 13.2578 13.5006 13.2394 13.1749 13.1786C12.6152 13.0738 12.1164 12.8539 11.7668 12.4374C11.5359 12.1626 11.4348 11.8572 11.5794 11.5229C11.678 11.294 11.8349 11.0973 12.0593 10.9455C12.8499 10.4106 13.743 10.2939 14.7023 10.4514C15.1861 10.5307 15.607 10.7217 15.9981 10.984C16.3717 11.235 16.8724 11.1597 17.1467 10.8412C17.4159 10.529 17.3588 10.1108 17.0021 9.84962C16.6434 9.5867 16.251 9.36799 15.8042 9.23653C15.584 9.17189 15.3617 9.11301 15.133 9.05245C15.0329 9.02594 14.9316 8.99911 14.8287 8.97134V8.73053C14.8285 8.67391 14.8292 8.61724 14.8299 8.56059C14.8315 8.42842 14.8331 8.29631 14.8235 8.16503C14.7956 7.78085 14.4376 7.48904 14.0057 7.48677C13.5737 7.4845 13.2125 7.77348 13.1768 8.15539C13.1686 8.23872 13.1697 8.32267 13.1709 8.40677C13.1712 8.43592 13.1716 8.46508 13.1716 8.49424V8.98438C13.1315 8.99381 13.0947 9.00287 13.0602 9.01138C12.9911 9.02843 12.9308 9.0433 12.8694 9.05464C12.119 9.19233 11.4581 9.48698 10.8848 9.92952C10.0702 10.5585 9.57141 11.5795 10.0319 12.651C10.351 13.3928 10.9717 13.9027 11.7636 14.2614C12.4251 14.5612 13.1347 14.7057 13.8779 14.7204C14.365 14.73 14.841 14.7804 15.2931 14.9487C15.6628 15.087 15.9974 15.2695 16.2342 15.5618C16.4962 15.8865 16.576 16.2276 16.3587 16.601C16.205 16.8662 15.978 17.0685 15.6907 17.2136C14.7314 17.6975 13.73 17.7462 12.7105 17.383C12.509 17.3114 12.3239 17.2005 12.1403 17.0905C12.0958 17.0639 12.0514 17.0373 12.0068 17.0113C11.6144 16.7818 11.1293 16.8402 10.8543 17.1586C10.5845 17.4708 10.6409 17.889 10.9976 18.1502C11.3569 18.4131 11.748 18.633 12.1949 18.7644C12.4149 18.8294 12.6374 18.8881 12.8663 18.9485Z"/>
</mask>
<path fill-rule="evenodd" clip-rule="evenodd" d="M2.75012 13.3413V14.6593C2.76034 14.7414 2.77079 14.8235 2.78124 14.9055C2.79837 15.0401 2.8155 15.1745 2.83157 15.3092C3.088 17.5033 3.92116 19.4563 5.32772 21.1535C6.9698 23.1319 9.05378 24.4157 11.5664 24.9776C11.9171 25.0562 12.2757 25.1005 12.6341 25.1448C12.8055 25.1659 12.9769 25.1871 13.1474 25.212C13.1909 25.2183 13.2338 25.2277 13.2766 25.2369C13.2972 25.2414 13.3178 25.2459 13.3384 25.25H14.6564C14.7095 25.2432 14.7626 25.2364 14.8157 25.2296C14.9789 25.2086 15.1421 25.1877 15.3057 25.1686C17.5008 24.9116 19.455 24.0778 21.1515 22.669C23.1309 21.0253 24.4104 18.9396 24.9794 16.4263C25.243 15.2608 25.3189 14.0793 25.1912 12.8922C24.8979 10.1638 23.7726 7.83104 21.8031 5.91651C20.3613 4.51432 18.6565 3.57439 16.7051 3.08461C15.6551 2.82101 14.5876 2.7093 13.5068 2.76323C11.1537 2.88045 9.03067 3.64373 7.16021 5.08169C5.45924 6.38867 4.22987 8.05171 3.46661 10.0554C3.14744 10.8919 2.93832 11.7575 2.83542 12.6479C2.81616 12.813 2.79549 12.9781 2.77483 13.1432C2.76656 13.2092 2.7583 13.2753 2.75012 13.3413ZM4.15613 13.9868C4.16714 8.5646 8.58273 4.15606 14.0004 4.15827C19.4274 4.16047 23.8513 8.59101 23.8397 14.0138C23.8287 19.436 19.4131 23.8445 13.9955 23.8423C8.56842 23.8401 4.14458 19.4096 4.15613 13.9868ZM12.8663 18.9485C12.9667 18.975 13.0684 19.0018 13.1716 19.0296L13.1723 19.0291V19.2693C13.1725 19.3259 13.1718 19.3826 13.1711 19.4392C13.1695 19.5714 13.1679 19.7035 13.1775 19.8348C13.2054 20.219 13.5634 20.5108 13.9953 20.5131C14.4273 20.5153 14.7885 20.2263 14.8242 19.8444C14.8324 19.7611 14.8313 19.6772 14.8301 19.5931C14.8298 19.5639 14.8294 19.5347 14.8294 19.5056V19.0392C14.9593 19.0015 15.0862 18.9666 15.2104 18.9325C15.472 18.8607 15.7219 18.7921 15.9637 18.7061C16.5974 18.4811 17.1422 18.1383 17.5521 17.655C18.1403 16.9603 18.3109 16.1948 17.9769 15.3697C17.7609 14.8365 17.3646 14.4133 16.849 14.075C16.072 13.565 15.1867 13.3316 14.2262 13.2789C14.2084 13.2779 14.1906 13.2769 14.1727 13.276C13.8386 13.2578 13.5006 13.2394 13.1749 13.1786C12.6152 13.0738 12.1164 12.8539 11.7668 12.4374C11.5359 12.1626 11.4348 11.8572 11.5794 11.5229C11.678 11.294 11.8349 11.0973 12.0593 10.9455C12.8499 10.4106 13.743 10.2939 14.7023 10.4514C15.1861 10.5307 15.607 10.7217 15.9981 10.984C16.3717 11.235 16.8724 11.1597 17.1467 10.8412C17.4159 10.529 17.3588 10.1108 17.0021 9.84962C16.6434 9.5867 16.251 9.36799 15.8042 9.23653C15.584 9.17189 15.3617 9.11301 15.133 9.05245C15.0329 9.02594 14.9316 8.99911 14.8287 8.97134V8.73053C14.8285 8.67391 14.8292 8.61724 14.8299 8.56059C14.8315 8.42842 14.8331 8.29631 14.8235 8.16503C14.7956 7.78085 14.4376 7.48904 14.0057 7.48677C13.5737 7.4845 13.2125 7.77348 13.1768 8.15539C13.1686 8.23872 13.1697 8.32267 13.1709 8.40677C13.1712 8.43592 13.1716 8.46508 13.1716 8.49424V8.98438C13.1315 8.99381 13.0947 9.00287 13.0602 9.01138C12.9911 9.02843 12.9308 9.0433 12.8694 9.05464C12.119 9.19233 11.4581 9.48698 10.8848 9.92952C10.0702 10.5585 9.57141 11.5795 10.0319 12.651C10.351 13.3928 10.9717 13.9027 11.7636 14.2614C12.4251 14.5612 13.1347 14.7057 13.8779 14.7204C14.365 14.73 14.841 14.7804 15.2931 14.9487C15.6628 15.087 15.9974 15.2695 16.2342 15.5618C16.4962 15.8865 16.576 16.2276 16.3587 16.601C16.205 16.8662 15.978 17.0685 15.6907 17.2136C14.7314 17.6975 13.73 17.7462 12.7105 17.383C12.509 17.3114 12.3239 17.2005 12.1403 17.0905C12.0958 17.0639 12.0514 17.0373 12.0068 17.0113C11.6144 16.7818 11.1293 16.8402 10.8543 17.1586C10.5845 17.4708 10.6409 17.889 10.9976 18.1502C11.3569 18.4131 11.748 18.633 12.1949 18.7644C12.4149 18.8294 12.6374 18.8881 12.8663 18.9485Z" fill="white"/>
<path d="M2.75012 14.6593H2.64935L2.65089 14.6716L2.75012 14.6593ZM2.75012 13.3413L2.65012 13.3289V13.3413H2.75012ZM2.78124 14.9055L2.68204 14.9182H2.68204L2.78124 14.9055ZM2.83157 15.3092L2.93089 15.2976L2.93086 15.2974L2.83157 15.3092ZM5.32772 21.1535L5.25072 21.2173L5.25077 21.2174L5.32772 21.1535ZM11.5664 24.9776L11.5883 24.88L11.5883 24.88L11.5664 24.9776ZM12.6341 25.1448L12.6464 25.0455H12.6464L12.6341 25.1448ZM13.1474 25.212L13.133 25.311L13.1331 25.311L13.1474 25.212ZM13.2766 25.2369L13.2978 25.1392H13.2978L13.2766 25.2369ZM13.3384 25.25L13.3188 25.3481L13.3285 25.35H13.3384V25.25ZM14.6564 25.25V25.3508L14.669 25.3492L14.6564 25.25ZM14.8157 25.2296L14.8285 25.3288H14.8285L14.8157 25.2296ZM15.3057 25.1686L15.3173 25.2679L15.3173 25.2679L15.3057 25.1686ZM21.1515 22.669L21.2154 22.746L21.2154 22.746L21.1515 22.669ZM24.9794 16.4263L25.0769 16.4484L25.0769 16.4484L24.9794 16.4263ZM25.1912 12.8922L25.0918 12.9029V12.9029L25.1912 12.8922ZM21.8031 5.91651L21.7333 5.98819L21.7334 5.98821L21.8031 5.91651ZM16.7051 3.08461L16.6808 3.1816L16.6808 3.1816L16.7051 3.08461ZM13.5068 2.76323L13.5118 2.86311L13.5118 2.8631L13.5068 2.76323ZM7.16021 5.08169L7.22113 5.16098L7.22115 5.16097L7.16021 5.08169ZM3.46661 10.0554L3.56004 10.091L3.56006 10.091L3.46661 10.0554ZM2.83542 12.6479L2.93474 12.6595L2.93476 12.6594L2.83542 12.6479ZM2.77483 13.1432L2.6756 13.1308H2.6756L2.77483 13.1432ZM14.0004 4.15827L14.0004 4.25827L14.0004 4.15827ZM4.15613 13.9868L4.25613 13.987V13.987L4.15613 13.9868ZM23.8397 14.0138L23.7397 14.0136V14.0136L23.8397 14.0138ZM13.9955 23.8423L13.9955 23.7423L13.9955 23.8423ZM13.1716 19.0296L13.1456 19.1262L13.1972 19.1401L13.2375 19.1049L13.1716 19.0296ZM12.8663 18.9485L12.8408 19.0452L12.8663 18.9485ZM13.1723 19.0291H13.2723V18.8087L13.1064 18.9538L13.1723 19.0291ZM13.1723 19.2693H13.0723L13.0723 19.2696L13.1723 19.2693ZM13.1711 19.4392L13.2711 19.4405L13.1711 19.4392ZM13.1775 19.8348L13.2772 19.8276L13.2772 19.8276L13.1775 19.8348ZM13.9953 20.5131L13.9948 20.6131L13.9953 20.5131ZM14.8242 19.8444L14.7247 19.8347L14.7246 19.8351L14.8242 19.8444ZM14.8301 19.5931L14.7302 19.5944L14.8301 19.5931ZM14.8294 19.0392L14.8015 18.9432L14.7294 18.9642V19.0392H14.8294ZM15.2104 18.9325L15.184 18.8361H15.184L15.2104 18.9325ZM15.9637 18.7061L15.9303 18.6118L15.9302 18.6119L15.9637 18.7061ZM17.5521 17.655L17.6283 17.7196L17.6284 17.7196L17.5521 17.655ZM17.9769 15.3697L18.0696 15.3322L18.0696 15.3322L17.9769 15.3697ZM16.849 14.075L16.7942 14.1586L16.7942 14.1586L16.849 14.075ZM14.2262 13.2789L14.2317 13.179H14.2317L14.2262 13.2789ZM14.1727 13.276L14.1673 13.3758H14.1673L14.1727 13.276ZM13.1749 13.1786L13.1565 13.2769L13.1565 13.2769L13.1749 13.1786ZM11.7668 12.4374L11.8434 12.3731L11.8434 12.3731L11.7668 12.4374ZM11.5794 11.5229L11.6712 11.5626L11.6712 11.5624L11.5794 11.5229ZM12.0593 10.9455L12.0033 10.8627L12.0033 10.8627L12.0593 10.9455ZM14.7023 10.4514L14.686 10.5501L14.6861 10.5501L14.7023 10.4514ZM15.9981 10.984L16.0539 10.901L16.0538 10.901L15.9981 10.984ZM17.1467 10.8412L17.071 10.7759L17.071 10.776L17.1467 10.8412ZM17.0021 9.84962L16.943 9.93027L16.943 9.9303L17.0021 9.84962ZM15.8042 9.23653L15.8324 9.14059L15.8323 9.14058L15.8042 9.23653ZM15.133 9.05245L15.1074 9.14911L15.133 9.05245ZM14.8287 8.97134H14.7287V9.04793L14.8027 9.06789L14.8287 8.97134ZM14.8287 8.73053H14.9287L14.9287 8.73018L14.8287 8.73053ZM14.8299 8.56059L14.7299 8.55938V8.55938L14.8299 8.56059ZM14.8235 8.16503L14.7238 8.17227V8.17227L14.8235 8.16503ZM13.1768 8.15539L13.2763 8.16517L13.2764 8.16469L13.1768 8.15539ZM13.1709 8.40677L13.2708 8.40545L13.1709 8.40677ZM13.1716 8.98438L13.1945 9.08173L13.2716 9.06361V8.98438H13.1716ZM13.0602 9.01138L13.0842 9.10847L13.0602 9.01138ZM12.8694 9.05464L12.8874 9.153L12.8875 9.15298L12.8694 9.05464ZM10.8848 9.92952L10.8237 9.85036L10.8237 9.85036L10.8848 9.92952ZM10.0319 12.651L9.94002 12.6905L9.94004 12.6906L10.0319 12.651ZM11.7636 14.2614L11.8049 14.1703L11.8048 14.1703L11.7636 14.2614ZM13.8779 14.7204L13.8759 14.8204H13.8759L13.8779 14.7204ZM15.2931 14.9487L15.3281 14.8551L15.328 14.855L15.2931 14.9487ZM16.2342 15.5618L16.312 15.499L16.3119 15.4989L16.2342 15.5618ZM16.3587 16.601L16.2723 16.5507L16.2722 16.5509L16.3587 16.601ZM15.6907 17.2136L15.7357 17.3028L15.7357 17.3028L15.6907 17.2136ZM12.7105 17.383L12.7441 17.2888L12.744 17.2888L12.7105 17.383ZM12.1403 17.0905L12.1917 17.0048L12.1403 17.0905ZM12.0068 17.0113L11.9563 17.0976L11.9564 17.0977L12.0068 17.0113ZM10.8543 17.1586L10.9299 17.224L10.93 17.224L10.8543 17.1586ZM10.9976 18.1502L10.9385 18.2309L10.9386 18.2309L10.9976 18.1502ZM12.1949 18.7644L12.2232 18.6685L12.2231 18.6685L12.1949 18.7644ZM2.85012 14.6593V13.3413H2.65012V14.6593H2.85012ZM2.88044 14.8929C2.86999 14.8108 2.85955 14.7289 2.84936 14.6469L2.65089 14.6716C2.66112 14.7539 2.6716 14.8362 2.68204 14.9182L2.88044 14.8929ZM2.93086 15.2974C2.91474 15.1622 2.89756 15.0274 2.88044 14.8929L2.68204 14.9182C2.69918 15.0528 2.71626 15.1868 2.73227 15.321L2.93086 15.2974ZM5.40471 21.0897C4.01054 19.4075 3.1851 17.4726 2.93089 15.2976L2.73224 15.3208C2.99091 17.534 3.83177 19.5052 5.25072 21.2173L5.40471 21.0897ZM11.5883 24.88C9.0974 24.323 7.03274 23.0511 5.40466 21.0896L5.25077 21.2174C6.90686 23.2126 9.01016 24.5084 11.5446 25.0752L11.5883 24.88ZM12.6464 25.0455C12.2871 25.0011 11.9334 24.9573 11.5883 24.88L11.5446 25.0752C11.9008 25.155 12.2642 25.1998 12.6219 25.244L12.6464 25.0455ZM13.1619 25.1131C12.9901 25.088 12.8176 25.0667 12.6464 25.0455L12.6219 25.244C12.7935 25.2652 12.9637 25.2862 13.133 25.311L13.1619 25.1131ZM13.2978 25.1392C13.2556 25.1301 13.2093 25.12 13.1618 25.1131L13.1331 25.311C13.1725 25.3167 13.212 25.3253 13.2554 25.3347L13.2978 25.1392ZM13.358 25.1519C13.3383 25.148 13.3185 25.1437 13.2978 25.1392L13.2554 25.3347C13.2759 25.3391 13.2973 25.3438 13.3188 25.3481L13.358 25.1519ZM14.6564 25.15H13.3384V25.35H14.6564V25.15ZM14.803 25.1304C14.7498 25.1372 14.6968 25.1441 14.6437 25.1508L14.669 25.3492C14.7222 25.3424 14.7753 25.3356 14.8285 25.3288L14.803 25.1304ZM15.2941 25.0692C15.1299 25.0884 14.966 25.1095 14.803 25.1304L14.8285 25.3288C14.9917 25.3078 15.1544 25.2869 15.3173 25.2679L15.2941 25.0692ZM21.0876 22.5921C19.4061 23.9885 17.4701 24.8145 15.2941 25.0692L15.3173 25.2679C17.5316 25.0086 19.5039 24.1672 21.2154 22.746L21.0876 22.5921ZM24.8819 16.4042C24.3177 18.896 23.0501 20.9624 21.0876 22.5921L21.2154 22.746C23.2118 21.0881 24.503 18.9832 25.0769 16.4484L24.8819 16.4042ZM25.0918 12.9029C25.2183 14.0786 25.1431 15.249 24.8818 16.4043L25.0769 16.4484C25.3428 15.2725 25.4196 14.08 25.2907 12.8815L25.0918 12.9029ZM21.7334 5.98821C23.686 7.88631 24.801 10.1974 25.0918 12.9029L25.2907 12.8815C24.9949 10.1302 23.8592 7.77576 21.8728 5.8448L21.7334 5.98821ZM16.6808 3.1816C18.6154 3.66717 20.3044 4.59852 21.7333 5.98819L21.8728 5.84482C20.4181 4.43011 18.6976 3.4816 16.7295 2.98762L16.6808 3.1816ZM13.5118 2.8631C14.5823 2.80969 15.64 2.9203 16.6808 3.1816L16.7295 2.98762C15.6703 2.72172 14.5929 2.60891 13.5018 2.66335L13.5118 2.8631ZM7.22115 5.16097C9.07509 3.73571 11.1785 2.97933 13.5118 2.86311L13.5018 2.66335C11.1289 2.78156 8.98625 3.55174 7.09926 5.00241L7.22115 5.16097ZM3.56006 10.091C4.31681 8.1044 5.53501 6.45656 7.22113 5.16098L7.09928 5.00239C5.38346 6.32079 4.14293 7.99902 3.37316 10.0198L3.56006 10.091ZM2.93476 12.6594C3.03673 11.7771 3.2439 10.9196 3.56004 10.091L3.37318 10.0197C3.05097 10.8642 2.83992 11.7379 2.73608 12.6364L2.93476 12.6594ZM2.87406 13.1556C2.89471 12.9906 2.91543 12.8251 2.93474 12.6595L2.73609 12.6363C2.71689 12.8009 2.69628 12.9656 2.6756 13.1308L2.87406 13.1556ZM2.84936 13.3536C2.85753 13.2876 2.86579 13.2216 2.87406 13.1556L2.6756 13.1308C2.66734 13.1968 2.65907 13.2629 2.65088 13.329L2.84936 13.3536ZM14.0004 4.05827C8.52752 4.05604 4.06725 8.50931 4.05613 13.9866L4.25613 13.987C4.26703 8.61989 8.63793 4.25609 14.0004 4.25827L14.0004 4.05827ZM23.9397 14.014C23.9514 8.53584 19.4827 4.06049 14.0004 4.05827L14.0004 4.25827C19.3722 4.26044 23.7512 8.64618 23.7397 14.0136L23.9397 14.014ZM13.9954 23.9423C19.4683 23.9445 23.9286 19.4913 23.9397 14.014L23.7397 14.0136C23.7288 19.3807 19.3579 23.7445 13.9955 23.7423L13.9954 23.9423ZM4.05613 13.9866C4.04446 19.4647 8.51317 23.9401 13.9954 23.9423L13.9955 23.7423C8.62367 23.7401 4.24469 19.3544 4.25613 13.987L4.05613 13.9866ZM13.1976 18.9331C13.0941 18.9052 12.9922 18.8783 12.8918 18.8518L12.8408 19.0452C12.9412 19.0717 13.0427 19.0984 13.1456 19.1262L13.1976 18.9331ZM13.1064 18.9538L13.1058 18.9544L13.2375 19.1049L13.2381 19.1043L13.1064 18.9538ZM13.2723 19.2693V19.0291H13.0723V19.2693H13.2723ZM13.2711 19.4405C13.2718 19.3839 13.2725 19.3265 13.2723 19.269L13.0723 19.2696C13.0725 19.3254 13.0718 19.3813 13.0711 19.438L13.2711 19.4405ZM13.2772 19.8276C13.268 19.7012 13.2695 19.5733 13.2711 19.4405L13.0711 19.438C13.0695 19.5695 13.0678 19.7058 13.0777 19.842L13.2772 19.8276ZM13.9958 20.4131C13.6045 20.411 13.3005 20.1488 13.2772 19.8276L13.0777 19.842C13.1102 20.2891 13.5223 20.6106 13.9948 20.6131L13.9958 20.4131ZM14.7246 19.8351C14.6947 20.1552 14.3869 20.4151 13.9958 20.4131L13.9948 20.6131C14.4676 20.6155 14.8823 20.2975 14.9238 19.8537L14.7246 19.8351ZM14.7302 19.5944C14.7313 19.6794 14.7322 19.7578 14.7247 19.8347L14.9237 19.8542C14.9325 19.7644 14.9312 19.6749 14.9301 19.5917L14.7302 19.5944ZM14.7294 19.5056C14.7294 19.5355 14.7298 19.5653 14.7302 19.5944L14.9301 19.5917C14.9297 19.5625 14.9294 19.534 14.9294 19.5056H14.7294ZM14.7294 19.0392V19.5056H14.9294V19.0392H14.7294ZM15.184 18.8361C15.0598 18.8702 14.9322 18.9052 14.8015 18.9432L14.8573 19.1353C14.9864 19.0977 15.1126 19.0631 15.2369 19.029L15.184 18.8361ZM15.9302 18.6119C15.6925 18.6965 15.4462 18.7641 15.184 18.8361L15.2369 19.029C15.4978 18.9573 15.7513 18.8878 15.9972 18.8003L15.9302 18.6119ZM17.4758 17.5903C17.0795 18.0576 16.5508 18.3916 15.9303 18.6118L15.9972 18.8003C16.644 18.5707 17.2049 18.219 17.6283 17.7196L17.4758 17.5903ZM17.8842 15.4073C18.2023 16.1931 18.0435 16.9199 17.4758 17.5903L17.6284 17.7196C18.2372 17.0007 18.4195 16.1964 18.0696 15.3322L17.8842 15.4073ZM16.7942 14.1586C17.2975 14.4888 17.6777 14.8976 17.8842 15.4073L18.0696 15.3322C17.8441 14.7755 17.4318 14.3377 16.9039 13.9914L16.7942 14.1586ZM14.2207 13.3787C15.1684 13.4307 16.0354 13.6606 16.7942 14.1586L16.9039 13.9914C16.1087 13.4694 15.2051 13.2324 14.2317 13.179L14.2207 13.3787ZM14.1673 13.3758C14.1851 13.3768 14.2029 13.3778 14.2207 13.3787L14.2317 13.179C14.2138 13.178 14.196 13.1771 14.1782 13.1761L14.1673 13.3758ZM13.1565 13.2769C13.4897 13.3391 13.8343 13.3577 14.1673 13.3758L14.1782 13.1761C13.8428 13.1578 13.5114 13.1397 13.1932 13.0803L13.1565 13.2769ZM11.6902 12.5017C12.0598 12.9421 12.5834 13.1695 13.1565 13.2769L13.1933 13.0803C12.6469 12.978 12.173 12.7657 11.8434 12.3731L11.6902 12.5017ZM11.4876 11.4832C11.3229 11.8639 11.4444 12.2091 11.6903 12.5018L11.8434 12.3731C11.6275 12.1161 11.5466 11.8505 11.6712 11.5626L11.4876 11.4832ZM12.0033 10.8627C11.7627 11.0254 11.5935 11.2372 11.4875 11.4833L11.6712 11.5624C11.7624 11.3507 11.9071 11.1692 12.1154 11.0283L12.0033 10.8627ZM14.7185 10.3527C13.7407 10.1921 12.8201 10.31 12.0033 10.8627L12.1154 11.0283C12.8798 10.5111 13.7453 10.3956 14.686 10.5501L14.7185 10.3527ZM16.0538 10.901C15.6535 10.6324 15.2192 10.4348 14.7184 10.3527L14.6861 10.5501C15.1529 10.6266 15.5606 10.8109 15.9424 11.0671L16.0538 10.901ZM17.071 10.776C16.8299 11.0557 16.3858 11.1241 16.0539 10.901L15.9423 11.067C16.3575 11.346 16.9148 11.2636 17.2225 10.9065L17.071 10.776ZM16.943 9.9303C17.1027 10.0472 17.1892 10.1944 17.2101 10.3405C17.2309 10.486 17.1881 10.64 17.071 10.7759L17.2225 10.9065C17.3745 10.7302 17.4377 10.5191 17.4081 10.3121C17.3786 10.1058 17.2582 9.91323 17.0612 9.76894L16.943 9.9303ZM15.776 9.33246C16.209 9.45985 16.591 9.67228 16.943 9.93027L17.0612 9.76897C16.6958 9.50113 16.2931 9.27612 15.8324 9.14059L15.776 9.33246ZM15.1074 9.14911C15.3363 9.20973 15.5574 9.26828 15.776 9.33248L15.8323 9.14058C15.6107 9.0755 15.387 9.01628 15.1586 8.95578L15.1074 9.14911ZM14.8027 9.06789C14.9058 9.09573 15.0073 9.12262 15.1074 9.14911L15.1586 8.95578C15.0585 8.92926 14.9574 8.9025 14.8548 8.8748L14.8027 9.06789ZM14.7287 8.73053V8.97134H14.9287V8.73053H14.7287ZM14.7299 8.55938C14.7292 8.61591 14.7285 8.67335 14.7287 8.73087L14.9287 8.73018C14.9285 8.67447 14.9292 8.61857 14.9299 8.56179L14.7299 8.55938ZM14.7238 8.17227C14.733 8.29862 14.7315 8.4265 14.7299 8.55938L14.9299 8.56179C14.9315 8.43034 14.9332 8.29399 14.9233 8.15778L14.7238 8.17227ZM14.0052 7.58677C14.3965 7.58882 14.7005 7.85102 14.7238 8.17227L14.9233 8.15779C14.8908 7.71068 14.4787 7.38925 14.0062 7.38677L14.0052 7.58677ZM13.2764 8.16469C13.3063 7.8446 13.6141 7.58472 14.0052 7.58677L14.0062 7.38677C13.5334 7.38429 13.1187 7.70237 13.0772 8.14609L13.2764 8.16469ZM13.2708 8.40545C13.2697 8.32039 13.2688 8.24203 13.2763 8.16517L13.0773 8.14561C13.0685 8.23541 13.0698 8.32494 13.0709 8.4081L13.2708 8.40545ZM13.2716 8.49424C13.2716 8.4643 13.2712 8.43448 13.2708 8.40545L13.0709 8.4081C13.0713 8.43735 13.0716 8.46585 13.0716 8.49424H13.2716ZM13.2716 8.98438V8.49424H13.0716V8.98438H13.2716ZM13.0842 9.10847C13.1187 9.09994 13.1549 9.09102 13.1945 9.08173L13.1488 8.88702C13.108 8.8966 13.0707 8.90579 13.0363 8.91429L13.0842 9.10847ZM12.8875 9.15298C12.9524 9.14101 13.0156 9.12538 13.0842 9.10847L13.0363 8.91429C12.9666 8.93148 12.9092 8.94559 12.8512 8.9563L12.8875 9.15298ZM10.9459 10.0087C11.5062 9.57614 12.1523 9.28789 12.8874 9.153L12.8513 8.95628C12.0857 9.09677 11.41 9.39781 10.8237 9.85036L10.9459 10.0087ZM10.1238 12.6116C9.68712 11.5955 10.1543 10.6199 10.9459 10.0087L10.8237 9.85036C9.98605 10.4971 9.45571 11.5636 9.94002 12.6905L10.1238 12.6116ZM11.8048 14.1703C11.027 13.818 10.4298 13.3229 10.1238 12.6115L9.94004 12.6906C10.2722 13.4626 10.9163 13.9874 11.7223 14.3525L11.8048 14.1703ZM13.8799 14.6204C13.1485 14.6059 12.4526 14.4638 11.8049 14.1703L11.7223 14.3525C12.3977 14.6585 13.1208 14.8054 13.8759 14.8204L13.8799 14.6204ZM15.328 14.855C14.8608 14.6811 14.3719 14.6301 13.8799 14.6204L13.8759 14.8204C14.3581 14.8299 14.8213 14.8798 15.2582 15.0425L15.328 14.855ZM16.3119 15.4989C16.0589 15.1864 15.7049 14.996 15.3281 14.8551L15.2581 15.0424C15.6207 15.178 15.936 15.3525 16.1565 15.6248L16.3119 15.4989ZM16.4451 16.6513C16.5638 16.4474 16.6043 16.2461 16.5751 16.0485C16.5461 15.8529 16.4502 15.6703 16.312 15.499L16.1564 15.6246C16.2802 15.7781 16.3551 15.9283 16.3773 16.0778C16.3991 16.2253 16.3709 16.3813 16.2723 16.5507L16.4451 16.6513ZM15.7357 17.3028C16.0381 17.1502 16.2806 16.9352 16.4452 16.6512L16.2722 16.5509C16.1294 16.7972 15.9179 16.9868 15.6456 17.1243L15.7357 17.3028ZM12.6769 17.4772C13.7212 17.8492 14.7511 17.7996 15.7357 17.3028L15.6456 17.1243C14.7118 17.5954 13.7389 17.6432 12.7441 17.2888L12.6769 17.4772ZM12.0889 17.1763C12.271 17.2854 12.4646 17.4017 12.677 17.4772L12.744 17.2888C12.5534 17.2211 12.3768 17.1156 12.1917 17.0048L12.0889 17.1763ZM11.9564 17.0977C12.0004 17.1233 12.0443 17.1496 12.0889 17.1763L12.1917 17.0048C12.1473 16.9781 12.1023 16.9512 12.0572 16.9249L11.9564 17.0977ZM10.93 17.224C11.1691 16.9471 11.5995 16.8889 11.9563 17.0976L12.0573 16.925C11.6294 16.6747 11.0895 16.7332 10.7786 17.0932L10.93 17.224ZM11.0567 18.0695C10.8971 17.9526 10.8107 17.8055 10.79 17.6595C10.7694 17.514 10.8125 17.3599 10.9299 17.224L10.7786 17.0932C10.6263 17.2695 10.5627 17.4806 10.592 17.6876C10.6212 17.894 10.7415 18.0866 10.9385 18.2309L11.0567 18.0695ZM12.2231 18.6685C11.7903 18.5412 11.4095 18.3277 11.0567 18.0695L10.9386 18.2309C11.3043 18.4985 11.7057 18.7248 12.1667 18.8604L12.2231 18.6685ZM12.8918 18.8518C12.6626 18.7913 12.4415 18.733 12.2232 18.6685L12.1666 18.8603C12.3882 18.9258 12.6121 18.9849 12.8408 19.0452L12.8918 18.8518Z" fill="white" mask="url(#path-1-outside-1_194_11517)"/>
</svg>
