<svg viewBox="0 0 25 25" fill="none" xmlns="http://www.w3.org/2000/svg">
<path fill-rule="evenodd" clip-rule="evenodd" d="M21.21 8.89921V17.0502C21.21 20.0702 19.32 22.2002 16.3 22.2002H7.65C4.63 22.2002 2.75 20.0702 2.75 17.0502V8.89921C2.75 5.87921 4.64 3.75021 7.65 3.75021H16.3C19.32 3.75021 21.21 5.87921 21.21 8.89921Z" stroke="white" stroke-width="1.5" stroke-linecap="round" stroke-linejoin="round"/>
<path d="M5.28125 17.4309L6.80925 15.8179C7.34025 15.2549 8.22525 15.2279 8.78925 15.7579C8.80625 15.7749 9.72625 16.7099 9.72625 16.7099C10.2813 17.2749 11.1883 17.2839 11.7533 16.7299C11.7903 16.6939 14.0872 13.9079 14.0872 13.9079C14.6792 13.1889 15.7422 13.0859 16.4622 13.6789C16.5102 13.7189 18.6803 15.9459 18.6803 15.9459" stroke="white" stroke-width="1.5" stroke-linecap="round" stroke-linejoin="round"/>
<path fill-rule="evenodd" clip-rule="evenodd" d="M10.3127 10.1331C10.3127 11.1021 9.52769 11.8871 8.55869 11.8871C7.58969 11.8871 6.80469 11.1021 6.80469 10.1331C6.80469 9.16412 7.58969 8.37912 8.55869 8.37912C9.52769 8.38012 10.3127 9.16412 10.3127 10.1331Z" stroke="white" stroke-width="1.5" stroke-linecap="round" stroke-linejoin="round"/>
<path fill-rule="evenodd" clip-rule="evenodd" d="M6.82561 4C7.01705 3.49551 7.28702 3.0604 7.61967 2.70384C8.31196 1.96179 9.33054 1.50021 10.65 1.50021H19.3C20.6252 1.50021 21.6463 1.96228 22.3395 2.70424C23.0381 3.45192 23.46 4.54505 23.46 5.89921V14.0502C23.46 15.4044 23.0381 16.4978 22.3394 17.2458C21.98 17.6306 21.5324 17.9402 21 18.149V19.7278C21.9598 19.462 22.7865 18.9646 23.4356 18.2697C24.437 17.1976 24.96 15.716 24.96 14.0502V5.89921C24.96 4.23338 24.437 2.75201 23.4355 1.68019C22.4288 0.60265 20.9948 0.000213623 19.3 0.000213623H10.65C8.9595 0.000213623 7.52808 0.603139 6.52288 1.68059C5.92371 2.32281 5.49578 3.11207 5.24902 4H6.82561Z" fill="white"/>
</svg>
