<svg xmlns="http://www.w3.org/2000/svg" viewBox="0 0 24 24" fill="none">
  <path fill-rule="evenodd" clip-rule="evenodd" d="M21.46 7.89924V16.0502C21.46 19.0702 19.57 21.2002 16.55 21.2002H7.9C4.88 21.2002 3 19.0702 3 16.0502V7.89924C3 4.87924 4.89 2.75024 7.9 2.75024H16.55C19.57 2.75024 21.46 4.87924 21.46 7.89924Z" stroke="white" stroke-width="1.5" stroke-linecap="round" stroke-linejoin="round"/>
  <path d="M5.53131 16.4309L7.05931 14.8179C7.59031 14.2549 8.47531 14.2279 9.03931 14.7579C9.05631 14.7749 9.97631 15.7099 9.97631 15.7099C10.5313 16.2749 11.4383 16.2839 12.0033 15.7299C12.0403 15.6939 14.3373 12.9079 14.3373 12.9079C14.9293 12.1889 15.9923 12.0859 16.7123 12.6789C16.7603 12.7189 18.9303 14.9459 18.9303 14.9459" stroke="white" stroke-width="1.5" stroke-linecap="round" stroke-linejoin="round"/>
  <path fill-rule="evenodd" clip-rule="evenodd" d="M10.5626 9.13315C10.5626 10.1022 9.77763 10.8872 8.80863 10.8872C7.83963 10.8872 7.05463 10.1022 7.05463 9.13315C7.05463 8.16415 7.83963 7.37915 8.80863 7.37915C9.77763 7.38015 10.5626 8.16415 10.5626 9.13315Z" stroke="white" stroke-width="1.5" stroke-linecap="round" stroke-linejoin="round"/>
</svg>