<svg xmlns="http://www.w3.org/2000/svg" viewBox="0 0 24 24" fill="none">
  <path fill-rule="evenodd" clip-rule="evenodd" d="M17.0468 15.5383C17.1277 17.3704 15.6491 18.9196 13.7446 18.9975C13.6043 19.0034 6.76525 18.9896 6.76525 18.9896C4.8699 19.1335 3.21109 17.7715 3.06159 15.9463C3.05033 15.8103 3.0534 8.47219 3.0534 8.47219C2.96943 6.63815 4.44598 5.08499 6.35157 5.00418C6.4939 4.99728 13.3237 5.01009 13.3237 5.01009C15.2283 4.86818 16.8922 6.24001 17.0397 8.07405C17.0499 8.2061 17.0468 15.5383 17.0468 15.5383Z" stroke="#F42C52" stroke-width="1.5" stroke-linecap="round" stroke-linejoin="round"/>
  <path d="M17.05 9.97984L20.343 7.28484C21.159 6.61684 22.383 7.19884 22.382 8.25184L22.37 15.6008C22.369 16.6538 21.144 17.2308 20.33 16.5628L17.05 13.8678" stroke="#F42C52" stroke-width="1.5" stroke-linecap="round" stroke-linejoin="round"/>
</svg>