<svg xmlns="http://www.w3.org/2000/svg" viewBox="0 0 15 16" fill="none">
    <path fill-rule="evenodd" clip-rule="evenodd" d="M0 8C0 3.84615 3.34615 0.5 7.5 0.5C11.6538 0.5 15 3.84615 15 8C15 12.1538 11.6538 15.5 7.5 15.5C3.34615 15.5 0 12.1538 0 8ZM7.44234 8.98085L10.5 5.34623C10.7308 5.05777 11.077 5.05777 11.3654 5.28854C11.5962 5.46161 11.6539 5.86546 11.4231 6.09623L8.36541 9.73085C8.01926 10.1347 7.50003 10.3655 6.9808 10.3655C6.57695 10.3655 6.17311 10.2501 5.88465 10.0193L3.69234 8.34623C3.46157 8.17315 3.40388 7.76931 3.57695 7.53854C3.75003 7.30777 4.15388 7.25008 4.38465 7.42315L6.57695 9.09623C6.80772 9.26931 7.21157 9.21161 7.44234 8.98085Z" fill="black" fill-opacity="0.3"/>
  </svg>