<svg xmlns="http://www.w3.org/2000/svg" viewBox="0 0 15 16" fill="none">
    <path d="M5.73344 10.4463C5.53817 10.6416 5.22159 10.6416 5.02633 10.4463C4.83107 10.251 4.83107 9.93445 5.02633 9.73919L6.7941 7.97142L5.02633 6.20365C4.83107 6.00839 4.83107 5.69181 5.02633 5.49654C5.22159 5.30128 5.53817 5.30128 5.73344 5.49654L7.5012 7.26431L9.26897 5.49654C9.46423 5.30128 9.78082 5.30128 9.97608 5.49654C10.1713 5.69181 10.1713 6.00839 9.97608 6.20365L8.20831 7.97142L9.97608 9.73919C10.1713 9.93445 10.1713 10.251 9.97608 10.4463C9.78081 10.6416 9.46423 10.6416 9.26897 10.4463L7.5012 8.67852L5.73344 10.4463Z" fill="#D81E06"/>
    <path fill-rule="evenodd" clip-rule="evenodd" d="M0 8C0 3.84615 3.34615 0.5 7.5 0.5C11.6538 0.5 15 3.84615 15 8C15 12.1538 11.6538 15.5 7.5 15.5C3.34615 15.5 0 12.1538 0 8ZM1.15385 8C1.15385 11.5192 3.98077 14.3462 7.5 14.3462C11.0192 14.3462 13.8462 11.5192 13.8462 8C13.8462 4.48077 11.0192 1.65385 7.5 1.65385C3.98077 1.65385 1.15385 4.48077 1.15385 8Z" fill="#D81E06"/>
  </svg>