<svg xmlns="http://www.w3.org/2000/svg" viewBox="0 0 15 16" fill="none">
    <path fill-rule="evenodd" clip-rule="evenodd" d="M0 8C0 3.84615 3.34615 0.5 7.5 0.5C11.6538 0.5 15 3.84615 15 8C15 12.1538 11.6538 15.5 7.5 15.5C3.34615 15.5 0 12.1538 0 8ZM1.15385 8C1.15385 11.5192 3.98077 14.3462 7.5 14.3462C11.0192 14.3462 13.8462 11.5192 13.8462 8C13.8462 4.48077 11.0192 1.65385 7.5 1.65385C3.98077 1.65385 1.15385 4.48077 1.15385 8ZM7.44258 8.97987L10.5003 5.34525C10.731 5.05679 11.0772 5.05679 11.3657 5.28756C11.5964 5.46064 11.6541 5.86448 11.4234 6.09525L8.36566 9.72987C8.0195 10.1337 7.50027 10.3645 6.98104 10.3645C6.5772 10.3645 6.17335 10.2491 5.88489 10.0183L3.69258 8.34525C3.46181 8.17218 3.40412 7.76833 3.5772 7.53756C3.75027 7.30679 4.15412 7.2491 4.38489 7.42218L6.5772 9.09525C6.80797 9.26833 7.21181 9.21064 7.44258 8.97987Z" fill="#00C844"/>
  </svg>