<svg viewBox="0 0 20 20" fill="none" xmlns="http://www.w3.org/2000/svg">
<path fill-rule="evenodd" clip-rule="evenodd" d="M2.47512 7.83072L2.47512 7.83212C2.47462 8.38542 2.59237 8.93222 2.8202 9.43469C3.04804 9.93715 3.38052 10.3833 3.79464 10.7422L3.80303 10.7494L9.58929 15.9178C9.64726 15.9696 9.72146 15.9987 9.7986 16C9.87575 16.0012 9.9508 15.9745 10.0103 15.9246L15.9733 10.9282L16.0051 10.9043C16.4776 10.5498 16.8614 10.0872 17.1255 9.55389C17.3895 9.02057 17.5263 8.43152 17.5249 7.83444L17.5249 7.83072C17.5249 7.06857 17.3013 6.32373 16.8828 5.69148C16.4642 5.05924 15.8697 4.56832 15.1753 4.28154C14.4809 3.99475 13.7181 3.92513 12.9845 4.08157C12.251 4.23802 11.58 4.61342 11.0574 5.15976L9.99999 6.26523L8.94258 5.15976C8.41999 4.61342 7.749 4.23802 7.01545 4.08157C6.2819 3.92513 5.51913 3.99475 4.8247 4.28154C4.13028 4.56832 3.53577 5.05924 3.11722 5.69148C2.69866 6.32373 2.4751 7.06857 2.47512 7.83072ZM8.61579 17.0448L2.8378 11.8838C2.26102 11.3839 1.79795 10.7626 1.48063 10.0628C1.16331 9.36295 0.999315 8.60138 1 7.83076C0.999978 6.77016 1.31109 5.73366 1.89354 4.85383C2.47598 3.97401 3.30329 3.29087 4.26964 2.89178C5.23599 2.49269 6.29745 2.39581 7.31824 2.61351C8.24404 2.81096 9.09821 3.25902 9.79168 3.90786C9.86284 3.97444 9.93231 4.04314 9.99999 4.1139C10.0677 4.04314 10.1371 3.97445 10.2083 3.90787C10.9018 3.25903 11.7559 2.81096 12.6817 2.61351C13.7025 2.39581 14.764 2.49269 15.7303 2.89178C16.6967 3.29087 17.524 3.97401 18.1065 4.85383C18.6889 5.73366 19 6.77016 19 7.83076C19.002 8.66334 18.8112 9.4847 18.443 10.2284C18.0749 10.972 17.5397 11.6171 16.8808 12.1114L10.9486 17.082C10.6187 17.3585 10.2029 17.5066 9.77546 17.4998C9.34804 17.493 8.93696 17.3317 8.61579 17.0448Z" fill="black"/>
</svg>
