<svg viewBox="0 0 20 20" fill="none" xmlns="http://www.w3.org/2000/svg">
<path d="M1 7.83076C0.999978 6.77016 1.31109 5.73366 1.89354 4.85383C2.47598 3.97401 3.30329 3.29087 4.26964 2.89178C5.23599 2.49269 6.29745 2.39581 7.31824 2.61351C8.33904 2.83122 9.27277 3.35362 9.99999 4.1139C10.7272 3.35362 11.6609 2.83122 12.6817 2.61351C13.7025 2.39581 14.764 2.49269 15.7303 2.89178C16.6967 3.29087 17.524 3.97401 18.1065 4.85383C18.6889 5.73366 19 6.77016 19 7.83076C19.002 8.66334 18.8112 9.48471 18.443 10.2284C18.0749 10.972 17.5397 11.6171 16.8808 12.1114L10.9486 17.082C10.6187 17.3585 10.2029 17.5066 9.77546 17.4998C9.34804 17.493 8.93696 17.3317 8.61579 17.0448L2.8378 11.8838C2.26102 11.3839 1.79795 10.7626 1.48063 10.0628C1.16331 9.36295 0.999315 8.60138 1 7.83076Z" fill="#D81E06"/>
</svg>
