<svg viewBox="0 0 20 20" fill="none" xmlns="http://www.w3.org/2000/svg">
<path fill-rule="evenodd" clip-rule="evenodd" d="M10 4.04891C6.7133 4.04891 4.04891 6.7133 4.04891 10C4.04891 13.2867 6.7133 15.9511 10 15.9511C13.2867 15.9511 15.9511 13.2867 15.9511 10C15.9511 9.57228 16.2978 9.22554 16.7255 9.22554C17.1533 9.22554 17.5 9.57228 17.5 10C17.5 14.1421 14.1421 17.5 10 17.5C5.85786 17.5 2.5 14.1421 2.5 10C2.5 5.85786 5.85786 2.5 10 2.5C10.4277 2.5 10.7745 2.84674 10.7745 3.27446C10.7745 3.70218 10.4277 4.04891 10 4.04891Z" fill="black"/>
<path fill-rule="evenodd" clip-rule="evenodd" d="M13.9697 2.96968C14.2626 2.67678 14.7374 2.67678 15.0303 2.96968L16.4445 4.38389C17.128 5.06731 17.128 6.17535 16.4445 6.85876L15.0303 8.27298C14.7374 8.56587 14.2626 8.56587 13.9697 8.27298C13.6768 7.98008 13.6768 7.50521 13.9697 7.21232L15.3839 5.7981C15.4815 5.70047 15.4815 5.54218 15.3839 5.44455L13.9697 4.03034C13.6768 3.73744 13.6768 3.26257 13.9697 2.96968Z" fill="black"/>
<path fill-rule="evenodd" clip-rule="evenodd" d="M16.75 5.62135C16.75 6.03556 16.4142 6.37135 16 6.37135H13C11.7574 6.37135 10.75 7.37871 10.75 8.62135V10.1213C10.75 10.5356 10.4142 10.8713 10 10.8713C9.58579 10.8713 9.25 10.5356 9.25 10.1213V8.62135C9.25 6.55028 10.9289 4.87135 13 4.87135H16C16.4142 4.87135 16.75 5.20713 16.75 5.62135Z" fill="black"/>
</svg>
