<svg viewBox="0 0 22 20" fill="none" xmlns="http://www.w3.org/2000/svg">
<path fill-rule="evenodd" clip-rule="evenodd" d="M18.8429 9.00153H16.4878V18H13.978V15.2199C13.978 14.6091 13.7657 13.9448 13.249 13.4281C12.7323 12.9114 12.0679 12.6991 11.4572 12.6991H9.89487C9.28413 12.6991 8.61978 12.9114 8.10309 13.4281C7.58639 13.9448 7.37409 14.6091 7.37409 15.2199V18H4.8643V9.00153H2.51481C3.76696 7.94105 5.28741 6.65058 7.07598 5.1303L10.6775 2.03609L10.8953 2.21759C11.3741 2.62798 11.8388 3.02647 12.2893 3.41283C14.9086 5.65885 17.05 7.49506 18.7008 8.87835L18.8429 9.00153ZM19.998 7.35605L20.7792 8.03307C21.1438 8.34554 21.3521 8.76217 21.3521 9.28295C21.3521 10.2204 20.5709 11.0015 19.6335 11.0015H18.4878V18.698C18.4878 19.3751 17.967 19.9479 17.29 20H13.28C12.5509 20 11.978 19.4271 11.978 18.698V15.2199C11.978 14.9074 11.7697 14.6991 11.4572 14.6991H9.89487C9.5824 14.6991 9.37409 14.9074 9.37409 15.2199V18.698C9.37409 19.3751 8.8533 19.9479 8.17629 20H4.16626C3.43716 20 2.8643 19.4271 2.8643 18.698V11.0015H1.71858C0.833252 11.0015 0.0520782 10.3245 0 9.3871V9.28295C0 8.76217 0.208313 8.29346 0.624939 7.98099C1.97897 6.83527 3.69756 5.37708 5.78069 3.60642L9.47824 0.429646C10.1553 -0.143215 11.1968 -0.143215 11.8738 0.429646L12.1863 0.690037C12.6698 1.10445 13.1386 1.50643 13.5927 1.89579C16.22 4.14868 18.3551 5.97953 19.998 7.35605Z" fill="black"/>
</svg>
