<svg xmlns="http://www.w3.org/2000/svg" viewBox="0 0 30 30" fill="none">
<path d="M11.8425 20.9701C15.9674 19.9389 19.1463 18.3679 21.8071 15.7071C22.1976 15.3166 22.1976 14.6834 21.8071 14.2929C21.4166 13.9024 20.7834 13.9024 20.3929 14.2929C18.0537 16.6321 15.2325 18.0611 11.3574 19.0299C10.8216 19.1638 10.4959 19.7067 10.6298 20.2425C10.7638 20.7783 11.3067 21.1041 11.8425 20.9701Z" fill="black"/>
<path fill-rule="evenodd" clip-rule="evenodd" d="M26.5735 10.7778C26.9068 10 26.9068 9.11111 26.4624 8.33333C25.9624 7.55556 25.0735 7.11111 24.1846 7.11111C23.419 7.06607 22.6533 7.13057 21.9173 7.27501C21.5958 7.33809 21.2619 7.25731 21.004 7.05534C19.2912 5.71452 17.1744 5 14.9624 5C9.46239 5 4.96239 9.5 4.96239 15C4.96239 15.4227 4.98897 15.8455 5.04214 16.2498C5.08573 16.5813 4.98403 16.9172 4.7626 17.1677C4.25615 17.7407 3.82275 18.3799 3.46239 19.0556C3.01794 19.8333 2.96239 20.8333 3.40683 21.6667C3.85127 22.3889 4.62905 22.8889 5.51794 22.9444C6.46239 23.0556 7.46239 23 8.40683 22.7222L8.5735 22.6667C10.3513 24.1667 12.6291 25 14.9624 25C20.4624 25 24.9624 20.5 24.9624 15C24.9624 14.4444 24.9068 13.8889 24.7957 13.3333L24.9068 13.2222C25.6291 12.5 26.1846 11.6667 26.5735 10.7778ZM24.0672 9.10766L24.1258 9.11111H24.1846C24.4191 9.11111 24.6345 9.22647 24.7512 9.37453C24.8277 9.53875 24.8393 9.74327 24.7377 9.98417C24.4455 10.6494 24.0304 11.2702 23.4926 11.808L22.6246 12.676L22.8346 13.7256C22.9204 14.1545 22.9624 14.5787 22.9624 15C22.9624 19.3954 19.3578 23 14.9624 23C13.1008 23 11.28 22.3334 9.86324 21.1381L9.00561 20.4145L7.81144 20.8125C7.16708 20.9968 6.45366 21.0407 5.75162 20.9581L5.69729 20.9518L5.6427 20.9483C5.4548 20.9366 5.26989 20.8369 5.14681 20.6724C5.07401 20.4921 5.08252 20.2515 5.19887 20.0478L5.21335 20.0225L5.22709 19.9967C5.52123 19.4452 5.86779 18.9373 6.26118 18.4922C6.86835 17.8052 7.14356 16.8902 7.02507 15.9891C6.98391 15.6761 6.96239 15.3406 6.96239 15C6.96239 10.6046 10.567 7 14.9624 7C16.7411 7 18.4208 7.57312 19.7711 8.63017C20.4837 9.18806 21.4074 9.4132 22.3024 9.23758C22.8938 9.12152 23.4897 9.07369 24.0672 9.10766Z" fill="black"/>
</svg>