<svg viewBox="0 0 24 20" fill="none" xmlns="http://www.w3.org/2000/svg">
<path d="M8.74253 15.9701C12.8674 14.9389 16.0463 13.3679 18.7071 10.7071C19.0976 10.3166 19.0976 9.68342 18.7071 9.29289C18.3166 8.90237 17.6834 8.90237 17.2929 9.29289C14.9537 11.6321 12.1326 13.0611 8.25746 14.0299C7.72166 14.1638 7.3959 14.7067 7.52985 15.2425C7.6638 15.7783 8.20673 16.1041 8.74253 15.9701Z" fill="black"/>
<path fill-rule="evenodd" clip-rule="evenodd" d="M23.4735 5.77778C23.8069 5 23.8069 4.11111 23.3624 3.33333C22.8624 2.55556 21.9735 2.11111 21.0846 2.11111C20.319 2.06607 19.5533 2.13057 18.8173 2.27501C18.4958 2.33809 18.162 2.25731 17.904 2.05534C16.1912 0.71452 14.0745 0 11.8624 0C6.36241 0 1.86241 4.5 1.86241 10C1.86241 10.4227 1.88899 10.8455 1.94216 11.2498C1.98575 11.5813 1.88405 11.9172 1.66263 12.1677C1.15618 12.7407 0.72277 13.3799 0.36241 14.0556C-0.0820346 14.8333 -0.13759 15.8333 0.306854 16.6667C0.751299 17.3889 1.52908 17.8889 2.41797 17.9444C3.36241 18.0556 4.36241 18 5.30685 17.7222L5.47352 17.6667C7.2513 19.1667 9.52908 20 11.8624 20C17.3624 20 21.8624 15.5 21.8624 10C21.8624 9.44444 21.8069 8.88889 21.6957 8.33333L21.8069 8.22222C22.5291 7.5 23.0846 6.66667 23.4735 5.77778ZM20.9672 4.10766L21.0259 4.11111H21.0846C21.3191 4.11111 21.5345 4.22647 21.6512 4.37453C21.7277 4.53875 21.7394 4.74327 21.6377 4.98417C21.3455 5.64937 20.9304 6.27023 20.3926 6.80801L19.5247 7.67597L19.7346 8.72556C19.8204 9.15455 19.8624 9.57874 19.8624 10C19.8624 14.3954 16.2578 18 11.8624 18C10.0008 18 8.17999 17.3334 6.76326 16.1381L5.90563 15.4145L4.71147 15.8125C4.0671 15.9968 3.35368 16.0407 2.65165 15.9581L2.59732 15.9518L2.54272 15.9483C2.35482 15.9366 2.16992 15.8369 2.04683 15.6724C1.97404 15.4921 1.98254 15.2515 2.0989 15.0478L2.11338 15.0225L2.12712 14.9967C2.42126 14.4452 2.76781 13.9373 3.1612 13.4922C3.76837 12.8052 4.04359 11.8902 3.92509 10.9891C3.88394 10.6761 3.86241 10.3406 3.86241 10C3.86241 5.60457 7.46698 2 11.8624 2C13.6412 2 15.3209 2.57312 16.6711 3.63017C17.3838 4.18806 18.3074 4.4132 19.2024 4.23758C19.7938 4.12152 20.3897 4.07369 20.9672 4.10766Z" fill="black"/>
</svg>
