<svg xmlns="http://www.w3.org/2000/svg" viewBox="0 0 30 30" fill="none">
<path fill-rule="evenodd" clip-rule="evenodd" d="M26.4624 8.33333C26.9068 9.11111 26.9068 10 26.5735 10.7778C26.1846 11.6667 25.6291 12.5 24.9068 13.2222L24.7957 13.3333C24.9068 13.8889 24.9624 14.4444 24.9624 15C24.9624 20.5 20.4624 25 14.9624 25C12.6291 25 10.3513 24.1667 8.5735 22.6667L8.40683 22.7222C7.46239 23 6.46239 23.0556 5.51794 22.9444C4.62905 22.8889 3.85127 22.3889 3.40683 21.6667C2.96239 20.8333 3.01794 19.8333 3.46239 19.0556C3.82275 18.3799 4.25615 17.7407 4.7626 17.1677C4.98403 16.9172 5.08573 16.5813 5.04214 16.2498C4.98897 15.8455 4.96239 15.4227 4.96239 15C4.96239 9.5 9.46239 5 14.9624 5C17.1744 5 19.2912 5.71452 21.004 7.05534C21.2619 7.25731 21.5958 7.33809 21.9173 7.27501C22.6533 7.13057 23.419 7.06607 24.1846 7.11111C25.0735 7.11111 25.9624 7.55556 26.4624 8.33333ZM11.8425 20.9701C15.9674 19.9389 19.1463 18.3679 21.8071 15.7071C22.1976 15.3166 22.1976 14.6834 21.8071 14.2929C21.4166 13.9024 20.7834 13.9024 20.3929 14.2929C18.0537 16.6321 15.2325 18.0611 11.3574 19.0299C10.8216 19.1638 10.4959 19.7067 10.6298 20.2425C10.7638 20.7783 11.3067 21.1041 11.8425 20.9701Z" fill="black"/>
</svg>