<svg xmlns="http://www.w3.org/2000/svg" viewBox="0 0 30 30" fill="none">
<path d="M10 16C10.5523 16 11 15.5523 11 15C11 14.4477 10.5523 14 10 14C9.44772 14 9 14.4477 9 15C9 15.5523 9.44772 16 10 16Z" fill="black"/>
<path d="M15 16C15.5523 16 16 15.5523 16 15C16 14.4477 15.5523 14 15 14C14.4477 14 14 14.4477 14 15C14 15.5523 14.4477 16 15 16Z" fill="black"/>
<path d="M21 15C21 15.5523 20.5523 16 20 16C19.4477 16 19 15.5523 19 15C19 14.4477 19.4477 14 20 14C20.5523 14 21 14.4477 21 15Z" fill="black"/>
<path fill-rule="evenodd" clip-rule="evenodd" d="M25 15C25 20.5228 20.5228 25 15 25C13.5171 25 12.1096 24.6772 10.8439 24.0981C10.7063 24.0351 10.5576 24 10.4062 24H7.01477C6.45664 24 6.0068 23.5451 6.01515 22.987L6.06357 19.7491C6.06598 19.5875 6.0284 19.4251 5.95917 19.2791C5.3441 17.9818 5 16.5311 5 15C5 9.47715 9.47715 5 15 5C20.5228 5 25 9.47715 25 15ZM23 15C23 19.4183 19.4183 23 15 23C13.81 23 12.6859 22.7415 11.6761 22.2794C11.2998 22.1073 10.8686 22 10.4062 22H8.03013L8.06334 19.779C8.07062 19.2923 7.95861 18.8277 7.76633 18.4222C7.27555 17.3871 7 16.2285 7 15C7 10.5817 10.5817 7 15 7C19.4183 7 23 10.5817 23 15Z" fill="black"/>
</svg>