<svg viewBox="0 0 20 20" fill="none" xmlns="http://www.w3.org/2000/svg">
<path d="M5 11C5.55228 11 6 10.5523 6 10C6 9.44771 5.55228 9 5 9C4.44772 9 4 9.44771 4 10C4 10.5523 4.44772 11 5 11Z" fill="black"/>
<path d="M10 11C10.5523 11 11 10.5523 11 10C11 9.44771 10.5523 9 10 9C9.44772 9 9 9.44771 9 10C9 10.5523 9.44772 11 10 11Z" fill="black"/>
<path d="M16 10C16 10.5523 15.5523 11 15 11C14.4477 11 14 10.5523 14 10C14 9.44771 14.4477 9 15 9C15.5523 9 16 9.44771 16 10Z" fill="black"/>
<path fill-rule="evenodd" clip-rule="evenodd" d="M20 10C20 15.5228 15.5228 20 10 20C8.51711 20 7.10962 19.6772 5.84393 19.0981C5.70626 19.0351 5.55762 19 5.40624 19H2.01477C1.45664 19 1.0068 18.5451 1.01515 17.987L1.06357 14.7491C1.06598 14.5875 1.0284 14.4251 0.959175 14.2791C0.344096 12.9818 0 11.5311 0 10C0 4.47715 4.47715 0 10 0C15.5228 0 20 4.47715 20 10ZM18 10C18 14.4183 14.4183 18 10 18C8.81002 18 7.68586 17.7415 6.67606 17.2794C6.29981 17.1073 5.86861 17 5.40624 17H3.03013L3.06334 14.779C3.07062 14.2923 2.95861 13.8277 2.76633 13.4222C2.27555 12.3871 2 11.2285 2 10C2 5.58172 5.58172 2 10 2C14.4183 2 18 5.58172 18 10Z" fill="black"/>
</svg>
