<svg xmlns="http://www.w3.org/2000/svg" viewBox="0 0 30 30" fill="none">
<path fill-rule="evenodd" clip-rule="evenodd" d="M14.9999 5.5C11.6898 5.5 9.00651 8.07775 9.00651 11.2576C9.00651 13.1367 9.94363 14.8056 11.3934 15.8565C8.61611 16.9157 6.46446 19.1621 5.61545 21.9428C5.31675 22.9212 5.6232 23.8431 6.24079 24.4907C6.84441 25.1236 7.74165 25.5 8.69305 25.5H21.3081C22.2595 25.5 23.1566 25.1236 23.76 24.4905C24.3773 23.8427 24.6831 22.9208 24.3845 21.9428C23.5355 19.162 21.3838 16.9157 18.6064 15.8565C20.0562 14.8056 20.9933 13.1367 20.9933 11.2576C20.9933 8.07775 18.31 5.5 14.9999 5.5ZM10.8992 11.2576C10.8992 9.08191 12.7351 7.31818 14.9999 7.31818C17.2647 7.31818 19.1006 9.08191 19.1006 11.2576C19.1006 13.4332 17.2647 15.197 14.9999 15.197C12.7351 15.197 10.8992 13.4332 10.8992 11.2576ZM7.4316 22.4545C8.39169 19.3099 11.4181 17.0152 15 17.0152C18.5819 17.0152 21.6083 19.3099 22.5683 22.4545C22.662 22.7613 22.5805 23.0355 22.364 23.2627C22.1335 23.5045 21.7503 23.6818 21.3081 23.6818H8.69305C8.25075 23.6818 7.8671 23.5045 7.63632 23.2625C7.41951 23.0351 7.33805 22.7609 7.4316 22.4545Z" fill="black"/>
</svg>