<svg xmlns="http://www.w3.org/2000/svg" viewBox="0 0 30 30" fill="none">
<path fill-rule="evenodd" clip-rule="evenodd" d="M14.9999 5.5C11.6898 5.5 9.00651 8.07775 9.00651 11.2576C9.00651 13.1367 9.94363 14.8056 11.3934 15.8565C8.61611 16.9157 6.46446 19.1621 5.61545 21.9428C5.31675 22.9212 5.6232 23.8431 6.24079 24.4907C6.84441 25.1236 7.74165 25.5 8.69305 25.5H21.3081C22.2595 25.5 23.1566 25.1236 23.76 24.4905C24.3773 23.8427 24.6831 22.9208 24.3845 21.9428C23.5355 19.162 21.3838 16.9157 18.6064 15.8565C20.0562 14.8056 20.9933 13.1367 20.9933 11.2576C20.9933 8.07775 18.31 5.5 14.9999 5.5Z" fill="black"/>
</svg>