<svg xmlns="http://www.w3.org/2000/svg" viewBox="0 0 30 30" fill="none">
<path d="M15 9.34784C15.473 9.34784 15.8564 9.73126 15.8564 10.2042V14.1436H19.7958C20.2688 14.1436 20.6522 14.527 20.6522 15C20.6522 15.473 20.2688 15.8564 19.7958 15.8564H15.8564V19.7958C15.8564 20.2688 15.473 20.6522 15 20.6522C14.527 20.6522 14.1436 20.2688 14.1436 19.7958V15.8564H10.2042C9.73126 15.8564 9.34784 15.473 9.34784 15C9.34784 14.527 9.73126 14.1436 10.2042 14.1436H14.1436V10.2042C14.1436 9.73126 14.527 9.34784 15 9.34784Z" fill="black"/>
<path fill-rule="evenodd" clip-rule="evenodd" d="M5 10C5 7.23858 7.23858 5 10 5H20C22.7614 5 25 7.23858 25 10V20C25 22.7614 22.7614 25 20 25H10C7.23858 25 5 22.7614 5 20V10ZM10 7H20C21.6569 7 23 8.34315 23 10V20C23 21.6569 21.6569 23 20 23H10C8.34315 23 7 21.6569 7 20V10C7 8.34315 8.34315 7 10 7Z" fill="black"/>
</svg>