<svg xmlns="http://www.w3.org/2000/svg" viewBox="0 0 30 30" fill="none">
<path d="M13.942 22.284C9.12721 22.284 5.30005 18.4568 5.30005 13.642C5.30005 8.82716 9.12721 5 13.942 5C18.7568 5 22.584 8.82716 22.584 13.642C22.584 18.4568 18.7568 22.284 13.942 22.284ZM13.942 19.8148C17.3988 19.8148 20.1149 17.0988 20.1149 13.642C20.1149 10.1852 17.3988 7.46914 13.942 7.46914C10.4852 7.46914 7.76918 10.1852 7.76918 13.642C7.76918 17.0988 10.4852 19.8148 13.942 19.8148ZM21.226 19.8148L23.8186 22.4074C24.2959 22.8847 24.2959 23.6585 23.8186 24.1358C23.3413 24.6131 22.5675 24.6131 22.0902 24.1358L19.4976 21.5432L21.226 19.8148Z" fill="black"/>
</svg>