<svg xmlns="http://www.w3.org/2000/svg" viewBox="0 0 20 20" fill="none">
<path d="M8.64198 17.284C3.82716 17.284 -2.89352e-08 13.4568 0 8.64198C2.89352e-08 3.82716 3.82716 -2.89352e-08 8.64198 0C13.4568 2.89352e-08 17.284 3.82716 17.284 8.64198C17.284 13.4568 13.4568 17.284 8.64198 17.284ZM8.64198 14.8148C12.0988 14.8148 14.8148 12.0988 14.8148 8.64198C14.8148 5.18519 12.0988 2.46914 8.64198 2.46914C5.18519 2.46914 2.46914 5.18519 2.46914 8.64198C2.46914 12.0988 5.18519 14.8148 8.64198 14.8148ZM15.9259 14.8148L18.5185 17.4074C18.9958 17.8847 18.9958 18.6585 18.5185 19.1358C18.0412 19.6131 17.2674 19.6131 16.7901 19.1358L14.1975 16.5432L15.9259 14.8148Z" fill="black"/>
</svg>