<svg viewBox="0 0 21 20" fill="none" xmlns="http://www.w3.org/2000/svg">
<path fill-rule="evenodd" clip-rule="evenodd" d="M14.6788 19.5514L10.4319 17.7283L5.46777 19.8583C4.38106 20.3251 3.3665 19.5862 3.47343 18.409L3.96289 13.0215L0.404552 8.95202C-0.373535 8.06179 0.0194205 6.86814 1.16699 6.60646L6.43364 5.40847L9.19911 0.762547C9.80506 -0.254617 11.0596 -0.253748 11.6655 0.762547L14.4301 5.40847L19.6968 6.60646C20.8504 6.86901 21.2364 8.06266 20.4592 8.95202L16.9009 13.0215L17.3216 17.631C17.3922 18.3995 17.132 19.0178 16.6788 19.3845C16.6005 19.4478 16.5164 19.5036 16.4274 19.5514C16.4268 19.5517 16.4263 19.552 16.4257 19.5523C15.9508 19.8064 15.3328 19.8318 14.6788 19.5514ZM15.3149 17.648L14.8313 12.3501L18.3315 8.34699L13.1501 7.16838L10.4322 2.60107L7.71354 7.16842L2.53225 8.347L6.03216 12.3497L5.55097 17.6463L10.4321 15.5519L15.3149 17.648Z" fill="black"/>
</svg>
