<svg viewBox="0 0 12 12" fill="none" xmlns="http://www.w3.org/2000/svg">
<path fill-rule="evenodd" clip-rule="evenodd" d="M6.00033 10.9584C8.73874 10.9584 10.9587 8.73849 10.9587 6.00008C10.9587 3.26167 8.73874 1.04175 6.00033 1.04175C3.26191 1.04175 1.04199 3.26167 1.04199 6.00008C1.04199 8.73849 3.26191 10.9584 6.00033 10.9584ZM6.00033 11.8334C9.22199 11.8334 11.8337 9.22174 11.8337 6.00008C11.8337 2.77842 9.22199 0.166748 6.00033 0.166748C2.77866 0.166748 0.166992 2.77842 0.166992 6.00008C0.166992 9.22174 2.77866 11.8334 6.00033 11.8334Z" fill="white"/>
<path fill-rule="evenodd" clip-rule="evenodd" d="M8.6563 6.26137C8.6563 6.50299 8.46042 6.69887 8.2188 6.69887L5.95061 6.69887C5.70902 6.69887 5.51316 6.50305 5.51311 6.26146L5.5127 3.47989C5.51264 3.23827 5.70848 3.04235 5.9501 3.0423C6.19173 3.04225 6.38764 3.23809 6.3877 3.47971L6.38802 5.82387L8.2188 5.82387C8.46042 5.82387 8.6563 6.01974 8.6563 6.26137Z" fill="white"/>
</svg>
