<svg width="105" height="104" viewBox="0 0 105 104" fill="none" xmlns="http://www.w3.org/2000/svg">
<g filter="url(#filter0_d_286_11707)">
<path fill-rule="evenodd" clip-rule="evenodd" d="M19.9314 19.8357C16.7464 23.2496 14.8637 28.1951 14.8637 34.2301V69.5511C14.8637 75.5895 16.7376 80.5358 19.9166 83.9492C23.0772 87.3429 27.7105 89.4207 33.65 89.4207H71.1333C77.0733 89.4207 81.7189 87.3425 84.8909 83.9466C88.0803 80.532 89.9629 75.586 89.9629 69.5511V34.2301C89.9629 28.1952 88.0804 23.2505 84.8911 19.837C81.7193 16.4422 77.0737 14.3648 71.1333 14.3648H33.65C27.7336 14.3648 23.0988 16.4406 19.9314 19.8357ZM16.3528 16.4971C20.5412 12.0077 26.523 9.4707 33.65 9.4707H71.1333C78.2797 9.4707 84.2724 12.0061 88.4672 16.4958C92.6446 20.9669 94.8571 27.1783 94.8571 34.2301V69.5511C94.8571 76.6028 92.6447 82.8152 88.4675 87.2873C84.2728 91.7781 78.28 94.3148 71.1333 94.3148H33.65C26.5028 94.3148 20.5194 91.7776 16.3351 87.2847C12.1691 82.8114 9.9696 76.5994 9.9696 69.5511V34.2301C9.9696 27.1784 12.1819 20.9677 16.3528 16.4971ZM70.2132 56.7763C68.1373 55.1266 65.1212 55.4409 63.4341 57.4899L63.433 57.4912L63.4326 57.4917L61.8749 59.3804C60.9391 60.5149 59.6896 62.0292 58.435 63.5485C57.1805 65.0675 55.9203 66.5924 54.9634 67.7476C54.4852 68.325 54.0814 68.8116 53.7915 69.1594C53.647 69.3329 53.5285 69.4746 53.4424 69.5767L53.4362 69.5842C53.4024 69.6248 53.2574 69.799 53.1442 69.9104C49.7301 73.2581 44.2522 73.2015 40.9023 69.792L40.9016 69.7913L36.9021 65.7276L36.8823 65.7075C35.4214 64.3636 33.1536 64.4413 31.7871 65.8901L31.7835 65.894L25.1621 72.8837C24.2327 73.8648 22.6839 73.9068 21.7027 72.9773C20.7216 72.0479 20.6797 70.4991 21.6091 69.5179L28.2268 62.5321L28.2287 62.5301C31.4554 59.1112 36.8351 58.947 40.2627 62.1679C40.275 62.1795 40.2873 62.1912 40.2994 62.2031C40.3054 62.2089 40.3113 62.2149 40.3173 62.2208C40.3634 62.2669 41.3915 63.3116 42.3889 64.325L44.3914 66.36L42.6473 68.0765C44.3916 66.3602 44.3914 66.36 44.3914 66.36L44.393 66.3617C45.8329 67.8275 48.1693 67.8685 49.6553 66.4757L49.6995 66.4235C49.7769 66.3316 49.8887 66.198 50.0317 66.0264C50.3168 65.6842 50.717 65.202 51.1944 64.6256C52.1489 63.4733 53.4072 61.9508 54.6612 60.4322C55.9151 58.9138 57.164 57.4002 58.0995 56.2661L59.6551 54.38L59.6559 54.3791C63.081 50.2191 69.2298 49.625 73.3923 53.0533L73.4032 53.0623C73.5154 53.1558 73.6576 53.2988 73.6993 53.3408L73.6993 53.3408L73.6994 53.3409L73.7082 53.3497C73.7943 53.4358 73.9106 53.553 74.0503 53.6944C74.3306 53.9782 74.7176 54.372 75.1736 54.8372C76.0862 55.7681 77.2825 56.992 78.4712 58.2094C79.6601 59.4271 80.8424 60.6392 81.7275 61.5469L83.1989 63.0563L83.2001 63.0576C83.2002 63.0577 83.2006 63.0581 81.448 64.7658L83.2006 63.0581C84.1438 64.026 84.1237 65.5753 83.1557 66.5184C82.1878 67.4616 80.6384 67.4414 79.6953 66.4735L78.2234 64.9636C77.3388 64.0564 76.1573 62.8451 74.9694 61.6285C73.7813 60.4117 72.5878 59.1906 71.6787 58.2633C71.2239 57.7993 70.8421 57.4108 70.5684 57.1337C70.431 56.9946 70.3239 56.8867 70.2495 56.8124L70.2132 56.7763ZM32.4337 39.577C32.4337 36.7299 34.7391 34.4241 37.586 34.4234C40.4372 34.427 42.7409 36.7322 42.7409 39.577C42.7409 42.4245 40.4348 44.7306 37.5873 44.7306C34.7397 44.7306 32.4337 42.4245 32.4337 39.577ZM37.5873 29.5293C32.0368 29.5293 27.5395 34.0265 27.5395 39.577C27.5395 45.1275 32.0368 49.6247 37.5873 49.6247C43.1377 49.6247 47.635 45.1275 47.635 39.577C47.635 34.0242 43.136 29.535 37.5898 29.5293H37.5873Z" fill="url(#paint0_linear_286_11707)"/>
</g>
<defs>
<filter id="filter0_d_286_11707" x="2.9696" y="2.4707" width="98.8875" height="98.8438" filterUnits="userSpaceOnUse" color-interpolation-filters="sRGB">
<feFlood flood-opacity="0" result="BackgroundImageFix"/>
<feColorMatrix in="SourceAlpha" type="matrix" values="0 0 0 0 0 0 0 0 0 0 0 0 0 0 0 0 0 0 127 0" result="hardAlpha"/>
<feOffset/>
<feGaussianBlur stdDeviation="3.5"/>
<feComposite in2="hardAlpha" operator="out"/>
<feColorMatrix type="matrix" values="0 0 0 0 1 0 0 0 0 0.06 0 0 0 0 0 0 0 0 0.68 0"/>
<feBlend mode="normal" in2="BackgroundImageFix" result="effect1_dropShadow_286_11707"/>
<feBlend mode="normal" in="SourceGraphic" in2="effect1_dropShadow_286_11707" result="shape"/>
</filter>
<linearGradient id="paint0_linear_286_11707" x1="51.3522" y1="-24.4669" x2="51.3522" y2="104.92" gradientUnits="userSpaceOnUse">
<stop stop-color="#F95E0E"/>
<stop offset="1" stop-color="#E717B3"/>
</linearGradient>
</defs>
</svg>
