<svg viewBox="0 0 17 16" fill="none" xmlns="http://www.w3.org/2000/svg">
<path fill-rule="evenodd" clip-rule="evenodd" d="M3.25937 4.16463C3.35576 4.15888 3.44953 4.15236 3.5415 4.14596C3.74464 4.13182 3.93904 4.11829 4.13372 4.11512C4.45649 4.10936 4.66975 4.42506 4.54468 4.71195C4.47321 4.87613 4.34121 4.9637 4.16311 4.97522C3.59307 5.01266 3.02303 5.04896 2.453 5.08467C2.22648 5.0985 1.99823 4.91473 1.9942 4.67969C1.98267 4.04657 1.98382 3.41287 1.99304 2.77918C1.9965 2.55162 2.20342 2.38052 2.42763 2.38456C2.65242 2.38859 2.83744 2.56372 2.84954 2.79415C2.85503 2.8972 2.85386 3.00052 2.85254 3.11588C2.85192 3.17013 2.85127 3.22705 2.85127 3.28786C2.88873 3.24649 2.92263 3.20846 2.95442 3.17278C3.01117 3.10911 3.06123 3.05294 3.11295 2.99866C4.25533 1.79637 5.63519 1.01865 7.27441 0.738676C9.23006 0.404546 11.0387 0.810111 12.6676 1.93521C14.2717 3.04302 15.2959 4.56274 15.7074 6.47189C15.793 6.86867 15.8231 7.27861 15.8531 7.68679C15.8597 7.77644 15.8663 7.866 15.8734 7.95531C15.8959 8.23184 15.7005 8.43001 15.4486 8.43174C15.1967 8.43347 15.0181 8.24278 15.0129 7.9605C14.9812 6.22245 14.3668 4.72001 13.1575 3.47336C12.0993 2.38225 10.8105 1.71226 9.29404 1.54981C6.85019 1.28769 4.87091 2.17025 3.32736 4.06385C3.31443 4.07973 3.30316 4.09727 3.28838 4.12025C3.28011 4.13312 3.27074 4.14769 3.25937 4.16463ZM13.742 11.836C13.644 11.8418 13.5487 11.8485 13.4553 11.855C13.2543 11.8691 13.0617 11.8825 12.8686 11.8861C12.5314 11.8918 12.321 11.5577 12.468 11.265C12.5435 11.1147 12.6703 11.0369 12.8357 11.026L12.8476 11.0252C13.4091 10.988 13.97 10.9508 14.532 10.9188C14.796 10.9038 15.011 11.1026 15.0127 11.3647C15.0167 11.9696 15.0167 12.5739 15.0127 13.1788C15.011 13.4277 14.8242 13.6126 14.5885 13.6161C14.347 13.6201 14.1579 13.4323 14.1504 13.1771C14.1477 13.082 14.1484 12.9871 14.1491 12.881C14.1495 12.8283 14.1499 12.7729 14.1499 12.7133C14.1196 12.747 14.0916 12.7784 14.0651 12.8081C14.0013 12.8797 13.9462 12.9415 13.8888 13.0014C12.7452 14.2031 11.3659 14.9808 9.72673 15.2614C7.77107 15.5955 5.96297 15.1899 4.33412 14.0654C2.7289 12.9582 1.7041 11.439 1.29314 9.52987C1.20784 9.1326 1.1778 8.72238 1.14786 8.31345C1.14098 8.21952 1.13411 8.12566 1.12657 8.03204C1.10524 7.76647 1.30409 7.57117 1.55078 7.56887C1.79748 7.56656 1.98307 7.75494 1.98653 8.02455C2.00151 9.29425 2.33812 10.4712 3.04361 11.5272C4.15717 13.1949 5.70533 14.2169 7.70536 14.4468C10.1469 14.7273 12.1279 13.8309 13.672 11.9379C13.6853 11.9218 13.6966 11.9044 13.7118 11.8813C13.7203 11.8683 13.73 11.8535 13.742 11.836Z" fill="white"/>
<path d="M3.25937 4.16463L3.0933 4.05319L2.86844 4.38828L3.27127 4.36427L3.25937 4.16463ZM3.5415 4.14596L3.52762 3.94644L3.5415 4.14596ZM4.13372 4.11512L4.13697 4.31509L4.13729 4.31509L4.13372 4.11512ZM4.54468 4.71195L4.36134 4.63202L4.3613 4.63212L4.54468 4.71195ZM4.16311 4.97522L4.1502 4.77564L4.15 4.77565L4.16311 4.97522ZM2.453 5.08467L2.46518 5.2843L2.4655 5.28428L2.453 5.08467ZM1.9942 4.67969L2.19417 4.67625L2.19416 4.67604L1.9942 4.67969ZM1.99304 2.77918L1.79307 2.77614L1.79307 2.77626L1.99304 2.77918ZM2.42763 2.38456L2.42404 2.58452L2.42405 2.58452L2.42763 2.38456ZM2.84954 2.79415L2.64982 2.80464L2.64983 2.80479L2.84954 2.79415ZM2.85254 3.11588L3.05253 3.11816L2.85254 3.11588ZM2.85127 3.28786H2.65127V3.80672L2.99953 3.4221L2.85127 3.28786ZM2.95442 3.17278L2.80511 3.03972H2.80511L2.95442 3.17278ZM3.11295 2.99866L3.25774 3.13663L3.25794 3.13643L3.11295 2.99866ZM7.27441 0.738676L7.30808 0.935821L7.30809 0.935819L7.27441 0.738676ZM12.6676 1.93521L12.5539 2.09977L12.5539 2.09978L12.6676 1.93521ZM15.7074 6.47189L15.5119 6.51404L15.5119 6.51404L15.7074 6.47189ZM15.8531 7.68679L16.0525 7.67213V7.67213L15.8531 7.68679ZM15.8734 7.95531L15.6741 7.9713L15.6741 7.97152L15.8734 7.95531ZM15.4486 8.43174L15.45 8.63173L15.4486 8.43174ZM15.0129 7.9605L14.8129 7.96415V7.96417L15.0129 7.9605ZM13.1575 3.47336L13.0139 3.6126L13.014 3.61261L13.1575 3.47336ZM9.29404 1.54981L9.27271 1.74867L9.27274 1.74867L9.29404 1.54981ZM3.32736 4.06385L3.17234 3.93748L3.17228 3.93756L3.32736 4.06385ZM3.28838 4.12025L3.12014 4.0121L3.12014 4.0121L3.28838 4.12025ZM13.742 11.836L13.9072 11.9487L14.1368 11.612L13.73 11.6363L13.742 11.836ZM13.4553 11.855L13.4692 12.0545H13.4692L13.4553 11.855ZM12.8686 11.8861L12.872 12.086L12.8722 12.086L12.8686 11.8861ZM12.468 11.265L12.6467 11.3548L12.6467 11.3548L12.468 11.265ZM12.8357 11.026L12.8489 11.2255L12.8489 11.2255L12.8357 11.026ZM12.8476 11.0252L12.8609 11.2247H12.8609L12.8476 11.0252ZM14.532 10.9188L14.5207 10.7191L14.5206 10.7191L14.532 10.9188ZM15.0127 11.3647L14.8127 11.366V11.366L15.0127 11.3647ZM15.0127 13.1788L15.2127 13.1802L15.2127 13.1801L15.0127 13.1788ZM14.5885 13.6161L14.5856 13.4161L14.5851 13.4161L14.5885 13.6161ZM14.1504 13.1771L13.9505 13.1827L13.9505 13.1829L14.1504 13.1771ZM14.1491 12.881L13.9491 12.8796V12.8796L14.1491 12.881ZM14.1499 12.7133H14.3499V12.1921L14.0012 12.5795L14.1499 12.7133ZM14.0651 12.8081L13.9158 12.675L13.9158 12.6751L14.0651 12.8081ZM13.8888 13.0014L13.7445 12.8629L13.7439 12.8635L13.8888 13.0014ZM9.72673 15.2614L9.76041 15.4585L9.76047 15.4585L9.72673 15.2614ZM4.33412 14.0654L4.44775 13.9008L4.44768 13.9008L4.33412 14.0654ZM1.29314 9.52987L1.0976 9.57186L1.09762 9.57196L1.29314 9.52987ZM1.14786 8.31345L1.34732 8.29885H1.34732L1.14786 8.31345ZM1.12657 8.03204L0.927211 8.04805L0.927214 8.04809L1.12657 8.03204ZM1.55078 7.56887L1.55265 7.76886H1.55265L1.55078 7.56887ZM1.98653 8.02455L2.18651 8.02219L2.18651 8.02199L1.98653 8.02455ZM3.04361 11.5272L3.20994 11.4161L3.20991 11.4161L3.04361 11.5272ZM7.70536 14.4468L7.68253 14.6455H7.68253L7.70536 14.4468ZM13.672 11.9379L13.5173 11.8112L13.5171 11.8115L13.672 11.9379ZM13.7118 11.8813L13.5445 11.7717L13.5445 11.7717L13.7118 11.8813ZM3.27127 4.36427C3.36881 4.35846 3.46355 4.35187 3.55539 4.34547L3.52762 3.94644C3.4355 3.95285 3.34271 3.95931 3.24747 3.96498L3.27127 4.36427ZM3.55539 4.34547C3.75947 4.33127 3.94853 4.31816 4.13697 4.31509L4.13046 3.91515C3.92956 3.91842 3.7298 3.93237 3.52762 3.94644L3.55539 4.34547ZM4.13729 4.31509C4.31996 4.31183 4.42601 4.48369 4.36134 4.63202L4.72801 4.79187C4.91349 4.36642 4.59302 3.90689 4.13015 3.91515L4.13729 4.31509ZM4.3613 4.63212C4.32135 4.7239 4.25766 4.76868 4.1502 4.77564L4.17602 5.1748C4.42477 5.15871 4.62507 5.02836 4.72806 4.79177L4.3613 4.63212ZM4.15 4.77565C3.58023 4.81308 3.0104 4.84936 2.44049 4.88507L2.4655 5.28428C3.03567 5.24856 3.60592 5.21225 4.17622 5.17479L4.15 4.77565ZM2.44081 4.88505C2.31316 4.89284 2.196 4.7831 2.19417 4.67625L1.79423 4.68312C1.80046 5.04635 2.1398 5.30416 2.46518 5.2843L2.44081 4.88505ZM2.19416 4.67604C2.18268 4.04557 2.18383 3.41411 2.19302 2.78209L1.79307 2.77626C1.78382 3.41163 1.78265 4.04756 1.79423 4.68333L2.19416 4.67604ZM2.19302 2.78221C2.19454 2.68233 2.29268 2.58216 2.42404 2.58452L2.43123 2.18459C2.11417 2.17889 1.79847 2.42091 1.79307 2.77614L2.19302 2.78221ZM2.42405 2.58452C2.54435 2.58668 2.64325 2.67955 2.64982 2.80464L3.04927 2.78366C3.03163 2.44788 2.76049 2.1905 2.43122 2.18459L2.42405 2.58452ZM2.64983 2.80479C2.65491 2.90025 2.65388 2.99697 2.65255 3.1136L3.05253 3.11816C3.05383 3.00407 3.05515 2.89416 3.04926 2.78352L2.64983 2.80479ZM2.65255 3.1136C2.65194 3.16774 2.65127 3.22575 2.65127 3.28786H3.05127C3.05127 3.22836 3.05191 3.17253 3.05253 3.11816L2.65255 3.1136ZM2.99953 3.4221C3.03759 3.38006 3.07198 3.34148 3.10373 3.30585L2.80511 3.03972C2.77328 3.07544 2.73988 3.11291 2.70302 3.15362L2.99953 3.4221ZM3.10373 3.30585C3.16093 3.24168 3.20873 3.18807 3.25774 3.13663L2.96816 2.8607C2.91373 2.91781 2.86142 2.97654 2.80511 3.03972L3.10373 3.30585ZM3.25794 3.13643C4.37284 1.96306 5.7145 1.208 7.30808 0.935821L7.24074 0.541531C5.55587 0.829305 4.13783 1.62968 2.96796 2.8609L3.25794 3.13643ZM7.30809 0.935819C9.2119 0.610547 10.9678 1.00415 12.5539 2.09977L12.7813 1.77065C11.1097 0.616072 9.24823 0.198544 7.24073 0.541533L7.30809 0.935819ZM12.5539 2.09978C14.1165 3.17895 15.1112 4.65509 15.5119 6.51404L15.9029 6.42975C15.4806 4.47039 14.4268 2.90709 12.7812 1.77064L12.5539 2.09978ZM15.5119 6.51404C15.594 6.8949 15.6234 7.2908 15.6536 7.70145L16.0525 7.67213C16.0227 7.26641 15.9919 6.84243 15.9029 6.42974L15.5119 6.51404ZM15.6536 7.70145C15.6602 7.79098 15.6668 7.88121 15.6741 7.9713L16.0728 7.93933C16.0657 7.85079 16.0591 7.76189 16.0525 7.67213L15.6536 7.70145ZM15.6741 7.97152C15.6871 8.13135 15.5836 8.23081 15.4472 8.23174L15.45 8.63173C15.8174 8.62921 16.1047 8.33233 16.0728 7.93911L15.6741 7.97152ZM15.4472 8.23174C15.3749 8.23224 15.3218 8.20635 15.2848 8.16656C15.2466 8.12533 15.2147 8.05675 15.2128 7.95683L14.8129 7.96417C14.8163 8.14653 14.8763 8.31444 14.9917 8.43869C15.1083 8.56437 15.2705 8.63297 15.45 8.63173L15.4472 8.23174ZM15.2128 7.95685C15.1802 6.16897 14.5463 4.61781 13.3011 3.33411L13.014 3.61261C14.1873 4.82222 14.7821 6.27592 14.8129 7.96415L15.2128 7.95685ZM13.3011 3.33412C12.2129 2.21208 10.8818 1.51875 9.31535 1.35094L9.27274 1.74867C10.7392 1.90577 11.9857 2.55242 13.0139 3.6126L13.3011 3.33412ZM9.31537 1.35095C6.80011 1.08117 4.75592 1.99477 3.17234 3.93748L3.48239 4.19021C4.98589 2.34573 6.90027 1.49421 9.27271 1.74867L9.31537 1.35095ZM3.17228 3.93756C3.15089 3.96382 3.13338 3.99151 3.12014 4.0121L3.45661 4.22841C3.47293 4.20302 3.47797 4.19563 3.48244 4.19014L3.17228 3.93756ZM3.12014 4.0121C3.11187 4.02498 3.10345 4.03806 3.0933 4.05319L3.42545 4.27607C3.43803 4.25732 3.44835 4.24126 3.45661 4.2284L3.12014 4.0121ZM13.73 11.6363C13.6309 11.6422 13.5346 11.649 13.4413 11.6555L13.4692 12.0545C13.5628 12.048 13.6571 12.0414 13.7539 12.0356L13.73 11.6363ZM13.4413 11.6555C13.2394 11.6696 13.052 11.6827 12.8649 11.6861L12.8722 12.086C13.0714 12.0824 13.2691 12.0685 13.4692 12.0545L13.4413 11.6555ZM12.8652 11.6861C12.6742 11.6894 12.569 11.5095 12.6467 11.3548L12.2893 11.1753C12.073 11.6059 12.3885 12.0943 12.872 12.086L12.8652 11.6861ZM12.6467 11.3548C12.6882 11.2721 12.7493 11.2321 12.8489 11.2255L12.8225 10.8264C12.5913 10.8417 12.3987 10.9573 12.2893 11.1753L12.6467 11.3548ZM12.8489 11.2255L12.8609 11.2247L12.8344 10.8256L12.8225 10.8264L12.8489 11.2255ZM12.8609 11.2247C13.4225 11.1875 13.9824 11.1505 14.5434 11.1185L14.5206 10.7191C13.9575 10.7512 13.3957 10.7884 12.8344 10.8256L12.8609 11.2247ZM14.5433 11.1185C14.6956 11.1099 14.8117 11.2208 14.8127 11.366L15.2127 11.3634C15.2102 10.9844 14.8964 10.6978 14.5207 10.7191L14.5433 11.1185ZM14.8127 11.366C14.8167 11.97 14.8167 12.5735 14.8127 13.1775L15.2127 13.1801C15.2167 12.5744 15.2167 11.9692 15.2127 11.3634L14.8127 11.366ZM14.8127 13.1774C14.8117 13.3195 14.7106 13.4142 14.5856 13.4161L14.5914 13.816C14.9379 13.811 15.2102 13.5359 15.2127 13.1802L14.8127 13.1774ZM14.5851 13.4161C14.4615 13.4181 14.3549 13.3256 14.3504 13.1712L13.9505 13.1829C13.961 13.5389 14.2324 13.822 14.5918 13.816L14.5851 13.4161ZM14.3504 13.1714C14.3478 13.0804 14.3484 12.9892 14.3491 12.8824L13.9491 12.8796C13.9484 12.9851 13.9477 13.0835 13.9505 13.1827L14.3504 13.1714ZM14.3491 12.8824C14.3495 12.8298 14.3499 12.7737 14.3499 12.7133H13.9499C13.9499 12.7721 13.9495 12.8269 13.9491 12.8796L14.3491 12.8824ZM14.0012 12.5795C13.9705 12.6136 13.9422 12.6454 13.9158 12.675L14.2144 12.9412C14.2409 12.9114 14.2686 12.8803 14.2985 12.8471L14.0012 12.5795ZM13.9158 12.6751C13.8515 12.7472 13.7989 12.8062 13.7445 12.8629L14.0331 13.1398C14.0935 13.0769 14.1511 13.0122 14.2144 12.9412L13.9158 12.6751ZM13.7439 12.8635C12.6278 14.0364 11.2866 14.7915 9.69299 15.0642L9.76047 15.4585C11.4453 15.1701 12.8627 14.3698 14.0336 13.1392L13.7439 12.8635ZM9.69304 15.0642C7.78924 15.3895 6.03394 14.9959 4.44775 13.9008L4.22049 14.23C5.89199 15.384 7.7529 15.8015 9.76041 15.4585L9.69304 15.0642ZM4.44768 13.9008C2.88395 12.8221 1.88879 11.3466 1.48866 9.48778L1.09762 9.57196C1.51941 11.5314 2.57385 13.0942 4.22056 14.23L4.44768 13.9008ZM1.48869 9.48788C1.40678 9.10647 1.37744 8.71022 1.34732 8.29885L0.948391 8.32806C0.978154 8.73453 1.00889 9.15873 1.0976 9.57186L1.48869 9.48788ZM1.34732 8.29885C1.34045 8.20504 1.33353 8.11046 1.32592 8.01599L0.927214 8.04809C0.934683 8.14087 0.941504 8.23401 0.948391 8.32806L1.34732 8.29885ZM1.32593 8.01603C1.31442 7.87273 1.41524 7.77014 1.55265 7.76886L1.54892 7.36888C1.19295 7.3722 0.896066 7.6602 0.927211 8.04805L1.32593 8.01603ZM1.55265 7.76886C1.67839 7.76769 1.78436 7.8566 1.78654 8.02712L2.18651 8.02199C2.18178 7.65329 1.91656 7.36544 1.54892 7.36888L1.55265 7.76886ZM1.78654 8.02691C1.80195 9.33226 2.14863 10.5476 2.87731 11.6383L3.20991 11.4161C2.5276 10.3948 2.20108 9.25624 2.18651 8.02219L1.78654 8.02691ZM2.87728 11.6382C4.0206 13.3506 5.61915 14.4083 7.68253 14.6455L7.7282 14.2481C5.79151 14.0255 4.29375 13.0393 3.20994 11.4161L2.87728 11.6382ZM7.68253 14.6455C10.1973 14.9344 12.2435 14.0057 13.827 12.0643L13.5171 11.8115C12.0124 13.6562 10.0965 14.5202 7.7282 14.2481L7.68253 14.6455ZM13.8268 12.0646C13.848 12.0387 13.8653 12.0119 13.879 11.991L13.5445 11.7717C13.5279 11.797 13.5225 11.8048 13.5173 11.8112L13.8268 12.0646ZM13.879 11.991C13.8876 11.978 13.8964 11.9645 13.9072 11.9487L13.5767 11.7233C13.5636 11.7425 13.553 11.7587 13.5445 11.7717L13.879 11.991Z" fill="white"/>
</svg>
