<svg viewBox="0 0 28 28" fill="none" xmlns="http://www.w3.org/2000/svg">
<path fill-rule="evenodd" clip-rule="evenodd" d="M14 28C21.732 28 28 21.732 28 14C28 6.26801 21.732 0 14 0C6.26801 0 0 6.26801 0 14C0 21.732 6.26801 28 14 28Z" fill="#181925" fill-opacity="0.5"/>
<path d="M20.0488 11.8782C20.0488 11.8782 19.5939 17.521 19.33 19.8979C19.2043 21.0332 18.503 21.6984 17.3544 21.7193C15.1685 21.7587 12.9801 21.7612 10.795 21.7152C9.6899 21.6925 9.00036 21.0189 8.8772 19.9038C8.61161 17.5059 8.15918 11.8782 8.15918 11.8782" stroke="white" stroke-width="1.5" stroke-linecap="round" stroke-linejoin="round"/>
<path d="M21.2079 9.17331H7" stroke="white" stroke-width="1.5" stroke-linecap="round" stroke-linejoin="round"/>
<path d="M18.47 9.17319C17.8123 9.17319 17.2459 8.7082 17.1169 8.0639L16.9133 7.0451C16.7877 6.57508 16.362 6.25 15.8769 6.25H12.3304C11.8453 6.25 11.4197 6.57508 11.294 7.0451L11.0904 8.0639C10.9614 8.7082 10.395 9.17319 9.7373 9.17319" stroke="white" stroke-width="1.5" stroke-linecap="round" stroke-linejoin="round"/>
</svg>
