<svg viewBox="0 0 32 32" fill="none" xmlns="http://www.w3.org/2000/svg">
<circle cx="16" cy="16" r="16" fill="#3B3C46"/>
<path fill-rule="evenodd" clip-rule="evenodd" d="M22.3642 22.3629C19.6137 25.1137 15.5408 25.708 12.2078 24.1666C11.7157 23.9685 11.3123 23.8084 10.9288 23.8084C9.86064 23.8147 8.53105 24.8505 7.84002 24.1603C7.149 23.4692 8.18554 22.1385 8.18554 21.0639C8.18554 20.6804 8.03177 20.2841 7.83369 19.7911C6.29155 16.4587 6.8867 12.3844 9.63723 9.63449C13.1484 6.12199 18.853 6.12199 22.3642 9.63358C25.8818 13.1515 25.8754 18.8513 22.3642 22.3629Z" stroke="white" stroke-width="1.5" stroke-linecap="round" stroke-linejoin="round"/>
<path d="M19.5454 16.3716H19.5535" stroke="white" stroke-width="2" stroke-linecap="round" stroke-linejoin="round"/>
<path d="M15.9373 16.3716H15.9454" stroke="white" stroke-width="2" stroke-linecap="round" stroke-linejoin="round"/>
<path d="M12.3293 16.3716H12.3374" stroke="white" stroke-width="2" stroke-linecap="round" stroke-linejoin="round"/>
</svg>
