<svg  viewBox="0 0 32 32" fill="none" xmlns="http://www.w3.org/2000/svg">
<circle cx="16" cy="16" r="16" fill="#3B3C46"/>
<mask id="path-2-outside-1_30_386" maskUnits="userSpaceOnUse" x="4.16687" y="4.16675" width="23" height="23" fill="black">
<rect fill="white" x="4.16687" y="4.16675" width="23" height="23"/>
<path fill-rule="evenodd" clip-rule="evenodd" d="M5.16687 15.3658V16.6349C5.17671 16.7141 5.18677 16.7931 5.19684 16.8721C5.21334 17.0016 5.22983 17.1311 5.2453 17.2608C5.49224 19.3736 6.29453 21.2543 7.649 22.8886C9.23027 24.7937 11.2371 26.03 13.6567 26.5711C13.9944 26.6468 14.3396 26.6894 14.6848 26.7321C14.8499 26.7525 15.0149 26.7729 15.1791 26.7969C15.2209 26.8029 15.2623 26.8119 15.3035 26.8208C15.3233 26.8251 15.3432 26.8295 15.363 26.8334H16.6321C16.6833 26.8269 16.7344 26.8203 16.7855 26.8138C16.9427 26.7936 17.0999 26.7734 17.2574 26.755C19.3713 26.5075 21.253 25.7047 22.8867 24.3481C24.7928 22.7652 26.0249 20.7567 26.5728 18.3365C26.8267 17.2142 26.8998 16.0764 26.7768 14.9333C26.4944 12.306 25.4107 10.0596 23.5141 8.21598C22.1258 6.86572 20.4841 5.9606 18.605 5.48897C17.5939 5.23513 16.5659 5.12755 15.5251 5.17949C13.2592 5.29236 11.2148 6.02737 9.41362 7.41208C7.77565 8.67065 6.59181 10.2721 5.85682 12.2016C5.54947 13.0071 5.3481 13.8406 5.24901 14.6981C5.23046 14.857 5.21056 15.016 5.19066 15.175C5.1827 15.2386 5.17474 15.3022 5.16687 15.3658ZM6.52081 15.9874C6.5314 10.766 10.7835 6.52074 16.0005 6.52286C21.2265 6.52498 25.4865 10.7914 25.4754 16.0133C25.4648 21.2347 21.2127 25.48 15.9957 25.4779C10.7697 25.4757 6.50968 21.2093 6.52081 15.9874ZM14.9084 20.7653C15.0051 20.7908 15.103 20.8166 15.2024 20.8434L15.203 20.8429V21.0742C15.2032 21.1287 15.2025 21.1833 15.2019 21.2379C15.2004 21.3651 15.1988 21.4924 15.208 21.6188C15.2349 21.9887 15.5796 22.2697 15.9956 22.2719C16.4115 22.2741 16.7594 21.9958 16.7937 21.6281C16.8016 21.5478 16.8006 21.467 16.7995 21.386C16.7991 21.3579 16.7987 21.3298 16.7987 21.3018V20.8527C16.9239 20.8163 17.046 20.7828 17.1657 20.7499C17.4176 20.6808 17.6582 20.6147 17.8911 20.5319C18.5013 20.3152 19.0259 19.9851 19.4206 19.5197C19.9871 18.8507 20.1513 18.1136 19.8297 17.3191C19.6217 16.8056 19.2401 16.398 18.7436 16.0723C17.9954 15.5812 17.1429 15.3564 16.2179 15.3057C16.2008 15.3047 16.1836 15.3038 16.1664 15.3029C15.8446 15.2853 15.5192 15.2676 15.2055 15.2091C14.6665 15.1081 14.1863 14.8964 13.8496 14.4954C13.6273 14.2307 13.5299 13.9366 13.6691 13.6147C13.7641 13.3943 13.9152 13.2049 14.1313 13.0587C14.8926 12.5436 15.7526 12.4312 16.6763 12.5829C17.1422 12.6593 17.5476 12.8432 17.9242 13.0958C18.2839 13.3375 18.7661 13.265 19.0303 12.9583C19.2894 12.6576 19.2345 12.255 18.891 12.0034C18.5456 11.7502 18.1678 11.5396 17.7374 11.413C17.5254 11.3508 17.3113 11.2941 17.0911 11.2358C16.9947 11.2102 16.8972 11.1844 16.7981 11.1577V10.9258C16.7979 10.8713 16.7986 10.8167 16.7992 10.7621C16.8008 10.6349 16.8023 10.5076 16.7931 10.3812C16.7663 10.0113 16.4215 9.73026 16.0056 9.72808C15.5896 9.7259 15.2417 10.0042 15.2074 10.3719C15.1995 10.4522 15.2006 10.533 15.2017 10.614C15.202 10.6421 15.2024 10.6702 15.2024 10.6982V11.1702C15.1637 11.1793 15.1284 11.188 15.0951 11.1962C15.0286 11.2126 14.9705 11.227 14.9114 11.2379C14.1888 11.3705 13.5523 11.6542 13.0002 12.0804C12.2158 12.686 11.7355 13.6693 12.179 14.7011C12.4862 15.4153 13.0839 15.9064 13.8465 16.2518C14.4835 16.5405 15.1668 16.6796 15.8825 16.6938C16.3516 16.7031 16.81 16.7516 17.2453 16.9137C17.6013 17.0468 17.9236 17.2225 18.1515 17.5041C18.4038 17.8167 18.4807 18.1452 18.2714 18.5048C18.1234 18.7601 17.9048 18.9549 17.6281 19.0946C16.7044 19.5606 15.7401 19.6075 14.7583 19.2578C14.5643 19.1888 14.3861 19.0821 14.2093 18.9762C14.1664 18.9505 14.1236 18.9249 14.0807 18.8998C13.7029 18.6788 13.2357 18.735 12.9709 19.0417C12.7111 19.3423 12.7654 19.745 13.1089 19.9966C13.4549 20.2498 13.8315 20.4615 14.2618 20.5881C14.4737 20.6506 14.6879 20.7072 14.9084 20.7653Z"/>
</mask>
<path fill-rule="evenodd" clip-rule="evenodd" d="M5.16687 15.3658V16.6349C5.17671 16.7141 5.18677 16.7931 5.19684 16.8721C5.21334 17.0016 5.22983 17.1311 5.2453 17.2608C5.49224 19.3736 6.29453 21.2543 7.649 22.8886C9.23027 24.7937 11.2371 26.03 13.6567 26.5711C13.9944 26.6468 14.3396 26.6894 14.6848 26.7321C14.8499 26.7525 15.0149 26.7729 15.1791 26.7969C15.2209 26.8029 15.2623 26.8119 15.3035 26.8208C15.3233 26.8251 15.3432 26.8295 15.363 26.8334H16.6321C16.6833 26.8269 16.7344 26.8203 16.7855 26.8138C16.9427 26.7936 17.0999 26.7734 17.2574 26.755C19.3713 26.5075 21.253 25.7047 22.8867 24.3481C24.7928 22.7652 26.0249 20.7567 26.5728 18.3365C26.8267 17.2142 26.8998 16.0764 26.7768 14.9333C26.4944 12.306 25.4107 10.0596 23.5141 8.21598C22.1258 6.86572 20.4841 5.9606 18.605 5.48897C17.5939 5.23513 16.5659 5.12755 15.5251 5.17949C13.2592 5.29236 11.2148 6.02737 9.41362 7.41208C7.77565 8.67065 6.59181 10.2721 5.85682 12.2016C5.54947 13.0071 5.3481 13.8406 5.24901 14.6981C5.23046 14.857 5.21056 15.016 5.19066 15.175C5.1827 15.2386 5.17474 15.3022 5.16687 15.3658ZM6.52081 15.9874C6.5314 10.766 10.7835 6.52074 16.0005 6.52286C21.2265 6.52498 25.4865 10.7914 25.4754 16.0133C25.4648 21.2347 21.2127 25.48 15.9957 25.4779C10.7697 25.4757 6.50968 21.2093 6.52081 15.9874ZM14.9084 20.7653C15.0051 20.7908 15.103 20.8166 15.2024 20.8434L15.203 20.8429V21.0742C15.2032 21.1287 15.2025 21.1833 15.2019 21.2379C15.2004 21.3651 15.1988 21.4924 15.208 21.6188C15.2349 21.9887 15.5796 22.2697 15.9956 22.2719C16.4115 22.2741 16.7594 21.9958 16.7937 21.6281C16.8016 21.5478 16.8006 21.467 16.7995 21.386C16.7991 21.3579 16.7987 21.3298 16.7987 21.3018V20.8527C16.9239 20.8163 17.046 20.7828 17.1657 20.7499C17.4176 20.6808 17.6582 20.6147 17.8911 20.5319C18.5013 20.3152 19.0259 19.9851 19.4206 19.5197C19.9871 18.8507 20.1513 18.1136 19.8297 17.3191C19.6217 16.8056 19.2401 16.398 18.7436 16.0723C17.9954 15.5812 17.1429 15.3564 16.2179 15.3057C16.2008 15.3047 16.1836 15.3038 16.1664 15.3029C15.8446 15.2853 15.5192 15.2676 15.2055 15.2091C14.6665 15.1081 14.1863 14.8964 13.8496 14.4954C13.6273 14.2307 13.5299 13.9366 13.6691 13.6147C13.7641 13.3943 13.9152 13.2049 14.1313 13.0587C14.8926 12.5436 15.7526 12.4312 16.6763 12.5829C17.1422 12.6593 17.5476 12.8432 17.9242 13.0958C18.2839 13.3375 18.7661 13.265 19.0303 12.9583C19.2894 12.6576 19.2345 12.255 18.891 12.0034C18.5456 11.7502 18.1678 11.5396 17.7374 11.413C17.5254 11.3508 17.3113 11.2941 17.0911 11.2358C16.9947 11.2102 16.8972 11.1844 16.7981 11.1577V10.9258C16.7979 10.8713 16.7986 10.8167 16.7992 10.7621C16.8008 10.6349 16.8023 10.5076 16.7931 10.3812C16.7663 10.0113 16.4215 9.73026 16.0056 9.72808C15.5896 9.7259 15.2417 10.0042 15.2074 10.3719C15.1995 10.4522 15.2006 10.533 15.2017 10.614C15.202 10.6421 15.2024 10.6702 15.2024 10.6982V11.1702C15.1637 11.1793 15.1284 11.188 15.0951 11.1962C15.0286 11.2126 14.9705 11.227 14.9114 11.2379C14.1888 11.3705 13.5523 11.6542 13.0002 12.0804C12.2158 12.686 11.7355 13.6693 12.179 14.7011C12.4862 15.4153 13.0839 15.9064 13.8465 16.2518C14.4835 16.5405 15.1668 16.6796 15.8825 16.6938C16.3516 16.7031 16.81 16.7516 17.2453 16.9137C17.6013 17.0468 17.9236 17.2225 18.1515 17.5041C18.4038 17.8167 18.4807 18.1452 18.2714 18.5048C18.1234 18.7601 17.9048 18.9549 17.6281 19.0946C16.7044 19.5606 15.7401 19.6075 14.7583 19.2578C14.5643 19.1888 14.3861 19.0821 14.2093 18.9762C14.1664 18.9505 14.1236 18.9249 14.0807 18.8998C13.7029 18.6788 13.2357 18.735 12.9709 19.0417C12.7111 19.3423 12.7654 19.745 13.1089 19.9966C13.4549 20.2498 13.8315 20.4615 14.2618 20.5881C14.4737 20.6506 14.6879 20.7072 14.9084 20.7653Z" fill="white"/>
<path d="M5.16687 16.6349H5.0661L5.06763 16.6473L5.16687 16.6349ZM5.16687 15.3658L5.06687 15.3534V15.3658H5.16687ZM5.19684 16.8721L5.09764 16.8847L5.19684 16.8721ZM5.2453 17.2608L5.34462 17.2492L5.34459 17.2489L5.2453 17.2608ZM7.649 22.8886L7.572 22.9524L7.57205 22.9525L7.649 22.8886ZM13.6567 26.5711L13.6785 26.4735L13.6785 26.4735L13.6567 26.5711ZM14.6848 26.7321L14.6726 26.8313L14.6848 26.7321ZM15.1791 26.7969L15.1646 26.8958L15.1647 26.8958L15.1791 26.7969ZM15.3035 26.8208L15.2822 26.9186H15.2823L15.3035 26.8208ZM15.363 26.8334L15.3434 26.9315L15.3531 26.9334H15.363V26.8334ZM16.6321 26.8334V26.9342L16.6448 26.9326L16.6321 26.8334ZM16.7855 26.8138L16.7983 26.913H16.7983L16.7855 26.8138ZM17.2574 26.755L17.269 26.8543L17.2691 26.8543L17.2574 26.755ZM22.8867 24.3481L22.9506 24.425L22.9506 24.425L22.8867 24.3481ZM26.5728 18.3365L26.6704 18.3586L26.6704 18.3586L26.5728 18.3365ZM26.7768 14.9333L26.6774 14.944V14.944L26.7768 14.9333ZM23.5141 8.21598L23.4444 8.28766L23.4444 8.28768L23.5141 8.21598ZM18.605 5.48897L18.5807 5.58596L18.5807 5.58596L18.605 5.48897ZM15.5251 5.17949L15.5301 5.27936L15.5301 5.27936L15.5251 5.17949ZM9.41362 7.41208L9.47455 7.49137L9.47457 7.49135L9.41362 7.41208ZM5.85682 12.2016L5.95025 12.2372L5.95027 12.2372L5.85682 12.2016ZM5.24901 14.6981L5.34833 14.7096L5.34835 14.7095L5.24901 14.6981ZM5.19066 15.175L5.28989 15.1874H5.28989L5.19066 15.175ZM16.0005 6.52286L16.0004 6.62286L16.0005 6.52286ZM6.52081 15.9874L6.62081 15.9876V15.9876L6.52081 15.9874ZM25.4754 16.0133L25.3754 16.0131V16.0131L25.4754 16.0133ZM15.9957 25.4779L15.9957 25.3779L15.9957 25.4779ZM15.2024 20.8434L15.1764 20.94L15.228 20.9539L15.2683 20.9186L15.2024 20.8434ZM14.9084 20.7653L14.8829 20.862L14.9084 20.7653ZM15.203 20.8429H15.303V20.6223L15.1371 20.7677L15.203 20.8429ZM15.203 21.0742H15.103L15.103 21.0746L15.203 21.0742ZM15.2019 21.2379L15.1019 21.2367V21.2367L15.2019 21.2379ZM15.208 21.6188L15.3078 21.6115V21.6115L15.208 21.6188ZM16.7937 21.6281L16.6942 21.6183L16.6942 21.6188L16.7937 21.6281ZM16.7995 21.386L16.6995 21.3873V21.3873L16.7995 21.386ZM16.7987 20.8527L16.7708 20.7567L16.6987 20.7776V20.8527H16.7987ZM17.1657 20.7499L17.1392 20.6535L17.1657 20.7499ZM17.8911 20.5319L17.8576 20.4376L17.8576 20.4376L17.8911 20.5319ZM19.4206 19.5197L19.4969 19.5844L19.4969 19.5843L19.4206 19.5197ZM19.8297 17.3191L19.9224 17.2816L19.9224 17.2816L19.8297 17.3191ZM18.7436 16.0723L18.6887 16.1559L18.6887 16.1559L18.7436 16.0723ZM16.2179 15.3057L16.2234 15.2058H16.2234L16.2179 15.3057ZM16.1664 15.3029L16.1719 15.203L16.1664 15.3029ZM15.2055 15.2091L15.1871 15.3074L15.1872 15.3074L15.2055 15.2091ZM13.8496 14.4954L13.9262 14.4311L13.9262 14.4311L13.8496 14.4954ZM13.6691 13.6147L13.7609 13.6544L13.761 13.6543L13.6691 13.6147ZM14.1313 13.0587L14.0753 12.9759L14.0752 12.9759L14.1313 13.0587ZM16.6763 12.5829L16.6601 12.6816L16.6602 12.6816L16.6763 12.5829ZM17.9242 13.0958L17.98 13.0128L17.9799 13.0128L17.9242 13.0958ZM19.0303 12.9583L18.9545 12.893L18.9545 12.893L19.0303 12.9583ZM18.891 12.0034L18.8319 12.0841L18.8319 12.0841L18.891 12.0034ZM17.7374 11.413L17.7657 11.3171L17.7656 11.3171L17.7374 11.413ZM17.0911 11.2358L17.0655 11.3324L17.0911 11.2358ZM16.7981 11.1577H16.6981V11.2343L16.7721 11.2542L16.7981 11.1577ZM16.7981 10.9258H16.8981L16.8981 10.9254L16.7981 10.9258ZM16.7992 10.7621L16.8992 10.7633V10.7633L16.7992 10.7621ZM16.7931 10.3812L16.6934 10.3885V10.3885L16.7931 10.3812ZM15.2074 10.3719L15.3069 10.3817L15.307 10.3812L15.2074 10.3719ZM15.2017 10.614L15.3016 10.6127V10.6127L15.2017 10.614ZM15.2024 11.1702L15.2253 11.2676L15.3024 11.2495V11.1702H15.2024ZM15.0951 11.1962L15.1191 11.2933H15.1191L15.0951 11.1962ZM14.9114 11.2379L14.9294 11.3362L14.9295 11.3362L14.9114 11.2379ZM13.0002 12.0804L12.9391 12.0012L12.9391 12.0012L13.0002 12.0804ZM12.179 14.7011L12.0871 14.7406L12.0871 14.7406L12.179 14.7011ZM13.8465 16.2518L13.8878 16.1607L13.8878 16.1607L13.8465 16.2518ZM15.8825 16.6938L15.8805 16.7938H15.8806L15.8825 16.6938ZM17.2453 16.9137L17.2803 16.82L17.2802 16.82L17.2453 16.9137ZM18.1515 17.5041L18.2293 17.4413L18.2292 17.4411L18.1515 17.5041ZM18.2714 18.5048L18.185 18.4545L18.1849 18.4546L18.2714 18.5048ZM17.6281 19.0946L17.6732 19.1839L17.6732 19.1839L17.6281 19.0946ZM14.7583 19.2578L14.7919 19.1636L14.7918 19.1635L14.7583 19.2578ZM14.2093 18.9762L14.1579 19.0619L14.2093 18.9762ZM14.0807 18.8998L14.0302 18.9861L14.0303 18.9862L14.0807 18.8998ZM12.9709 19.0417L13.0465 19.1071L13.0466 19.1071L12.9709 19.0417ZM13.1089 19.9966L13.0498 20.0773L13.0499 20.0773L13.1089 19.9966ZM14.2618 20.5881L14.2902 20.4921L14.29 20.4921L14.2618 20.5881ZM5.26687 16.6349V15.3658H5.06687V16.6349H5.26687ZM5.29604 16.8595C5.28597 16.7804 5.27592 16.7015 5.26611 16.6226L5.06763 16.6473C5.07749 16.7266 5.08758 16.8057 5.09764 16.8847L5.29604 16.8595ZM5.34459 17.2489C5.32907 17.1188 5.31253 16.9889 5.29604 16.8595L5.09764 16.8847C5.11414 17.0143 5.13059 17.1434 5.146 17.2726L5.34459 17.2489ZM7.72599 22.8248C6.38391 21.2055 5.58933 19.3429 5.34462 17.2492L5.14597 17.2724C5.39515 19.4043 6.20515 21.3032 7.572 22.9524L7.72599 22.8248ZM13.6785 26.4735C11.2807 25.9373 9.29321 24.713 7.72594 22.8248L7.57205 22.9525C9.16732 24.8745 11.1934 26.1228 13.6348 26.6687L13.6785 26.4735ZM14.6971 26.6328C14.351 26.5901 14.0107 26.5479 13.6785 26.4735L13.6348 26.6687C13.9781 26.7456 14.3282 26.7888 14.6726 26.8313L14.6971 26.6328ZM15.1936 26.6979C15.0281 26.6737 14.8619 26.6532 14.6971 26.6328L14.6726 26.8313C14.8378 26.8517 15.0017 26.872 15.1646 26.8958L15.1936 26.6979ZM15.3247 26.7231C15.284 26.7143 15.2393 26.7046 15.1935 26.6979L15.1647 26.8958C15.2025 26.9013 15.2405 26.9095 15.2822 26.9186L15.3247 26.7231ZM15.3826 26.7354C15.3637 26.7316 15.3447 26.7275 15.3247 26.7231L15.2823 26.9186C15.302 26.9228 15.3226 26.9273 15.3434 26.9315L15.3826 26.7354ZM16.6321 26.7334H15.363V26.9334H16.6321V26.7334ZM16.7728 26.7146C16.7216 26.7212 16.6706 26.7277 16.6195 26.7342L16.6448 26.9326C16.6959 26.9261 16.7471 26.9195 16.7983 26.913L16.7728 26.7146ZM17.2458 26.6557C17.0876 26.6741 16.9298 26.6944 16.7728 26.7146L16.7983 26.913C16.9555 26.8928 17.1122 26.8726 17.269 26.8543L17.2458 26.6557ZM22.8228 24.2711C21.2041 25.6153 19.3405 26.4104 17.2458 26.6557L17.2691 26.8543C19.402 26.6046 21.3019 25.794 22.9506 24.425L22.8228 24.2711ZM26.4753 18.3145C25.9322 20.7132 24.712 22.7023 22.8228 24.2711L22.9506 24.425C24.8737 22.828 26.1176 20.8003 26.6704 18.3586L26.4753 18.3145ZM26.6774 14.944C26.7991 16.0757 26.7268 17.2024 26.4753 18.3145L26.6704 18.3586C26.9265 17.2259 27.0004 16.0771 26.8763 14.9227L26.6774 14.944ZM23.4444 8.28768C25.3241 10.1149 26.3974 12.3396 26.6774 14.944L26.8763 14.9227C26.5914 12.2724 25.4973 10.0043 23.5839 8.14427L23.4444 8.28768ZM18.5807 5.58596C20.443 6.05339 22.0689 6.94993 23.4444 8.28766L23.5839 8.14429C22.1826 6.78151 20.5252 5.86782 18.6294 5.39197L18.5807 5.58596ZM15.5301 5.27936C16.5606 5.22794 17.5787 5.33442 18.5807 5.58596L18.6294 5.39198C17.6091 5.13584 16.5712 5.02717 15.5202 5.07961L15.5301 5.27936ZM9.47457 7.49135C11.2592 6.11936 13.284 5.39125 15.5301 5.27936L15.5202 5.07961C13.2344 5.19347 11.1704 5.93539 9.35267 7.3328L9.47457 7.49135ZM5.95027 12.2372C6.67875 10.3248 7.85142 8.73854 9.47455 7.49137L9.35269 7.33278C7.69987 8.60277 6.50487 10.2194 5.76337 12.166L5.95027 12.2372ZM5.34835 14.7095C5.44651 13.8602 5.64593 13.0348 5.95025 12.2372L5.76339 12.1659C5.453 12.9794 5.2497 13.8211 5.14967 14.6866L5.34835 14.7095ZM5.28989 15.1874C5.30978 15.0285 5.32973 14.8691 5.34833 14.7096L5.14968 14.6865C5.13119 14.845 5.11134 15.0035 5.09144 15.1626L5.28989 15.1874ZM5.26611 15.3781C5.27398 15.3145 5.28193 15.251 5.28989 15.1874L5.09144 15.1626C5.08348 15.2262 5.07551 15.2898 5.06763 15.3535L5.26611 15.3781ZM16.0005 6.42286C10.7282 6.42071 6.43152 10.7107 6.42081 15.9872L6.62081 15.9876C6.63129 10.8213 10.8387 6.62076 16.0004 6.62286L16.0005 6.42286ZM25.5754 16.0136C25.5866 10.7363 21.2818 6.425 16.0005 6.42286L16.0004 6.62286C21.1713 6.62495 25.3864 10.8466 25.3754 16.0131L25.5754 16.0136ZM15.9957 25.5779C21.2679 25.58 25.5647 21.29 25.5754 16.0135L25.3754 16.0131C25.3649 21.1794 21.1575 25.38 15.9957 25.3779L15.9957 25.5779ZM6.42081 15.9872C6.40956 21.2645 10.7144 25.5757 15.9957 25.5779L15.9957 25.3779C10.8249 25.3758 6.60979 21.1541 6.62081 15.9876L6.42081 15.9872ZM15.2284 20.7469C15.1287 20.72 15.0306 20.6941 14.9339 20.6686L14.8829 20.862C14.9796 20.8875 15.0773 20.9133 15.1764 20.94L15.2284 20.7469ZM15.1371 20.7677L15.1365 20.7682L15.2683 20.9186L15.2689 20.9181L15.1371 20.7677ZM15.303 21.0742V20.8429H15.103V21.0742H15.303ZM15.3019 21.2391C15.3025 21.1846 15.3032 21.1293 15.303 21.0739L15.103 21.0746C15.1032 21.1282 15.1026 21.182 15.1019 21.2367L15.3019 21.2391ZM15.3078 21.6115C15.2989 21.49 15.3003 21.3671 15.3019 21.2391L15.1019 21.2367C15.1004 21.3632 15.0987 21.4947 15.1083 21.626L15.3078 21.6115ZM15.9961 22.1719C15.6207 22.1699 15.33 21.9186 15.3078 21.6115L15.1083 21.626C15.1397 22.0589 15.5385 22.3695 15.995 22.3719L15.9961 22.1719ZM16.6942 21.6188C16.6656 21.9247 16.3712 22.1739 15.9961 22.1719L15.995 22.3719C16.4519 22.3743 16.8532 22.0669 16.8933 21.6374L16.6942 21.6188ZM16.6995 21.3873C16.7006 21.4692 16.7015 21.5445 16.6942 21.6183L16.8933 21.6378C16.9018 21.5511 16.9005 21.4647 16.8995 21.3847L16.6995 21.3873ZM16.6987 21.3018C16.6987 21.3306 16.6991 21.3594 16.6995 21.3873L16.8995 21.3847C16.8991 21.3565 16.8987 21.3291 16.8987 21.3018H16.6987ZM16.6987 20.8527V21.3018H16.8987V20.8527H16.6987ZM17.1392 20.6535C17.0197 20.6863 16.8968 20.72 16.7708 20.7567L16.8267 20.9487C16.9509 20.9126 17.0724 20.8792 17.1922 20.8464L17.1392 20.6535ZM17.8576 20.4376C17.6288 20.519 17.3918 20.5842 17.1392 20.6535L17.1922 20.8464C17.4434 20.7774 17.6876 20.7104 17.9246 20.6261L17.8576 20.4376ZM19.3443 19.455C18.9632 19.9044 18.4547 20.2257 17.8576 20.4376L17.9245 20.6261C18.5479 20.4048 19.0886 20.0658 19.4969 19.5844L19.3443 19.455ZM19.737 17.3566C20.0428 18.1119 19.8902 18.8103 19.3443 19.4551L19.4969 19.5843C20.0839 18.8911 20.2599 18.1152 19.9224 17.2816L19.737 17.3566ZM18.6887 16.1559C19.173 16.4736 19.5385 16.8667 19.737 17.3566L19.9224 17.2816C19.7049 16.7446 19.3072 16.3225 18.7984 15.9887L18.6887 16.1559ZM16.2124 15.4055C17.1245 15.4556 17.9588 15.6768 18.6887 16.1559L18.7985 15.9887C18.032 15.4856 17.1612 15.2573 16.2234 15.2058L16.2124 15.4055ZM16.161 15.4027C16.1782 15.4036 16.1953 15.4046 16.2124 15.4055L16.2234 15.2058C16.2062 15.2049 16.189 15.2039 16.1719 15.203L16.161 15.4027ZM15.1872 15.3074C15.5083 15.3673 15.8404 15.3853 16.161 15.4027L16.1719 15.203C15.8489 15.1854 15.53 15.1679 15.2239 15.1108L15.1872 15.3074ZM13.773 14.5597C14.1297 14.9846 14.6347 15.2039 15.1871 15.3074L15.2239 15.1108C14.6983 15.0124 14.2428 14.8083 13.9262 14.4311L13.773 14.5597ZM13.5773 13.575C13.418 13.9433 13.5357 14.2772 13.7731 14.5597L13.9262 14.4311C13.7188 14.1842 13.6417 13.93 13.7609 13.6544L13.5773 13.575ZM14.0752 12.9759C13.843 13.133 13.6796 13.3375 13.5773 13.5752L13.761 13.6543C13.8485 13.451 13.9874 13.2768 14.1873 13.1415L14.0752 12.9759ZM16.6925 12.4842C15.7503 12.3295 14.8628 12.4431 14.0753 12.9759L14.1873 13.1415C14.9224 12.6442 15.7549 12.5329 16.6601 12.6816L16.6925 12.4842ZM17.9799 13.0128C17.594 12.7539 17.1754 12.5634 16.6925 12.4842L16.6602 12.6816C17.1091 12.7552 17.5011 12.9324 17.8685 13.1788L17.9799 13.0128ZM18.9545 12.893C18.7236 13.161 18.2981 13.2265 17.98 13.0128L17.8684 13.1788C18.2698 13.4485 18.8085 13.3689 19.106 13.0236L18.9545 12.893ZM18.8319 12.0841C18.985 12.1962 19.0677 12.3371 19.0876 12.4766C19.1075 12.6156 19.0667 12.7629 18.9545 12.893L19.106 13.0236C19.253 12.8531 19.3143 12.6487 19.2856 12.4483C19.257 12.2484 19.1405 12.0622 18.9501 11.9227L18.8319 12.0841ZM17.7092 11.509C18.1257 11.6315 18.4932 11.8358 18.8319 12.0841L18.9501 11.9228C18.598 11.6647 18.2098 11.4478 17.7657 11.3171L17.7092 11.509ZM17.0655 11.3324C17.2859 11.3908 17.4988 11.4472 17.7093 11.509L17.7656 11.3171C17.5521 11.2544 17.3367 11.1974 17.1167 11.1391L17.0655 11.3324ZM16.7721 11.2542C16.8714 11.281 16.9692 11.3069 17.0655 11.3324L17.1167 11.1391C17.0203 11.1136 16.923 11.0878 16.8242 11.0611L16.7721 11.2542ZM16.6981 10.9258V11.1577H16.8981V10.9258H16.6981ZM16.6992 10.7609C16.6986 10.8154 16.6979 10.8707 16.6981 10.9261L16.8981 10.9254C16.8979 10.8718 16.8986 10.818 16.8992 10.7633L16.6992 10.7609ZM16.6934 10.3885C16.7022 10.51 16.7008 10.6329 16.6992 10.7609L16.8992 10.7633C16.9008 10.6368 16.9024 10.5053 16.8929 10.374L16.6934 10.3885ZM16.005 9.82808C16.3804 9.83005 16.6711 10.0814 16.6934 10.3885L16.8929 10.374C16.8614 9.9411 16.4626 9.63048 16.0061 9.62808L16.005 9.82808ZM15.307 10.3812C15.3355 10.0753 15.63 9.82611 16.005 9.82808L16.0061 9.62808C15.5493 9.62569 15.1479 9.93306 15.1078 10.3626L15.307 10.3812ZM15.3016 10.6127C15.3006 10.5307 15.2997 10.4555 15.3069 10.3817L15.1079 10.3622C15.0993 10.4489 15.1006 10.5353 15.1017 10.6153L15.3016 10.6127ZM15.3024 10.6982C15.3024 10.6694 15.302 10.6406 15.3016 10.6127L15.1017 10.6153C15.102 10.6435 15.1024 10.6709 15.1024 10.6982H15.3024ZM15.3024 11.1702V10.6982H15.1024V11.1702H15.3024ZM15.1191 11.2933C15.1524 11.2851 15.1872 11.2765 15.2253 11.2676L15.1795 11.0729C15.1402 11.0821 15.1044 11.0909 15.0712 11.0991L15.1191 11.2933ZM14.9295 11.3362C14.9921 11.3247 15.0531 11.3096 15.1191 11.2933L15.0712 11.0991C15.004 11.1157 14.9489 11.1293 14.8932 11.1395L14.9295 11.3362ZM13.0613 12.1595C13.6005 11.7434 14.222 11.466 14.9294 11.3362L14.8933 11.1395C14.1555 11.2749 13.5042 11.565 12.9391 12.0012L13.0613 12.1595ZM12.2708 14.6616C11.8512 13.6852 12.2999 12.7474 13.0613 12.1595L12.9391 12.0012C12.1317 12.6246 11.6198 13.6533 12.0871 14.7406L12.2708 14.6616ZM13.8878 16.1607C13.1393 15.8217 12.565 15.3455 12.2708 14.6616L12.0871 14.7406C12.4074 15.4852 13.0286 15.9911 13.8052 16.3429L13.8878 16.1607ZM15.8845 16.5938C15.1806 16.5799 14.511 16.4431 13.8878 16.1607L13.8052 16.3429C14.4561 16.6378 15.1529 16.7793 15.8805 16.7938L15.8845 16.5938ZM17.2802 16.82C16.8297 16.6523 16.3585 16.6032 15.8845 16.5938L15.8806 16.7938C16.3447 16.8029 16.7903 16.851 17.2104 17.0074L17.2802 16.82ZM18.2292 17.4411C17.985 17.1395 17.6434 16.9558 17.2803 16.82L17.2103 17.0073C17.5592 17.1378 17.8621 17.3056 18.0738 17.567L18.2292 17.4411ZM18.3579 18.5551C18.4725 18.358 18.5118 18.1633 18.4835 17.9722C18.4555 17.783 18.3627 17.6065 18.2293 17.4413L18.0737 17.5669C18.1927 17.7143 18.2644 17.8584 18.2856 18.0015C18.3065 18.1426 18.2796 18.2919 18.185 18.4545L18.3579 18.5551ZM17.6732 19.1839C17.9649 19.0366 18.199 18.8292 18.3579 18.5549L18.1849 18.4546C18.0478 18.6911 17.8447 18.8733 17.5831 19.0054L17.6732 19.1839ZM14.7248 19.352C15.7313 19.7105 16.7241 19.6627 17.6732 19.1839L17.5831 19.0053C16.6848 19.4585 15.749 19.5045 14.7919 19.1636L14.7248 19.352ZM14.1579 19.0619C14.3332 19.1669 14.5199 19.2792 14.7249 19.352L14.7918 19.1635C14.6087 19.0985 14.4389 18.9972 14.2606 18.8904L14.1579 19.0619ZM14.0303 18.9862C14.0726 19.0109 14.1149 19.0362 14.1579 19.0619L14.2606 18.8904C14.2179 18.8647 14.1746 18.8388 14.1311 18.8134L14.0303 18.9862ZM13.0466 19.1071C13.2755 18.842 13.6879 18.7859 14.0302 18.9861L14.1312 18.8135C13.7178 18.5717 13.1959 18.6281 12.8952 18.9763L13.0466 19.1071ZM13.168 19.9159C13.0149 19.8038 12.9324 19.663 12.9127 19.5235C12.893 19.3846 12.934 19.2373 13.0465 19.1071L12.8952 18.9763C12.7479 19.1468 12.6862 19.3511 12.7146 19.5516C12.743 19.7515 12.8594 19.9378 13.0498 20.0773L13.168 19.9159ZM14.29 20.4921C13.8738 20.3697 13.5075 20.1643 13.168 19.9159L13.0499 20.0773C13.4023 20.3352 13.7892 20.5533 14.2336 20.684L14.29 20.4921ZM14.9339 20.6686C14.7132 20.6104 14.5004 20.5542 14.2902 20.4921L14.2335 20.684C14.447 20.747 14.6627 20.8039 14.8829 20.862L14.9339 20.6686Z" fill="white" mask="url(#path-2-outside-1_30_386)"/>
</svg>
