<svg viewBox="0 0 20 20" fill="none" xmlns="http://www.w3.org/2000/svg">
<path d="M9.82878 20C9.62292 19.998 9.42217 19.9332 9.25154 19.8137C9.08092 19.6942 8.94795 19.5253 8.8692 19.3279C8.79045 19.1306 8.76941 18.9136 8.80868 18.704C8.84795 18.4943 8.94581 18.3013 9.09007 18.1489L16.5414 10.4039C17.4116 9.50103 17.9005 8.27651 17.9005 6.9997C17.9005 5.72288 17.4116 4.49836 16.5414 3.59552C15.6711 2.69268 14.4907 2.18546 13.26 2.18546C12.0293 2.18546 10.8489 2.69268 9.97866 3.59552L3.01985 10.8148C2.4302 11.427 2.09913 12.2572 2.09947 13.1226C2.0998 13.9881 2.43151 14.8179 3.02163 15.4296C3.61175 16.0413 4.41193 16.3848 5.24614 16.3845C6.08036 16.3841 6.88027 16.04 7.46992 15.4278L14.0041 8.64903C14.3041 8.33974 14.4734 7.91947 14.4747 7.48067C14.4761 7.04187 14.3093 6.6205 14.0112 6.30924C13.7131 5.99798 13.308 5.82234 12.885 5.82095C12.462 5.81956 12.0559 5.99254 11.7558 6.30183L6.50639 11.7589C6.31 11.9626 6.04364 12.0771 5.7659 12.0771C5.48816 12.0771 5.2218 11.9626 5.02541 11.7589C4.82902 11.5551 4.71869 11.2788 4.71869 10.9907C4.71869 10.7025 4.82902 10.4262 5.02541 10.2225L10.2749 4.77652C10.9715 4.08663 11.9007 3.70696 12.8637 3.71873C13.8267 3.73051 14.7471 4.13279 15.4278 4.83953C16.1086 5.54626 16.4957 6.50132 16.5064 7.5004C16.5171 8.49947 16.1505 9.46321 15.485 10.1854L8.95089 16.9642C7.96658 17.9839 6.63212 18.5561 5.2411 18.5551C3.85007 18.5541 2.51641 17.9798 1.53351 16.9586C0.550619 15.9375 -0.0010025 14.5531 1.36778e-06 13.11C0.00100524 11.6669 0.554552 10.2833 1.53887 9.2636L8.49768 2.04429C9.76262 0.733967 11.4775 -0.00138665 13.2651 1.96307e-06C15.0526 0.00139057 16.7664 0.739408 18.0295 2.0517C19.2925 3.36399 20.0013 5.14306 20 6.99753C19.9987 8.852 19.2873 10.63 18.0223 11.9403L10.571 19.6742C10.374 19.879 10.1077 19.9959 9.82878 20Z" fill="black"/>
</svg>
