<svg viewBox="0 0 61 61" fill="none" xmlns="http://www.w3.org/2000/svg">
<path d="M52.0668 8.93325C63.9778 20.8442 63.9778 40.1558 52.0668 52.0668C40.1558 63.9778 20.8442 63.9778 8.93325 52.0668C-2.97775 40.1558 -2.97775 20.8442 8.93325 8.93325C20.8442 -2.97775 40.1558 -2.97775 52.0668 8.93325ZM48.8585 12.1415C38.7194 2.00243 22.2806 2.00243 12.1415 12.1415C2.00243 22.2806 2.00243 38.7194 12.1415 48.8585C22.2806 58.9976 38.7194 58.9976 48.8585 48.8585C58.9976 38.7194 58.9976 22.2806 48.8585 12.1415ZM21.1366 17.6316L43.4021 39.9256C44.3613 40.886 44.3603 42.4421 43.3999 43.4012C42.4491 44.3508 40.9144 44.3593 39.9532 43.4275L39.9242 43.399L17.6588 21.105C16.6996 20.1447 16.7006 18.5886 17.661 17.6295C18.6118 16.6799 20.1464 16.6713 21.1077 17.6032L21.1366 17.6316Z" fill="white"/>
</svg>
