<svg viewBox="0 0 20 20" fill="none" xmlns="http://www.w3.org/2000/svg">
<path d="M5.75 9.16667C5.75 8.77218 6.08579 8.45238 6.5 8.45238H13.5C13.9142 8.45238 14.25 8.77218 14.25 9.16667C14.25 9.56116 13.9142 9.88095 13.5 9.88095H6.5C6.08579 9.88095 5.75 9.56116 5.75 9.16667Z" fill="black"/>
<path d="M6.5 12.0238C6.08579 12.0238 5.75 12.3436 5.75 12.7381C5.75 13.1326 6.08579 13.4524 6.5 13.4524H12.5C12.9142 13.4524 13.25 13.1326 13.25 12.7381C13.25 12.3436 12.9142 12.0238 12.5 12.0238H6.5Z" fill="black"/>
<path fill-rule="evenodd" clip-rule="evenodd" d="M7.5 2.5C7.91421 2.5 8.25 2.8198 8.25 3.21429V4.16667H11.75V3.21429C11.75 2.8198 12.0858 2.5 12.5 2.5C12.9142 2.5 13.25 2.8198 13.25 3.21429V4.16667H14.5C16.1569 4.16667 17.5 5.44585 17.5 7.02381V14.6429C17.5 16.2208 16.1569 17.5 14.5 17.5H5.5C3.84315 17.5 2.5 16.2208 2.5 14.6429V7.02381C2.5 5.44585 3.84315 4.16667 5.5 4.16667H6.75V3.21429C6.75 2.8198 7.08579 2.5 7.5 2.5ZM11.75 5.59524V6.07143C11.75 6.46592 12.0858 6.78571 12.5 6.78571C12.9142 6.78571 13.25 6.46592 13.25 6.07143V5.59524H14.5C15.3284 5.59524 16 6.23483 16 7.02381V14.6429C16 15.4318 15.3284 16.0714 14.5 16.0714H5.5C4.67157 16.0714 4 15.4318 4 14.6429V7.02381C4 6.23483 4.67157 5.59524 5.5 5.59524H6.75V6.07143C6.75 6.46592 7.08579 6.78571 7.5 6.78571C7.91421 6.78571 8.25 6.46592 8.25 6.07143V5.59524H11.75Z" fill="black"/>
</svg>
