<svg xmlns="http://www.w3.org/2000/svg" viewBox="0 0 60 60" fill="none">
    <path fill-rule="evenodd" clip-rule="evenodd" d="M30 60C46.5686 60 60 46.5684 60 30C60 13.4316 46.5686 0 30 0C13.4314 0 0 13.4316 0 30C0 46.5684 13.4314 60 30 60ZM54 30C54 43.2549 43.2549 54 30 54C16.7451 54 6 43.2549 6 30C6 16.7451 16.7451 6 30 6C43.2549 6 54 16.7451 54 30ZM56 30C56 44.3594 44.3594 56 30 56C15.6406 56 4 44.3594 4 30C4 15.6406 15.6406 4 30 4C44.3594 4 56 15.6406 56 30Z" fill="white"/>
    <path fill-rule="evenodd" clip-rule="evenodd" d="M44.8948 28.4049L44.7553 26.6186C44.6302 25.0121 43.9499 23.5038 42.8365 22.3642C41.7231 21.2246 40.2494 20.5283 38.6797 20.4001L36.9338 20.2574H36.9233C36.6993 20.2385 36.4885 20.1414 36.3262 19.9823C36.1638 19.8232 36.0599 19.6118 36.0318 19.3836L35.9479 18.7009C35.8901 18.2311 35.6668 17.7991 35.3198 17.4859C34.9729 17.1727 34.5262 17 34.0636 17H25.9379C25.4753 17 25.0286 17.1727 24.6816 17.4859C24.3347 17.7991 24.1114 18.2311 24.0536 18.7009L23.9697 19.3836C23.9415 19.6123 23.8372 19.824 23.6742 19.9831C23.5112 20.1422 23.2996 20.2389 23.075 20.2568H23.0682L21.3224 20.3996C19.753 20.528 18.2796 21.2242 17.1665 22.3636C16.0533 23.503 15.3731 25.0109 15.2478 26.617L15.0952 28.5707C14.9683 30.1948 14.9683 32.8532 15.0952 34.4774L15.2478 36.4316C15.3733 38.0374 16.0535 39.545 17.1666 40.6842C18.2796 41.8233 19.7527 42.5195 21.3218 42.6479L23.0677 42.7891C24.7926 42.9302 28.2869 43.0005 30.0165 43C31.7351 43 35.2194 42.9291 36.9338 42.7891L38.6797 42.6463C40.2486 42.5179 41.7215 41.8219 42.8346 40.683C43.9476 39.544 44.628 38.0367 44.7537 36.431L44.8948 34.6448C45.0395 33.661 45.0306 30.1632 44.8948 28.4049ZM23.3569 31.6225C23.3569 33.4255 24.0568 35.1546 25.3025 36.4295C26.5482 37.7044 28.2377 38.4207 29.9995 38.4207C31.7612 38.4207 33.4507 37.7044 34.6964 36.4295C35.9421 35.1546 36.642 33.4255 36.642 31.6225C36.642 29.8195 35.9421 28.0904 34.6964 26.8155C33.4507 25.5406 31.7612 24.8244 29.9995 24.8244C28.2377 24.8244 26.5482 25.5406 25.3025 26.8155C24.0568 28.0904 23.3569 29.8195 23.3569 31.6225ZM39.9319 25.4173C39.7176 25.198 39.5972 24.9005 39.5972 24.5903C39.5972 24.2801 39.7176 23.9827 39.9319 23.7633C40.1462 23.544 40.4368 23.4208 40.7399 23.4208C41.043 23.4208 41.3337 23.544 41.548 23.7633C41.7623 23.9827 41.8827 24.2801 41.8827 24.5903C41.8827 24.9005 41.7623 25.198 41.548 25.4173C41.3337 25.6366 41.043 25.7598 40.7399 25.7598C40.4368 25.7598 40.1462 25.6366 39.9319 25.4173Z" fill="black"/>
  </svg>