<svg xmlns="http://www.w3.org/2000/svg" viewBox="0 0 20 20" fill="none">
    <path fill-rule="evenodd" clip-rule="evenodd" d="M5.14286 6.43443C3.93572 6.43443 2.95714 7.42527 2.95714 8.64754V13.8115C2.95714 15.0337 3.93572 16.0246 5.14286 16.0246H14.8571C16.0643 16.0246 17.0429 15.0337 17.0429 13.8115V8.64754C17.0429 7.42527 16.0643 6.43443 14.8571 6.43443H10C9.59762 6.43443 9.27143 6.10414 9.27143 5.69672C9.27143 5.2893 9.59762 4.95902 10 4.95902H14.8571C16.869 4.95902 18.5 6.61042 18.5 8.64754V13.8115C18.5 15.8486 16.869 17.5 14.8571 17.5H5.14286C3.13096 17.5 1.5 15.8486 1.5 13.8115V8.64754C1.5 6.61042 3.13096 4.95902 5.14286 4.95902H6.11429C6.51666 4.95902 6.84286 5.2893 6.84286 5.69672C6.84286 6.10414 6.51666 6.43443 6.11429 6.43443H5.14286Z" fill="white"/>
    <path d="M5.62857 3.2377C5.62857 2.83028 5.95476 2.5 6.35714 2.5H9.75714C10.1595 2.5 10.4857 2.83028 10.4857 3.2377C10.4857 3.64513 10.1595 3.97541 9.75714 3.97541H6.35714C5.95476 3.97541 5.62857 3.64513 5.62857 3.2377Z" fill="white"/>
    <path fill-rule="evenodd" clip-rule="evenodd" d="M10 12.7295C10.8048 12.7295 11.4571 12.0689 11.4571 11.2541C11.4571 10.4393 10.8048 9.77869 10 9.77869C9.19524 9.77869 8.54286 10.4393 8.54286 11.2541C8.54286 12.0689 9.19524 12.7295 10 12.7295ZM10 14.2049C11.6095 14.2049 12.9143 12.8838 12.9143 11.2541C12.9143 9.62441 11.6095 8.30328 10 8.30328C8.39048 8.30328 7.08571 9.62441 7.08571 11.2541C7.08571 12.8838 8.39048 14.2049 10 14.2049Z" fill="white"/>
  </svg>