<svg xmlns="http://www.w3.org/2000/svg" viewBox="0 0 20 20" fill="none">
    <path d="M11.1111 17.7778V20H8.88889V17.7778H11.1111ZM1.11111 1.30222C1.28995 1.30214 1.46617 1.34523 1.62479 1.42783C1.78341 1.51043 1.91975 1.6301 2.02222 1.77667L7.33222 9.36333C7.46273 9.54999 7.53272 9.77224 7.53272 10C7.53272 10.2278 7.46273 10.45 7.33222 10.6367L2.02111 18.2233C1.88558 18.4168 1.69193 18.562 1.46827 18.6379C1.2446 18.7139 1.00256 18.7165 0.777273 18.6456C0.551986 18.5746 0.355177 18.4337 0.215409 18.2433C0.0756407 18.0529 0.000187326 17.8229 0 17.5867V2.41333C0 2.11865 0.117063 1.83603 0.325437 1.62766C0.533811 1.41929 0.816426 1.30222 1.11111 1.30222ZM18.8889 1.30222C19.1612 1.30229 19.424 1.40236 19.6274 1.58343C19.8308 1.7645 19.9606 2.01396 19.9922 2.28444L20 2.41333V17.5867C19.9996 17.8108 19.9315 18.0296 19.8046 18.2143C19.6776 18.399 19.4978 18.5409 19.2887 18.6216C19.0796 18.7022 18.851 18.7177 18.6329 18.6661C18.4148 18.6145 18.2174 18.4981 18.0667 18.3322L17.9778 18.2233L12.6678 10.6367C12.5522 10.4714 12.4838 10.2777 12.4699 10.0765C12.456 9.87528 12.4971 9.67406 12.5889 9.49444L12.6678 9.36333L17.9789 1.77667C18.0813 1.63025 18.2174 1.51068 18.3758 1.42809C18.5342 1.3455 18.7102 1.30232 18.8889 1.30222ZM11.1111 13.3333V15.5556H8.88889V13.3333H11.1111ZM1.77778 4.97667V15.3333L5.41556 10L1.77889 4.97667H1.77778ZM11.1111 8.88889V11.1111H8.88889V8.88889H11.1111ZM11.1111 4.44444V6.66667H8.88889V4.44444H11.1111ZM11.1111 0V2.22222H8.88889V0H11.1111Z" fill="white"/>
  </svg>