<svg viewBox="0 0 20 20" fill="none" xmlns="http://www.w3.org/2000/svg">
<path d="M17.2812 3.77509C17.5729 3.4834 17.5729 3.01047 17.2812 2.71877C16.9895 2.42708 16.5166 2.42708 16.2249 2.71877L10 8.94366L3.77513 2.71877C3.48344 2.42708 3.01051 2.42708 2.71881 2.71877C2.42712 3.01047 2.42712 3.4834 2.71881 3.77509L8.94368 9.99998L2.71877 16.2249C2.42708 16.5166 2.42708 16.9895 2.71877 17.2812C3.01047 17.5729 3.4834 17.5729 3.77509 17.2812L10 11.0563L16.2249 17.2812C16.5166 17.5729 16.9895 17.5729 17.2812 17.2812C17.5729 16.9895 17.5729 16.5166 17.2812 16.2249L11.0563 9.99998L17.2812 3.77509Z" fill="black"/>
</svg>
