<svg viewBox="0 0 16 16" fill="none" xmlns="http://www.w3.org/2000/svg">
<path d="M4.8889 15.2949C4.25758 15.6972 3.432 15.4891 3.04856 14.8341C2.86679 14.5231 2.81029 14.1517 2.89106 13.7987L3.70819 10.2247C3.71792 10.1831 3.71649 10.1396 3.70405 10.0988C3.6916 10.058 3.66861 10.0213 3.6375 9.99283L0.962782 7.60248C0.407212 7.10634 0.343086 6.23866 0.81803 5.66021C0.93104 5.5222 1.06959 5.40852 1.22568 5.32574C1.38176 5.24296 1.55229 5.19272 1.72742 5.17791L5.23765 4.88464C5.31415 4.8781 5.38259 4.82637 5.4139 4.74772L6.76636 1.35528C7.04818 0.648556 7.83194 0.311062 8.51576 0.607788C8.84189 0.749936 9.09992 1.01866 9.23352 1.35528L10.586 4.74753C10.6173 4.82637 10.6857 4.8783 10.7622 4.88464L14.2728 5.1781C15.009 5.23963 15.554 5.90751 15.4957 6.66577C15.4683 7.02762 15.3037 7.36404 15.0373 7.60287L12.3626 9.99321C12.3003 10.0488 12.2722 10.1388 12.2919 10.2249L13.109 13.7989C13.2781 14.5383 12.839 15.2833 12.1222 15.4616C11.9513 15.5041 11.7739 15.5113 11.6002 15.4827C11.4266 15.4541 11.2603 15.3903 11.111 15.295L8.1055 13.3797C8.07387 13.3593 8.03728 13.3485 7.99994 13.3485C7.96259 13.3485 7.926 13.3593 7.89437 13.3797L4.88871 15.295L4.8889 15.2949ZM8.69951 12.3995L11.705 14.3149C11.7511 14.3441 11.8055 14.3531 11.8571 14.3403C11.9697 14.3122 12.0427 14.1883 12.014 14.0622L11.1969 10.4882C11.1404 10.2423 11.1503 9.98532 11.2255 9.74477C11.3006 9.50422 11.4383 9.28922 11.6236 9.12284L14.2983 6.73269C14.342 6.69365 14.3696 6.63692 14.3745 6.575C14.3844 6.44635 14.2955 6.3375 14.1815 6.32808L10.6709 6.03443C10.4249 6.01325 10.1895 5.92258 9.99067 5.77247C9.79188 5.62236 9.63754 5.41868 9.54477 5.18406L8.19232 1.79181C8.17117 1.73731 8.12984 1.69361 8.07738 1.67027C7.97369 1.62527 7.85369 1.677 7.80794 1.79181L6.45529 5.18406C6.36253 5.41868 6.20819 5.62236 6.0094 5.77247C5.81061 5.92258 5.57515 6.01325 5.32915 6.03443L1.81873 6.32808C1.79165 6.3305 1.76531 6.33841 1.74123 6.35135C1.71716 6.36429 1.69583 6.382 1.67848 6.40346C1.64023 6.45084 1.62131 6.51155 1.62567 6.57291C1.63004 6.63426 1.65736 6.69151 1.70192 6.73269L4.37664 9.12303C4.56197 9.28941 4.69961 9.50441 4.7748 9.74496C4.84998 9.98551 4.85987 10.2425 4.8034 10.4884L3.98626 14.0622C3.97229 14.1228 3.98184 14.1867 4.01288 14.2403C4.0742 14.3447 4.19889 14.376 4.29526 14.3147L7.30093 12.3995C7.5108 12.2656 7.75304 12.1946 8.00022 12.1946C8.2474 12.1946 8.48964 12.2656 8.69951 12.3995Z" fill="black"/>
</svg>
