<svg xmlns="http://www.w3.org/2000/svg" viewBox="0 0 50 50" fill="none">
  <path d="M39.0802 42.0775L35.0364 41.1642H39.103C40.3754 41.161 41.4061 40.085 41.4084 38.7571V15.4668L44.4578 16.1544C45.7003 16.4402 46.4888 17.7186 46.2235 19.017L41.823 40.2346C41.7104 40.7698 41.4257 41.2493 41.0158 41.5941C40.6059 41.939 40.0951 42.1286 39.5676 42.1319C39.4038 42.1319 39.2404 42.1139 39.0802 42.0775Z" fill="#B0CEF9"/>
  <path d="M6.83886 39.8636C5.87278 39.8784 5.07756 39.075 5.05945 38.0673V14.8739C5.07756 13.8661 5.87318 13.0632 6.83886 13.0783H37.6783C38.6443 13.0632 39.4404 13.8665 39.4585 14.8751V38.0673C39.4411 39.0758 38.6447 39.8796 37.6783 39.8636H6.83886Z" fill="#DDEAFB"/>
  <path d="M12.924 26.4325C12.5133 26.416 12.1043 26.4948 11.7265 26.663C11.3488 26.8313 11.0119 27.0847 10.7403 27.405C10.5427 27.7673 10.4247 28.1704 10.3947 28.5856C10.3647 29.0007 10.4234 29.4176 10.5667 29.8064C10.5277 29.8372 10.4953 29.876 10.4716 29.9205C10.4478 29.965 10.4333 30.0142 10.4289 30.0648V30.2283C10.4403 30.2909 10.4466 30.3538 10.4486 30.4172C10.4643 30.5942 10.5462 30.7582 10.6757 30.8739C10.7085 30.9024 10.7359 30.9371 10.7564 30.9761C10.9683 31.4801 11.2556 31.9461 11.6076 32.357L11.7631 32.5255V32.9997C11.7631 33.1183 11.5835 33.2086 11.3584 33.3186L11.2552 33.3701C9.69626 33.451 8.42154 34.6963 8.24084 36.3144C8.27824 36.7142 9.89035 36.7473 11.8335 36.7486H14.8932C16.4836 36.7404 17.9666 36.6799 18.0202 36.3119V36.2314C17.9938 35.8402 17.7221 33.8599 15.0294 33.3689C14.968 33.3327 14.9055 33.2986 14.842 33.2667C14.6924 33.1886 14.5625 33.1219 14.531 33.0377L14.5137 33.0001V32.5259L14.6101 32.4237C14.9812 32.0104 15.2592 31.5167 15.4239 30.9781C15.5384 30.8546 15.6195 30.7017 15.6589 30.5345C15.6738 30.4609 15.6841 30.4229 15.6908 30.3972C15.7089 30.326 15.7144 30.252 15.7065 30.1789C15.709 30.1383 15.7007 30.0979 15.6827 30.0619C15.6647 30.0259 15.6375 29.9956 15.6042 29.9745C15.5759 29.9599 15.5537 29.9353 15.5416 29.9051C15.5295 29.8749 15.5284 29.8411 15.5384 29.8101L15.6077 29.4912C15.9226 27.9578 15.7215 27.4929 14.5125 27.0077C14.3806 26.6009 14.0161 26.4206 13.3299 26.4206C13.1945 26.4182 13.059 26.4218 12.9244 26.4329L12.924 26.4325ZM19.5334 25.0098C19.533 28.2411 21.3975 31.1543 24.2576 32.3914C25.6564 32.9961 27.1969 33.1544 28.6828 32.8461C30.1686 32.5378 31.5323 31.7769 32.5999 30.6604C34.7892 28.3756 35.4446 24.9391 34.2597 21.9539C33.0747 18.9683 30.2836 17.0215 27.1877 17.0215C22.9655 17.0366 19.5464 20.606 19.5334 25.013V25.0098Z" fill="#4F88E6"/>
  <path d="M18.6516 30.3468C18.6161 30.3577 18.5831 30.3759 18.5546 30.4003C18.5261 30.4248 18.5026 30.4549 18.4856 30.4891C18.4686 30.5232 18.4584 30.5605 18.4557 30.5988C18.453 30.6371 18.4577 30.6756 18.4697 30.7119C18.8061 31.5273 19.3357 32.2409 20.0094 32.7863C20.0566 32.8267 20.1165 32.8476 20.1775 32.8443C20.2632 32.8425 20.3448 32.8058 20.4046 32.7421C20.4284 32.7127 20.4461 32.6786 20.4569 32.6419C20.4677 32.6052 20.4712 32.5666 20.4673 32.5285C20.4634 32.4903 20.4522 32.4534 20.4342 32.4199C20.4163 32.3863 20.392 32.3569 20.3629 32.3333L20.3491 32.3222C19.7679 31.8492 19.3062 31.2363 19.0039 30.5365C18.9887 30.4772 18.9546 30.4249 18.9071 30.3883C18.8597 30.3517 18.8016 30.3329 18.7425 30.335C18.712 30.3347 18.6816 30.3383 18.652 30.3456V30.3468H18.6516ZM19.3094 28.9749C19.2738 28.9854 19.2406 29.0035 19.212 29.0279C19.1833 29.0522 19.1597 29.0825 19.1427 29.1167C19.1257 29.1509 19.1156 29.1883 19.1131 29.2267C19.1106 29.2651 19.1156 29.3036 19.1279 29.3399C19.648 30.5982 20.4964 31.6805 21.5774 32.4645C21.6191 32.5054 21.675 32.5262 21.7317 32.523C21.7773 32.5229 21.8221 32.5107 21.8619 32.4877C21.9017 32.4647 21.9352 32.4315 21.9593 32.3913C22.001 32.327 22.017 32.2482 22.0037 32.1718C21.9905 32.0954 21.9491 32.0274 21.8884 31.9821L21.8683 31.9658C20.901 31.2578 20.1389 30.2881 19.6649 29.1621C19.6489 29.1031 19.6143 29.0513 19.5668 29.0151C19.5192 28.9788 19.4613 28.96 19.4023 28.9618C19.3711 28.96 19.3397 28.9624 19.309 28.9687V28.9749H19.3094ZM35.4718 21.8475C35.5431 21.8259 35.6041 21.7775 35.643 21.7118C35.6818 21.6461 35.6957 21.5677 35.682 21.4919C35.2825 20.1912 34.5467 19.0295 33.555 18.1334C33.5051 18.0888 33.4413 18.0644 33.3755 18.0647C33.3373 18.064 33.2993 18.0715 33.2641 18.087C33.2289 18.1024 33.1973 18.1253 33.1711 18.1542C33.145 18.1832 33.125 18.2175 33.1125 18.255C33.0999 18.2924 33.0951 18.3322 33.0983 18.3718C33.1004 18.4096 33.1097 18.4465 33.1256 18.4806C33.1416 18.5146 33.1639 18.545 33.1912 18.57L33.1983 18.5758C34.0979 19.3879 34.7675 20.4391 35.1352 21.6165C35.148 21.6838 35.1831 21.7444 35.2344 21.7877C35.2856 21.831 35.3498 21.8543 35.4159 21.8537H35.4316C35.4389 21.8526 35.4464 21.8526 35.4537 21.8537C35.4558 21.8511 35.4584 21.8491 35.4613 21.8477C35.4642 21.8463 35.4674 21.8455 35.4706 21.8455L35.4718 21.8475ZM34.7592 17.9912C34.7329 18.0179 34.712 18.0499 34.6976 18.0851C34.6832 18.1203 34.6756 18.1581 34.6754 18.1964C34.6755 18.2345 34.683 18.2722 34.6974 18.3072C34.7118 18.3422 34.7329 18.3739 34.7592 18.4004C35.2982 18.9325 35.7019 19.5948 35.9344 20.3284C35.9472 20.3956 35.9822 20.4561 36.0334 20.4994C36.0845 20.5426 36.1487 20.566 36.2147 20.5655C36.2343 20.5649 36.2538 20.5703 36.2706 20.581C36.342 20.5596 36.4032 20.5113 36.4421 20.4455C36.481 20.3797 36.4948 20.3012 36.4808 20.2253C36.2264 19.3782 35.7708 18.6111 35.1561 17.9948C35.1306 17.9669 35.1 17.9446 35.066 17.9293C35.0319 17.9141 34.9953 17.9063 34.9582 17.9062C34.9212 17.9063 34.8845 17.9141 34.8505 17.9293C34.8165 17.9446 34.7858 17.9669 34.7604 17.9948L34.7592 17.9912Z" fill="white"/>
  <path d="M28.5581 31.8493L28.6148 31.2565C28.6695 30.6637 28.7286 30.0006 28.8238 29.4086C29.1703 27.0988 29.8946 26.1953 31.6918 25.8299C32.2284 25.7446 32.7715 25.7104 33.3141 25.7276C33.4204 25.7154 33.5259 25.755 33.6003 25.8348C33.6692 25.9566 33.6822 26.1046 33.6357 26.2379C33.4001 27.6282 32.7721 28.9147 31.8315 29.934C30.9453 30.8922 29.8067 31.5577 28.5581 31.8472V31.8493ZM25.8425 31.8493C24.5944 31.5596 23.4563 30.8942 22.5703 29.9364C21.6239 28.9214 20.9943 27.6335 20.7637 26.2411C20.7133 26.1107 20.722 25.9631 20.7877 25.8405C20.826 25.7993 20.8729 25.7679 20.9248 25.7487C20.9767 25.7296 21.0322 25.7232 21.0869 25.7301C21.2298 25.7301 21.3763 25.7244 21.5196 25.7244C21.9192 25.7162 22.3187 25.7526 22.7112 25.8323C24.5088 26.1998 25.2323 27.1021 25.5792 29.4111C25.6737 30.0112 25.7359 30.687 25.7906 31.2847C25.8087 31.485 25.8268 31.6751 25.8449 31.8493H25.8425ZM25.5914 25.6831C25.5933 24.7473 26.3213 23.9906 27.2173 23.9918C28.1137 23.993 28.8392 24.7522 28.8388 25.6876C28.838 26.623 28.1113 27.3809 27.2153 27.3809C26.3181 27.3801 25.5914 26.6213 25.5914 25.6851V25.6827V25.6831ZM33.0507 23.2302H21.3003C21.2456 23.2371 21.1901 23.2307 21.1382 23.2116C21.0863 23.1924 21.0394 23.161 21.0011 23.1198C20.9362 23.0012 20.9263 22.8582 20.9751 22.7314C21.2913 21.6986 21.8326 20.7554 22.5569 19.9752C23.797 18.7119 25.4697 18.0178 27.2023 18.048C28.0593 18.0316 28.9108 18.1936 29.7065 18.5246C30.5022 18.8556 31.226 19.3489 31.8351 19.9752C32.5605 20.7555 33.1014 21.7002 33.4153 22.7347C33.4391 22.7988 33.4489 22.8675 33.4442 22.936C33.4394 23.0044 33.4201 23.071 33.3877 23.1308C33.3539 23.1685 33.3121 23.1975 33.2657 23.2155C33.2192 23.2336 33.1694 23.2403 33.12 23.2351L33.0507 23.2306V23.2302Z" fill="#DDEAFB"/>
  <path d="M12.6401 11.2929C12.9661 10.0623 14.1534 9.30927 15.3498 9.57459L22.9478 11.2929H12.6401Z" fill="#B0CEF9"/>
</svg>