<svg viewBox="0 0 12 12" fill="none" xmlns="http://www.w3.org/2000/svg">
<path d="M5.99992 10.5C5.93277 10.5 5.86537 10.4803 5.80287 10.4403L0.591484 7.12355C0.344605 6.96662 0.232901 6.55026 0.341685 6.19409C0.450468 5.83841 0.73941 5.67681 0.985976 5.83372L5.99992 9.02459L11.0142 5.83329C11.2611 5.67636 11.5496 5.83795 11.6584 6.19365C11.7672 6.5498 11.6555 6.96609 11.4086 7.12302L6.1973 10.4399C6.13441 10.4798 6.06702 10.5 5.99992 10.5ZM5.99992 6.22679C5.93277 6.22679 5.86537 6.20708 5.80287 6.16719L0.591484 2.85033C0.344605 2.69339 0.232901 2.27713 0.341685 1.92096C0.450468 1.56481 0.73941 1.40357 0.985976 1.5605L5.99992 4.75144L11.0142 1.56007C11.2611 1.40313 11.5496 1.56426 11.6584 1.92043C11.7672 2.27668 11.6555 2.69296 11.4086 2.84988L6.1973 6.16666C6.13441 6.20708 6.06702 6.22679 5.99992 6.22679Z" fill="black"/>
</svg>
