<svg xmlns="http://www.w3.org/2000/svg" viewBox="0 0 80 80" fill="none">
    <circle cx="40" cy="40" r="40" fill="black" fill-opacity="0.3"/>
    <circle cx="40" cy="40" r="29" stroke="white" stroke-width="2" stroke-dasharray="2 4"/>
    <path d="M49.2746 40.7253C49.6752 40.7253 50 40.4006 50 40C50 39.5993 49.6752 39.2746 49.2746 39.2746L40.7254 39.2746L40.7254 30.7254C40.7254 30.3248 40.4007 30 40 30C39.5994 30 39.2747 30.3248 39.2747 30.7254L39.2747 39.2746L30.7254 39.2746C30.3248 39.2746 30 39.5994 30 40C30 40.4006 30.3248 40.7254 30.7254 40.7254L39.2747 40.7253L39.2746 49.2746C39.2746 49.6752 39.5994 50 40 50C40.4006 50 40.7254 49.6752 40.7254 49.2746L40.7254 40.7253L49.2746 40.7253Z" fill="white"/>
  </svg>