<svg viewBox="0 0 15 15" fill="none" xmlns="http://www.w3.org/2000/svg">
  <path
    d="M2.65748 1.09874e-08C1.95267 1.09874e-08 1.27673 0.296316 0.778358 0.823762C0.279984 1.35121 1.03818e-08 2.06658 1.03818e-08 2.8125V7.5C-1.78004e-05 7.62313 0.0228815 7.74505 0.0673905 7.85881C0.1119 7.97257 0.177146 8.07594 0.259405 8.16301C0.341663 8.25008 0.439322 8.31914 0.546804 8.36627C0.654286 8.41339 0.769487 8.43764 0.885827 8.43764C1.00217 8.43764 1.11737 8.41339 1.22485 8.36627C1.33233 8.31914 1.42999 8.25008 1.51225 8.16301C1.59451 8.07594 1.65975 7.97257 1.70426 7.85881C1.74877 7.74505 1.77167 7.62313 1.77165 7.5V2.8125C1.77165 2.56386 1.86498 2.3254 2.03111 2.14959C2.19723 1.97377 2.42254 1.875 2.65748 1.875H7.08661C7.20295 1.87502 7.31816 1.85078 7.42565 1.80368C7.53314 1.75657 7.63081 1.68752 7.71308 1.60046C7.79535 1.51341 7.86061 1.41005 7.90513 1.2963C7.94966 1.18255 7.97258 1.06063 7.97258 0.9375C7.97258 0.814374 7.94966 0.692453 7.90513 0.578701C7.86061 0.464949 7.79535 0.361593 7.71308 0.274537C7.63081 0.18748 7.53314 0.118427 7.42565 0.0713216C7.31816 0.0242163 7.20295 -1.88388e-05 7.08661 1.09874e-08H2.65748ZM12.3425 15C13.0473 15 13.7233 14.7037 14.2216 14.1762C14.72 13.6488 15 12.9334 15 12.1875V8.4375C15 8.31437 14.9771 8.19245 14.9326 8.07869C14.8881 7.96493 14.8229 7.86157 14.7406 7.7745C14.6583 7.68743 14.5607 7.61836 14.4532 7.57123C14.3457 7.52411 14.2305 7.49986 14.1142 7.49986C13.9978 7.49986 13.8826 7.52411 13.7752 7.57123C13.6677 7.61836 13.57 7.68743 13.4878 7.7745C13.4055 7.86157 13.3402 7.96493 13.2957 8.07869C13.2512 8.19245 13.2283 8.31437 13.2283 8.4375V12.1875C13.2283 12.4361 13.135 12.6746 12.9689 12.8504C12.8028 13.0262 12.5775 13.125 12.3425 13.125H8.3563C8.23996 13.125 8.12476 13.1492 8.01727 13.1963C7.90978 13.2434 7.81211 13.3125 7.72984 13.3995C7.64757 13.4866 7.58231 13.5899 7.53778 13.7037C7.49325 13.8175 7.47034 13.9394 7.47034 14.0625C7.47034 14.1856 7.49325 14.3075 7.53778 14.4213C7.58231 14.5351 7.64757 14.6384 7.72984 14.7255C7.81211 14.8125 7.90978 14.8816 8.01727 14.9287C8.12476 14.9758 8.23996 15 8.3563 15H12.3425Z"
    fill="white" />
</svg>