<svg viewBox="0 0 24 24" fill="none" xmlns="http://www.w3.org/2000/svg">
  <path
    d="M8.66678 12.0001C9.55083 12.0001 10.3987 11.6489 11.0238 11.0238C11.6489 10.3987 12.0001 9.55083 12.0001 8.66678V3.11127C12.0001 2.96535 11.9714 2.82084 11.9156 2.68602C11.8597 2.55119 11.7779 2.42869 11.6747 2.32549C11.5715 2.2223 11.449 2.14044 11.3142 2.08459C11.1794 2.02875 11.0349 2 10.889 2C10.7431 2 10.5986 2.02875 10.4637 2.08459C10.3289 2.14044 10.2064 2.2223 10.1033 2.32549C10.0001 2.42869 9.91824 2.55119 9.86241 2.68602C9.80658 2.82084 9.77786 2.96535 9.77788 3.11127V8.66678C9.77788 8.96146 9.66082 9.24408 9.45245 9.45245C9.24408 9.66082 8.96146 9.77788 8.66678 9.77788H3.11127C2.96535 9.77786 2.82084 9.80658 2.68602 9.86241C2.55119 9.91824 2.42869 10.0001 2.32549 10.1033C2.2223 10.2064 2.14044 10.3289 2.08459 10.4637C2.02875 10.5986 2 10.7431 2 10.889C2 11.0349 2.02875 11.1794 2.08459 11.3142C2.14044 11.449 2.2223 11.5715 2.32549 11.6747C2.42869 11.7779 2.55119 11.8597 2.68602 11.9156C2.82084 11.9714 2.96535 12.0001 3.11127 12.0001H8.66678ZM15.8889 13.1112C15.0049 13.1112 14.1571 13.4624 13.5319 14.0875C12.9068 14.7126 12.5556 15.5604 12.5556 16.4445V20.8889C12.5556 21.1836 12.6727 21.4662 12.8811 21.6746C13.0894 21.8829 13.3721 22 13.6667 22C13.9614 22 14.244 21.8829 14.4524 21.6746C14.6608 21.4662 14.7778 21.1836 14.7778 20.8889V16.4445C14.7778 16.1498 14.8949 15.8672 15.1033 15.6588C15.3116 15.4505 15.5943 15.3334 15.8889 15.3334H20.8889C21.0348 15.3334 21.1793 15.3047 21.3141 15.2489C21.449 15.193 21.5715 15.1112 21.6747 15.008C21.7779 14.9048 21.8597 14.7823 21.9156 14.6475C21.9714 14.5127 22.0002 14.3682 22.0002 14.2223C22.0002 14.0764 21.9714 13.9319 21.9156 13.797C21.8597 13.6622 21.7779 13.5397 21.6747 13.4366C21.5715 13.3334 21.449 13.2515 21.3141 13.1957C21.1793 13.1399 21.0348 13.1112 20.8889 13.1112H15.8889Z"
    fill="white" />
</svg>