<svg viewBox="0 0 20 20" fill="none" xmlns="http://www.w3.org/2000/svg">
<path d="M5.25 4C4.00736 4 3 5.00736 3 6.25V8.75C3 9.16421 2.66421 9.5 2.25 9.5C1.83579 9.5 1.5 9.16421 1.5 8.75V6.25C1.5 4.17893 3.17893 2.5 5.25 2.5H14.75C16.8211 2.5 18.5 4.17893 18.5 6.25V13.75C18.5 15.8211 16.8211 17.5 14.75 17.5H5.25C3.17893 17.5 1.5 15.8211 1.5 13.75V13.25C1.5 12.8358 1.83579 12.5 2.25 12.5C2.66421 12.5 3 12.8358 3 13.25V13.75C3 14.9926 4.00736 16 5.25 16H14.75C15.9926 16 17 14.9926 17 13.75V6.25C17 5.00736 15.9926 4 14.75 4H5.25Z" fill="black"/>
<path d="M3 10.9C3 11.3142 2.66421 11.65 2.25 11.65C1.83579 11.65 1.5 11.3142 1.5 10.9C1.5 10.4858 1.83579 10.15 2.25 10.15C2.66421 10.15 3 10.4858 3 10.9Z" fill="black"/>
<path d="M7.79248 10.9209C7.59265 10.9209 7.43066 10.7589 7.43066 10.5591C7.43066 10.3593 7.59265 10.1973 7.79248 10.1973H8.7998C9.07595 10.1973 9.2998 10.4211 9.2998 10.6973V11.6963C9.2998 11.8317 9.24677 11.9641 9.13746 12.0441C8.9721 12.1651 8.76254 12.2751 8.50879 12.374C8.16504 12.5068 7.81641 12.5732 7.46289 12.5732C7.01367 12.5732 6.62207 12.4795 6.28809 12.292C5.9541 12.1025 5.70312 11.833 5.53516 11.4834C5.36719 11.1318 5.2832 10.75 5.2832 10.3379C5.2832 9.89062 5.37695 9.49316 5.56445 9.14551C5.75195 8.79785 6.02637 8.53125 6.3877 8.3457C6.66309 8.20312 7.00586 8.13184 7.41602 8.13184C7.94922 8.13184 8.36523 8.24414 8.66406 8.46875C8.8432 8.60136 8.98424 8.76445 9.08717 8.95803C9.20676 9.18294 9.03715 9.43325 8.78675 9.4801C8.55774 9.52294 8.34466 9.37135 8.19175 9.19557C8.14729 9.14447 8.09673 9.09848 8.04004 9.05762C7.87402 8.93457 7.66602 8.87305 7.41602 8.87305C7.03711 8.87305 6.73535 8.99316 6.51074 9.2334C6.28809 9.47363 6.17676 9.83008 6.17676 10.3027C6.17676 10.8125 6.29004 11.1953 6.5166 11.4512C6.74316 11.7051 7.04004 11.832 7.40723 11.832C7.58887 11.832 7.77051 11.7969 7.95215 11.7266C8.13574 11.6543 8.29297 11.5674 8.42383 11.4658V10.9209H7.79248Z" fill="black"/>
<path d="M10.5098 12.5C10.2703 12.5 10.0762 12.3059 10.0762 12.0664V8.63867C10.0762 8.3992 10.2703 8.20508 10.5098 8.20508C10.7492 8.20508 10.9434 8.3992 10.9434 8.63867V12.0664C10.9434 12.3059 10.7492 12.5 10.5098 12.5Z" fill="black"/>
<path d="M11.7783 12.0664C11.7783 12.3059 11.9724 12.5 12.2119 12.5C12.4514 12.5 12.6455 12.3059 12.6455 12.0664V10.6748H14.0752C14.2758 10.6748 14.4385 10.5122 14.4385 10.3115C14.4385 10.1109 14.2758 9.94824 14.0752 9.94824H12.6455V8.93164H14.3594C14.56 8.93164 14.7227 8.76899 14.7227 8.56836C14.7227 8.36772 14.56 8.20508 14.3594 8.20508H12.7783C12.226 8.20508 11.7783 8.65279 11.7783 9.20508V12.0664Z" fill="black"/>
</svg>
