<svg xmlns="http://www.w3.org/2000/svg" viewBox="0 0 50 50" fill="none">
  <path d="M39.8438 41.4062H12.5C10.3516 41.4062 8.59375 39.6484 8.59375 37.5V18.9062C8.59375 16.7578 10.3516 15 12.5 15H39.8438C41.9922 15 43.75 16.7578 43.75 18.9062V37.5C43.75 39.6484 41.9922 41.4062 39.8438 41.4062Z" fill="#FFECB6"/>
  <path d="M38.9062 40.4688H9.84375C7.86133 40.4688 6.25 38.8574 6.25 36.875V34.2188C6.25 33.96 6.45996 33.75 6.71875 33.75C6.97754 33.75 7.1875 33.96 7.1875 34.2188V36.875C7.1875 38.3398 8.37891 39.5312 9.84375 39.5312H38.9062C40.3711 39.5312 41.5625 38.3398 41.5625 36.875V17.1875C41.5625 15.7227 40.3711 14.5313 38.9062 14.5313H9.84375C8.37891 14.5313 7.1875 15.7227 7.1875 17.1875V27.8125C7.1875 28.0713 6.97754 28.2813 6.71875 28.2813C6.45996 28.2813 6.25 28.0713 6.25 27.8125V17.1875C6.25 15.2051 7.86133 13.5938 9.84375 13.5938H38.9062C40.8887 13.5938 42.5 15.2051 42.5 17.1875V36.875C42.5 38.8574 40.8887 40.4688 38.9062 40.4688Z" fill="black"/>
  <path d="M6.71875 31.25C6.45996 31.25 6.25 31.04 6.25 30.7813V30C6.25 29.7412 6.45996 29.5312 6.71875 29.5312C6.97754 29.5312 7.1875 29.7412 7.1875 30V30.7813C7.1875 31.04 6.97754 31.25 6.71875 31.25Z" fill="black"/>
  <path d="M37.1484 25.3516H26.6016C26.0645 25.3516 25.625 24.9121 25.625 24.375C25.625 23.8379 26.0645 23.3984 26.6016 23.3984H37.1484C37.6855 23.3984 38.125 23.8379 38.125 24.375C38.125 24.9121 37.6855 25.3516 37.1484 25.3516ZM37.1484 31.6016H26.6016C26.0645 31.6016 25.625 31.1621 25.625 30.625C25.625 30.0879 26.0645 29.6484 26.6016 29.6484H37.1484C37.6855 29.6484 38.125 30.0879 38.125 30.625C38.125 31.1621 37.6855 31.6016 37.1484 31.6016ZM31.0156 12.1875H29.7998C29.3457 10.3955 27.6123 9.0625 25.5469 9.0625C23.4814 9.0625 21.748 10.3955 21.2939 12.1875H20.0781C19.0479 12.1875 18.2031 13.0322 18.2031 14.0625C18.2031 15.0928 19.0479 15.9375 20.0781 15.9375H31.0156C32.0459 15.9375 32.8906 15.0928 32.8906 14.0625C32.8906 13.0322 32.0459 12.1875 31.0156 12.1875Z" fill="#F4BA64"/>
  <path d="M29.8438 16.4062H18.9062C17.6123 16.4062 16.5625 15.3564 16.5625 14.0625C16.5625 12.7686 17.6123 11.7188 18.9062 11.7188H19.7754C20.4199 9.86328 22.2607 8.59375 24.375 8.59375C26.4893 8.59375 28.335 9.86328 28.9746 11.7188H29.8438C31.1377 11.7188 32.1875 12.7686 32.1875 14.0625C32.1875 15.3564 31.1377 16.4062 29.8438 16.4062ZM18.9062 12.6563C18.1299 12.6563 17.5 13.2861 17.5 14.0625C17.5 14.8389 18.1299 15.4687 18.9062 15.4687H29.8438C30.6201 15.4687 31.25 14.8389 31.25 14.0625C31.25 13.2861 30.6201 12.6563 29.8438 12.6563H28.2617L28.1738 12.3047C27.7588 10.6738 26.1963 9.53125 24.375 9.53125C22.5537 9.53125 20.9912 10.6689 20.5762 12.3047L20.4883 12.6563H18.9062Z" fill="black"/>
  <path d="M21.1914 34.375H12.5586C11.7529 34.375 11.0938 33.7158 11.0938 32.9102V22.0898C11.0938 21.2842 11.7529 20.625 12.5586 20.625H21.1914C21.9971 20.625 22.6562 21.2842 22.6562 22.0898V32.9102C22.6562 33.7158 21.9971 34.375 21.1914 34.375Z" fill="#FFDBA2"/>
  <path d="M14.8535 28.4707H18.7402V32.0303H14.8535V28.4707Z" fill="#F7931E"/>
  <path d="M15.4737 27.7148L16.2305 28.4717L15.5811 32.0313H12.3438C12.3438 32.0313 12.2364 29.0088 15.4737 27.7148ZM18.169 27.7148L17.4122 28.4717L18.0616 32.0313H21.2989C21.2989 32.0313 21.4112 29.0088 18.169 27.7148Z" fill="#F4BA64"/>
  <path d="M14.3408 24.6387C14.3408 24.9644 14.405 25.287 14.5296 25.5879C14.6543 25.8889 14.837 26.1623 15.0673 26.3926C15.2977 26.623 15.5711 26.8057 15.8721 26.9303C16.173 27.055 16.4955 27.1191 16.8213 27.1191C17.147 27.1191 17.4696 27.055 17.7705 26.9303C18.0715 26.8057 18.3449 26.623 18.5752 26.3926C18.8056 26.1623 18.9883 25.8889 19.1129 25.5879C19.2376 25.287 19.3018 24.9644 19.3018 24.6387C19.3018 23.9808 19.0404 23.3499 18.5752 22.8847C18.1101 22.4195 17.4791 22.1582 16.8213 22.1582C16.1634 22.1582 15.5325 22.4195 15.0673 22.8847C14.6022 23.3499 14.3408 23.9808 14.3408 24.6387Z" fill="#F4BA64"/>
</svg>