<svg viewBox="0 0 8 8" fill="none" xmlns="http://www.w3.org/2000/svg">
<g clip-path="url(#clip0_237_6219)">
<path d="M7.88507 3.99991C7.88507 5.03025 7.47577 6.0184 6.74721 6.74696C6.01864 7.47553 5.0305 7.88483 4.00015 7.88483C2.96981 7.88483 1.98166 7.47553 1.2531 6.74696C0.524537 6.0184 0.115234 5.03025 0.115234 3.99991C0.115234 2.96956 0.524537 1.98142 1.2531 1.25286C1.98166 0.524293 2.96981 0.11499 4.00015 0.11499C5.0305 0.11499 6.01864 0.524293 6.74721 1.25286C7.47577 1.98142 7.88507 2.96956 7.88507 3.99991Z" fill="white"/>
<path d="M4 0C1.792 0 0 1.792 0 4C0 6.208 1.792 8 4 8C6.208 8 8 6.208 8 4C8 1.792 6.208 0 4 0ZM4 0.51248C5.9252 0.51248 7.4876 2.0748 7.4876 4C7.4876 5.9252 5.9252 7.4876 4 7.4876C2.0748 7.4876 0.51248 5.9252 0.51248 4C0.51248 2.0748 2.0748 0.51248 4 0.51248ZM4.0588 1.36248C3.8408 1.36368 3.63268 1.39196 3.44752 1.445C3.25956 1.49884 3.08248 1.58436 2.93248 1.69376C2.80296 1.78824 2.67916 1.9094 2.585 2.035C2.41864 2.25696 2.32656 2.50104 2.30248 2.78248C2.30088 2.8012 2.29968 2.8172 2.3 2.81752C2.30064 2.81816 3.16808 2.925 3.17248 2.925C3.1746 2.925 3.177 2.91564 3.18376 2.88752C3.2614 2.56412 3.4032 2.34668 3.62248 2.215C3.79528 2.11124 4.0148 2.07052 4.2536 2.09624C4.3632 2.10804 4.462 2.13464 4.5488 2.17624C4.6572 2.22828 4.756 2.31068 4.8264 2.40876C4.888 2.495 4.9248 2.59212 4.9364 2.70124C4.9396 2.7316 4.9384 2.80044 4.9352 2.83C4.926 2.90304 4.9072 2.96512 4.8752 3.02876C4.8428 3.09264 4.816 3.12932 4.7648 3.18124C4.6836 3.26432 4.5576 3.3744 4.3336 3.55752C4.1896 3.67528 4.092 3.76376 4.0088 3.85124C3.81108 4.0584 3.72116 4.214 3.66624 4.44C3.63004 4.5888 3.616 4.742 3.62 4.9676C3.621 5.0236 3.62248 5.0768 3.62248 5.0864V5.1036H4.4864L4.4876 5.0076C4.4888 4.8768 4.496 4.7928 4.51 4.7112C4.5328 4.5804 4.5672 4.5112 4.6676 4.3988C4.7316 4.3268 4.8156 4.2484 4.9448 4.14C5.1356 3.98036 5.2692 3.8604 5.3952 3.735C5.5916 3.53872 5.6936 3.4046 5.7664 3.24752C5.8236 3.12384 5.8552 3.00088 5.8648 2.86624C5.8672 2.8336 5.8676 2.74504 5.8648 2.70752C5.8468 2.4258 5.7408 2.1774 5.5388 1.94624C5.5068 1.90988 5.4276 1.83076 5.39 1.79752C5.1916 1.62176 4.9624 1.5034 4.6876 1.43376C4.52 1.39128 4.3584 1.36976 4.1536 1.36376C4.1224 1.36284 4.09 1.36232 4.0588 1.36248ZM3.62248 5.50648V6.38648H4.5024V5.50648H3.62248Z" fill="#2F2F2F"/>
</g>
<defs>
<clipPath id="clip0_237_6219">
<rect width="8" height="8" fill="white"/>
</clipPath>
</defs>
</svg>