<svg xmlns="http://www.w3.org/2000/svg" viewBox="0 0 20 20" fill="none">
  <path d="M16.4059 3.5343L16.4655 3.59387C17.8446 4.97292 17.8446 7.22902 16.4645 8.60807L14.9815 9.97645C14.9313 10.0396 14.8716 10.0949 14.8044 10.1399L14.7825 10.1601L14.7799 10.1556C14.6613 10.2288 14.5216 10.2711 14.3719 10.2711C13.942 10.2711 13.5935 9.92254 13.5935 9.49264C13.5935 9.23613 13.7176 9.00864 13.9091 8.86681L15.3162 7.45874C16.065 6.71083 16.065 5.49204 15.3162 4.74316L15.2566 4.68455C14.5077 3.93568 13.2899 3.93568 12.5429 4.68455L9.34649 7.87909C8.59766 8.62792 8.3133 9.71583 9.06213 10.4647L9.12076 10.5223C9.14586 10.5474 9.17337 10.5729 9.20199 10.5993C9.30647 10.6958 9.42571 10.8059 9.4965 10.9649C9.53991 11.0546 9.56426 11.1552 9.56426 11.2615C9.56426 11.6382 9.25888 11.9436 8.88216 11.9436C8.75854 11.9436 8.64269 11.9106 8.54272 11.8531L8.54251 11.8533L8.54107 11.8521C8.47834 11.8158 8.42192 11.7699 8.37388 11.7162C8.30752 11.6596 8.24251 11.6006 8.17988 11.538L8.12127 11.4802C6.7422 10.1003 6.81815 8.10883 8.19722 6.72976L11.3917 3.5343C12.7708 2.15523 15.0269 2.15523 16.4059 3.5343Z" fill="black"/>
  <path d="M11.4972 7.96546C11.6234 8.06146 11.7458 8.16499 11.8607 8.27984L11.9194 8.33846C13.2965 9.71658 13.1798 11.8919 11.8026 13.2709L8.60807 16.4664C7.229 17.8445 4.97294 17.8445 3.59387 16.4664L3.5343 16.4069C2.15523 15.0288 2.15523 12.7717 3.5343 11.3917L5.0014 10.0189C5.04479 9.96608 5.09504 9.91923 5.15061 9.87927L5.16566 9.8652C5.16584 9.86556 5.16602 9.86592 5.16619 9.86627C5.16643 9.86675 5.16667 9.86721 5.16689 9.86769C5.29261 9.7821 5.44442 9.73203 5.60798 9.73203C6.0414 9.73203 6.39274 10.0834 6.39274 10.5168C6.39274 10.766 6.27646 10.9879 6.09533 11.1316L4.68359 12.5429C3.93471 13.2899 3.93471 14.5082 4.68359 15.2571L4.74364 15.3171C5.4925 16.065 6.70992 16.065 7.45874 15.3171L10.6542 12.1226C11.4031 11.3737 11.6266 10.0852 10.8778 9.33727L10.8182 9.27768C10.7557 9.21515 10.6888 9.15982 10.6207 9.10364C10.5532 9.06249 10.493 9.01052 10.4425 8.95023L10.4424 8.95015C10.3372 8.82465 10.2737 8.66292 10.2737 8.48635C10.2737 8.08732 10.5972 7.76382 10.9963 7.76382C11.1907 7.76382 11.3671 7.84076 11.497 7.96567L11.4972 7.96546Z" fill="black"/>
</svg>