<svg viewBox="0 0 19 20" fill="none" xmlns="http://www.w3.org/2000/svg">
<path d="M9.5 2.5C6.19182 2.5 3.5 5.14375 3.5 8.39286C3.5 11.5295 8.87655 17.0988 9.10509 17.3339C9.20818 17.4405 9.35109 17.5 9.5 17.5C9.50382 17.5 9.50818 17.5 9.512 17.5C9.66527 17.5 9.80982 17.4298 9.91073 17.3168L11.7724 15.2221C14.246 12.2462 15.5 9.94857 15.5 8.39286C15.5 5.14375 12.8082 2.5 9.5 2.5ZM9.5 11.0714C7.99345 11.0714 6.77273 9.8725 6.77273 8.39286C6.77273 6.91321 7.99345 5.71429 9.5 5.71429C11.0065 5.71429 12.2273 6.91321 12.2273 8.39286C12.2273 9.8725 11.0065 11.0714 9.5 11.0714Z" fill="black"/>
</svg>
