<svg viewBox="0 0 37 36" fill="none" xmlns="http://www.w3.org/2000/svg">
    <path
        d="M34.623 11.0252C33.7189 8.8736 32.4035 6.91802 30.7503 5.26746C29.1024 3.61384 27.1449 2.29905 24.9888 1.39775C22.7797 0.470184 20.4061 -0.00513447 18.0091 4.1827e-05H17.9289C15.5609 0.00516318 13.2175 0.477921 11.0338 1.39103C8.85005 2.30413 6.86934 3.6395 5.20596 5.32004C3.56898 6.96682 2.26884 8.91538 1.37798 11.0572C0.453449 13.2846 -0.0149446 15.674 0.000363457 18.0846C0.0118245 20.8732 0.681149 23.6412 1.9304 26.1166V32.2229C1.9304 33.2434 2.76018 34.0709 3.78021 34.0709H9.89582C12.3895 35.3258 15.1414 35.9862 17.9346 36H18.0194C20.4285 36 22.762 35.5337 24.9613 34.6217C27.1067 33.7313 29.0571 32.432 30.7033 30.7966C32.3559 29.164 33.674 27.2263 34.584 25.0914C35.5297 22.8739 36.02 20.4898 36.0258 18.08C36.0372 15.6585 35.5606 13.2594 34.6241 11.0252H34.623ZM9.96802 19.928C9.45508 19.928 8.96315 19.7248 8.60044 19.3632C8.23774 19.0015 8.03397 18.5109 8.03397 17.9995C8.03397 17.488 8.23774 16.9974 8.60044 16.6357C8.96315 16.2741 9.45508 16.0709 9.96802 16.0709C10.481 16.0709 10.9729 16.2741 11.3356 16.6357C11.6983 16.9974 11.9021 17.488 11.9021 17.9995C11.9021 18.5109 11.6983 19.0015 11.3356 19.3632C10.9729 19.7248 10.481 19.928 9.96802 19.928ZM18.0102 19.928C17.4973 19.928 17.0054 19.7248 16.6426 19.3632C16.2799 19.0015 16.0762 18.5109 16.0762 17.9995C16.0762 17.488 16.2799 16.9974 16.6426 16.6357C17.0054 16.2741 17.4973 16.0709 18.0102 16.0709C18.5232 16.0709 19.0151 16.2741 19.3778 16.6357C19.7405 16.9974 19.9443 17.488 19.9443 17.9995C19.9443 18.5109 19.7405 19.0015 19.3778 19.3632C19.0151 19.7248 18.5232 19.928 18.0102 19.928ZM26.0524 19.928C25.5395 19.928 25.0476 19.7248 24.6849 19.3632C24.3221 19.0015 24.1184 18.5109 24.1184 17.9995C24.1184 17.488 24.3221 16.9974 24.6849 16.6357C25.0476 16.2741 25.5395 16.0709 26.0524 16.0709C26.5654 16.0709 27.0573 16.2741 27.42 16.6357C27.7827 16.9974 27.9865 17.488 27.9865 17.9995C27.9865 18.5109 27.7827 19.0015 27.42 19.3632C27.0573 19.7248 26.5654 19.928 26.0524 19.928Z"
        fill="#6567E8" />
</svg>