<svg viewBox="0 0 15 13" fill="none" xmlns="http://www.w3.org/2000/svg">
  <path
    d="M3.08473 2.84524H0.881353C0.647604 2.84524 0.423428 2.94792 0.258142 3.13069C0.0928566 3.31346 5.4785e-09 3.56136 0 3.81984V9.18016C0 9.43864 0.0928566 9.68654 0.258142 9.86931C0.423428 10.0521 0.647604 10.1548 0.881353 10.1548H3.08473L6.0593 12.7862C6.18888 12.9009 6.34513 12.9728 6.51006 12.9937C6.67499 13.0145 6.84188 12.9835 6.99153 12.904C7.14119 12.8246 7.26751 12.7 7.35596 12.5447C7.44441 12.3894 7.49139 12.2096 7.4915 12.026V0.973996C7.49139 0.790433 7.44441 0.610633 7.35596 0.455299C7.26751 0.299964 7.14119 0.17541 6.99153 0.0959765C6.84188 0.016543 6.67499 -0.0145404 6.51006 0.00630517C6.34513 0.0271507 6.18888 0.0990773 6.0593 0.213804L3.08473 2.84524Z"
    fill="white" />
  <path fill-rule="evenodd" clip-rule="evenodd"
    d="M9.26217 4.26174C9.61114 3.91275 10.1769 3.91275 10.5259 4.26174L12 5.73596L13.4741 4.26174C13.8231 3.91275 14.3889 3.91275 14.7378 4.26174C15.0868 4.61074 15.0868 5.17656 14.7378 5.52555L13.2637 6.99977L14.7383 8.47445C15.0872 8.82344 15.0872 9.38926 14.7383 9.73826C14.3893 10.0872 13.8235 10.0872 13.4746 9.73826L12 8.26359L10.5254 9.73826C10.1765 10.0872 9.61069 10.0872 9.26172 9.73826C8.91276 9.38926 8.91276 8.82344 9.26172 8.47444L10.7363 6.99977L9.26217 5.52555C8.91321 5.17656 8.91321 4.61074 9.26217 4.26174Z"
    fill="white" />
</svg>