<svg viewBox="0 0 15 15" fill="none" xmlns="http://www.w3.org/2000/svg">
  <path
    d="M3.08473 3.84524H0.881353C0.647604 3.84524 0.423428 3.94792 0.258142 4.13069C0.0928566 4.31346 5.4785e-09 4.56136 0 4.81984V10.1802C0 10.4386 0.0928566 10.6865 0.258142 10.8693C0.423428 11.0521 0.647604 11.1548 0.881353 11.1548H3.08473L6.0593 13.7862C6.18888 13.9009 6.34513 13.9728 6.51006 13.9937C6.67499 14.0145 6.84188 13.9835 6.99153 13.904C7.14119 13.8246 7.26751 13.7 7.35596 13.5447C7.44441 13.3894 7.49139 13.2096 7.4915 13.026V1.974C7.49139 1.79043 7.44441 1.61063 7.35596 1.4553C7.26751 1.29996 7.14119 1.17541 6.99153 1.09598C6.84188 1.01654 6.67499 0.98546 6.51006 1.00631C6.34513 1.02715 6.18888 1.09908 6.0593 1.2138L3.08473 3.84524Z"
    fill="white" />
  <path fill-rule="evenodd" clip-rule="evenodd"
    d="M9.26217 5.26174C9.61114 4.91275 10.1769 4.91275 10.5259 5.26174L12 6.73596L13.4741 5.26174C13.8231 4.91275 14.3889 4.91275 14.7378 5.26174C15.0868 5.61074 15.0868 6.17656 14.7378 6.52555L13.2637 7.99977L14.7383 9.47445C15.0872 9.82344 15.0872 10.3893 14.7383 10.7383C14.3893 11.0872 13.8235 11.0872 13.4746 10.7383L12 9.26359L10.5254 10.7383C10.1765 11.0872 9.61069 11.0872 9.26172 10.7383C8.91276 10.3893 8.91276 9.82344 9.26172 9.47444L10.7363 7.99977L9.26217 6.52555C8.91321 6.17656 8.91321 5.61074 9.26217 5.26174Z"
    fill="white" />
</svg>