<svg xmlns="http://www.w3.org/2000/svg" viewBox="0 0 50 50" fill="none">
  <path d="M43.3574 9.86328L40.1348 9.0332L43.3574 8.1543L44.1875 4.98047L45.0664 8.1543L48.2402 9.0332L45.0664 9.86328L44.1875 13.0371L43.3574 9.86328ZM7.41992 41.1133L5.41797 40.625L7.41992 40.1367L7.85938 38.1348L8.34766 40.1367L10.3496 40.625L8.34766 41.1133L7.85938 43.1152L7.41992 41.1133Z" fill="#FDCD60"/>
  <path d="M46.4336 13.3301L45.2129 13.0371L46.4336 12.7441L46.7266 11.5234L47.0195 12.7441L48.2402 13.0371L47.0195 13.3301L46.7266 14.5508L46.4336 13.3301ZM6.88281 24.6094L5.71094 24.3652L6.88281 24.0723L7.17578 22.9004L7.41992 24.0723L8.5918 24.3652L7.41992 24.6094L7.17578 25.7812L6.88281 24.6094Z" fill="#FDCD60"/>
  <path d="M6.49219 15.2832C6.49219 15.3998 6.53849 15.5115 6.6209 15.5939C6.70331 15.6764 6.81509 15.7227 6.93164 15.7227C7.04819 15.7227 7.15997 15.6764 7.24238 15.5939C7.32479 15.5115 7.37109 15.3998 7.37109 15.2832C7.37109 15.1667 7.32479 15.0549 7.24238 14.9725C7.15997 14.89 7.04819 14.8438 6.93164 14.8438C6.81509 14.8438 6.70331 14.89 6.6209 14.9725C6.53849 15.0549 6.49219 15.1667 6.49219 15.2832Z" fill="#5546CB"/>
  <path d="M43.0645 37.4512C42.823 37.4512 42.587 37.3796 42.3863 37.2454C42.1855 37.1113 42.0291 36.9207 41.9367 36.6976C41.8443 36.4746 41.8201 36.2291 41.8672 35.9923C41.9143 35.7555 42.0306 35.538 42.2013 35.3673C42.372 35.1966 42.5895 35.0803 42.8263 35.0332C43.0631 34.9861 43.3085 35.0103 43.5316 35.1027C43.7547 35.1951 43.9453 35.3515 44.0794 35.5523C44.2136 35.753 44.2852 35.989 44.2852 36.2305C44.2852 36.5542 44.1565 36.8647 43.9276 37.0936C43.6987 37.3226 43.3882 37.4512 43.0645 37.4512ZM43.0645 35.6934C42.9679 35.6934 42.8735 35.722 42.7932 35.7757C42.7129 35.8293 42.6503 35.9056 42.6133 35.9948C42.5764 36.084 42.5667 36.1822 42.5856 36.2769C42.6044 36.3716 42.6509 36.4586 42.7192 36.5269C42.7875 36.5952 42.8745 36.6417 42.9692 36.6605C43.0639 36.6794 43.1621 36.6697 43.2513 36.6328C43.3405 36.5958 43.4168 36.5332 43.4704 36.4529C43.5241 36.3726 43.5527 36.2782 43.5527 36.1816C43.5527 36.0521 43.5013 35.9279 43.4097 35.8364C43.3181 35.7448 43.194 35.6934 43.0645 35.6934Z" fill="#5546CB"/>
  <path d="M28.9043 36.2793C28.416 36.2793 28.3184 36.7188 28.3184 37.0117C28.3184 37.3047 28.3672 37.4023 28.416 37.5C28.4618 37.5897 28.5318 37.6647 28.6181 37.7165C28.7045 37.7683 28.8036 37.7948 28.9043 37.793C29.1484 37.793 29.4902 37.6465 29.4902 37.0605C29.4902 36.4746 29.4414 36.2793 28.9043 36.2793ZM19.041 36.377C18.9434 36.2793 18.8457 36.2793 18.6016 36.2793H18.4062V36.9141H18.6504C18.8945 36.9141 19.1875 36.9141 19.1875 36.6211C19.1859 36.5713 19.1715 36.5228 19.1459 36.48C19.1203 36.4373 19.0842 36.4018 19.041 36.377ZM27 36.377C26.9023 36.2793 26.8047 36.2793 26.5605 36.2793H26.3652V36.9141H26.6094C26.8535 36.9141 27.1465 36.9141 27.1465 36.6211C27.1448 36.5713 27.1305 36.5228 27.1049 36.48C27.0793 36.4373 27.0432 36.4018 27 36.377ZM31.6387 36.5723C31.6474 36.5265 31.6428 36.4792 31.6255 36.4359C31.6082 36.3927 31.5789 36.3553 31.541 36.3281H30.7109V36.8652H31.4434C31.4757 36.8594 31.5066 36.8471 31.5341 36.8291C31.5616 36.8111 31.5852 36.7877 31.6034 36.7604C31.6217 36.733 31.6342 36.7022 31.6402 36.6699C31.6463 36.6376 31.6458 36.6044 31.6387 36.5723Z" fill="#FF8859"/>
  <path d="M35.7891 8.34961H15.916C15.1688 8.36217 14.4558 8.66458 13.9274 9.19299C13.399 9.7214 13.0965 10.4345 13.084 11.1816V41.6992C13.0965 42.4464 13.399 43.1595 13.9274 43.6879C14.4558 44.2163 15.1688 44.5187 15.916 44.5312H35.7891C36.5362 44.5187 37.2493 44.2163 37.7777 43.6879C38.3061 43.1595 38.6085 42.4464 38.6211 41.6992V11.2305C38.6212 10.4748 38.3244 9.74935 37.7946 9.21046C37.2649 8.67158 36.5446 8.36242 35.7891 8.34961ZM19.2363 37.207C19.0898 37.2559 18.8457 37.3047 18.6504 37.3047H18.3574V38.1348H17.918V35.9375H19.2363C19.3828 35.9863 19.5781 36.1816 19.5781 36.5234C19.5781 36.8652 19.3828 37.1582 19.2363 37.207ZM21.1406 38.0859L20.9453 37.5977H20.0664L19.8711 38.0859H19.4316L20.2617 35.8887H20.75L21.6289 38.0859H21.1406ZM23.1914 38.0371C23.0216 38.1082 22.8383 38.1415 22.6543 38.1348C22.4102 38.1348 21.8242 38.1348 21.7754 37.4023H22.2148C22.2148 37.5 22.3125 37.8418 22.7031 37.8418C23.0938 37.8418 23.1426 37.6953 23.1426 37.5488C23.1426 37.4023 22.9961 37.3047 22.6055 37.207C22.2148 37.1094 21.9219 37.0117 21.9219 36.5723C21.9219 36.1328 22.0684 35.9863 22.7031 35.9863C23.3379 35.9863 23.5332 36.1328 23.5332 36.6699H23.0938C23.0938 36.5723 23.0449 36.377 22.7031 36.377C22.3613 36.377 22.3125 36.4258 22.3125 36.5723C22.3125 36.7188 22.459 36.7676 22.8008 36.8652C23.1426 36.9629 23.582 37.0605 23.582 37.5977C23.5526 37.7024 23.4967 37.7979 23.4198 37.8748C23.3428 37.9518 23.2474 38.0077 23.1426 38.0371H23.1914ZM25.2422 38.0371C25.0724 38.1082 24.8891 38.1415 24.7051 38.1348C24.4609 38.1348 23.875 38.1348 23.8262 37.4023H24.2656C24.2656 37.5 24.3633 37.8418 24.7539 37.8418C25.1445 37.8418 25.1934 37.6953 25.1934 37.5488C25.1934 37.4023 25.0469 37.3047 24.6562 37.207C24.2656 37.1094 23.9727 37.0117 23.9727 36.5723C23.9727 36.1328 24.1191 35.9863 24.7539 35.9863C25.3887 35.9863 25.584 36.1328 25.584 36.6699H25.1445C25.1445 36.5723 25.0957 36.377 24.7539 36.377C24.4121 36.377 24.3633 36.4258 24.3633 36.5723C24.3633 36.7188 24.5098 36.7676 24.8516 36.8652C25.1934 36.9629 25.6328 37.0605 25.6328 37.5977C25.6034 37.7024 25.5475 37.7979 25.4705 37.8748C25.3936 37.9518 25.2981 38.0077 25.1934 38.0371H25.2422ZM19.2852 20.459C19.2852 16.8945 22.2148 13.9648 25.7793 13.9648C29.3438 13.9648 32.2734 16.8945 32.2734 20.459C32.2734 24.0234 29.3438 26.9531 25.7793 26.9531C22.2148 26.9531 19.2852 24.0234 19.2852 20.459ZM27.1953 37.207C27.0488 37.2559 26.8047 37.3047 26.6094 37.3047H26.3164V38.1348H25.877V35.9375H27.1953C27.3418 35.9863 27.5371 36.1816 27.5371 36.5234C27.5371 36.8652 27.3418 37.1582 27.1953 37.207ZM28.8555 38.1348C28.0254 38.1348 27.7812 37.5 27.7812 37.0117C27.7812 36.5234 28.1719 35.8887 28.8555 35.8887C29.5391 35.8887 29.9297 36.377 29.9297 37.0117C29.9297 37.6465 29.6367 38.1348 28.9043 38.1348H28.8555ZM31.6875 38.0859L31.3945 37.5977C31.1504 37.207 31.1016 37.1582 30.8086 37.1582H30.7109V38.0859H30.2715V35.9375H31.6875C31.9316 36.0352 32.0293 36.2793 32.0293 36.4746C32.0293 36.6699 31.9316 36.9141 31.6875 37.0117H31.4434C31.6387 37.1094 31.6875 37.207 31.9316 37.5488L32.1758 37.9883L31.6875 38.0859ZM33.9824 36.2793H33.3477V38.0859H32.9082V36.3281H32.2734V35.9375H33.9824V36.2793Z" fill="#FF8859"/>
  <path d="M20.2129 37.2559H20.7988L20.5059 36.4258L20.2129 37.2559ZM31.2969 20.459C31.3021 19.6677 31.1355 18.8847 30.8086 18.1641C31.1326 18.8857 31.299 19.668 31.2969 20.459Z" fill="#FF8859"/>
  <path d="M35.7891 7.37305H15.916C14.9098 7.3857 13.9485 7.79103 13.2369 8.50255C12.5254 9.21408 12.1201 10.1755 12.1074 11.1816V41.6992C12.1201 42.7054 12.5254 43.6668 13.2369 44.3783C13.9485 45.0898 14.9098 45.4952 15.916 45.5078H35.7891C36.7952 45.4952 37.7566 45.0898 38.4681 44.3783C39.1797 43.6668 39.585 42.7054 39.5977 41.6992V11.2305C39.5977 10.2158 39.198 9.242 38.4852 8.51998C37.7723 7.79796 36.8036 7.38589 35.7891 7.37305ZM38.6211 41.6992C38.6085 42.4464 38.3061 43.1595 37.7777 43.6879C37.2493 44.2163 36.5362 44.5187 35.7891 44.5312H15.916C15.1688 44.5187 14.4558 44.2163 13.9274 43.6879C13.399 43.1595 13.0965 42.4464 13.084 41.6992V11.2305C13.0965 10.4833 13.399 9.77023 13.9274 9.24181C14.4558 8.7134 15.1688 8.411 15.916 8.39844H35.7891C36.5362 8.411 37.2493 8.7134 37.7777 9.24181C38.3061 9.77023 38.6085 10.4833 38.6211 11.2305V41.6992Z" fill="#5546CB"/>
  <path d="M19.2363 35.9863H17.918V38.1836H18.3574V37.3047H18.6504C18.8457 37.3047 19.0898 37.3047 19.2363 37.207C19.3828 37.1094 19.5781 36.9629 19.5781 36.5723C19.5781 36.1816 19.3828 36.084 19.2363 35.9863ZM18.6016 36.9141H18.3574V36.3281H18.5527C18.7969 36.3281 18.8945 36.3281 18.9922 36.4258C19.0264 36.4561 19.053 36.4939 19.0699 36.5363C19.0869 36.5787 19.0937 36.6244 19.0898 36.6699C19.1387 36.9141 18.8457 36.9141 18.6016 36.9141ZM20.2617 35.9375L19.4316 38.1348H19.9199L20.1152 37.6465H20.9941L21.1895 38.1348H21.6777L20.7988 35.9375H20.2617ZM20.2129 37.2559L20.5059 36.4258L20.7988 37.2559H20.2129ZM22.7031 36.7676C22.3613 36.6699 22.2148 36.6211 22.2148 36.4746C22.2148 36.3281 22.459 36.2793 22.6055 36.2793C22.752 36.2793 22.9961 36.4746 22.9961 36.5723H23.4355C23.4355 36.084 23.0449 35.8887 22.6055 35.8887C22.166 35.8887 21.8242 36.2793 21.8242 36.4746C21.8242 36.6699 22.3125 37.0605 22.5078 37.1094C22.7031 37.1582 23.0449 37.2559 23.0449 37.4512C23.0449 37.6465 22.9473 37.7441 22.6055 37.7441C22.2637 37.7441 22.166 37.4512 22.1172 37.3047H21.6777C21.7754 38.0371 22.3613 38.0371 22.5566 38.0371C22.7406 38.0439 22.9239 38.0106 23.0938 37.9395C23.2003 37.8841 23.289 37.7997 23.3495 37.696C23.41 37.5923 23.4398 37.4735 23.4355 37.3535C23.4844 36.9629 23.0449 36.8652 22.7031 36.7676ZM24.7539 36.7676C24.4121 36.6699 24.2656 36.6211 24.2656 36.4746C24.2656 36.3281 24.5098 36.2793 24.6562 36.2793C24.8027 36.2793 25.0469 36.4746 25.0469 36.5723H25.4863C25.4863 36.084 25.0957 35.8887 24.6562 35.8887C24.2168 35.8887 23.875 36.2793 23.875 36.4746C23.875 36.6699 24.3633 37.0605 24.5586 37.1094C24.7539 37.1582 25.0957 37.2559 25.0957 37.4512C25.0957 37.6465 24.998 37.7441 24.6562 37.7441C24.3145 37.7441 24.2168 37.4512 24.168 37.3047H23.7285C23.8262 38.0371 24.4121 38.0371 24.6074 38.0371C24.7914 38.0439 24.9747 38.0106 25.1445 37.9395C25.2511 37.8841 25.3398 37.7997 25.4003 37.696C25.4608 37.5923 25.4906 37.4735 25.4863 37.3535C25.5352 36.9629 25.0957 36.8652 24.7539 36.7676ZM27.1953 35.9863H25.877V38.1836H26.3164V37.3047H26.6094C26.8047 37.3047 27.0488 37.3047 27.1953 37.207C27.3418 37.1094 27.5371 36.9629 27.5371 36.5723C27.5371 36.1816 27.3418 36.084 27.1953 35.9863ZM26.5605 36.9141H26.3164V36.3281H26.5117C26.7559 36.3281 26.8535 36.3281 26.9512 36.4258C26.9853 36.4561 27.012 36.4939 27.0289 36.5363C27.0459 36.5787 27.0527 36.6244 27.0488 36.6699C27.0977 36.9141 26.8047 36.9141 26.5605 36.9141ZM28.8555 35.8887C28.1719 35.8887 27.7812 36.3281 27.7812 37.0117C27.7812 37.6953 28.0254 38.1348 28.8555 38.1348C29.6855 38.1348 29.8809 37.5977 29.8809 37.0117C29.8809 36.4258 29.5879 35.8887 28.8555 35.8887ZM28.8555 37.7441C28.7548 37.746 28.6556 37.7195 28.5693 37.6677C28.483 37.6159 28.4129 37.5409 28.3672 37.4512C28.3184 37.3535 28.2695 37.207 28.2695 36.9629C28.2695 36.7188 28.3672 36.2305 28.8555 36.2305C29.3438 36.2305 29.4414 36.7188 29.4414 36.9629C29.4414 37.207 29.0996 37.793 28.9043 37.793L28.8555 37.7441ZM31.4922 37.1582H31.7363C31.9316 37.0605 32.0781 36.8652 32.0781 36.6211C32.0781 36.377 31.9805 36.1816 31.7363 36.084H30.2715V38.2812H30.7109V37.207H30.8086C31.1016 37.207 31.1504 37.2559 31.3945 37.6465L31.6875 38.1348H32.2246L31.9805 37.6953C31.7852 37.3535 31.6875 37.2559 31.4922 37.1582ZM31.0527 36.8652H30.7109V36.3281H31.4922C31.5301 36.3553 31.5594 36.3927 31.5767 36.4359C31.594 36.4792 31.5986 36.5265 31.5898 36.5723C31.594 36.6232 31.5822 36.6741 31.5559 36.7179C31.5296 36.7617 31.4902 36.7961 31.4434 36.8164L31.0527 36.8652ZM32.2734 36.3281H32.9082V38.1348H33.3477V36.3281H33.9824V35.9375H32.2734V36.3281Z" fill="#5546CB"/>
  <path d="M25.7793 25.9759C26.5514 25.9784 27.3153 25.819 28.0218 25.5078C28.7283 25.1966 29.3617 24.7406 29.8809 24.1692H21.6778C22.197 24.7406 22.8304 25.1966 23.5369 25.5078C24.2434 25.819 25.0073 25.9784 25.7793 25.9759ZM24.9493 22.1673H26.9512L27.4883 23.1438H30.5645C31.0362 22.3268 31.2885 21.4017 31.2969 20.4583C31.2991 19.6673 31.1326 18.885 30.8086 18.1634C30.1482 16.8554 28.9952 15.8634 27.6033 15.4056C26.9142 15.1788 26.1871 15.0901 25.4636 15.1444C24.7401 15.1987 24.0344 15.3949 23.3868 15.722C22.0788 16.3824 21.0868 17.5354 20.6289 18.9273C20.1711 20.3191 20.2849 21.8359 20.9454 23.1438H24.5098L24.9493 22.1673ZM28.2208 17.6263L28.5626 17.8704L29.002 17.7239L28.8555 18.1634L29.0997 18.5052H28.6602L28.4161 18.847L28.2696 18.4075L27.8301 18.261L28.1719 18.0169L28.2208 17.6263ZM27.6836 19.7747L27.5372 20.2142L27.7813 20.556H27.3418L27.0977 20.8977L26.9512 20.4583L26.5118 20.3118L26.8536 20.0677V19.6282L27.1954 19.8724L27.6836 19.7747ZM25.4376 17.2845L25.8282 16.4544L26.2188 17.2845L27.0977 17.431L26.4629 18.0657L26.6094 18.9446L25.8282 18.5052L25.0469 18.9446L25.1934 18.0657L24.5586 17.431L25.4376 17.2845ZM23.1426 18.5052L22.9961 18.9446L22.752 18.6028H22.3126L22.5567 18.261L22.4102 17.8216L22.8497 17.9681L23.1915 17.7239V18.1634L23.5333 18.4075L23.1426 18.5052ZM23.9239 20.6048L24.168 20.263L24.0215 19.8235L24.461 19.97L24.8028 19.7259V20.1653L25.1446 20.4095L24.7051 20.556L24.5586 20.9954L24.3145 20.6536L23.9239 20.6048Z" fill="#FDCD60"/>
  <path d="M25.0469 18.8965L25.8281 18.5059L26.6582 18.8965L26.5117 18.0176L27.1465 17.3828L26.2188 17.2852L25.8281 16.4551L25.4375 17.2852L24.5586 17.3828L25.1934 18.0176L25.0469 18.8965ZM23.2402 17.627L22.8496 17.9199L22.459 17.7734L22.6055 18.1641L22.3125 18.5547H22.752L23.0449 18.8965L23.1426 18.457L23.582 18.3594L23.2402 18.0664V17.627ZM24.7539 20.5078L25.1934 20.3613L24.8027 20.1172V19.6289L24.4609 19.9219L24.0703 19.7754L24.168 20.2148L23.9238 20.5566H24.3633L24.6074 20.8984L24.7539 20.5078ZM28.3184 18.457L28.416 18.8965L28.709 18.5547H29.1484L28.8555 18.1641L29.002 17.7734L28.6113 17.9199L28.2207 17.627V18.0664L27.8789 18.3594L28.3184 18.457ZM26.9512 20.1172L26.5605 20.3613L27 20.5078L27.1465 20.8984L27.3906 20.5566H27.8301L27.5859 20.2148L27.6836 19.7754L27.293 19.9219L26.9512 19.6289V20.1172Z" fill="#F97744"/>
  <path d="M32.2734 20.459C32.2734 16.8945 29.3438 13.9648 25.7793 13.9648C22.2148 13.9648 19.2852 16.8457 19.2852 20.459C19.2852 24.0723 22.2148 26.9531 25.7793 26.9531C29.3438 26.9531 32.2734 24.0234 32.2734 20.459ZM20.9453 23.1445C20.524 22.4106 20.2771 21.5896 20.2239 20.7449C20.1706 19.9003 20.3123 19.0548 20.638 18.2737C20.9638 17.4926 21.4649 16.797 22.1025 16.2405C22.7401 15.684 23.4971 15.2817 24.3151 15.0646C25.1331 14.8475 25.99 14.8215 26.8196 14.9886C27.6493 15.1556 28.4294 15.5113 29.0996 16.028C29.7698 16.5448 30.3121 17.2088 30.6847 17.9686C31.0572 18.7285 31.25 19.5639 31.248 20.4102C31.2396 21.3535 30.9873 22.2787 30.5156 23.0957H27.4883L26.9512 22.1191H24.9492L24.5098 23.0957L20.9453 23.1445ZM25.7305 25.9277C24.9585 25.9303 24.1945 25.7708 23.488 25.4596C22.7815 25.1484 22.1481 24.6924 21.6289 24.1211H29.8809C29.366 24.7013 28.7346 25.1664 28.0279 25.4862C27.3212 25.8059 26.555 25.973 25.7793 25.9766L25.7305 25.9277Z" fill="#5546CB"/>
</svg>