<svg xmlns="http://www.w3.org/2000/svg" viewBox="0 0 20 20" fill="none">
    <path d="M11.4546 15.4546C11.4536 15.6886 11.3624 15.9133 11.2 16.0818C11.1152 16.1698 11.0135 16.2398 10.9011 16.2876C10.7886 16.3354 10.6677 16.36 10.5455 16.36C10.4233 16.36 10.3023 16.3354 10.1898 16.2876C10.0774 16.2398 9.97572 16.1698 9.89091 16.0818C9.72706 15.9123 9.63547 15.6858 9.63547 15.45C9.63547 15.2142 9.72706 14.9877 9.89091 14.8182C9.97572 14.7302 10.0774 14.6602 10.1898 14.6124C10.3023 14.5646 10.4233 14.54 10.5455 14.54C10.6677 14.54 10.7886 14.5646 10.9011 14.6124C11.0135 14.6602 11.1152 14.7302 11.2 14.8182C11.3646 14.989 11.456 15.2173 11.4546 15.4546ZM7.99092 7.13637C7.97678 7.23356 7.94309 7.32688 7.8919 7.41071C7.84071 7.49453 7.77307 7.56712 7.69306 7.62408C7.61305 7.68105 7.52233 7.72123 7.42637 7.74218C7.33041 7.76313 7.23121 7.76443 7.13473 7.74599C7.03826 7.72756 6.94652 7.68977 6.86505 7.63492C6.78357 7.58006 6.71406 7.50927 6.66069 7.42682C6.60732 7.34436 6.57121 7.25195 6.55453 7.15516C6.53785 7.05837 6.54095 6.9592 6.56364 6.86364C6.70153 5.99701 7.14295 5.20761 7.80909 4.63637C8.48262 4.08659 9.33085 3.79632 10.2 3.81819C10.6502 3.81496 11.098 3.88245 11.5273 4.01817C11.951 4.15048 12.3437 4.36693 12.6818 4.65455C13.017 4.94625 13.2865 5.30566 13.4727 5.70908C13.6759 6.15077 13.7783 6.63207 13.7727 7.11819C13.7801 7.47753 13.7341 7.83597 13.6364 8.18183C13.5541 8.47465 13.4285 8.75349 13.2636 9.00909C13.1066 9.24667 12.9203 9.46354 12.7091 9.65456L12.1455 10.1455C11.9576 10.297 11.8 10.4333 11.6727 10.5546C11.5879 10.6351 11.5145 10.7268 11.4546 10.8273C11.4028 10.9178 11.366 11.016 11.3455 11.1182C11.3278 11.2935 11.3278 11.4701 11.3455 11.6455V12.5545C11.3455 12.7474 11.2688 12.9324 11.1325 13.0688C10.9961 13.2052 10.8111 13.2818 10.6182 13.2818C10.4253 13.2818 10.2403 13.2052 10.1039 13.0688C9.96754 12.9324 9.89091 12.7474 9.89091 12.5545V11.6455C9.88658 11.3679 9.91095 11.0907 9.96363 10.8182C10.0157 10.5658 10.1078 10.3233 10.2364 10.1C10.3657 9.88202 10.5248 9.68314 10.7091 9.50909C10.8636 9.35456 11.0545 9.19092 11.2636 9.01818L11.7727 8.57272C11.8941 8.46246 12.0011 8.33722 12.0909 8.2C12.176 8.06489 12.2403 7.9178 12.2818 7.76364C12.3348 7.56198 12.3592 7.35391 12.3546 7.14546C12.3501 6.87386 12.2849 6.60671 12.1636 6.36363C12.0634 6.14461 11.9178 5.94938 11.7364 5.7909C11.545 5.62884 11.3221 5.50813 11.0818 5.43636C10.7882 5.34193 10.4812 5.29588 10.1727 5.29999C9.6426 5.27808 9.12253 5.44928 8.70909 5.78183C8.31881 6.13558 8.06472 6.61482 7.99092 7.13637ZM10 18.5455C11.6901 18.5455 13.3423 18.0443 14.7476 17.1053C16.1529 16.1663 17.2482 14.8317 17.895 13.2702C18.5418 11.7087 18.711 9.99052 18.3813 8.33286C18.0515 6.67521 17.2377 5.15255 16.0426 3.95745C14.8475 2.76234 13.3248 1.94846 11.6671 1.61874C10.0095 1.28901 8.29128 1.45824 6.72979 2.10502C5.16831 2.75181 3.8337 3.8471 2.89471 5.2524C1.95572 6.65769 1.45454 8.30987 1.45454 10C1.45454 12.2664 2.35486 14.44 3.95745 16.0426C5.56003 17.6451 7.7336 18.5455 10 18.5455ZM10 20C8.02219 20 6.08879 19.4135 4.4443 18.3147C2.79981 17.2159 1.51809 15.6541 0.761209 13.8268C0.00433283 11.9996 -0.1937 9.98891 0.192152 8.0491C0.578004 6.10929 1.53041 4.32746 2.92894 2.92894C4.32746 1.53041 6.10929 0.578004 8.0491 0.192152C9.98891 -0.1937 11.9996 0.00433283 13.8268 0.761209C15.6541 1.51809 17.2159 2.79981 18.3147 4.4443C19.4135 6.08879 20 8.02219 20 10C20 12.6522 18.9464 15.1957 17.0711 17.0711C15.1957 18.9464 12.6522 20 10 20Z" fill="white"/>
  </svg>