<svg viewBox="0 0 40 40" fill="none" xmlns="http://www.w3.org/2000/svg">
<path d="M20 1.55005e-05C17.316 -0.00331839 14.659 0.531174 12.1882 1.57146C9.76958 2.58978 7.5781 4.07225 5.73937 5.93313V2.78076L5.71644 2.51448C5.6508 2.1056 5.43205 1.73638 5.10394 1.48066C4.77583 1.22494 4.36255 1.10156 3.94673 1.13521C3.53092 1.16885 3.14323 1.35704 2.86119 1.66213C2.57916 1.96722 2.42356 2.36673 2.42553 2.78076V9.88173L2.44847 10.148C2.51206 10.5323 2.71114 10.8818 3.0102 11.134C3.30926 11.3861 3.68886 11.5247 4.0813 11.525H11.2319L11.5025 11.5022C11.8893 11.4386 12.2408 11.2408 12.4945 10.9441C12.7482 10.6473 12.8875 10.2709 12.8876 9.88173H12.8922L12.8693 9.61544C12.7409 8.83479 12.0597 8.23622 11.2342 8.23622H8.10254C10.3993 5.91895 13.3332 4.32282 16.5392 3.64833C19.7914 2.96413 23.1754 3.25951 26.2574 4.4966C29.3393 5.73369 31.9787 7.85611 33.8372 10.5917C35.6957 13.3274 36.6885 16.5515 36.6884 19.8509C36.7143 22.042 36.3018 24.2165 35.4748 26.2483C34.6478 28.2801 33.4227 30.1288 31.8706 31.6873C30.3185 33.2459 28.4701 34.4832 26.4327 35.3277C24.3952 36.1722 22.2092 36.6071 20.0011 36.6071C17.7931 36.6071 15.607 36.1722 13.5696 35.3277C11.5321 34.4832 9.68379 33.2459 8.13166 31.6873C6.57953 30.1288 5.35448 28.2801 4.52747 26.2483C3.70047 24.2165 3.28796 22.042 3.31384 19.8509C3.31384 19.415 3.13939 18.9971 2.82887 18.6889C2.51836 18.3807 2.0972 18.2076 1.65807 18.2076C1.21893 18.2076 0.797776 18.3807 0.487258 18.6889C0.176741 18.9971 0.00229348 19.415 0.00229348 19.8509C-0.0378652 22.4824 0.449718 25.0956 1.43667 27.5384C2.42363 29.9812 3.89025 32.2048 5.75119 34.0798C7.61213 35.9548 9.83023 37.4439 12.2764 38.4602C14.7226 39.4766 17.3481 40 20 40C22.6519 40 25.2774 39.4766 27.7236 38.4602C30.1698 37.4439 32.3879 35.9548 34.2488 34.0798C36.1097 32.2048 37.5764 29.9812 38.5633 27.5384C39.5503 25.0956 40.0379 22.4824 39.9977 19.8509C39.998 17.2443 39.481 14.6632 38.4762 12.255C37.4713 9.84671 35.9984 7.65846 34.1414 5.81514C32.2845 3.97181 30.0799 2.50953 27.6535 1.51177C25.2271 0.514009 22.6264 0.000314368 20 1.55005e-05Z" fill="white"/>
<path d="M19.0179 26.9036L26.4873 21.7168V21.7145C26.7891 21.5046 27.0356 21.2256 27.2057 20.9011C27.3759 20.5766 27.4647 20.2163 27.4647 19.8505C27.4647 19.4847 27.3759 19.1243 27.2057 18.7998C27.0356 18.4753 26.7891 18.1964 26.4873 17.9865L19.0179 12.7973C18.6741 12.5588 18.271 12.4184 17.8524 12.3914C17.4338 12.3644 17.0157 12.4519 16.6438 12.6444C16.2718 12.8368 15.9601 13.1268 15.7427 13.4829C15.5252 13.8389 15.4104 14.2473 15.4106 14.6636V25.0374C15.4104 25.4537 15.5252 25.8621 15.7427 26.2181C15.9601 26.5741 16.2718 26.8641 16.6438 27.0566C17.0157 27.249 17.4338 27.3365 17.8524 27.3095C18.271 27.2826 18.6741 27.1422 19.0179 26.9036Z" fill="white"/>
</svg>
