<svg viewBox="0 0 20 20" fill="none" xmlns="http://www.w3.org/2000/svg">
<path d="M18.0313 2.85906C17.6426 2.50692 17.0979 2.4053 16.609 2.592L2.40239 8.04188C1.87398 8.24513 1.52713 8.72725 1.50153 9.30155C1.47592 9.87584 1.77388 10.3887 2.28367 10.6416L4.50208 11.7429C4.54631 11.7642 4.58588 11.7949 4.6208 11.828C4.85125 12.4306 5.76143 14.7916 6.16647 15.6448C6.37132 16.0796 6.74842 16.3845 7.09759 16.5168C7.07431 16.5145 7.04871 16.5098 7.02078 16.505C7.08828 16.531 7.15812 16.5523 7.23028 16.5665C7.69119 16.661 8.16373 16.5168 8.49428 16.1789L9.32066 15.3399C9.46731 15.191 9.69776 15.1579 9.87933 15.2619L13.4386 17.3133C13.6527 17.4362 13.8902 17.5 14.1276 17.5C14.3138 17.5 14.5024 17.4622 14.6793 17.3842C15.0843 17.2069 15.3776 16.8572 15.4847 16.4223L18.4573 4.2558C18.5854 3.74531 18.4201 3.20883 18.0313 2.85906ZM5.50537 11.5373L13.122 7.11308L8.8225 11.5845C8.75267 11.6578 8.70146 11.7405 8.66654 11.8374C8.66421 11.8421 8.66421 11.8445 8.66188 11.8492C8.65257 11.8776 7.80292 14.4229 7.30011 15.5739C7.19769 15.5053 7.07432 15.3943 7.00215 15.2406C6.6297 14.4466 5.76143 12.199 5.50537 11.5373Z" fill="black"/>
</svg>
