<svg viewBox="0 0 20 20" fill="none" xmlns="http://www.w3.org/2000/svg">
<path d="M4.04891 10C4.04891 6.7133 6.7133 4.04891 10 4.04891C10.4277 4.04891 10.7745 3.70218 10.7745 3.27446C10.7745 2.84674 10.4277 2.5 10 2.5C5.85786 2.5 2.5 5.85786 2.5 10C2.5 14.1421 5.85786 17.5 10 17.5C14.1421 17.5 17.5 14.1421 17.5 10C17.5 9.57228 17.1533 9.22554 16.7255 9.22554C16.2978 9.22554 15.9511 9.57228 15.9511 10C15.9511 13.2867 13.2867 15.9511 10 15.9511C6.7133 15.9511 4.04891 13.2867 4.04891 10Z" fill="black"/>
<path d="M16.75 2.5H13C12.5858 2.5 12.25 2.83579 12.25 3.25C12.25 3.66421 12.5858 4 13 4L14.9393 4L9.21967 9.71967C8.92678 10.0126 8.92678 10.4874 9.21967 10.7803C9.51256 11.0732 9.98744 11.0732 10.2803 10.7803L16 5.06066V7C16 7.41421 16.3358 7.75 16.75 7.75C17.1642 7.75 17.5 7.41421 17.5 7L17.5 3.25C17.5 2.83579 17.1642 2.5 16.75 2.5Z" fill="black"/>
</svg>
