<svg viewBox="0 0 20 20" fill="none" xmlns="http://www.w3.org/2000/svg">
<path fill-rule="evenodd" clip-rule="evenodd" d="M1.51515 6.25C1.51515 5.00736 2.53269 4 3.78789 4H13.3839C14.6391 4 15.6566 5.00736 15.6566 6.25V13.75C15.6566 14.9926 14.6391 16 13.3839 16H3.78789C2.53269 16 1.51515 14.9926 1.51515 13.75V13.25C1.51515 12.8358 1.17598 12.5 0.757577 12.5C0.339179 12.5 0 12.8358 0 13.25V13.75C0 15.8211 1.69589 17.5 3.78789 17.5H13.3839C15.4759 17.5 17.1717 15.8211 17.1717 13.75V13.6596L17.5144 13.8104C18.6833 14.3247 20 13.4776 20 12.2112V7.28871C20 6.02231 18.6833 5.17521 17.5144 5.68954L17.1504 5.84969C16.9486 3.96684 15.3393 2.5 13.3839 2.5H3.78789C1.69589 2.5 0 4.17893 0 6.25V8.75C0 9.16421 0.339179 9.5 0.757577 9.5C1.17598 9.5 1.51515 9.16421 1.51515 8.75V6.25ZM17.1717 7.48179V12.0181L18.1298 12.4396C18.2968 12.5131 18.4848 12.3921 18.4848 12.2112V7.28871C18.4848 7.1078 18.2968 6.98678 18.1298 7.06026L17.1717 7.48179Z" fill="white"/>
<path d="M10.1516 10.9166C10.825 10.5317 10.825 9.56941 10.1516 9.1845L7.87885 7.88547C7.20545 7.50057 6.3637 7.98169 6.3637 8.75149V11.3496C6.3637 12.1194 7.20545 12.6005 7.87885 12.2156L10.1516 10.9166Z" fill="white"/>
<path d="M1.51515 10.9C1.51515 11.3142 1.17598 11.65 0.757577 11.65C0.339179 11.65 0 11.3142 0 10.9C0 10.4858 0.339179 10.15 0.757577 10.15C1.17598 10.15 1.51515 10.4858 1.51515 10.9Z" fill="white"/>
</svg>
