<svg viewBox="0 0 15 15" fill="none" xmlns="http://www.w3.org/2000/svg">
  <path
    d="M3.08473 3.84524H0.881353C0.647604 3.84524 0.423428 3.94792 0.258142 4.13069C0.0928566 4.31346 5.4785e-09 4.56136 0 4.81984V10.1802C0 10.4386 0.0928566 10.6865 0.258142 10.8693C0.423428 11.0521 0.647604 11.1548 0.881353 11.1548H3.08473L6.0593 13.7862C6.18888 13.9009 6.34513 13.9728 6.51006 13.9937C6.67499 14.0145 6.84188 13.9835 6.99153 13.904C7.14119 13.8246 7.26751 13.7 7.35596 13.5447C7.44441 13.3894 7.49139 13.2096 7.4915 13.026V1.974C7.49139 1.79043 7.44441 1.61063 7.35596 1.4553C7.26751 1.29996 7.14119 1.17541 6.99153 1.09598C6.84188 1.01654 6.67499 0.98546 6.51006 1.00631C6.34513 1.02715 6.18888 1.09908 6.0593 1.2138L3.08473 3.84524Z"
    fill="white" />
  <path fill-rule="evenodd" clip-rule="evenodd"
    d="M8.5 5C8.5 4.58579 8.83579 4.25 9.25 4.25C10.9163 4.25 12 5.8699 12 7.5C12 9.1301 10.9163 10.75 9.25 10.75C8.83579 10.75 8.5 10.4142 8.5 10C8.5 9.58579 8.83579 9.25 9.25 9.25C9.79283 9.25 10.5 8.63132 10.5 7.5C10.5 6.36868 9.79283 5.75 9.25 5.75C8.83579 5.75 8.5 5.41421 8.5 5Z"
    fill="white" />
  <path fill-rule="evenodd" clip-rule="evenodd"
    d="M8.5 2C8.5 1.58579 8.83579 1.25 9.25 1.25C12.4913 1.25 15 4.11709 15 7.5C15 10.8829 12.4913 13.75 9.25 13.75C8.83579 13.75 8.5 13.4142 8.5 13C8.5 12.5858 8.83579 12.25 9.25 12.25C11.5315 12.25 13.5 10.1922 13.5 7.5C13.5 4.80778 11.5315 2.75 9.25 2.75C8.83579 2.75 8.5 2.41421 8.5 2Z"
    fill="white" />
</svg>