<svg viewBox="0 0 15 13" fill="none" xmlns="http://www.w3.org/2000/svg">
  <path
    d="M3.08473 2.84524H0.881353C0.647604 2.84524 0.423428 2.94792 0.258142 3.13069C0.0928566 3.31346 5.4785e-09 3.56136 0 3.81984V9.18016C0 9.43864 0.0928566 9.68654 0.258142 9.86931C0.423428 10.0521 0.647604 10.1548 0.881353 10.1548H3.08473L6.0593 12.7862C6.18888 12.9009 6.34513 12.9728 6.51006 12.9937C6.67499 13.0145 6.84188 12.9835 6.99153 12.904C7.14119 12.8246 7.26751 12.7 7.35596 12.5447C7.44441 12.3894 7.49139 12.2096 7.4915 12.026V0.973996C7.49139 0.790433 7.44441 0.610633 7.35596 0.455299C7.26751 0.299964 7.14119 0.17541 6.99153 0.0959765C6.84188 0.016543 6.67499 -0.0145404 6.51006 0.00630517C6.34513 0.0271507 6.18888 0.0990773 6.0593 0.213804L3.08473 2.84524Z"
    fill="white" />
  <path fill-rule="evenodd" clip-rule="evenodd"
    d="M8.5 4C8.5 3.58579 8.83579 3.25 9.25 3.25C10.9163 3.25 12 4.8699 12 6.5C12 8.1301 10.9163 9.75 9.25 9.75C8.83579 9.75 8.5 9.41421 8.5 9C8.5 8.58579 8.83579 8.25 9.25 8.25C9.79283 8.25 10.5 7.63132 10.5 6.5C10.5 5.36868 9.79283 4.75 9.25 4.75C8.83579 4.75 8.5 4.41421 8.5 4Z"
    fill="white" />
  <path fill-rule="evenodd" clip-rule="evenodd"
    d="M8.5 1C8.5 0.585786 8.83579 0.25 9.25 0.25C12.4913 0.25 15 3.11709 15 6.5C15 9.88291 12.4913 12.75 9.25 12.75C8.83579 12.75 8.5 12.4142 8.5 12C8.5 11.5858 8.83579 11.25 9.25 11.25C11.5315 11.25 13.5 9.19222 13.5 6.5C13.5 3.80778 11.5315 1.75 9.25 1.75C8.83579 1.75 8.5 1.41421 8.5 1Z"
    fill="white" />
</svg>