
<svg viewBox="0 0 24 24" fill="none" xmlns="http://www.w3.org/2000/svg">
<path d="M12 1.5C17.7984 1.5 22.5 6.20156 22.5 12C22.5 17.7984 17.7984 22.5 12 22.5C6.20156 22.5 1.5 17.7984 1.5 12C1.5 6.20156 6.20156 1.5 12 1.5ZM5.83594 18.1641C6.6375 18.9656 7.57031 19.5938 8.60859 20.0344C9.67969 20.4891 10.8211 20.7188 12 20.7188C13.1789 20.7188 14.3203 20.4891 15.3937 20.0344C16.432 19.5961 17.3648 18.9656 18.1664 18.1641C18.968 17.3625 19.5961 16.4297 20.0367 15.3914C20.4891 14.3203 20.7188 13.1789 20.7188 12C20.7188 10.8211 20.4891 9.67969 20.0344 8.60625C19.5961 7.56797 18.9656 6.63516 18.1641 5.83359C17.3625 5.03203 16.4297 4.40391 15.3914 3.96328C14.3203 3.51094 13.1789 3.28125 12 3.28125C10.8211 3.28125 9.67969 3.51094 8.60625 3.96562C7.56797 4.40391 6.63516 5.03437 5.8336 5.83594C5.03203 6.6375 4.40391 7.57031 3.96328 8.60859C3.51094 9.67969 3.28125 10.8211 3.28125 12C3.28125 13.1789 3.51094 14.3203 3.96563 15.3937C4.40391 16.432 5.03437 17.3648 5.83594 18.1641Z" fill="white"/>
<path d="M20.5599 10.231C20.8467 8.7191 19.539 6.71274 18.5426 5.41362C17.1373 3.58156 14.4761 2.98784 12.0732 3.50965C9.77158 4.00948 10.1171 5.43157 11.1056 5.41362C11.1931 5.41202 11.2093 5.71664 11.2178 5.88113C11.2522 6.5385 11.1056 7.66847 12.454 7.66847C13.4968 8.21316 12.454 8.74017 11.7401 8.7191C11.0262 8.69806 11.2179 8.41976 11.0163 8.21316C10.4674 8.05894 10.1698 8.09782 10.0328 8.2358C9.83109 8.2358 10.3845 8.93417 10.813 9.7823C11.1056 10.3444 11.0919 10.349 11.2179 11.0005C11.2179 11.8188 11.0163 12.7252 11.3819 12.7252C11.6256 12.7252 11.983 12.2076 12.454 11.1724C12.7011 11.0578 12.9548 11.0005 13.2152 11.0005C13.6982 11.0005 13.8175 10.5859 14.1098 11.1724C14.5378 12.0773 14.735 11.5512 14.92 11.5512C14.92 12.0773 15.0427 12.4463 14.92 13.2011C14.8516 13.6216 14.92 13.9018 14.5378 13.9018C12.665 13.535 13.5217 13.9274 11.8736 14.676C11.7401 15.0371 11.1056 15.4783 10.574 15.5908C10.3426 15.8023 10.3426 16.0756 10.1991 16.2063C9.01619 16.2063 8.96179 17.2156 9.58636 17.7607C10.0027 18.124 10.3319 18.8747 10.574 20.0129C10.3656 19.9068 10.1852 19.9068 10.0328 20.0129C9.73516 20.2088 9.58636 20.438 9.58636 20.7003L11.3819 21.2344L13.909 20.7003C13.909 20.438 13.424 20.3068 12.454 20.3068V18.7133C13.5484 18.0463 14.5378 17.1236 14.4585 16.3359C14.5601 15.9505 14.2208 15.2441 14.5378 15.1132C14.92 14.9235 15.0789 15.39 15.652 15.1132C15.8521 14.7498 16.0968 14.0863 16.8429 13.9018C17.7707 13.9018 18.2121 12.7965 18.1672 10.5859L19.0588 10.1698C19.4485 10.9567 21.0371 10.686 20.5599 10.231ZM3.99879 9.46432C3.62486 9.58638 3.40404 9.77323 3.31765 10.1757C3.38524 10.3819 3.53632 10.7855 3.65695 11.15C3.17618 12.2706 3.65695 14.169 3.65695 14.7341C3.65695 15.2992 4.37367 15.8484 4.91564 16.1038C5.45761 16.3591 5.31898 15.8096 5.4968 15.604C6.02151 14.9971 5.88122 15.1597 6.32072 14.4788C6.83716 13.6786 7.17187 13.8807 7.17187 12.6963C6.93614 11.15 5.6813 10.4606 5.42688 10.3238C5.65819 10.2571 5.4968 9.46432 5.4968 9.46432C4.9098 8.4037 4.37522 8.7398 3.99879 9.46432Z" fill="white"/>
</svg>
