
<svg width="113" height="30" viewBox="0 0 113 30" fill="none" xmlns="http://www.w3.org/2000/svg">
<path d="M111.052 28.7131C110.973 28.7132 110.895 28.6942 110.825 28.6577C110.503 28.4762 110.222 28.2308 110 27.9367C109.894 27.7962 109.807 27.6419 109.743 27.4782C109.718 27.4072 109.676 27.3431 109.621 27.2914C109.566 27.2397 109.5 27.2018 109.427 27.1808C109.354 27.1598 109.277 27.1564 109.203 27.1709C109.129 27.1853 109.059 27.2171 109 27.2638L108.628 27.5558C108.304 27.8321 107.957 28.0795 107.59 28.2953C107.198 28.5185 106.781 28.6959 106.348 28.824C105.833 28.9693 105.299 29.039 104.764 29.0311C104.255 29.0351 103.751 28.9435 103.276 28.7612C102.852 28.6017 102.467 28.3544 102.147 28.0356C101.826 27.7169 101.577 27.3341 101.417 26.9125C101.244 26.4694 101.157 25.9977 101.16 25.5223C101.155 24.9562 101.282 24.3966 101.532 23.888C101.778 23.3886 102.119 22.9415 102.536 22.5718C102.973 22.1729 103.456 21.8277 103.975 21.5439C104.546 21.2372 105.138 20.9704 105.746 20.7453C106.374 20.5123 107.017 20.3053 107.683 20.1204C108.224 19.9725 108.752 19.832 109.267 19.6989C109.369 19.674 109.458 19.616 109.523 19.5342C109.587 19.4524 109.621 19.3515 109.621 19.2478V18.7302C109.629 18.1858 109.581 17.642 109.479 17.1071C109.413 16.7263 109.267 16.3636 109.052 16.0422C108.868 15.7797 108.609 15.5786 108.308 15.4654C107.964 15.344 107.601 15.2863 107.237 15.2954C106.859 15.2909 106.486 15.3705 106.144 15.5283C105.815 15.681 105.517 15.8928 105.266 16.1531C105.008 16.4226 104.798 16.734 104.645 17.0738C104.535 17.3116 104.448 17.5592 104.385 17.8133C104.363 17.9173 104.306 18.0109 104.224 18.0783C104.141 18.1456 104.038 18.1826 103.931 18.183H102.321C102.247 18.1826 102.175 18.1652 102.11 18.1323C102.045 18.0993 101.988 18.0518 101.944 17.9933C101.901 17.9349 101.871 17.8671 101.859 17.7955C101.846 17.7238 101.85 17.6501 101.871 17.5803C101.98 17.2141 102.151 16.869 102.376 16.5599C102.729 16.079 103.172 15.6709 103.682 15.3582C104.238 15.0231 104.842 14.7738 105.474 14.6187C106.153 14.4442 106.852 14.3573 107.553 14.3599C108.336 14.343 109.118 14.4326 109.877 14.6261C110.427 14.7639 110.942 15.016 111.387 15.3656C111.765 15.6829 112.048 16.0973 112.205 16.5636C112.373 17.0577 112.454 17.5766 112.447 18.098V26.7868C112.438 27.2007 112.569 27.6056 112.819 27.9367C112.876 28.0055 112.912 28.0892 112.922 28.1777C112.933 28.2662 112.917 28.3558 112.878 28.436C112.839 28.5162 112.778 28.5835 112.701 28.63C112.625 28.6765 112.536 28.7002 112.447 28.6983L111.052 28.7131ZM109.621 21.1742C109.62 21.0996 109.602 21.026 109.568 20.9597C109.534 20.8934 109.484 20.8362 109.423 20.7928C109.362 20.7494 109.291 20.7212 109.217 20.7103C109.143 20.6995 109.067 20.7064 108.996 20.7305L108.36 20.9634C107.929 21.1298 107.505 21.3332 107.088 21.5217C106.672 21.7103 106.277 21.9506 105.898 22.1873C105.541 22.4102 105.207 22.6678 104.901 22.9563C104.634 23.2108 104.405 23.5037 104.225 23.8252C104.061 24.1143 103.976 24.4402 103.975 24.7717C103.972 25.1092 104.038 25.4438 104.169 25.7552C104.293 26.0527 104.467 26.3276 104.682 26.5686C104.891 26.7986 105.144 26.9847 105.426 27.1159C105.693 27.2471 105.987 27.3154 106.285 27.3155C106.588 27.3167 106.89 27.2756 107.181 27.1935C107.468 27.1102 107.746 26.9975 108.01 26.857C108.283 26.7016 108.547 26.5325 108.802 26.3505C109.011 26.2063 109.219 26.0584 109.431 25.8994C109.489 25.8566 109.537 25.8009 109.569 25.7367C109.602 25.6726 109.62 25.6017 109.621 25.5297V21.1742Z" fill="white"/>
<path d="M61.1207 12.7292L66.5352 24.0654C66.5726 24.1464 66.6326 24.215 66.7081 24.2631C66.7836 24.3112 66.8713 24.3368 66.961 24.3368C67.0506 24.3368 67.1384 24.3112 67.2139 24.2631C67.2894 24.215 67.3494 24.1464 67.3868 24.0654L73.2811 10.7548C73.3191 10.6727 73.3799 10.603 73.4563 10.5539C73.5326 10.5048 73.6215 10.4783 73.7124 10.4775H74.1513C74.2292 10.4777 74.3059 10.4971 74.3743 10.5342C74.4428 10.5712 74.5009 10.6246 74.5434 10.6896C74.5858 10.7546 74.6113 10.8291 74.6175 10.9063C74.6237 10.9836 74.6105 11.0611 74.5789 11.132L66.6691 28.8794C66.6328 28.962 66.573 29.0323 66.497 29.0816C66.421 29.1309 66.3321 29.157 66.2414 29.1567H66.0406C65.9518 29.1568 65.8649 29.1318 65.7898 29.0847C65.7147 29.0376 65.6547 28.9702 65.6167 28.8905L57.1155 11.1431C57.0816 11.072 57.0664 10.9936 57.0712 10.9151C57.076 10.8366 57.1007 10.7606 57.143 10.6941C57.1853 10.6277 57.2439 10.573 57.3132 10.5351C57.3825 10.4973 57.4604 10.4774 57.5395 10.4775C58.2894 10.478 59.0238 10.6898 59.6577 11.0883C60.2915 11.4869 60.7987 12.0558 61.1207 12.7292Z" fill="white"/>
<path d="M77.0997 9.23895C77.0983 9.02701 77.14 8.81698 77.2224 8.62149C77.3862 8.23664 77.6943 7.93032 78.0814 7.7674C78.4806 7.60488 78.928 7.60488 79.3272 7.7674C79.517 7.84962 79.6898 7.96622 79.8367 8.11125C79.9842 8.25738 80.1017 8.43069 80.1825 8.62149C80.2659 8.81745 80.3088 9.02804 80.3088 9.2408C80.3088 9.45356 80.2659 9.66416 80.1825 9.86011C80.0168 10.2416 79.7109 10.5458 79.3272 10.7105C79.1301 10.7934 78.9183 10.8361 78.7043 10.8361C78.4903 10.8361 78.2785 10.7934 78.0814 10.7105C77.8895 10.6301 77.7152 10.5133 77.5682 10.3667C77.4224 10.2206 77.3051 10.0488 77.2224 9.86011C77.1397 9.66342 77.098 9.45212 77.0997 9.23895ZM77.6203 15.0475L79.2231 14.4042C79.2787 14.3822 79.338 14.3709 79.3979 14.3709H79.6545C79.7787 14.3709 79.8979 14.42 79.9858 14.5074C80.0737 14.5947 80.123 14.7132 80.123 14.8368V28.2471C80.1221 28.3704 80.0724 28.4883 79.9847 28.5755C79.897 28.6627 79.7784 28.712 79.6545 28.713H77.7951C77.6705 28.713 77.5509 28.6641 77.4624 28.5768C77.374 28.4895 77.3238 28.371 77.3228 28.2471V15.4801C77.3245 15.387 77.3536 15.2964 77.4064 15.2196C77.4593 15.1427 77.5336 15.0829 77.6203 15.0475Z" fill="white"/>
<path d="M94.6784 28.2471C94.6786 28.1637 94.6563 28.0819 94.6139 28.01C94.5714 27.9382 94.5104 27.879 94.4371 27.8386C94.3638 27.7982 94.2809 27.778 94.1971 27.7803C94.1133 27.7826 94.0317 27.8071 93.9607 27.8515C93.8529 27.918 93.7413 27.9846 93.6297 28.0437C93.2504 28.2502 92.8549 28.4257 92.4472 28.5688C92.0428 28.7076 91.629 28.8176 91.2088 28.8978C90.808 28.9746 90.4009 29.0142 89.9928 29.0161C89.1788 29.0209 88.3768 28.8212 87.6611 28.4356C86.9319 28.0478 86.2872 27.52 85.7645 26.8827C85.2103 26.2032 84.7776 25.4341 84.4853 24.6089C84.1707 23.7282 84.0122 22.8 84.0167 21.8654C84.0178 20.9083 84.2179 19.9617 84.6043 19.085C84.9896 18.197 85.5311 17.3844 86.2033 16.6854C86.8779 15.9845 87.6773 15.4141 88.561 15.0031C89.4621 14.5808 90.447 14.3648 91.4431 14.3708C92.0643 14.3608 92.6801 14.4871 93.2467 14.7406C93.4913 14.8544 93.7274 14.9854 93.9533 15.1325C94.0223 15.1789 94.1025 15.206 94.1857 15.211C94.2688 15.2161 94.3518 15.1988 94.4259 15.161C94.5 15.1232 94.5625 15.0663 94.607 14.9962C94.6514 14.9262 94.6761 14.8455 94.6784 14.7628V8.56596C94.6784 8.47294 94.7063 8.38202 94.7587 8.30492C94.811 8.22782 94.8854 8.16807 94.9722 8.13337L96.5862 7.49373C96.6432 7.47202 96.7036 7.46074 96.7647 7.46045H97.0213C97.1455 7.46045 97.2647 7.50953 97.3526 7.5969C97.4405 7.68427 97.4898 7.80276 97.4898 7.92632V28.2619C97.4889 28.3851 97.4392 28.5031 97.3515 28.5902C97.2639 28.6774 97.1452 28.7268 97.0213 28.7277H95.1619C95.0379 28.7268 94.9193 28.6774 94.8316 28.5902C94.744 28.5031 94.6943 28.3851 94.6933 28.2619L94.6784 28.2471ZM94.6784 19.1146C94.6866 18.5966 94.5813 18.0831 94.3698 17.6097C94.1739 17.1731 93.8991 16.7758 93.5591 16.4377C93.2373 16.1235 92.8588 15.8727 92.4434 15.6982C91.9918 15.4984 91.4992 15.4073 91.0055 15.4323C90.5119 15.4574 90.0311 15.5979 89.6023 15.8424C89.0957 16.1319 88.6591 16.5282 88.323 17.0034C87.9356 17.5475 87.6428 18.1524 87.4566 18.7929C87.2378 19.536 87.1313 20.3073 87.1405 21.0816C87.1339 21.933 87.2504 22.781 87.4863 23.5995C87.6924 24.314 88.0085 24.9925 88.4234 25.6109C88.792 26.1617 89.2721 26.6301 89.8329 26.9863C90.3521 27.3137 90.9546 27.4869 91.5695 27.4854C91.8707 27.4851 92.1706 27.4466 92.462 27.3708C92.755 27.2943 93.0391 27.1877 93.3099 27.0528C93.5709 26.922 93.8197 26.7685 94.0537 26.5944C94.2253 26.4689 94.3869 26.3304 94.5371 26.1802C94.5799 26.1376 94.6135 26.0868 94.6358 26.0309C94.6582 25.9749 94.6689 25.9151 94.6673 25.8549L94.6784 19.1146Z" fill="white"/>
<path d="M32.1585 17.9499C29.2984 20.0047 26.9228 22.6543 25.197 25.7144C24.5053 26.9419 23.8805 28.2767 22.7575 29.127C21.8737 29.752 20.79 30.0328 19.7118 29.9163C18.6336 29.7998 17.6359 29.294 16.9078 28.4948C16.1194 27.5594 15.7662 26.3503 15.2641 25.2411C13.7357 21.8728 12.2556 20.1202 8.97939 18.3825C6.25352 16.9442 3.13718 15.8276 1.38564 13.2986C1.32986 13.2209 1.27779 13.1396 1.22573 13.0546C-2.40008 7.33473 2.54218 -0.41866 9.19508 0.0176301C10.4415 0.12412 11.6506 0.494657 12.741 1.10434C13.8314 1.71402 14.778 2.54871 15.517 3.55232C17.8821 6.74315 17.2685 11.2983 17.3764 15.0142C17.4359 17.2511 18.5924 19.4177 21.1361 19.4177C21.7322 19.3901 22.314 19.2276 22.8374 18.9424C23.3607 18.6573 23.8116 18.2571 24.1557 17.7724C26.3052 15.0179 26.4167 10.496 29.9831 8.89872C30.8336 8.54784 31.7741 8.47406 32.6694 8.68797C33.5648 8.90188 34.3689 9.39248 34.9662 10.0893C35.5335 10.8112 35.865 11.6885 35.9162 12.6032C35.9673 13.518 35.7358 14.4264 35.2526 15.2064C34.5125 16.397 33.2816 17.1402 32.1585 17.9499ZM52.8498 24.8085C52.53 24.2946 52.4779 23.7659 52.2734 23.1595C51.9654 22.2685 51.3977 21.4889 50.6427 20.9197C49.8876 20.3505 48.9793 20.0175 48.0333 19.9632C47.0873 19.9089 46.1464 20.1356 45.3304 20.6145C44.5145 21.0934 43.8603 21.8029 43.4511 22.6526C43.0419 23.5024 42.8962 24.454 43.0327 25.3862C43.1691 26.3185 43.5814 27.1894 44.2172 27.888C44.8529 28.5865 45.6834 29.0813 46.6028 29.3092C47.5222 29.5371 48.489 29.4878 49.3802 29.1677C49.8265 29.005 50.3657 28.7351 50.8491 28.8497C51.0304 28.9043 51.205 28.9787 51.3698 29.0716C52.4259 29.5522 53.3853 29.1825 53.9952 28.2471C54.1536 28.0014 54.2439 27.7185 54.2569 27.427C54.27 27.1354 54.2054 26.8457 54.0696 26.587C53.7609 25.9325 53.2254 25.4186 52.8498 24.8085ZM46.4572 13.1544C46.4572 12.2719 46.1046 11.4255 45.477 10.8014C44.8493 10.1773 43.998 9.82676 43.1103 9.82676C42.5152 9.81298 41.9286 9.96898 41.4198 10.2763C40.911 10.5836 40.5014 11.0293 40.2394 11.5608C39.0234 14.112 39.6891 16.9664 36.833 18.5156C35.5538 19.207 34.1109 19.5287 32.8242 20.1905C31.9919 20.6272 31.2961 21.2824 30.8122 22.0849C30.3283 22.8873 30.075 23.8063 30.0797 24.742C30.0797 29.1307 35.9331 31.8446 39.0829 28.517C40.4998 27.038 40.6188 24.8196 40.8902 22.8859C41.2138 20.5676 42.3963 19.1478 43.7834 17.3398C44.7615 16.0383 46.4572 14.9291 46.4572 13.1544ZM38.3615 5.59327C38.0255 5.54904 37.6841 5.61059 37.3851 5.76925C37.0862 5.92791 36.8447 6.17572 36.6947 6.47785C36.5447 6.77998 36.4937 7.12124 36.5489 7.45368C36.604 7.78612 36.7625 8.09303 37.0022 8.33127C37.2418 8.56952 37.5505 8.72712 37.8848 8.78195C38.2192 8.83677 38.5624 8.78605 38.8663 8.63692C39.1702 8.48779 39.4194 8.24774 39.579 7.95051C39.7386 7.65327 39.8005 7.3138 39.756 6.97978C39.7092 6.62839 39.5472 6.30212 39.2951 6.05148C39.043 5.80084 38.7149 5.63979 38.3615 5.59327Z" fill="white"/>
<mask id="mask0_1620_3430" style="mask-type:luminance" maskUnits="userSpaceOnUse" x="0" y="0" width="55" height="30">
<path d="M32.1585 17.9499C29.2984 20.0047 26.9228 22.6543 25.197 25.7144C24.5053 26.9419 23.8805 28.2767 22.7575 29.127C21.8737 29.752 20.79 30.0328 19.7118 29.9163C18.6336 29.7998 17.6359 29.294 16.9078 28.4948C16.1194 27.5594 15.7662 26.3503 15.2641 25.2411C13.7357 21.8728 12.2556 20.1202 8.97939 18.3825C6.25352 16.9442 3.13718 15.8276 1.38564 13.2986C1.32986 13.2209 1.27779 13.1396 1.22573 13.0546C-2.40008 7.33473 2.54218 -0.41866 9.19508 0.0176301C10.4415 0.12412 11.6506 0.494657 12.741 1.10434C13.8314 1.71402 14.778 2.54871 15.517 3.55232C17.8821 6.74315 17.2685 11.2983 17.3764 15.0142C17.4359 17.2511 18.5924 19.4177 21.1361 19.4177C21.7322 19.3901 22.314 19.2276 22.8374 18.9424C23.3607 18.6573 23.8116 18.2571 24.1557 17.7724C26.3052 15.0179 26.4167 10.496 29.9831 8.89872C30.8336 8.54784 31.7741 8.47406 32.6694 8.68797C33.5648 8.90188 34.3689 9.39248 34.9662 10.0893C35.5335 10.8112 35.865 11.6885 35.9162 12.6032C35.9673 13.518 35.7358 14.4264 35.2526 15.2064C34.5125 16.397 33.2816 17.1402 32.1585 17.9499ZM52.8498 24.8085C52.53 24.2946 52.4779 23.7659 52.2734 23.1595C51.9654 22.2685 51.3977 21.4889 50.6427 20.9197C49.8876 20.3505 48.9793 20.0175 48.0333 19.9632C47.0873 19.9089 46.1464 20.1356 45.3304 20.6145C44.5145 21.0934 43.8603 21.8029 43.4511 22.6526C43.0419 23.5024 42.8962 24.454 43.0327 25.3862C43.1691 26.3185 43.5814 27.1894 44.2172 27.888C44.8529 28.5865 45.6834 29.0813 46.6028 29.3092C47.5222 29.5371 48.489 29.4878 49.3802 29.1677C49.8265 29.005 50.3657 28.7351 50.8491 28.8497C51.0304 28.9043 51.205 28.9787 51.3698 29.0716C52.4259 29.5522 53.3853 29.1825 53.9952 28.2471C54.1536 28.0014 54.2439 27.7185 54.2569 27.427C54.27 27.1354 54.2054 26.8457 54.0696 26.587C53.7609 25.9325 53.2254 25.4186 52.8498 24.8085ZM46.4572 13.1544C46.4572 12.2719 46.1046 11.4255 45.477 10.8014C44.8493 10.1773 43.998 9.82676 43.1103 9.82676C42.5152 9.81298 41.9286 9.96898 41.4198 10.2763C40.911 10.5836 40.5014 11.0293 40.2394 11.5608C39.0234 14.112 39.6891 16.9664 36.833 18.5156C35.5538 19.207 34.1109 19.5287 32.8242 20.1905C31.9919 20.6272 31.2961 21.2824 30.8122 22.0849C30.3283 22.8873 30.075 23.8063 30.0797 24.742C30.0797 29.1307 35.9331 31.8446 39.0829 28.517C40.4998 27.038 40.6188 24.8196 40.8902 22.8859C41.2138 20.5676 42.3963 19.1478 43.7834 17.3398C44.7615 16.0383 46.4572 14.9291 46.4572 13.1544ZM38.3615 5.59327C38.0255 5.54904 37.6841 5.61059 37.3851 5.76925C37.0862 5.92791 36.8447 6.17572 36.6947 6.47785C36.5447 6.77998 36.4937 7.12124 36.5489 7.45368C36.604 7.78612 36.7625 8.09303 37.0022 8.33127C37.2418 8.56952 37.5505 8.72712 37.8848 8.78195C38.2192 8.83677 38.5624 8.78605 38.8663 8.63692C39.1702 8.48779 39.4194 8.24774 39.579 7.95051C39.7386 7.65327 39.8005 7.3138 39.756 6.97978C39.7092 6.62839 39.5472 6.30212 39.2951 6.05148C39.043 5.80084 38.7149 5.63979 38.3615 5.59327Z" fill="white"/>
</mask>
<g mask="url(#mask0_1620_3430)">
<path d="M-3.80566 -2.45959L-3.80566 39.4058L55.7469 39.4058V-2.45959L-3.80566 -2.45959Z" fill="white"/>
<mask id="mask1_1620_3430" style="mask-type:luminance" maskUnits="userSpaceOnUse" x="-4" y="-3" width="60" height="43">
<path d="M-3.80566 -2.45959L-3.80566 39.4058L55.7469 39.4058V-2.45959L-3.80566 -2.45959Z" fill="white"/>
</mask>
<g mask="url(#mask1_1620_3430)">
<g style="mix-blend-mode:soft-light">
<path d="M14.152 44.4674C21.9615 43.5763 30.946 36.2999 30.3659 28.9754C30.113 25.7993 28.8375 23.0374 26.1786 21.5806C23.3895 20.061 20.1021 22.1279 16.5097 18.3972C13.6649 15.4393 13.5979 10.4848 11.8427 6.93535C10.0391 3.22319 6.74794 1.60744 2.66844 1.9476C-5.84385 2.68707 -13.2554 9.1279 -12.5153 21.5991C-11.7753 34.0704 -14.7503 47.7433 14.152 44.4674Z" fill="white"/>
</g>
<g style="mix-blend-mode:soft-light">
<path d="M35.3154 47.137C44.802 46.49 59.6139 29.4599 44.3372 22.2685C34.1105 17.4767 22.2104 29.1012 17.2682 23.8546C8.84142 14.907 23.9843 0.612954 16.0521 -5.94249C3.57935 -16.2471 -15.9219 0.317165 -15.7211 15.4024C-15.5203 30.4877 0.269634 49.5255 35.3154 47.137Z" fill="white"/>
</g>
<g style="mix-blend-mode:soft-light">
<path d="M37.9077 4.6244C39.689 6.1773 42.0728 3.91451 40.3472 2.28027C38.8597 0.875265 36.5727 3.45973 37.9077 4.6244Z" fill="white"/>
</g>
<g style="mix-blend-mode:soft-light">
<path d="M2.12936 8.39956C0.154684 11.8788 6.59189 16.9775 9.63757 12.7735C12.6833 8.56963 5.65476 2.18427 2.12936 8.39956Z" fill="white"/>
</g>
<g style="mix-blend-mode:soft-light">
<path d="M14.6762 3.64095C14.7394 3.75813 14.8262 3.86112 14.9312 3.9435C15.0362 4.02588 15.1571 4.08588 15.2865 4.11977C15.4158 4.15366 15.5508 4.16071 15.683 4.14049C15.8151 4.12026 15.9417 4.0732 16.0548 4.00221C16.1679 3.93123 16.2651 3.83786 16.3404 3.72791C16.4156 3.61795 16.4672 3.49378 16.4921 3.36312C16.517 3.23246 16.5145 3.0981 16.4849 2.96843C16.4552 2.83875 16.3991 2.71653 16.3199 2.60938C15.5166 1.6 13.9994 2.55022 14.6762 3.64095Z" fill="white"/>
</g>
<g style="mix-blend-mode:soft-light">
<path d="M19.9789 23.8326C20.6558 24.0693 20.7933 23.2189 20.1574 23.1523C19.5215 23.0857 19.6071 23.6921 19.9789 23.8326Z" fill="white"/>
</g>
<g style="mix-blend-mode:soft-light">
<path d="M47.7694 27.6259C48.2268 31.5007 56.3784 30.8204 54.9838 25.9953C53.5893 21.1703 47.2153 22.9117 47.7694 27.6259Z" fill="white"/>
</g>
<g style="mix-blend-mode:soft-light">
<path d="M41.5669 11.0247C42.9837 23.0856 68.3421 20.9707 64.0246 5.95564C59.7071 -9.05939 39.8413 -3.65013 41.5669 11.0247Z" fill="white"/>
</g>
<g style="mix-blend-mode:multiply" opacity="0.24">
<path d="M-13.739 39.9529C-12.1883 53.1747 15.6393 50.8527 10.8756 34.4068C6.11181 17.9609 -15.6319 23.8693 -13.739 39.9529Z" fill="white"/>
</g>
</g>
</g>
</svg>
