<svg xmlns="http://www.w3.org/2000/svg" viewBox="0 0 15 15" fill="none">
    <path fill-rule="evenodd" clip-rule="evenodd" d="M14.9994 7.5L14.9997 7.12109L15 7V6.76221V6.72461V4C15 1.79086 13.2091 0 11 0H8.3373H8.15641H8L7.87817 0.000244141L7.5 0.000488281L7.12114 0.000244141L7 0H4C1.79086 0 0 1.79086 0 4V7L0.000278473 7.12183L0.000556946 7.5L0.000278473 7.87817L0 8V11C0 13.2091 1.79086 15 4 15H6V9H4.5V6.75H6V5.625C6 4.1775 7.1775 3 8.625 3H10.5V5.25H8.625C8.42175 5.25 8.25 5.42175 8.25 5.625V6.75H10.5L10.125 9H8.25V15H11C13.2091 15 15 13.2091 15 11V8.60254C15.0005 8.40771 15.0003 8.21289 15 8.01782V8L14.9994 7.5Z" fill="#000000"/>
  </svg>