<svg xmlns="http://www.w3.org/2000/svg" viewBox="0 0 15 16" fill="none">
    <path d="M4.99706 8C4.99706 6.6228 6.12094 5.49902 7.49812 5.49902C8.87531 5.49902 9.99919 6.6228 9.99919 8C9.99919 9.3772 8.87531 10.501 7.49812 10.501C6.12094 10.501 4.99706 9.3772 4.99706 8Z" fill="#828282"/>
    <path fill-rule="evenodd" clip-rule="evenodd" d="M14.9997 7.62109L14.9994 8L15 8.5V8.51782C15.0003 8.71289 15.0005 8.90771 15 9.10254V11.5C15 13.7091 13.2091 15.5 11 15.5H8L7.87882 15.4998L7.5 15.4995L7.12186 15.4998L7 15.5H4C1.79086 15.5 0 13.7091 0 11.5V8.5L0.000278473 8.37817L0.000556946 8L0.000278473 7.62183L0 7.5V4.5C0 2.29086 1.79086 0.5 4 0.5H7L7.12114 0.500244L7.5 0.500488L7.87817 0.500244C7.91886 0.500244 7.95933 0.5 8 0.5C8.05208 0.5 8.10435 0.5 8.15641 0.5C8.21672 0.5 8.27702 0.5 8.3373 0.5H11C13.2091 0.5 15 2.29086 15 4.5V7.22461C15 7.23706 15 7.24976 15 7.26221C15 7.34131 15.0001 7.4209 15 7.5C15 7.54053 14.9998 7.58057 14.9997 7.62109ZM3.6499 8C3.6499 10.1296 5.36856 11.8481 7.49812 11.8481C9.62769 11.8481 11.3463 10.1296 11.3463 8C11.3463 5.87036 9.62769 4.15186 7.49812 4.15186C5.36856 4.15186 3.6499 5.87036 3.6499 8ZM10.6052 3.99414C10.6052 4.49146 11.0067 4.89282 11.504 4.89282C12.0012 4.89282 12.4008 4.49316 12.4027 3.99414C12.4027 3.49707 12.0012 3.09546 11.504 3.09546C11.0067 3.09546 10.6052 3.49707 10.6052 3.99414Z" fill="#828282"/>
  </svg>