<svg xmlns="http://www.w3.org/2000/svg" viewBox="0 0 15 16" fill="none">
    <path fill-rule="evenodd" clip-rule="evenodd" d="M14.9994 8L14.9997 7.62109L15 7.5V7.26221V7.22461V4.5C15 2.29086 13.2091 0.5 11 0.5H8.3373H8.15641H8L7.87817 0.500244L7.5 0.500488L7.12114 0.500244L7 0.5H4C1.79086 0.5 0 2.29086 0 4.5V7.5L0.000278473 7.62183L0.000556946 8L0.000278473 8.37817L0 8.5V11.5C0 13.7091 1.79086 15.5 4 15.5H7L7.12186 15.4998L7.5 15.4995L7.87882 15.4998L8 15.5H11C13.2091 15.5 15 13.7091 15 11.5V9.10254C15.0005 8.90771 15.0003 8.71289 15 8.51782V8.5L14.9994 8ZM9.30533 6.53982C9.94744 6.98732 10.7092 7.22582 11.4889 7.22344L11.5 7.22254V5.63899C10.9318 5.64655 10.3839 5.42547 9.9768 5.02436C9.56967 4.62325 9.33662 4.07495 9.32889 3.5H7.70978V9.64711C7.70978 9.89822 7.63661 10.1438 7.49942 10.353C7.36222 10.5623 7.1671 10.7259 6.93846 10.8235C6.70982 10.9212 6.45781 10.9484 6.21396 10.9018C5.97011 10.8552 5.74524 10.7369 5.5675 10.5617C5.38975 10.3864 5.26702 10.1621 5.21464 9.9166C5.16227 9.67114 5.18259 9.4155 5.27305 9.18166C5.36351 8.94783 5.52011 8.74618 5.72325 8.60194C5.92638 8.4577 6.16704 8.37728 6.41511 8.37073C6.57046 8.37066 6.72463 8.39805 6.87067 8.45169V6.81237C6.7159 6.78723 6.55941 6.77459 6.40267 6.77459C5.64298 6.76438 4.9104 7.05995 4.36606 7.59628C3.82171 8.13261 3.51019 8.86578 3.5 9.63452C3.51875 10.4009 3.83279 11.1296 4.3751 11.665C4.91741 12.2003 5.64504 12.5 6.40267 12.5C7.1603 12.5 7.88792 12.2003 8.43023 11.665C8.97254 11.1296 9.28659 10.4009 9.30533 9.63452V6.53982Z" fill="#828282"/>
  </svg>