<svg xmlns="http://www.w3.org/2000/svg" viewBox="0 0 15 16" fill="none">
    <path fill-rule="evenodd" clip-rule="evenodd" d="M14.9994 8L14.9997 7.62109L15 7.5V7.26221V7.22461V4.5C15 2.29086 13.2091 0.5 11 0.5H8.3373H8.15641H8L7.87817 0.500244L7.5 0.500488L7.12114 0.500244L7 0.5H4C1.79086 0.5 0 2.29086 0 4.5V7.5L0.000278473 7.62183L0.000556946 8L0.000278473 8.37817L0 8.5V11.5C0 13.7091 1.79086 15.5 4 15.5H7L7.12186 15.4998L7.5 15.4995L7.87882 15.4998L8 15.5H11C13.2091 15.5 15 13.7091 15 11.5V9.10254C15.0005 8.90771 15.0003 8.71289 15 8.51782V8.5L14.9994 8ZM8.35307 7.22861L11.4221 11.7677L12.08 12.7413H9.38211L9.2002 12.4725L6.85458 9.003L6.85437 9.0027L3.69828 12.7404H2.91992L6.50738 8.48989L3.58832 4.17256L2.93042 3.19922H5.62828L5.81019 3.4683L8.00595 6.71509L10.3106 3.98448L10.9769 3.19922H11.7552L8.35295 7.22845L8.35307 7.22861ZM7.59438 7.20247L7.59446 7.2026L7.59443 7.20263L7.94143 7.71568L7.94146 7.71564L10.9192 12.1196L9.7025 12.1198L7.26581 8.51562L7.26567 8.51542L7.26603 8.515L6.91903 8.00195L6.91867 8.00238L4.09124 3.82043H5.30758L7.59438 7.20247Z" fill="#000000"/>
  </svg>