<svg xmlns="http://www.w3.org/2000/svg" viewBox="0 0 15 16" fill="none">
    <path d="M9.5 7.98507L6.5 10V6L9.5 7.98507Z" fill="#000000"/>
    <path fill-rule="evenodd" clip-rule="evenodd" d="M14.9998 7.62109L14.9995 8L15 11.5C15 13.709 13.2092 15.5 11 15.5H7.87891L7.5 15.4995L7.12183 15.5H4C1.79077 15.5 0 13.709 0 11.5V8.5L0.000244141 8.37793L0.000488281 8L0.000244141 7.62207L0 7.5V4.5C0 2.29102 1.79077 0.5 4 0.5H7.12109L7.5 0.500488L7.87817 0.5H11C13.2092 0.5 15 2.29102 15 4.5V7.5L14.9998 7.62109ZM12 7.96973L11.999 7.88818L11.9939 7.59814C11.9858 7.29785 11.9719 6.99805 11.9497 6.71582C11.9197 6.32715 11.8755 6.00293 11.8152 5.75928C11.6865 5.24316 11.3088 4.8374 10.8279 4.69824C10.5435 4.61621 9.98706 4.56592 9.20361 4.53467C8.83081 4.51953 8.43213 4.50977 8.03345 4.50439C7.91269 4.50212 7.79938 4.50111 7.69569 4.5002L7.67358 4.5H7.32642L7.30431 4.5002C7.20062 4.50111 7.08731 4.50212 6.96655 4.50439C6.56787 4.50977 6.16919 4.51953 5.79639 4.53467C5.01294 4.56689 4.45557 4.61719 4.17212 4.69824C3.69214 4.83594 3.31348 5.24219 3.18481 5.75928C3.12354 6.00293 3.08032 6.32715 3.05029 6.71582C3.03687 6.88623 3.02661 7.0625 3.01855 7.2417C3.01343 7.35986 3.00928 7.479 3.0061 7.59814C3.00317 7.69727 3.00195 7.79004 3.00098 7.87354V7.88818L3 7.96973V8.03027L3.00098 8.11182L3.0061 8.40186C3.01416 8.70215 3.02808 9.00195 3.05029 9.28418C3.08032 9.67285 3.12451 9.99707 3.18481 10.2407C3.31348 10.7568 3.69116 11.1641 4.17212 11.3018C4.45557 11.3838 5.01294 11.4341 5.79639 11.4653C6.16919 11.4805 6.56787 11.4902 6.96655 11.4956L7.11694 11.4976L7.35229 11.5H7.67358L7.69569 11.4998C7.79938 11.4989 7.91269 11.4979 8.03345 11.4956C8.43213 11.4902 8.83081 11.4805 9.20361 11.4653C9.98706 11.4331 10.5444 11.3828 10.8279 11.3018C11.3088 11.1641 11.6865 10.7578 11.8152 10.2407C11.8765 9.99707 11.9197 9.67285 11.9497 9.28418C11.9719 9.00195 11.9858 8.70215 11.9939 8.40186C11.9968 8.30273 11.998 8.20996 11.999 8.12646V8.11182L12 8.03027V7.96973Z" fill="#000000"/>
  </svg>